<svg xmlns="http://www.w3.org/2000/svg" width="32" height="32" viewBox="0 0 32 32">
  <g fill="#662F90" fill-rule="evenodd">
    <path d="M16,22 C12.6866667,22 10,19.3133333 10,16 C10,12.6866667 12.6866667,10 16,10 C19.3133333,10 22,12.6866667 22,16 C22,19.3133333 19.3133333,22 16,22 M16,0 C7.164,0 0,7.164 0,16 C0,24.836 7.164,32 16,32 C24.836,32 32,24.836 32,16 C32,7.164 24.836,0 16,0"/>
    <path d="M16.4848485,16 C16.4848485,16.2674718 16.2681664,16.4848485 15.9995523,16.4848485 C15.7318336,16.4848485 15.5151515,16.2674718 15.5151515,16 C15.5151515,15.7325282 15.7318336,15.5151515 15.9995523,15.5151515 C16.2681664,15.5151515 16.4848485,15.7325282 16.4848485,16"/>
  </g>
</svg>
