<svg xmlns="http://www.w3.org/2000/svg" xmlns:xlink="http://www.w3.org/1999/xlink" width="31" height="32" viewBox="0 0 31 32">
  <defs>
    <polygon id="char1-a" points="30.72 10.33 30.72 20 0 20 0 10.33 0 .66 30.72 .66"/>
  </defs>
  <g fill="none" fill-rule="evenodd">
    <g transform="translate(0 11.132)">
      <mask id="char1-b" fill="#fff">
        <use xlink:href="#char1-a"/>
      </mask>
      <path fill="#662F90" d="M15.36,12.4961333 L0,0.660133333 L0,17.6921333 C0,18.9681333 0.99072,20.0001333 2.2144,20.0001333 L28.5056,20.0001333 C29.72928,20.0001333 30.72,18.9681333 30.72,17.6921333 L30.72,0.660133333 L15.36,12.4961333 Z" mask="url(#char1-b)"/>
    </g>
    <path fill="#662F90" d="M15.820032 13.3289333L15.820032 15.0236C16.412672 14.9182667 16.707072 14.6516 16.707072 14.2196 16.707072 14.0289333 16.634112 13.8689333 16.485632 13.7369333 16.338432 13.6062667 16.115712 13.4689333 15.820032 13.3289333M14.08256 10.0901333C14.08256 10.2901333 14.14912 10.4541333 14.28224 10.5834667 14.41536 10.7128 14.62912 10.8448 14.92608 10.9808L14.92608 9.38213333C14.36416 9.4688 14.08256 9.7048 14.08256 10.0901333"/>
    <path fill="#662F90" d="M15.820032,16.6421333 L15.820032,18.0368 L14.925312,18.0368 L14.925312,16.6701333 C13.862912,16.6461333 12.931072,16.4514667 12.129792,16.0848 L12.129792,14.2874667 C12.508672,14.4834667 12.965632,14.6554667 13.498112,14.8048 C14.031872,14.9541333 14.508032,15.0434667 14.925312,15.0701333 L14.925312,12.9608 L14.487552,12.7848 C13.626112,12.4301333 13.015552,12.0461333 12.655872,11.6314667 C12.296192,11.2168 12.116992,10.7021333 12.116992,10.0901333 C12.116992,9.4328 12.364032,8.89146667 12.858112,8.46746667 C13.352192,8.04346667 14.040832,7.78613333 14.925312,7.69546667 L14.925312,6.65413333 L15.820032,6.65413333 L15.820032,7.66746667 C16.817152,7.7128 17.719552,7.92213333 18.524672,8.29413333 L17.910272,9.88613333 C17.230592,9.59546667 16.534272,9.41946667 15.820032,9.35546667 L15.820032,11.3621333 C16.669952,11.7021333 17.272832,11.9981333 17.632512,12.2474667 C17.992192,12.4968 18.254592,12.7714667 18.422272,13.0701333 C18.589952,13.3688 18.674432,13.7194667 18.674432,14.1181333 C18.674432,14.8394667 18.424832,15.4194667 17.923072,15.8568 C17.422592,16.2941333 16.722432,16.5568 15.820032,16.6421333 M13.326592,0.698133333 L0.538112,10.5488 L15.360512,21.9688 L30.182912,10.5488 L17.393152,0.698133333 C16.184832,-0.232533333 14.534912,-0.232533333 13.326592,0.698133333"/>
  </g>
</svg>
