<svg xmlns="http://www.w3.org/2000/svg" xmlns:xlink="http://www.w3.org/1999/xlink" width="31" height="31" viewBox="0 0 31 31">
  <defs>
    <polygon id="mana1-a" points="17.382 21.333 0 21.333 0 1.249 17.382 1.249 17.382 21.333"/>
  </defs>
  <g fill="none" fill-rule="evenodd">
    <path fill="#662F90" d="M25.9047619 8.38095238C25.9047619 10.4858105 24.1985263 12.1904762 22.0945967 12.1904762 19.990667 12.1904762 18.2857143 10.4858105 18.2857143 8.38095238 18.2857143 6.27737694 19.990667 4.57142857 22.0945967 4.57142857 24.1985263 4.57142857 25.9047619 6.27737694 25.9047619 8.38095238M13.7142857 4.57142857C13.7142857 7.09629993 11.668021 9.14285714 9.14351048 9.14285714 6.61899998 9.14285714 4.57142857 7.09629993 4.57142857 4.57142857 4.57142857 2.04655722 6.61899998 0 9.14351048 0 11.668021 0 13.7142857 2.04655722 13.7142857 4.57142857"/>
    <g transform="translate(0 9.143)">
      <mask id="mana1-b" fill="#fff">
        <use xlink:href="#mana1-a"/>
      </mask>
      <path fill="#662F90" d="M10.5797486,1.24875294 L11.792701,1.24875294 C14.8793295,1.24875294 17.3820343,3.82381176 17.3820343,7.00122353 L17.3820343,15.5797333 L17.3820343,21.3334588 L1.62584381,21.3334588 C0.727405714,21.3334588 -0.000365714286,20.5830275 -0.000365714286,19.6594196 L-0.000365714286,15.5797333 L-0.000365714286,7.00122353 C-0.000365714286,3.82381176 2.50233905,1.24875294 5.58896762,1.24875294 L6.74706286,1.24875294 L8.69144381,4.88420392 L10.5797486,1.24875294 Z" mask="url(#mana1-b)"/>
    </g>
    <path fill="#662F90" d="M7.44582095,0.538253061 L6.41572571,0.538253061 L4.8126781,3.75262041 L3.16208762,0.538253061 L2.17953524,0.538253061 C1.78822095,0.538253061 1.41519238,0.603559184 1.05191619,0.698906122 C1.35789714,1.52698776 1.53344,2.42429388 1.53344,3.36862041 L1.53344,12.2972735 L1.53344,18.2858449 L10.4227352,18.2858449 C11.3991924,18.2858449 12.1903543,17.4368653 12.1903543,16.3932735 L12.1903543,13.2011102 L12.1903543,5.62298776 C12.1903543,2.81482449 10.0655543,0.538253061 7.44582095,0.538253061" transform="translate(18.286 12.19)"/>
  </g>
</svg>
