<svg xmlns="http://www.w3.org/2000/svg" width="33" height="32" viewBox="0 0 33 32">
  <path fill="#662F90" fill-rule="evenodd" d="M667.024209,692 L667.024209,694.122381 L647.030553,694.122381 L647.030553,692 L645.252776,692 L645.252776,694.122381 L645.252776,704.682194 L645.252776,706.582853 L641,706.582853 L641,709.254195 L646.692629,709.254195 L655.520077,716.725937 L646.927707,724 L649.677853,724 L656.895818,717.890642 L664.112447,724 L666.865264,724 L658.271559,716.725937 L667.097671,709.254195 L673.056098,709.254195 L673.056098,706.582853 L668.801987,706.582853 L668.801987,704.682194 L668.801987,694.122381 L668.801987,692 L667.024209,692 Z M647.030553,706.582853 L667.024209,706.582853 L667.024209,704.682194 L647.030553,704.682194 L647.030553,706.582853 Z M649.445446,709.254195 L664.347525,709.254195 L656.895818,715.561232 L649.445446,709.254195 Z" transform="translate(-641 -692)"/>
</svg>
