<svg xmlns="http://www.w3.org/2000/svg" xmlns:xlink="http://www.w3.org/1999/xlink" width="32" height="32" viewBox="0 0 32 32">
  <defs>
    <polygon id="theat1-a" points="32 31.999 32 0 0 0 0 31.999"/>
  </defs>
  <g fill="none" fill-rule="evenodd">
    <mask id="theat1-b" fill="#fff">
      <use xlink:href="#theat1-a"/>
    </mask>
    <path fill="#662F90" d="M28.9896,14.3008 C29.3042667,14.3568 29.6202667,14.4114667 29.9402667,14.4501333 C29.6202667,14.4101333 29.3042667,14.3581333 28.9896,14.3008 L28.9896,14.3008 Z M17.0269333,-0.000533333333 L14.9736,-0.000533333333 L2.75893333,-0.000533333333 C1.23493333,-0.000533333333 0.000266666667,1.23546667 0.000266666667,2.75946667 L0.000266666667,8.72213333 L0.000266666667,14.5848 L0.000266666667,29.2408 C0.000266666667,30.7648 1.23493333,31.9994667 2.75893333,31.9994667 L7.0416,31.9994667 C7.38426667,30.2954667 7.5856,28.5208 7.5856,26.6821333 C7.5856,21.9488 6.3656,17.5834667 4.3176,14.0181333 C9.6456,12.6434667 13.9736,8.8008 16.0002667,3.7688 C18.0656,8.89413333 22.5202667,12.7808 27.9856,14.0874667 C27.8842667,14.0634667 27.7816,14.0448 27.6829333,14.0181333 C25.6336,17.5834667 24.4136,21.9488 24.4136,26.6821333 C24.4136,28.5208 24.6162667,30.2954667 24.9589333,31.9994667 L29.2402667,31.9994667 C30.7656,31.9994667 32.0002667,30.7648 32.0002667,29.2408 L32.0002667,14.5848 C31.4882667,14.5848 30.9856,14.5514667 30.4869333,14.5061333 C30.9869333,14.5501333 31.4896,14.5848 32.0002667,14.5848 L32.0002667,9.5568 L32.0002667,2.75946667 C32.0002667,1.23546667 30.7656,-0.000533333333 29.2402667,-0.000533333333 L17.0269333,-0.000533333333 Z" mask="url(#theat1-b)"/>
    <path fill="#662F90" d="M21.3333333 32L16 32 16 29.3497675C16 28.8503982 16.4340366 28.4444444 16.9707087 28.4444444L20.3613881 28.4444444C20.8980601 28.4444444 21.3333333 28.8503982 21.3333333 29.3497675L21.3333333 32zM14.2222222 32L8.88888889 32 8.88888889 29.3497675C8.88888889 28.8503982 9.32416209 28.4444444 9.8595976 28.4444444L13.2502769 28.4444444C13.786949 28.4444444 14.2222222 28.8503982 14.2222222 29.3497675L14.2222222 32z"/>
  </g>
</svg>
