<svg id="Layer_1" data-name="Layer 1" xmlns="http://www.w3.org/2000/svg" xmlns:xlink="http://www.w3.org/1999/xlink" viewBox="0 0 193.6 60.4"><defs><style>.cls-1{fill:url(#linear-gradient);}.cls-2{fill:#fff;}.cls-3{fill:url(#linear-gradient-2);}</style><linearGradient id="linear-gradient" y1="1168.15" x2="60.3" y2="1168.15" gradientTransform="translate(0 -1138)" gradientUnits="userSpaceOnUse"><stop offset="0" stop-color="#fff"/><stop offset="0.69" stop-color="#f8d023"/><stop offset="0.93" stop-color="#f4bb1d"/><stop offset="1" stop-color="#f3b41b"/></linearGradient><linearGradient id="linear-gradient-2" y1="1168.2" x2="51.2" y2="1168.2" gradientTransform="translate(0 -1138)" gradientUnits="userSpaceOnUse"><stop offset="0.06" stop-color="#67308f"/><stop offset="0.25" stop-color="#94488b"/><stop offset="0.45" stop-color="#bd5d88"/><stop offset="0.63" stop-color="#da6d86"/><stop offset="0.79" stop-color="#ed7785"/><stop offset="0.9" stop-color="#f37a84"/></linearGradient></defs><title>Logo Upadated</title><g id="Layer_2" data-name="Layer 2"><g id="Layer_1-2" data-name="Layer 1-2"><path class="cls-1" d="M9.2,0H51.1a9.18,9.18,0,0,1,9.2,9.2V51.1a9.18,9.18,0,0,1-9.2,9.2H9.2A9.18,9.18,0,0,1,0,51.1V9.2A9.18,9.18,0,0,1,9.2,0Z"/><path class="cls-2" d="M30.2,1.8h0A28.38,28.38,0,0,0,1.8,30.2h0A28.38,28.38,0,0,0,30.2,58.6h0A28.38,28.38,0,0,0,58.6,30.2h0A28.51,28.51,0,0,0,30.2,1.8ZM45.5,30.2A15.3,15.3,0,0,1,30.2,45.5h0A15.3,15.3,0,0,1,14.9,30.2h0A15.3,15.3,0,0,1,30.2,14.9h0A15.3,15.3,0,0,1,45.5,30.2Z"/><path class="cls-3" d="M51.2,0,14.9,30.2,51.3,60.4H9.3A9.18,9.18,0,0,1,.1,51.2h0V9.2A9,9,0,0,1,9.2,0Z"/><path class="cls-2" d="M90.9,25.4a8.4,8.4,0,0,1-11.6,0A7.33,7.33,0,0,1,77,19.7,7.28,7.28,0,0,1,79.4,14,8.4,8.4,0,0,1,91,14a7.79,7.79,0,0,1,2.4,5.7A7.89,7.89,0,0,1,90.9,25.4Zm-1.1-5.7a4.91,4.91,0,0,0-1.3-3.5,4.32,4.32,0,0,0-6.2-.3l-.3.3a4.65,4.65,0,0,0-1.3,3.5A4.91,4.91,0,0,0,82,23.2a4.41,4.41,0,0,0,6.2.3l.3-.3A5.6,5.6,0,0,0,89.8,19.7Z"/><path class="cls-2" d="M107.1,12h3.5V27.5h-3.5l-7.4-9.7v9.7H96.2V12h3.2L107,22V12Z"/><path class="cls-2" d="M125.6,12v3.1h-7.7v3.2h7v3h-7v3.2h8v3.1H114.4V12Z"/><path class="cls-2" d="M145.5,13.4a5,5,0,0,1,1.6,4.3,5.05,5.05,0,0,1-1.7,4.2,7.7,7.7,0,0,1-5.1,1.3h-2.1v4.3h-3.5V12h5.5C142.7,12,144.4,12.5,145.5,13.4Zm-2.6,6.1a3,3,0,0,0,.6-2,2,2,0,0,0-.8-1.9,5.42,5.42,0,0,0-2.5-.6h-2v5.2h2.3A2.9,2.9,0,0,0,142.9,19.5Z"/><path class="cls-2" d="M160,27.5l-1.4-3.4H152l-1.4,3.4h-3.7L153.6,12H157l6.7,15.5Zm-4.7-10.9-2,4.5h3.9Z"/><path class="cls-2" d="M175.6,19.6H179v5.5a8.1,8.1,0,0,1-6.4,2.6,7.86,7.86,0,0,1-8-8,7.49,7.49,0,0,1,2.4-5.8,8.1,8.1,0,0,1,5.7-2.3,8.91,8.91,0,0,1,5.8,2.2l-1.8,2.6a8,8,0,0,0-1.9-1.3,6.28,6.28,0,0,0-1.9-.3,4.87,4.87,0,0,0-3.3,1.3,5,5,0,0,0-1.4,3.5,4.52,4.52,0,0,0,1.3,3.5,4,4,0,0,0,3.1,1.3,6.3,6.3,0,0,0,3-.7Z"/><path class="cls-2" d="M193.3,12v3.1h-7.7v3.2h7v3h-7v3.2h8v3.1H182.1V12Z"/><path class="cls-2" d="M81.2,37.1a1.23,1.23,0,0,0-.5,1,1.1,1.1,0,0,0,.6,1,11.42,11.42,0,0,0,2.6.9,7.29,7.29,0,0,1,3.2,1.5,3.56,3.56,0,0,1,1.1,2.9,4,4,0,0,1-1.4,3.1A5.76,5.76,0,0,1,83,48.7a9,9,0,0,1-6.2-2.5l1.9-2.3a6.43,6.43,0,0,0,4.3,2,2.3,2.3,0,0,0,1.4-.4,1.25,1.25,0,0,0,0-2,9,9,0,0,0-2.1-.8,10,10,0,0,1-3.7-1.5,3.85,3.85,0,0,1-1.2-3,3.66,3.66,0,0,1,1.4-3.1A5.57,5.57,0,0,1,82.5,34a9.29,9.29,0,0,1,2.9.5,7.68,7.68,0,0,1,2.5,1.4l-1.6,2.3a6.21,6.21,0,0,0-3.9-1.4A1.1,1.1,0,0,0,81.2,37.1Z"/><path class="cls-2" d="M100.8,35.5a4.93,4.93,0,0,1,1.5,4,4.51,4.51,0,0,1-1.6,3.9,7.37,7.37,0,0,1-4.8,1.2H94v4H90.8V34.2H96C98.2,34.2,99.8,34.6,100.8,35.5Zm-2.3,5.6a2.51,2.51,0,0,0,.5-1.9,1.93,1.93,0,0,0-.8-1.8,3.57,3.57,0,0,0-2.2-.5H94.1v4.8h2.2a2.52,2.52,0,0,0,2.2-.6Z"/><path class="cls-2" d="M116.9,46.6a7.86,7.86,0,0,1-10.7,0,7.54,7.54,0,0,1,0-10.6,7.86,7.86,0,0,1,10.7,0A7.54,7.54,0,0,1,116.9,46.6Zm-1.1-5.3a5,5,0,0,0-1.2-3.3,4,4,0,0,0-5.7-.3l-.3.3a5,5,0,0,0,0,6.5,4.11,4.11,0,0,0,5.8.3l.3-.3A4.47,4.47,0,0,0,115.8,41.3Z"/><path class="cls-2" d="M127.5,37V48.6h-3.2V37h-4.1V34.2h11.3V37Z"/><path class="cls-2" d="M133.9,48.6V34.2h3.2V45.7h6.1v2.9Z"/><path class="cls-2" d="M145.6,34.2h3.2V48.6h-3.2Z"/><path class="cls-2" d="M161.7,41.2h3.2v5.1a7.7,7.7,0,0,1-5.9,2.4,7.4,7.4,0,0,1-5.3-2.1,7.54,7.54,0,0,1,0-10.6,7,7,0,0,1,5.3-2.1,8.2,8.2,0,0,1,5.4,2l-1.7,2.4a4.75,4.75,0,0,0-3.6-1.5A4.3,4.3,0,0,0,156,38a5,5,0,0,0-.1,6.6,3.85,3.85,0,0,0,2.9,1.2,6.71,6.71,0,0,0,2.8-.6Z"/><path class="cls-2" d="M176.7,34.2h3.2V48.6h-3.2V42.9H171v5.7h-3.2V34.2H171v6h5.7Z"/><path class="cls-2" d="M189.5,37V48.6h-3.2V37h-4.1V34.2h11.4V37Z"/></g></g></svg>