<svg xmlns="http://www.w3.org/2000/svg" viewBox="0 0 271.43 123.45"><defs><style>.cls-1{fill:#f5f5f5;}.cls-2,.cls-3{fill:none;stroke:#333;stroke-miterlimit:10;}.cls-2{stroke-linecap:round;}.cls-4{fill:#f7d022;}.cls-5{fill:#333;}.cls-6{fill:#ddb91f;}.cls-7{fill:#c1c1c1;}</style></defs><title>Asset 2</title><g id="Layer_2" data-name="Layer 2"><g id="Layer_1-2" data-name="Layer 1"><path class="cls-1" d="M263.32,64.83H192.7c-6.78,0-9.54-3.59-9.54-8v-.18c0-4.43,2.77-8,9.58-8H215a8.1,8.1,0,0,0,8.1-8.1h0a8.1,8.1,0,0,0-8.1-8.1h-30.3c-5.5,0-10-3.59-10-8v-.18c0-4.42,4.45-8,9.94-8h1.18a8.1,8.1,0,1,0,0-16.21H50.15a8.1,8.1,0,0,0,0,16.21H79.21c5.49,0,9.94,3.6,9.94,8v.18c0,4.43-4.46,8-10,8H29.26a8.1,8.1,0,0,0-8.1,8.1h0a8.1,8.1,0,0,0,8.1,8.1H62.12c6.8,0,9.58,3.59,9.58,8v.18c0,4.42-2.76,8-9.54,8H50.91a8.1,8.1,0,1,0,0,16.21H61c5.09,0,9.21,3.59,9.21,8v.18c0,4.42-4.13,8-9.23,8H8.1a8.1,8.1,0,1,0,0,16.21H250.42a8.1,8.1,0,0,0,0-16.21H209.62c-5.1,0-9.23-3.59-9.23-8V89c0-4.42,4.12-8,9.21-8h53.72a8.1,8.1,0,1,0,0-16.21Z"/><line class="cls-2" x1="237.4" y1="113.6" x2="224.22" y2="113.6"/><line class="cls-2" x1="36.94" y1="35.64" x2="28.99" y2="35.64"/><line class="cls-2" x1="46.59" y1="38.29" x2="32.47" y2="38.29"/><line class="cls-3" x1="203.61" y1="87.76" x2="203" y2="87.76"/><line class="cls-2" x1="216.19" y1="87.76" x2="207.8" y2="87.76"/><line class="cls-2" x1="220.17" y1="90.41" x2="206.99" y2="90.41"/><line class="cls-2" x1="216.08" y1="13.83" x2="212.56" y2="13.83"/><line class="cls-2" x1="225.75" y1="13.83" x2="221.66" y2="13.83"/><line class="cls-2" x1="229.73" y1="16.48" x2="216.54" y2="16.48"/><line class="cls-2" x1="235.8" y1="16.48" x2="232.54" y2="16.48"/><line class="cls-2" x1="40.98" y1="96.43" x2="33.97" y2="96.43"/><line class="cls-2" x1="47.16" y1="96.43" x2="45.86" y2="96.43"/><line class="cls-2" x1="44.3" y1="99.09" x2="37.95" y2="99.09"/><line class="cls-2" x1="246.08" y1="113.6" x2="242.57" y2="113.6"/><path class="cls-2" d="M216.08,13.83a2.87,2.87,0,0,1,5.58,0"/><path class="cls-2" d="M41,96.43a2.82,2.82,0,0,1,4.89,0"/><path class="cls-2" d="M203.61,87.76a2.2,2.2,0,0,1,4.19,0"/><path class="cls-4" d="M191.33,55.62h-.52a1.45,1.45,0,0,1-1.36-1.32A54.06,54.06,0,0,0,181,31.94a1.69,1.69,0,0,1,.12-2l.51-.58a1.68,1.68,0,0,0,0-2.19l-6-6.75a1.28,1.28,0,0,0-2,0L173,21a1.27,1.27,0,0,1-1.8.14A42.78,42.78,0,0,0,151.34,12a1.51,1.51,0,0,1-1.19-1.53v-1a1.47,1.47,0,0,0-1.38-1.55h-8.53a1.47,1.47,0,0,0-1.38,1.55v1A1.51,1.51,0,0,1,137.66,12a42.78,42.78,0,0,0-19.91,9.15A1.27,1.27,0,0,1,116,21l-.58-.65a1.28,1.28,0,0,0-2,0l-6,6.75a1.68,1.68,0,0,0,0,2.19l.51.58a1.69,1.69,0,0,1,.12,2A54.06,54.06,0,0,0,99.55,54.3a1.45,1.45,0,0,1-1.36,1.32h-.52a1.47,1.47,0,0,0-1.38,1.55v9.55a1.47,1.47,0,0,0,1.38,1.55h.38a1.45,1.45,0,0,1,1.37,1.35,54.24,54.24,0,0,0,8.23,22.78,1.69,1.69,0,0,1-.13,2l-.13.15a1.68,1.68,0,0,0,0,2.19l6,6.75a1.28,1.28,0,0,0,2,0l.07-.07a1.28,1.28,0,0,1,1.82-.13,42.86,42.86,0,0,0,20.4,9.56,1.51,1.51,0,0,1,1.19,1.53h0a1.47,1.47,0,0,0,1.38,1.55h8.53a1.47,1.47,0,0,0,1.38-1.55h0a1.51,1.51,0,0,1,1.19-1.53,42.86,42.86,0,0,0,20.4-9.56,1.28,1.28,0,0,1,1.82.13l.07.07a1.28,1.28,0,0,0,2,0l6-6.75a1.68,1.68,0,0,0,0-2.19l-.13-.15a1.69,1.69,0,0,1-.13-2,54.24,54.24,0,0,0,8.23-22.78,1.45,1.45,0,0,1,1.37-1.35h.38a1.47,1.47,0,0,0,1.38-1.55V57.17A1.47,1.47,0,0,0,191.33,55.62Z"/><path class="cls-5" d="M148.76,8.95c.18,0,.38.23.38.55v1a2.5,2.5,0,0,0,2,2.52A42,42,0,0,1,170.61,22a2.32,2.32,0,0,0,1.46.53,2.28,2.28,0,0,0,1.71-.78l.58-.65a.29.29,0,0,1,.47,0l6,6.75a.69.69,0,0,1,0,.86l-.51.58a2.69,2.69,0,0,0-.2,3.25,53.35,53.35,0,0,1,8.31,22,2.43,2.43,0,0,0,2.35,2.18h.52c.18,0,.38.23.38.55v9.55c0,.32-.2.55-.38.55h-.38a2.46,2.46,0,0,0-2.36,2.23,53.52,53.52,0,0,1-8.08,22.36,2.71,2.71,0,0,0,.22,3.23l.13.15a.69.69,0,0,1,0,.86l-6,6.75a.29.29,0,0,1-.47,0l-.07-.07a2.28,2.28,0,0,0-1.72-.78,2.33,2.33,0,0,0-1.49.55,42.05,42.05,0,0,1-19.93,9.34,2.5,2.5,0,0,0-2,2.52c0,.32-.2.55-.38.55h-8.53c-.18,0-.38-.23-.38-.56a2.5,2.5,0,0,0-2-2.52,42.05,42.05,0,0,1-19.93-9.34,2.33,2.33,0,0,0-1.49-.55,2.28,2.28,0,0,0-1.72.78l-.07.07a.29.29,0,0,1-.47,0l-6-6.75a.69.69,0,0,1,0-.86l.13-.15a2.7,2.7,0,0,0,.22-3.23,53.52,53.52,0,0,1-8.08-22.36,2.46,2.46,0,0,0-2.36-2.23h-.38c-.18,0-.38-.23-.38-.55V57.17c0-.32.2-.55.38-.55h.52a2.43,2.43,0,0,0,2.35-2.18,53.35,53.35,0,0,1,8.31-22,2.69,2.69,0,0,0-.2-3.25l-.51-.58a.69.69,0,0,1,0-.86l6-6.75a.29.29,0,0,1,.47,0l.58.65a2.28,2.28,0,0,0,1.71.78,2.32,2.32,0,0,0,1.46-.53A42,42,0,0,1,137.83,13a2.5,2.5,0,0,0,2-2.52v-1c0-.32.2-.55.38-.55h8.53m0-1h-8.53a1.47,1.47,0,0,0-1.38,1.55v1A1.51,1.51,0,0,1,137.66,12a42.78,42.78,0,0,0-19.91,9.15,1.31,1.31,0,0,1-.83.3,1.29,1.29,0,0,1-1-.45l-.58-.65a1.28,1.28,0,0,0-2,0l-6,6.75a1.68,1.68,0,0,0,0,2.19l.51.58a1.69,1.69,0,0,1,.12,2A54.06,54.06,0,0,0,99.55,54.3a1.45,1.45,0,0,1-1.36,1.32h-.52a1.47,1.47,0,0,0-1.38,1.55v9.55a1.47,1.47,0,0,0,1.38,1.55h.38a1.45,1.45,0,0,1,1.37,1.35,54.24,54.24,0,0,0,8.23,22.78,1.69,1.69,0,0,1-.13,2l-.13.15a1.68,1.68,0,0,0,0,2.19l6,6.75a1.28,1.28,0,0,0,2,0l.07-.07a1.3,1.3,0,0,1,1-.45,1.31,1.31,0,0,1,.85.32,42.86,42.86,0,0,0,20.4,9.56,1.51,1.51,0,0,1,1.19,1.53h0a1.47,1.47,0,0,0,1.38,1.55h8.53a1.47,1.47,0,0,0,1.38-1.55h0a1.51,1.51,0,0,1,1.19-1.53,42.86,42.86,0,0,0,20.4-9.56,1.31,1.31,0,0,1,.85-.32,1.3,1.3,0,0,1,1,.45l.07.07a1.28,1.28,0,0,0,2,0l6-6.75a1.68,1.68,0,0,0,0-2.19l-.13-.15a1.69,1.69,0,0,1-.13-2,54.24,54.24,0,0,0,8.23-22.78,1.45,1.45,0,0,1,1.37-1.35h.38a1.47,1.47,0,0,0,1.38-1.55V57.17a1.47,1.47,0,0,0-1.38-1.55h-.52a1.45,1.45,0,0,1-1.36-1.32A54.06,54.06,0,0,0,181,31.94a1.69,1.69,0,0,1,.12-2l.51-.58a1.68,1.68,0,0,0,0-2.19l-6-6.75a1.28,1.28,0,0,0-2,0L173,21a1.29,1.29,0,0,1-1,.45,1.31,1.31,0,0,1-.83-.3A42.78,42.78,0,0,0,151.34,12a1.51,1.51,0,0,1-1.19-1.53v-1a1.47,1.47,0,0,0-1.38-1.55Z"/><path class="cls-4" d="M189.14,66.72V57.17a1.47,1.47,0,0,0-1.38-1.55h-.52a1.45,1.45,0,0,1-1.36-1.32,54.06,54.06,0,0,0-8.47-22.37,1.69,1.69,0,0,1,.12-2l.51-.58a1.68,1.68,0,0,0,0-2.19l-6-6.75a1.28,1.28,0,0,0-2,0l-.58.65a1.27,1.27,0,0,1-1.8.14A42.78,42.78,0,0,0,147.77,12a1.51,1.51,0,0,1-1.19-1.53v-1a1.47,1.47,0,0,0-1.38-1.55h-8.53a1.47,1.47,0,0,0-1.38,1.55v1A1.51,1.51,0,0,1,134.09,12a42.78,42.78,0,0,0-19.91,9.15,1.27,1.27,0,0,1-1.8-.14l-.58-.65a1.28,1.28,0,0,0-2,0l-6,6.75a1.68,1.68,0,0,0,0,2.19l.51.58a1.69,1.69,0,0,1,.12,2A54.06,54.06,0,0,0,96,54.3a1.45,1.45,0,0,1-1.36,1.32H94.1a1.47,1.47,0,0,0-1.38,1.55v9.55a1.47,1.47,0,0,0,1.38,1.55h.38a1.45,1.45,0,0,1,1.37,1.35,54.24,54.24,0,0,0,8.23,22.78,1.69,1.69,0,0,1-.13,2l-.13.15a1.68,1.68,0,0,0,0,2.19l6,6.75a1.28,1.28,0,0,0,2,0l.07-.07a1.28,1.28,0,0,1,1.82-.13,42.86,42.86,0,0,0,20.4,9.56,1.51,1.51,0,0,1,1.19,1.53h0a1.47,1.47,0,0,0,1.38,1.55h8.53a1.47,1.47,0,0,0,1.38-1.55h0a1.51,1.51,0,0,1,1.19-1.53,42.86,42.86,0,0,0,20.4-9.56,1.28,1.28,0,0,1,1.82.13l.07.07a1.28,1.28,0,0,0,2,0l6-6.75a1.68,1.68,0,0,0,0-2.19l-.13-.15a1.69,1.69,0,0,1-.13-2A54.24,54.24,0,0,0,186,69.62a1.45,1.45,0,0,1,1.37-1.35h.38A1.47,1.47,0,0,0,189.14,66.72Z"/><path class="cls-6" d="M163.71,100.45a49,49,0,0,1-22.55-92.5h-4.5a1.47,1.47,0,0,0-1.38,1.55v1A1.51,1.51,0,0,1,134.09,12a42.78,42.78,0,0,0-19.91,9.15,1.27,1.27,0,0,1-1.8-.14l-.58-.65a1.28,1.28,0,0,0-2,0l-6,6.75a1.68,1.68,0,0,0,0,2.19l.51.58a1.69,1.69,0,0,1,.12,2A54.06,54.06,0,0,0,96,54.3a1.45,1.45,0,0,1-1.36,1.32H94.1a1.47,1.47,0,0,0-1.38,1.55v9.55a1.47,1.47,0,0,0,1.38,1.55h.38a1.45,1.45,0,0,1,1.37,1.35,54.24,54.24,0,0,0,8.23,22.78,1.69,1.69,0,0,1-.13,2l-.13.15a1.68,1.68,0,0,0,0,2.19l6,6.75a1.28,1.28,0,0,0,2,0l.07-.07a1.28,1.28,0,0,1,1.82-.13,42.86,42.86,0,0,0,20.4,9.56,1.51,1.51,0,0,1,1.19,1.53h0a1.47,1.47,0,0,0,1.38,1.55h8.53a1.47,1.47,0,0,0,1.38-1.55h0a1.51,1.51,0,0,1,1.19-1.53,42.86,42.86,0,0,0,20.4-9.56,1.28,1.28,0,0,1,1.82.13l.07.07a1.28,1.28,0,0,0,2,0l4.16-4.66A49.06,49.06,0,0,1,163.71,100.45Z"/><path class="cls-5" d="M145.19,8.95c.18,0,.38.23.38.55v1a2.5,2.5,0,0,0,2,2.52A42,42,0,0,1,167,22a2.32,2.32,0,0,0,1.46.53,2.28,2.28,0,0,0,1.71-.78l.58-.65a.29.29,0,0,1,.47,0l6,6.75a.69.69,0,0,1,0,.86l-.51.58a2.69,2.69,0,0,0-.2,3.25,53.35,53.35,0,0,1,8.31,22,2.43,2.43,0,0,0,2.35,2.18h.52c.18,0,.38.23.38.55v9.55c0,.32-.2.55-.38.55h-.38A2.46,2.46,0,0,0,185,69.5a53.52,53.52,0,0,1-8.08,22.36,2.7,2.7,0,0,0,.22,3.23l.13.15a.69.69,0,0,1,0,.86l-6,6.75a.29.29,0,0,1-.47,0l-.07-.07A2.28,2.28,0,0,0,169,102a2.33,2.33,0,0,0-1.49.55,42.05,42.05,0,0,1-19.93,9.34,2.5,2.5,0,0,0-2,2.52c0,.32-.2.55-.38.55h-8.53c-.18,0-.38-.23-.38-.56a2.5,2.5,0,0,0-2-2.52,42.05,42.05,0,0,1-19.93-9.34,2.33,2.33,0,0,0-1.49-.55,2.28,2.28,0,0,0-1.72.78l-.07.07a.29.29,0,0,1-.47,0l-6-6.75a.69.69,0,0,1,0-.86l.13-.15a2.7,2.7,0,0,0,.22-3.23A53.52,53.52,0,0,1,96.84,69.5a2.46,2.46,0,0,0-2.36-2.23H94.1c-.18,0-.38-.23-.38-.55V57.17c0-.32.2-.55.38-.55h.52A2.43,2.43,0,0,0,97,54.45a53.35,53.35,0,0,1,8.31-22,2.69,2.69,0,0,0-.2-3.25l-.51-.58a.69.69,0,0,1,0-.86l6-6.75a.29.29,0,0,1,.47,0l.58.65a2.28,2.28,0,0,0,1.71.78,2.32,2.32,0,0,0,1.46-.53A42,42,0,0,1,134.25,13a2.5,2.5,0,0,0,2-2.52v-1c0-.32.2-.55.38-.55h8.53m0-1h-8.53a1.47,1.47,0,0,0-1.38,1.55v1A1.51,1.51,0,0,1,134.09,12a42.78,42.78,0,0,0-19.91,9.15,1.31,1.31,0,0,1-.83.3,1.29,1.29,0,0,1-1-.45l-.58-.65a1.28,1.28,0,0,0-2,0l-6,6.75a1.68,1.68,0,0,0,0,2.19l.51.58a1.69,1.69,0,0,1,.12,2A54.06,54.06,0,0,0,96,54.3a1.45,1.45,0,0,1-1.36,1.32H94.1a1.47,1.47,0,0,0-1.38,1.55v9.55a1.47,1.47,0,0,0,1.38,1.55h.38a1.45,1.45,0,0,1,1.37,1.35,54.24,54.24,0,0,0,8.23,22.78,1.69,1.69,0,0,1-.13,2l-.13.15a1.68,1.68,0,0,0,0,2.19l6,6.75a1.28,1.28,0,0,0,2,0l.07-.07a1.3,1.3,0,0,1,1-.45,1.31,1.31,0,0,1,.85.32,42.86,42.86,0,0,0,20.4,9.56,1.51,1.51,0,0,1,1.19,1.53h0a1.47,1.47,0,0,0,1.38,1.55h8.53a1.47,1.47,0,0,0,1.38-1.55h0a1.51,1.51,0,0,1,1.19-1.53,42.86,42.86,0,0,0,20.4-9.56A1.31,1.31,0,0,1,169,103a1.3,1.3,0,0,1,1,.45l.07.07a1.28,1.28,0,0,0,2,0l6-6.75a1.68,1.68,0,0,0,0-2.19l-.13-.15a1.69,1.69,0,0,1-.13-2A54.24,54.24,0,0,0,186,69.62a1.45,1.45,0,0,1,1.37-1.35h.38a1.47,1.47,0,0,0,1.38-1.55V57.17a1.47,1.47,0,0,0-1.38-1.55h-.52a1.45,1.45,0,0,1-1.36-1.32,54.06,54.06,0,0,0-8.47-22.37,1.69,1.69,0,0,1,.12-2l.51-.58a1.68,1.68,0,0,0,0-2.19l-6-6.75a1.28,1.28,0,0,0-2,0l-.58.65a1.29,1.29,0,0,1-1,.45,1.31,1.31,0,0,1-.83-.3A42.78,42.78,0,0,0,147.77,12a1.51,1.51,0,0,1-1.19-1.53v-1a1.47,1.47,0,0,0-1.38-1.55Z"/><path class="cls-5" d="M140.93,21.45c20.13,0,36.5,18.39,36.5,41s-16.37,41-36.5,41-36.5-18.39-36.5-41,16.37-41,36.5-41m0-1c-20.71,0-37.5,18.8-37.5,42s16.79,42,37.5,42,37.5-18.8,37.5-42-16.79-42-37.5-42Z"/><path class="cls-5" d="M140.93,25.45c18.16,0,32.93,16.6,32.93,37s-14.77,37-32.93,37S108,82.85,108,62.45s14.77-37,32.93-37m0-1c-18.74,0-33.93,17-33.93,38s15.19,38,33.93,38,33.93-17,33.93-38-15.19-38-33.93-38Z"/><path class="cls-5" d="M152.31,69.53a8.64,8.64,0,0,1-2.53,6.4A12.16,12.16,0,0,1,142.46,79v5.81h-3.18V79.2a22.4,22.4,0,0,1-9.73-2V71.51a22.6,22.6,0,0,0,4.81,1.89,19.53,19.53,0,0,0,4.93.79v-10l-2-.83a14.07,14.07,0,0,1-5.73-4,9.22,9.22,0,0,1-1.8-5.8,7.92,7.92,0,0,1,2.57-6.08,12,12,0,0,1,7-2.89V40h3.18v4.42a24,24,0,0,1,9.21,2.2l-1.75,4.9a23.38,23.38,0,0,0-7.46-2v9.75l1.82.78q4.54,2,6.29,4.12A8.19,8.19,0,0,1,152.31,69.53Zm-17-16.07A3.84,3.84,0,0,0,136.2,56a8.6,8.6,0,0,0,3.07,2V49.69A5.3,5.3,0,0,0,136.36,51,3.32,3.32,0,0,0,135.36,53.46Zm11.31,16.47a3.54,3.54,0,0,0-1-2.56,9.72,9.72,0,0,0-3.24-1.94V74Q146.67,73.25,146.67,69.93Z"/><path class="cls-7" d="M216.44,121.41H145.37c-1.72-.13-3-.48-3-.9v-.12c0-.46,1.53-.85,3.56-.94h43.76a1,1,0,0,0,0-2H159.34c-1.72-.13-3-.48-3-.9v-.12c0-.46,1.53-.85,3.56-.94H176.6a1,1,0,0,0,0-2H58.53a1,1,0,1,0,0,2H85c2,.09,3.56.48,3.56.94v.12c0,.42-1.24.77-3,.9H23.71a1,1,0,0,0,0,2h33c2,.09,3.56.48,3.56.94v.12c0,.42-1.24.77-3,.9H36.84a1,1,0,0,0,0,2h179.6a1,1,0,0,0,0-2Z"/><line class="cls-2" x1="222.07" y1="113.6" x2="26.35" y2="113.6"/></g></g></svg>