<svg xmlns="http://www.w3.org/2000/svg" xmlns:xlink="http://www.w3.org/1999/xlink" width="24" height="24" viewBox="0 0 24 24">
  <defs>
    <path id="audition-a" d="M12.4787,15.1621 L12.4937,15.0171 L19.7667,12.8181 L18.8157,16.1661 C18.7197,16.5041 18.4127,16.7241 18.0787,16.7241 C18.0087,16.7241 17.9387,16.7141 17.8687,16.6941 L12.4787,15.1621 Z M5.7639,5.4394 L1.6049,6.6894 L1.1589,6.8264 L2.0889,3.5494 C2.1849,3.2124 2.4929,2.9934 2.8259,2.9934 C2.8959,2.9934 2.9659,3.0024 3.0359,3.0224 L5.5389,3.7334 C5.5359,3.8014 5.5189,3.8654 5.5189,3.9334 C5.5189,4.4604 5.6109,4.9634 5.7639,5.4394 Z M20.8947,10.8535 C20.9657,11.0905 20.8657,11.3325 20.6707,11.4655 C20.6247,11.4975 20.5797,11.5285 20.5237,11.5445 L20.0917,11.6755 L12.6007,13.9405 L13.1907,8.0345 C14.5127,7.1485 15.3857,5.6415 15.3857,3.9335 C15.3857,3.8195 15.3597,3.7125 15.3527,3.6005 L17.8917,2.8365 C17.9457,2.8215 17.9987,2.8135 18.0517,2.8135 C18.2907,2.8135 18.5097,2.9675 18.5817,3.2075 L19.6387,6.7025 L19.8117,7.2715 L19.9827,7.8385 L20.6007,9.8835 L20.8687,10.7695 L20.8947,10.8535 Z M6.1653,6.3633 C6.5463,7.0323 7.0753,7.6063 7.7133,8.0343 L8.4693,15.1893 L2.8873,16.8773 C2.8343,16.8933 2.7793,16.9013 2.7273,16.9013 C2.4873,16.9013 2.2663,16.7453 2.1943,16.5033 L1.1583,12.9843 L0.9913,12.4163 L0.8243,11.8493 L0.2683,9.9603 L0.2473,9.8913 L0.0213,9.1163 C0.0133,9.0863 0.0193,9.0553 0.0143,9.0243 C-0.0337,8.7573 0.0463,8.4993 0.2183,8.3043 C0.3203,8.1893 0.4433,8.0903 0.6023,8.0423 L0.8323,7.9713 L1.8933,7.6473 L6.1653,6.3633 Z M9.4348,7.7178 C7.7608,7.2658 6.5188,5.7488 6.5188,3.9338 C6.5188,1.7648 8.2838,-0.0002 10.4528,-0.0002 C12.6218,-0.0002 14.3858,1.7648 14.3858,3.9338 C14.3858,5.7488 13.1438,7.2658 11.4698,7.7178 L9.4348,7.7178 Z M9.8303,18.5576 L9.0423,11.0986 L11.8793,11.0986 L11.1363,18.5576 L9.8303,18.5576 Z M9.299,8.7178 L11.606,8.7178 L12.116,8.7178 L11.979,10.0988 L8.937,10.0988 L8.791,8.7178 L9.299,8.7178 Z"/>
  </defs>
  <g fill="none" fill-rule="evenodd" transform="translate(2 3)">
    <mask id="audition-b" fill="#fff">
      <use xlink:href="#audition-a"/>
    </mask>
    <use fill="#F7D022" xlink:href="#audition-a"/>
    <g fill="#F7D022" mask="url(#audition-b)">
      <rect width="24" height="24" rx="2" transform="translate(-2 -3)"/>
    </g>
  </g>
</svg>
