<svg xmlns="http://www.w3.org/2000/svg" xmlns:xlink="http://www.w3.org/1999/xlink" width="12" height="14" viewBox="0 0 12 14">
  <defs>
    <path id="calendar-a" d="M10.6666667,0.666666667 L10.6666667,2 L5.33333333,2 L5.33333333,0.666666667 L4,0.666666667 L4,2 L3.33333333,2 C2.59333333,2 2.00666667,2.6 2.00666667,3.33333333 L2,12.6666667 C2,13.4 2.59333333,14 3.33333333,14 L12.6666667,14 C13.4,14 14,13.4 14,12.6666667 L14,3.33333333 C14,2.6 13.4,2 12.6666667,2 L12,2 L12,0.666666667 L10.6666667,0.666666667 Z M12.6666667,12.6666667 L3.33333333,12.6666667 L3.33333333,5.33333333 L12.6666667,5.33333333 L12.6666667,12.6666667 Z"/>
  </defs>
  <g fill="none" fill-rule="evenodd" transform="translate(-2)">
    <mask id="calendar-b" fill="#fff">
      <use xlink:href="#calendar-a"/>
    </mask>
    <g fill="#c1c1c1" mask="url(#calendar-b)">
      <rect width="16" height="16" rx="2"/>
    </g>
  </g>
</svg>