<?xml version="1.0" encoding="UTF-8"?>
<svg width="16px" height="16px" viewBox="0 0 16 16" version="1.1" xmlns="http://www.w3.org/2000/svg" xmlns:xlink="http://www.w3.org/1999/xlink">
    <!-- Generator: Sketch 46.2 (44496) - http://www.bohemiancoding.com/sketch -->
    <title>Group 4</title>
    <desc>Created with Sketch.</desc>
    <defs>
        <polygon id="path-1" points="7.95869602 15.9174805 0 15.9174805 0 0 7.95869602 0 15.917392 0 15.917392 15.9174805"></polygon>
    </defs>
    <g id="About" stroke="none" stroke-width="1" fill="none" fill-rule="evenodd">
        <g id="5.About-NEW" transform="translate(-169.000000, -715.000000)">
            <g id="Group-5" transform="translate(169.000000, 714.000000)">
                <g id="Group-4" transform="translate(0.000000, 1.000000)">
                    <g id="Group-3">
                        <mask id="mask-2" fill="white">
                            <use xlink:href="#path-1"></use>
                        </mask>
                        <g id="Clip-2"></g>
                        <path d="M2.54582414,1.10538059 C1.75149765,1.10538059 1.10529216,1.75158608 1.10529216,2.54591257 L1.10529216,13.3715679 C1.10529216,14.1658944 1.75149765,14.8120999 2.54582414,14.8120999 L13.3717005,14.8120999 C14.166027,14.8120999 14.8120115,14.1658944 14.8120115,13.3715679 L14.8120115,2.54591257 C14.8120115,1.75158608 14.166027,1.10538059 13.3717005,1.10538059 L2.54582414,1.10538059 Z M13.3717005,15.9174805 L2.54582414,15.9174805 C1.14199079,15.9174805 -8.8430447e-05,14.7754012 -8.8430447e-05,13.3715679 L-8.8430447e-05,2.54591257 C-8.8430447e-05,1.14207922 1.14199079,0 2.54582414,0 L13.3717005,0 C14.7753128,0 15.917392,1.14207922 15.917392,2.54591257 L15.917392,13.3715679 C15.917392,14.7754012 14.7753128,15.9174805 13.3717005,15.9174805 L13.3717005,15.9174805 Z" id="Fill-1" fill="#FF7B84" mask="url(#mask-2)"></path>
                    </g>
                    <polygon id="Fill-4" fill="#FF7B84" points="3.53721788 10.3905775 3.53721788 12.1591865 5.52690294 12.1591865 10.6116536 7.29551188 8.62196859 5.30582682"></polygon>
                    <polygon id="Fill-8" fill="#FF7B84" points="11.3854201 6.64002119 9.28519694 4.53979808 10.066701 3.758294 12.1669241 5.85851712"></polygon>
                </g>
            </g>
        </g>
    </g>
</svg>