<svg xmlns="http://www.w3.org/2000/svg" xmlns:xlink="http://www.w3.org/1999/xlink" width="20" height="20" viewBox="0 0 20 20">
  <defs>
    <path id="envelope-copy-a" d="M22,5.33355556 C22,3.582 20.4186667,2 18.6666667,2 L5.33333333,2 C3.58133333,2 2,3.582 2,5.33355556 L2,18.6664444 C2,20.418 3.58133333,22 5.33355556,22 L12,22 L12,14.4444444 L9.55555556,14.4444444 L9.55555556,11.1111111 L12,11.1111111 L12,9.81244444 C12,7.57266667 13.6817778,5.55555556 15.75,5.55555556 L18.4444444,5.55555556 L18.4444444,8.88888889 L15.75,8.88888889 C15.4551111,8.88888889 15.1111111,9.24688889 15.1111111,9.78311111 L15.1111111,11.1111111 L18.4444444,11.1111111 L18.4444444,14.4444444 L15.1111111,14.4444444 L15.1111111,22 L18.6666667,22 C20.4186667,22 22,20.418 22,18.6664444 L22,5.33355556 Z"/>
  </defs>
  <g fill="none" fill-rule="evenodd" transform="translate(-2 -2)">
    <use fill="#214890" xlink:href="#envelope-copy-a"/>
  </g>
</svg>
