<?xml version="1.0" encoding="UTF-8"?>
<svg width="16px" height="16px" viewBox="0 0 16 16" version="1.1" xmlns="http://www.w3.org/2000/svg" xmlns:xlink="http://www.w3.org/1999/xlink">
    <!-- Generator: Sketch 46.2 (44496) - http://www.bohemiancoding.com/sketch -->
    <title>Page 1</title>
    <desc>Created with Sketch.</desc>
    <defs></defs>
    <g id="Profile" stroke="none" stroke-width="1" fill="none" fill-rule="evenodd">
        <g id="Profile-Post" transform="translate(-1255.000000, -1995.000000)" fill="#FFFFFF">
            <g id="Page-1" transform="translate(1255.000000, 1995.000000)">
                <polygon id="Fill-1" points="0 2.22222222e-05 0 5.99291111 2.58755556 3.40513333 5.584 6.40135556 6.36977778 5.6158 3.37333333 2.61935556 5.99288889 2.22222222e-05"></polygon>
                <polygon id="Fill-2" points="10 2.22222222e-05 12.6271111 2.62713333 9.63844444 5.6158 10.424 6.40135556 13.4128889 3.41291111 15.9928889 5.99291111 15.9928889 2.22222222e-05"></polygon>
                <polygon id="Fill-3" points="2.6156 12.5786222 4.44444444e-05 9.96328889 4.44444444e-05 15.9559556 5.99271111 15.9559556 3.40115556 13.3644 6.36982222 10.3955111 5.58404444 9.60995556"></polygon>
                <polygon id="Fill-4" points="9.6384 10.3956222 12.5992889 13.3567333 9.99995556 15.9560667 15.9928444 15.9560667 15.9928444 9.96317778 13.3850667 12.5709556 10.4239556 9.61006667"></polygon>
            </g>
        </g>
    </g>
</svg>