<svg xmlns="http://www.w3.org/2000/svg" xmlns:xlink="http://www.w3.org/1999/xlink" width="24" height="24" viewBox="0 0 24 24">
  <defs>
    <path id="globe-a" d="M11.073,17.6245 C10.677,17.6865 10.275,17.7275 9.863,17.7275 C5.527,17.7275 2,14.1995 2,9.8635 C2,8.7915 2.023,7.6615 2.373,6.6375 C2.531,6.1735 2.802,5.4655 3.274,5.2325 C4.181,4.7855 3.91,5.9095 4.228,6.4195 C4.514,6.8745 5.14,6.6645 5.484,7.0105 C5.825,7.3535 5.59,7.9125 6.117,8.1845 C7.312,8.7985 7.308,9.0775 7.433,10.4295 C7.511,11.2785 7.927,12.6805 8.64,13.2245 C9.567,13.9315 10.663,12.1875 10.638,11.3815 C10.628,11.0195 10.303,10.4975 10.464,10.1455 C10.684,9.6625 11.379,9.8655 11.511,9.2775 C11.572,9.0055 11.499,8.7245 11.44,8.4515 C11.35,8.0265 11.347,7.6565 11.703,7.3695 C12.242,6.9335 13.132,6.9125 13.758,7.1435 C15.054,7.6195 14.84,6.5615 15.608,6.0115 C17.254,4.8355 17.726,8.8625 17.726,9.8635 C17.726,11.1045 17.432,12.2755 16.916,13.3185 C16.574,13.5555 16.196,13.7405 15.793,13.8465 C15.613,13.8945 15.427,13.9275 15.26,14.0125 C15.033,14.1265 14.859,14.3265 14.639,14.4555 C14.199,14.7125 13.652,14.6505 13.141,14.6365 C12.686,14.6235 12.401,14.7035 12.239,14.8265 C12.031,14.8225 11.821,14.8135 11.615,14.8225 C10.184,14.8855 11.234,17.6015 11.073,17.6245 M9.863,-0.0005 C4.425,-0.0005 0,4.4245 0,9.8635 C0,15.3025 4.425,19.7275 9.863,19.7275 C15.302,19.7275 19.726,15.3025 19.726,9.8635 C19.726,4.4245 15.302,-0.0005 9.863,-0.0005"/>
  </defs>
  <g fill="none" fill-rule="evenodd" transform="translate(2 2)">
    <use fill="#333" xlink:href="#globe-a"/>
    <rect width="80" height="80" fill="#333" rx="2" transform="translate(-19 -20)"/>
  </g>
</svg>
