<svg xmlns="http://www.w3.org/2000/svg" xmlns:xlink="http://www.w3.org/1999/xlink" width="22" height="22" viewBox="0 0 22 22">
  <defs>
    <path id="envelope-copy-3-a" d="M19.058612,12.472824 C18.629612,12.477224 18.201052,12.479424 17.769852,12.483824 C17.765892,12.915024 17.763692,13.343584 17.761492,13.772584 L16.477132,13.772584 C16.472732,13.343584 16.472732,12.915024 16.468332,12.486024 C16.039332,12.481624 15.608132,12.477224 15.179572,12.472824 L15.179572,11.190664 C15.608132,11.186264 16.037132,11.184064 16.468332,11.181864 C16.470532,10.751104 16.474932,10.322104 16.479332,9.893104 L17.761492,9.893104 C17.763692,10.322104 17.765892,10.753304 17.769852,11.181864 C18.198852,11.186264 18.629612,11.186264 19.058612,11.190664 L19.058612,12.472824 Z M12.860772,14.682064 C11.737892,16.261664 9.483332,16.722784 7.725092,16.046064 C5.959812,15.373744 4.709772,13.509464 4.858492,11.608664 C4.897212,9.283264 7.035172,7.246944 9.360572,7.324384 C10.474652,7.272904 11.522292,7.757784 12.375892,8.438904 C12.011572,8.852064 11.634052,9.251144 11.231452,9.623824 C10.205372,8.914984 8.746332,8.712144 7.720692,9.530984 C6.252852,10.546504 6.186412,12.942744 7.597932,14.035704 C8.970732,15.281344 11.565412,14.662704 11.944692,12.755304 C11.084932,12.742104 10.222532,12.755304 9.362772,12.727144 C9.360572,12.214544 9.358812,11.701504 9.360572,11.188464 C10.798052,11.184064 12.235532,11.181864 13.675652,11.192864 C13.761452,12.399784 13.602172,13.684144 12.860772,14.682064 L12.860772,14.682064 Z M11.835132,0.999824 C5.850692,0.999824 1.000132,5.850384 1.000132,11.833944 C1.000132,17.817944 5.850692,22.669384 11.835132,22.669384 C17.819572,22.669384 22.670132,17.817944 22.670132,11.833944 C22.670132,5.850384 17.819572,0.999824 11.835132,0.999824 L11.835132,0.999824 Z"/>
  </defs>
  <g fill="none" fill-rule="evenodd" transform="translate(-1 -1)">
    <use fill="#EA1815" xlink:href="#envelope-copy-3-a"/>
  </g>
</svg>
