<svg xmlns="http://www.w3.org/2000/svg" viewBox="0 0 72 72"><defs><style>.cls-1{fill:#333;}</style></defs><title>ico-public</title><g id="Layer_2" data-name="Layer 2"><g id="Layer_1-2" data-name="Layer 1"><path class="cls-1" d="M36,0A36,36,0,1,0,72,36,36,36,0,0,0,36,0ZM66.89,33.5H58.94c-.41-9.74-3.18-18.31-7.46-24.34A31,31,0,0,1,66.89,33.5ZM33,5.46v28H18.07C18.75,19.54,25.08,7.86,33,5.46Zm0,33v28c-7.92-2.4-14.25-14.08-14.93-28Zm5,28.29V38.5H53.93C53.22,53,46.38,65.11,38,66.79ZM38,33.5V5.21C46.38,6.89,53.22,19,53.93,33.5ZM20.52,9.16c-4.28,6-7.06,14.6-7.46,24.34H5.11A31,31,0,0,1,20.52,9.16ZM5.11,38.5h7.95c.41,9.74,3.18,18.31,7.46,24.34A31,31,0,0,1,5.11,38.5ZM51.48,62.84c4.28-6,7.06-14.6,7.46-24.34h7.95A31,31,0,0,1,51.48,62.84Z"/></g></g></svg>