<svg xmlns="http://www.w3.org/2000/svg" viewBox="0 0 67 67"><defs><style>.cls-1{fill:#333;}</style></defs><title>ico-image-black</title><g id="Layer_2" data-name="Layer 2"><g id="Layer_1-2" data-name="Layer 1"><path class="cls-1" d="M0,42.6V58a9,9,0,0,0,9,9H58a9,9,0,0,0,2.71-.41L14.15,33.52Z"/><path class="cls-1" d="M30.44,39,48.31,27.49,67,40.66V9a9,9,0,0,0-9-9H9A9,9,0,0,0,0,9V36.66l14.29-9.17ZM30,5.5A9.5,9.5,0,1,1,20.5,15,9.51,9.51,0,0,1,30,5.5Z"/><circle class="cls-1" cx="30" cy="15" r="4.5"/><path class="cls-1" d="M67,46.78,48.18,33.51,34.84,42.08,65.06,63.56A9,9,0,0,0,67,58Z"/></g></g></svg>