<?xml version="1.0" encoding="UTF-8"?>
<svg width="25px" height="25px" viewBox="0 0 25 25" version="1.1" xmlns="http://www.w3.org/2000/svg" xmlns:xlink="http://www.w3.org/1999/xlink">
    <!-- Generator: Sketch 46.1 (44463) - http://www.bohemiancoding.com/sketch -->
    <title>Page 1</title>
    <desc>Created with Sketch.</desc>
    <defs>
        <polygon id="path-1" points="12.4999306 25 0 25 0 0 12.4999306 0 24.9998611 0 24.9998611 25 12.4999306 25"></polygon>
    </defs>
    <g id="Post_Log_in" stroke="none" stroke-width="1" fill="none" fill-rule="evenodd">
        <g id="1.Community" transform="translate(-997.000000, -226.000000)">
            <g id="Page-1" transform="translate(997.000000, 226.000000)">
                <g id="Group-3">
                    <mask id="mask-2" fill="white">
                        <use xlink:href="#path-1"></use>
                    </mask>
                    <g id="Clip-2"></g>
                    <path d="M3.99847222,1.73611111 C2.75090278,1.73611111 1.73597222,2.75104167 1.73597222,3.99861111 L1.73597222,21.0013889 C1.73597222,22.2489583 2.75090278,23.2638889 3.99847222,23.2638889 L21.0015972,23.2638889 C22.2491667,23.2638889 23.26375,22.2489583 23.26375,21.0013889 L23.26375,3.99861111 C23.26375,2.75104167 22.2491667,1.73611111 21.0015972,1.73611111 L3.99847222,1.73611111 Z M21.0015972,25 L3.99847222,25 C1.79361111,25 -0.000138888889,23.20625 -0.000138888889,21.0013889 L-0.000138888889,3.99861111 C-0.000138888889,1.79375 1.79361111,0 3.99847222,0 L21.0015972,0 C23.2061111,0 24.9998611,1.79375 24.9998611,3.99861111 L24.9998611,21.0013889 C24.9998611,23.20625 23.2061111,25 21.0015972,25 L21.0015972,25 Z" id="Fill-1" fill="#D8D8D8" mask="url(#mask-2)"></path>
                </g>
                <path d="M6.95328448,6.7535784 L11.5070545,12.4039587 C11.7308673,12.6817255 11.8541215,13.0313891 11.8541215,13.389119 L11.8541215,17.9575415 C11.8541215,18.1444729 11.9476969,18.3163236 12.1041214,18.4173297 L13.1456715,19.0900024 L13.1456715,13.389119 C13.1456715,13.0313891 13.2692748,12.6817255 13.4930876,12.4039587 L18.0465085,6.7535784 L6.95328448,6.7535784 Z M13.3328223,21 C13.0395263,21 12.7465794,20.9165297 12.4902945,20.7513426 L11.1599875,19.8920892 C10.501119,19.4666711 10.1083118,18.743846 10.1083118,17.9575415 L10.1083118,13.455755 L5.34923453,7.55040442 C4.96760053,7.07728897 4.89287987,6.44144144 5.154053,5.89151926 C5.41522613,5.34159707 5.95433217,5 6.56082646,5 L18.4393157,5 C19.04581,5 19.584916,5.34159707 19.8460891,5.89151926 C20.1072623,6.44144144 20.0321925,7.07728897 19.6502093,7.55040442 L14.8914812,13.455755 L14.8914812,19.4340545 C14.8914812,20.0071239 14.5807271,20.5335481 14.0800289,20.8081585 C13.8464395,20.9361697 13.5894563,20.9996493 13.3328223,21 L13.3328223,21 Z" id="Fill-4" fill="#D8D8D8"></path>
            </g>
        </g>
    </g>
</svg>