<svg xmlns="http://www.w3.org/2000/svg" viewBox="0 0 73 73"><defs><style>.cls-1{fill:#333;}</style></defs><title>ico-image</title><g id="Layer_2" data-name="Layer 2"><g id="Layer_1-2" data-name="Layer 1"><path class="cls-1" d="M65,0H8A8,8,0,0,0,0,8V65a8,8,0,0,0,8,8H65a8,8,0,0,0,8-8V8A8,8,0,0,0,65,0ZM8,68a3,3,0,0,1-3-3V53.29L18.92,43.15,49.67,68Zm60-3a3,3,0,0,1-3,3H56.71l.36-.44-19.75-16,11.6-8.45,19,15.2.06-.08Zm0-13L49.07,36.86,33.3,48.34,19.08,36.85,5,47.11V8A3,3,0,0,1,8,5H65a3,3,0,0,1,3,3Z"/><path class="cls-1" d="M32.5,15A9.5,9.5,0,1,0,42,24.5,9.51,9.51,0,0,0,32.5,15Zm0,14A4.5,4.5,0,1,1,37,24.5,4.5,4.5,0,0,1,32.5,29Z"/></g></g></svg>