<svg xmlns="http://www.w3.org/2000/svg" viewBox="0 0 68.16 71"><defs><style>.cls-1{fill:#333;}</style></defs><title>Ico-private</title><g id="Layer_2" data-name="Layer 2"><g id="Layer_1-2" data-name="Layer 1"><path class="cls-1" d="M58.72,22.72H53V19.41a19.41,19.41,0,1,0-38.81,0v3.31H9.44A9.45,9.45,0,0,0,0,32.16v29.4A9.45,9.45,0,0,0,9.44,71H58.72a9.45,9.45,0,0,0,9.44-9.44V32.16A9.45,9.45,0,0,0,58.72,22.72ZM18.93,19.41a14.67,14.67,0,1,1,29.35,0v3.31H18.93ZM63.43,61.56a4.71,4.71,0,0,1-4.71,4.71H9.44a4.71,4.71,0,0,1-4.71-4.71V32.16a4.71,4.71,0,0,1,4.71-4.71H58.72a4.71,4.71,0,0,1,4.71,4.71Z"/><path class="cls-1" d="M33.61,37.39a4.72,4.72,0,0,0-2.37,8.81v8.23H36V46.2a4.72,4.72,0,0,0-2.37-8.81Z"/></g></g></svg>