<?xml version="1.0" encoding="UTF-8"?>
<svg width="16px" height="16px" viewBox="0 0 16 16" version="1.1" xmlns="http://www.w3.org/2000/svg" xmlns:xlink="http://www.w3.org/1999/xlink">
    <!-- Generator: Sketch 46.2 (44496) - http://www.bohemiancoding.com/sketch -->
    <title>Page 1</title>
    <desc>Created with Sketch.</desc>
    <defs>
        <polygon id="path-1" points="0 2.57614512e-05 0 16 11.7982247 16 11.7982247 2.57614512e-05"></polygon>
    </defs>
    <g id="Profile" stroke="none" stroke-width="1" fill="none" fill-rule="evenodd">
        <g id="Profile-Post" transform="translate(-1282.000000, -1514.000000)">
            <g id="Page-1" transform="translate(1282.000000, 1514.000000)">
                <g id="Group-3" transform="translate(0.000000, -0.000089)">
                    <mask id="mask-2" fill="white">
                        <use xlink:href="#path-1"></use>
                    </mask>
                    <g id="Clip-2"></g>
                    <path d="M10.6433753,0.190533333 C9.96414247,-0.136355556 9.17663562,-0.0376888889 8.58814247,0.448977778 L4.01827945,4.23475556 L2.46430685,4.23475556 C1.10518356,4.23475556 -0.000131506849,5.35542222 -0.000131506849,6.7332 L-0.000131506849,9.26675556 C-0.000131506849,10.6443111 1.10518356,11.7649778 2.46430685,11.7649778 L4.01827945,11.7649778 L8.58814247,15.5509778 L8.58858082,15.5509778 C8.94649863,15.8474222 9.37849863,16.0000889 9.81532055,16.0000889 C10.0954301,16.0000889 10.3777315,15.9372 10.6433753,15.8094222 C11.3554849,15.4669778 11.7982247,14.7440889 11.7982247,13.9234222 L11.7982247,2.07653333 C11.7982247,1.25564444 11.3554849,0.532977778 10.6433753,0.190533333" id="Fill-1" fill="#979797" mask="url(#mask-2)"></path>
                </g>
                <path d="M13.925063,12.9675778 L13.1502685,12.1820222 C15.4246795,9.87602222 15.4246795,6.1238 13.1502685,3.8178 L13.925063,3.03224444 C16.6266521,5.77135556 16.6266521,10.2284667 13.925063,12.9675778" id="Fill-4" fill="#979797"></path>
            </g>
        </g>
    </g>
</svg>