<svg xmlns="http://www.w3.org/2000/svg" viewBox="0 0 73 73"><defs><style>.cls-1{fill:#333;}</style></defs><title>ico-para</title><g id="Layer_2" data-name="Layer 2"><g id="Layer_1-2" data-name="Layer 1"><path class="cls-1" d="M65,0H8A8,8,0,0,0,0,8V65a8,8,0,0,0,8,8H65a8,8,0,0,0,8-8V8A8,8,0,0,0,65,0Zm3,65a3,3,0,0,1-3,3H8a3,3,0,0,1-3-3V8A3,3,0,0,1,8,5H65a3,3,0,0,1,3,3Z"/><rect class="cls-1" x="21.5" y="14.25" width="37.19" height="4.69"/><rect class="cls-1" x="14.5" y="27.58" width="44.19" height="4.69"/><rect class="cls-1" x="14.31" y="54.25" width="44.38" height="4.69"/><rect class="cls-1" x="14.31" y="40.92" width="44.38" height="4.69"/></g></g></svg>