<svg xmlns="http://www.w3.org/2000/svg" viewBox="0 0 73 73"><defs><style>.cls-1{fill:#333;}</style></defs><title>ico-video</title><g id="Layer_2" data-name="Layer 2"><g id="Layer_1-2" data-name="Layer 1"><path class="cls-1" d="M65,0H8A8,8,0,0,0,0,8V65a8,8,0,0,0,8,8H65a8,8,0,0,0,8-8V8A8,8,0,0,0,65,0Zm3,65a3,3,0,0,1-3,3H8a3,3,0,0,1-3-3V8A3,3,0,0,1,8,5H65a3,3,0,0,1,3,3Z"/><path class="cls-1" d="M49.71,31l-17-9A5.9,5.9,0,0,0,24,27.15V45.7a5.89,5.89,0,0,0,8.78,5.15l17-9.52A5.9,5.9,0,0,0,49.71,31Zm-2.32,6-17,9.52A.9.9,0,0,1,29,45.7V27.15a.88.88,0,0,1,.44-.77.91.91,0,0,1,.47-.13.89.89,0,0,1,.42.11l17,9a.9.9,0,0,1,0,1.59Z"/></g></g></svg>