<?xml version="1.0" encoding="UTF-8"?>
<svg width="24px" height="20px" viewBox="0 0 24 20" version="1.1" xmlns="http://www.w3.org/2000/svg" xmlns:xlink="http://www.w3.org/1999/xlink">
    <!-- Generator: Sketch 46.2 (44496) - http://www.bohemiancoding.com/sketch -->
    <title>ico_mail</title>
    <desc>Created with Sketch.</desc>
    <defs>
        <rect id="path-1" x="135" y="620" width="1170" height="291" rx="3"></rect>
        <filter x="-0.3%" y="-0.9%" width="100.6%" height="102.4%" filterUnits="objectBoundingBox" id="filter-2">
            <feOffset dx="0" dy="1" in="SourceAlpha" result="shadowOffsetOuter1"></feOffset>
            <feGaussianBlur stdDeviation="1" in="shadowOffsetOuter1" result="shadowBlurOuter1"></feGaussianBlur>
            <feColorMatrix values="0 0 0 0 0.4   0 0 0 0 0.176470588   0 0 0 0 0.568627451  0 0 0 0.0673120471 0" type="matrix" in="shadowBlurOuter1"></feColorMatrix>
        </filter>
    </defs>
    <g id="About" stroke="none" stroke-width="1" fill="none" fill-rule="evenodd">
        <g id="About_Contact" transform="translate(-166.000000, -859.000000)">
            <g id="Combined-Shape-Copy-2">
                <use fill="black" fill-opacity="1" filter="url(#filter-2)" xlink:href="#path-1"></use>
                <use fill="#FFFFFF" fill-rule="evenodd" xlink:href="#path-1"></use>
            </g>
            <g id="ico_mail" transform="translate(166.000000, 859.000000)" fill="#333333">
                <path d="M3.16,0 C1.45032902,0.14317217 0.151389173,1.34589425 0.16,2.77777778 L0.16,17.2222222 C0.16,18.7563465 1.65238417,20 3.49333333,20 L20.4933333,20 C22.3342825,20 23.8266667,18.7563465 23.8266667,17.2222222 L23.8266667,2.77777778 C23.8266667,1.24365347 22.3342825,3.08395285e-16 20.4933333,2.46716228e-16 L4.82666667,2.46716228e-16 L3.16,0 Z M3.49333333,1.38888889 L20.4933333,1.38888889 C21.4138079,1.38888889 22.16,2.01071563 22.16,2.77777778 L22.16,4.16666667 L12.16,10.7777778 L1.82333333,4.16666667 L1.82333333,2.77777778 C1.82333245,2.40893976 1.99938468,2.05524882 2.31266662,1.79470163 C2.62594856,1.53415444 3.05072859,1.38815121 3.49333333,1.38888889 Z M20.4933333,18.6111111 L3.49333333,18.6111111 C2.57285875,18.6111111 1.82666667,17.9892844 1.82666667,17.2222222 L1.82666667,5.98055556 L12.16,12.5694444 L22.16,5.94722222 L22.16,17.2222222 C22.1600293,17.9849661 21.42193,18.6050092 20.5066667,18.6111111 L20.4933333,18.6111111 Z" id="Shape"></path>
            </g>
        </g>
    </g>
</svg>