<svg xmlns="http://www.w3.org/2000/svg" xmlns:xlink="http://www.w3.org/1999/xlink" width="24" height="24" viewBox="0 0 24 24">
  <defs>
    <path id="video-a" d="M19.3662,0.1123 L14.0002,3.6003 L14.0002,1.0003 C14.0002,0.4473 13.5532,0.0003 13.0002,0.0003 L1.0002,0.0003 C0.4472,0.0003 0.0002,0.4473 0.0002,1.0003 L0.0002,11.0003 C0.0002,11.5523 0.4472,12.0003 1.0002,12.0003 L13.0002,12.0003 C13.5532,12.0003 14.0002,11.5523 14.0002,11.0003 L14.0002,8.4003 L19.3662,11.8873 C19.6202,12.0523 20.0002,11.9083 20.0002,11.6463 L20.0002,0.3533 C20.0002,0.0913 19.6202,-0.0537 19.3662,0.1123"/>
  </defs>
  <g fill="none" fill-rule="evenodd" transform="translate(2 6)">
    <mask id="video-b" fill="#fff">
      <use xlink:href="#video-a"/>
    </mask>
    <use fill="#333" xlink:href="#video-a"/>
    <g fill="#FFF" mask="url(#video-b)">
      <rect width="24" height="24" rx="2" transform="translate(-2 -6)"/>
    </g>
  </g>
</svg>
