<svg id="Layer_1" data-name="Layer 1" xmlns="http://www.w3.org/2000/svg" xmlns:xlink="http://www.w3.org/1999/xlink" viewBox="0 0 74 74"><defs><style>.cls-1,.cls-2,.cls-4{fill:#979797;}.cls-1{clip-rule:evenodd;}.cls-2{fill-rule:evenodd;}.cls-3{clip-path:url(#clip-path);}.cls-5{fill:#333;}</style><clipPath id="clip-path"><path class="cls-1" d="M1116.06-3141h-43a10,10,0,0,0-10,10v8.06a10,10,0,0,0-9,10v34a10,10,0,0,0,10,10h43a10,10,0,0,0,10-10V-3087a10,10,0,0,0,9-10v-34A10,10,0,0,0,1116.06-3141ZM1064-3118h43a5,5,0,0,1,5,5v1l-27,19.8-26-19.76v-1A5,5,0,0,1,1064-3118Zm43,44h-43a5,5,0,0,1-5-5v-26.5l26,19.72,27.09-19.84v26.62A5,5,0,0,1,1107.05-3073.93Zm14-23a5,5,0,0,1-4,4.9V-3113a10,10,0,0,0-10-10h-39v-8a5,5,0,0,1,5-5h43a5,5,0,0,1,5,5Z"/></clipPath></defs><title>ico</title><path class="cls-2" d="M1116.06-3141h-43a10,10,0,0,0-10,10v8.06a10,10,0,0,0-9,10v34a10,10,0,0,0,10,10h43a10,10,0,0,0,10-10V-3087a10,10,0,0,0,9-10v-34A10,10,0,0,0,1116.06-3141ZM1064-3118h43a5,5,0,0,1,5,5v1l-27,19.8-26-19.76v-1A5,5,0,0,1,1064-3118Zm43,44h-43a5,5,0,0,1-5-5v-26.5l26,19.72,27.09-19.84v26.62A5,5,0,0,1,1107.05-3073.93Zm14-23a5,5,0,0,1-4,4.9V-3113a10,10,0,0,0-10-10h-39v-8a5,5,0,0,1,5-5h43a5,5,0,0,1,5,5Z"/><g class="cls-3"><rect class="cls-4" x="-4438.83" y="-3248.61" width="6456.88" height="6582.43"/></g><path class="cls-5" d="M69,33H66.95a4,4,0,0,1-3.85-2.93,26.83,26.83,0,0,0-2.74-6.62,4,4,0,0,1,.64-4.8l1.45-1.45a4,4,0,0,0,0-5.66h0a4,4,0,0,0-5.66,0L55.35,13a4,4,0,0,1-4.8.64,26.83,26.83,0,0,0-6.62-2.74A4,4,0,0,1,41,7.05V5a4,4,0,0,0-8,0V7.05a4,4,0,0,1-2.93,3.85,26.83,26.83,0,0,0-6.62,2.74,4,4,0,0,1-4.8-.64L17.2,11.54a4,4,0,0,0-5.66,0h0a4,4,0,0,0,0,5.66L13,18.65a4,4,0,0,1,.64,4.8,26.83,26.83,0,0,0-2.74,6.62A4,4,0,0,1,7.05,33H5a4,4,0,0,0,0,8H7.05a4,4,0,0,1,3.85,2.93,26.83,26.83,0,0,0,2.74,6.62,4,4,0,0,1-.64,4.8L11.54,56.8a4,4,0,0,0,0,5.66h0a4,4,0,0,0,5.66,0L18.65,61a4,4,0,0,1,4.8-.64,26.83,26.83,0,0,0,6.62,2.74A4,4,0,0,1,33,66.95V69a4,4,0,0,0,8,0V66.95a4,4,0,0,1,2.93-3.85,26.83,26.83,0,0,0,6.62-2.74,4,4,0,0,1,4.8.64l1.45,1.45a4,4,0,0,0,5.66,0h0a4,4,0,0,0,0-5.66L61,55.35a4,4,0,0,1-.64-4.8,26.83,26.83,0,0,0,2.74-6.62A4,4,0,0,1,66.95,41H69a4,4,0,0,0,0-8ZM50.41,41A13.91,13.91,0,1,1,51,37,13.93,13.93,0,0,1,50.41,41Z"/></svg>