<?xml version="1.0" encoding="UTF-8"?>
<svg width="17px" height="17px" viewBox="0 0 17 17" version="1.1" xmlns="http://www.w3.org/2000/svg" xmlns:xlink="http://www.w3.org/1999/xlink">
    <!-- Generator: Sketch 46.2 (44496) - http://www.bohemiancoding.com/sketch -->
    <title>Page 1</title>
    <desc>Created with Sketch.</desc>
    <defs>
        <polygon id="path-1" points="17 0 0 0 0 17 17 17 17 3.35535002e-15"></polygon>
    </defs>
    <g id="Media" stroke="none" stroke-width="1" fill="none" fill-rule="evenodd">
        <g id="audio-popup" transform="translate(-1203.000000, -91.000000)">
            <g id="Page-1" transform="translate(1203.000000, 91.000000)">
                <mask id="mask-2" fill="white">
                    <use xlink:href="#path-1"></use>
                </mask>
                <g id="Clip-2"></g>
                <path d="M12.1542917,14.8379306 C13.1650833,13.4139444 13.8205278,11.3904722 13.9168611,9.09027778 L15.7937083,9.09027778 C15.5963194,11.5470139 14.1820139,13.6642222 12.1542917,14.8379306 L12.1542917,14.8379306 Z M1.20652778,9.09027778 L3.083375,9.09027778 C3.17970833,11.3904722 3.83515278,13.4139444 4.84594444,14.8379306 C2.81822222,13.6642222 1.40391667,11.5470139 1.20652778,9.09027778 L1.20652778,9.09027778 Z M4.84594444,2.16206944 C3.83515278,3.58629167 3.17970833,5.60952778 3.083375,7.90972222 L1.20652778,7.90972222 C1.40391667,5.45298611 2.81822222,3.33577778 4.84594444,2.16206944 L4.84594444,2.16206944 Z M8.97222222,7.90972222 L8.97222222,1.22943056 C10.9510694,1.62633333 12.5663056,4.47572222 12.7344167,7.90972222 L8.97222222,7.90972222 Z M8.97222222,15.7708056 L8.97222222,9.09027778 L12.7344167,9.09027778 C12.5663056,12.5245139 10.9510694,15.3739028 8.97222222,15.7708056 L8.97222222,15.7708056 Z M7.79166667,9.09027778 L7.79166667,15.7108333 C5.92190278,15.1436944 4.42708333,12.3868611 4.26581944,9.09027778 L7.79166667,9.09027778 Z M7.79166667,1.28940278 L7.79166667,7.90972222 L4.26581944,7.90972222 C4.42708333,4.613375 5.92190278,1.85630556 7.79166667,1.28940278 L7.79166667,1.28940278 Z M15.7937083,7.90972222 L13.9168611,7.90972222 C13.8205278,5.60952778 13.1650833,3.58629167 12.1542917,2.16206944 C14.1820139,3.33577778 15.5963194,5.45298611 15.7937083,7.90972222 L15.7937083,7.90972222 Z M8.5,0 C3.81319444,0 0,3.81319444 0,8.5 C0,13.1870417 3.81319444,17 8.5,17 C13.1870417,17 17,13.1870417 17,8.5 C17,3.81319444 13.1870417,0 8.5,0 L8.5,0 Z" id="Fill-1" fill="#C1C1C1" mask="url(#mask-2)"></path>
            </g>
        </g>
    </g>
</svg>