<?xml version="1.0" encoding="UTF-8"?>
<svg width="13px" height="16px" viewBox="0 0 13 16" version="1.1" xmlns="http://www.w3.org/2000/svg" xmlns:xlink="http://www.w3.org/1999/xlink">
    <!-- Generator: Sketch 46.2 (44496) - http://www.bohemiancoding.com/sketch -->
    <title>Fill 1</title>
    <desc>Created with Sketch.</desc>
    <defs></defs>
    <g id="Network" stroke="none" stroke-width="1" fill="none" fill-rule="evenodd">
        <g id="My-Network-INNER" transform="translate(-261.000000, -522.000000)" fill="#C1C1C1">
            <g id="Group-4" transform="translate(136.000000, 162.000000)">
                <g id="Group-2" transform="translate(0.000000, 231.000000)">
                    <g id="Group" transform="translate(31.000000, 52.000000)">
                        <g id="Page-1" transform="translate(94.000000, 77.000000)">
                            <path d="M6.26086957,4.6771204 C5.21387643,4.6771204 4.36217849,5.54949583 4.36217849,6.62190783 C4.36217849,7.69431983 5.21387643,8.56669526 6.26086957,8.56669526 C7.3078627,8.56669526 8.15956064,7.69431983 8.15956064,6.62190783 C8.15956064,5.54949583 7.3078627,4.6771204 6.26086957,4.6771204 L6.26086957,4.6771204 Z M6.26086957,9.6917603 C4.60843936,9.6917603 3.26378032,8.31468069 3.26378032,6.62190783 C3.26378032,4.92913497 4.60843936,3.55205535 6.26086957,3.55205535 C7.91329977,3.55205535 9.25795881,4.92913497 9.25795881,6.62190783 C9.25795881,8.31468069 7.91329977,9.6917603 6.26086957,9.6917603 L6.26086957,9.6917603 Z M2.19921281,10.0511061 L6.26086957,14.3769812 L10.3225263,10.0511061 C10.9011625,9.26311052 11.2673684,8.32323119 11.3820412,7.33114883 C11.4097208,7.09150998 11.423341,6.86739702 11.423341,6.64598422 C11.423341,3.60178323 9.10747826,1.12506504 6.26086957,1.12506504 C3.41426087,1.12506504 1.09839817,3.60178323 1.09839817,6.64598422 C1.09839817,6.86739702 1.11201831,7.09150998 1.13969794,7.33114883 C1.25437071,8.32323119 1.62057666,9.26311052 2.19921281,10.0511061 L2.19921281,10.0511061 Z M6.26086957,16 L1.34378032,10.7576469 C0.63597254,9.80471684 0.187826087,8.66570099 0.0489885584,7.46368149 C0.0160366133,7.17971508 0,6.91217461 0,6.64598422 C0,2.98142236 2.80860412,0 6.26086957,0 C9.71313501,0 12.5217391,2.98142236 12.5217391,6.64598422 C12.5217391,6.91217461 12.5057025,7.17971508 12.4727506,7.46368149 C12.333913,8.66570099 11.8857666,9.80471684 11.1779588,10.7576469 L11.136659,10.8069248 L6.26086957,16 Z" id="Fill-1"></path>
                        </g>
                    </g>
                </g>
            </g>
        </g>
    </g>
</svg>