<svg id="Layer_1" data-name="Layer 1" xmlns="http://www.w3.org/2000/svg" xmlns:xlink="http://www.w3.org/1999/xlink" viewBox="0 0 74 74"><defs><style>.cls-1,.cls-2,.cls-4{fill:#979797;}.cls-1{clip-rule:evenodd;}.cls-2{fill-rule:evenodd;}.cls-3{clip-path:url(#clip-path);}</style><clipPath id="clip-path"><path class="cls-1" d="M-862.94-3238h-43a10,10,0,0,0-10,10v8.06a10,10,0,0,0-9,10v34a10,10,0,0,0,10,10h43a10,10,0,0,0,10-10V-3184a10,10,0,0,0,9-10v-34A10,10,0,0,0-862.94-3238ZM-915-3215h43a5,5,0,0,1,5,5v1l-27,19.8-26-19.76v-1A5,5,0,0,1-915-3215Zm43,44h-43a5,5,0,0,1-5-5v-26.5l26,19.72,27.09-19.84v26.62A5,5,0,0,1-871.95-3170.93Zm14-23a5,5,0,0,1-4,4.9V-3210a10,10,0,0,0-10-10h-39v-8a5,5,0,0,1,5-5h43a5,5,0,0,1,5,5Z"/></clipPath></defs><title>ico</title><path class="cls-2" d="M-862.94-3238h-43a10,10,0,0,0-10,10v8.06a10,10,0,0,0-9,10v34a10,10,0,0,0,10,10h43a10,10,0,0,0,10-10V-3184a10,10,0,0,0,9-10v-34A10,10,0,0,0-862.94-3238ZM-915-3215h43a5,5,0,0,1,5,5v1l-27,19.8-26-19.76v-1A5,5,0,0,1-915-3215Zm43,44h-43a5,5,0,0,1-5-5v-26.5l26,19.72,27.09-19.84v26.62A5,5,0,0,1-871.95-3170.93Zm14-23a5,5,0,0,1-4,4.9V-3210a10,10,0,0,0-10-10h-39v-8a5,5,0,0,1,5-5h43a5,5,0,0,1,5,5Z"/><g class="cls-3"><rect class="cls-4" x="-6417.83" y="-3345.61" width="6456.88" height="6582.43"/></g><polygon class="cls-4" points="13.95 8.87 8.87 13.95 31.93 37 8.87 60.05 13.95 65.13 37 42.07 60.05 65.13 65.13 60.05 42.07 37 65.13 13.95 60.05 8.87 37 31.93 13.95 8.87"/></svg>