<svg id="Layer_1" data-name="Layer 1" xmlns="http://www.w3.org/2000/svg" xmlns:xlink="http://www.w3.org/1999/xlink" viewBox="0 0 74 74"><defs><clipPath id="clip-path"><path d="M-124,46.06v-9a27,27,0,0,0-20-26V8.23a7.13,7.13,0,0,0-5.46-7.06A7,7,0,0,0-158,8v3.06a27,27,0,0,0-20,26v9a9,9,0,0,0-8.9,10.31A9.16,9.16,0,0,0-177.74,64H-160a9,9,0,0,0,9,9,9,9,0,0,0,9-9h17.74a9.16,9.16,0,0,0,9.16-7.64A9,9,0,0,0-124,46.06ZM-153,8a2,2,0,0,1,2.66-1.89,2.05,2.05,0,0,1,1.34,2v2c-.66,0-1.33-.08-2-.08s-1.34,0-2,.08Zm-20,29a22,22,0,0,1,25.28-21.71C-136.86,16.91-129,26.55-129,37.52V46h-44Zm21.91,31a4,4,0,0,1-4-4h8A4,4,0,0,1-151.09,68Zm30.91-12.15A4.1,4.1,0,0,1-124.24,59h-53.7A4.1,4.1,0,0,1-182,55.86,4,4,0,0,1-178.09,51h54A4,4,0,0,1-120.18,55.86Z" style="fill:#979797;clip-rule:evenodd"/></clipPath><clipPath id="clip-path-2"><path d="M2243.06-3141h-43a10,10,0,0,0-10,10v8.06a10,10,0,0,0-9,10v34a10,10,0,0,0,10,10h43a10,10,0,0,0,10-10V-3087a10,10,0,0,0,9-10v-34A10,10,0,0,0,2243.06-3141ZM2191-3118h43a5,5,0,0,1,5,5v1l-27,19.8-26-19.76v-1A5,5,0,0,1,2191-3118Zm43,44h-43a5,5,0,0,1-5-5v-26.5l26,19.72,27.09-19.84v26.62A5,5,0,0,1,2234.05-3073.93Zm14-23a5,5,0,0,1-4,4.9V-3113a10,10,0,0,0-10-10h-39v-8a5,5,0,0,1,5-5h43a5,5,0,0,1,5,5Z" style="fill:#979797;clip-rule:evenodd"/></clipPath><clipPath id="clip-path-3"><path d="M-31,1H-74A10,10,0,0,0-84,11V19a10,10,0,0,0-9,10V63A10,10,0,0,0-83,73h43A10,10,0,0,0-30,63V55a10,10,0,0,0,9-10V11A10,10,0,0,0-31,1ZM-83,24h43a5,5,0,0,1,5,5v1l-27,19.8L-88,30V29A5,5,0,0,1-83,24Zm43,44H-83a5,5,0,0,1-5-5V36.53l26,19.72L-35,36.41V63A5,5,0,0,1-40,68Zm14-23a5,5,0,0,1-4,4.9V29A10,10,0,0,0-40,19H-79V11a5,5,0,0,1,5-5h43a5,5,0,0,1,5,5Z" style="fill:#979797;clip-rule:evenodd"/></clipPath><clipPath id="clip-path-4"><rect x="-5585.87" y="-106.65" width="6456.88" height="6582.43" style="fill:#979797"/></clipPath></defs><title>ico</title><path d="M-124,46.06v-9a27,27,0,0,0-20-26V8.23a7.13,7.13,0,0,0-5.46-7.06A7,7,0,0,0-158,8v3.06a27,27,0,0,0-20,26v9a9,9,0,0,0-8.9,10.31A9.16,9.16,0,0,0-177.74,64H-160a9,9,0,0,0,9,9,9,9,0,0,0,9-9h17.74a9.16,9.16,0,0,0,9.16-7.64A9,9,0,0,0-124,46.06ZM-153,8a2,2,0,0,1,2.66-1.89,2.05,2.05,0,0,1,1.34,2v2c-.66,0-1.33-.08-2-.08s-1.34,0-2,.08Zm-20,29a22,22,0,0,1,25.28-21.71C-136.86,16.91-129,26.55-129,37.52V46h-44Zm21.91,31a4,4,0,0,1-4-4h8A4,4,0,0,1-151.09,68Zm30.91-12.15A4.1,4.1,0,0,1-124.24,59h-53.7A4.1,4.1,0,0,1-182,55.86,4,4,0,0,1-178.09,51h54A4,4,0,0,1-120.18,55.86Z" style="fill:#979797;fill-rule:evenodd"/><g style="clip-path:url(#clip-path)"><rect x="-5534" y="-106.98" width="6497" height="6624" style="fill:#979797"/></g><path d="M2243.06-3141h-43a10,10,0,0,0-10,10v8.06a10,10,0,0,0-9,10v34a10,10,0,0,0,10,10h43a10,10,0,0,0,10-10V-3087a10,10,0,0,0,9-10v-34A10,10,0,0,0,2243.06-3141ZM2191-3118h43a5,5,0,0,1,5,5v1l-27,19.8-26-19.76v-1A5,5,0,0,1,2191-3118Zm43,44h-43a5,5,0,0,1-5-5v-26.5l26,19.72,27.09-19.84v26.62A5,5,0,0,1,2234.05-3073.93Zm14-23a5,5,0,0,1-4,4.9V-3113a10,10,0,0,0-10-10h-39v-8a5,5,0,0,1,5-5h43a5,5,0,0,1,5,5Z" style="fill:#979797;fill-rule:evenodd"/><g style="clip-path:url(#clip-path-2)"><rect x="-3311.83" y="-3248.61" width="6456.88" height="6582.43" style="fill:#979797"/></g><path d="M-31,1H-74A10,10,0,0,0-84,11V19a10,10,0,0,0-9,10V63A10,10,0,0,0-83,73h43A10,10,0,0,0-30,63V55a10,10,0,0,0,9-10V11A10,10,0,0,0-31,1ZM-83,24h43a5,5,0,0,1,5,5v1l-27,19.8L-88,30V29A5,5,0,0,1-83,24Zm43,44H-83a5,5,0,0,1-5-5V36.53l26,19.72L-35,36.41V63A5,5,0,0,1-40,68Zm14-23a5,5,0,0,1-4,4.9V29A10,10,0,0,0-40,19H-79V11a5,5,0,0,1,5-5h43a5,5,0,0,1,5,5Z" style="fill:#979797;fill-rule:evenodd"/><g style="clip-path:url(#clip-path-3)"><rect x="-5585.87" y="-106.65" width="6456.88" height="6582.43" style="fill:#979797"/><g style="clip-path:url(#clip-path-4)"><rect x="-115.46" y="-21.46" width="116.91" height="116.91" style="fill:#979797"/></g></g><path d="M61.48,73h-49A11.53,11.53,0,0,1,1,61.48v-49A11.53,11.53,0,0,1,12.52,1h49A11.53,11.53,0,0,1,73,12.52v49A11.53,11.53,0,0,1,61.48,73Z" style="fill:#ff7b84"/><polygon points="61.5 35 40 35 40 11.5 35 11.5 35 35 11.5 35 11.5 40 35 40 35 63.5 40 63.5 40 40 61.5 40 61.5 35" style="fill:#fff"/></svg>