<svg id="Layer_1" data-name="Layer 1" xmlns="http://www.w3.org/2000/svg" xmlns:xlink="http://www.w3.org/1999/xlink" viewBox="0 0 74 74"><defs><clipPath id="clip-path"><path d="M-1063,46.06v-9a27,27,0,0,0-20-26V8.23a7.13,7.13,0,0,0-5.46-7.06A7,7,0,0,0-1097,8v3.06a27,27,0,0,0-20,26v9a9,9,0,0,0-8.9,10.31,9.16,9.16,0,0,0,9.16,7.64H-1099a9,9,0,0,0,9,9,9,9,0,0,0,9-9h17.74a9.16,9.16,0,0,0,9.16-7.64A9,9,0,0,0-1063,46.06ZM-1092,8a2,2,0,0,1,2.66-1.89,2.05,2.05,0,0,1,1.34,2v2c-.66,0-1.33-.08-2-.08s-1.34,0-2,.08Zm-20,29a22,22,0,0,1,25.28-21.71c10.86,1.57,18.72,11.22,18.72,22.19V46h-44Zm21.91,31a4,4,0,0,1-4-4h8A4,4,0,0,1-1090.09,68Zm30.91-12.15a4.1,4.1,0,0,1-4.06,3.16h-53.7a4.1,4.1,0,0,1-4.06-3.16,4,4,0,0,1,3.91-4.84h54A4,4,0,0,1-1059.18,55.86Z" style="fill:#979797;clip-rule:evenodd"/></clipPath><clipPath id="clip-path-2"><path d="M1304.06-3141h-43a10,10,0,0,0-10,10v8.06a10,10,0,0,0-9,10v34a10,10,0,0,0,10,10h43a10,10,0,0,0,10-10V-3087a10,10,0,0,0,9-10v-34A10,10,0,0,0,1304.06-3141ZM1252-3118h43a5,5,0,0,1,5,5v1l-27,19.8-26-19.76v-1A5,5,0,0,1,1252-3118Zm43,44h-43a5,5,0,0,1-5-5v-26.5l26,19.72,27.09-19.84v26.62A5,5,0,0,1,1295.05-3073.93Zm14-23a5,5,0,0,1-4,4.9V-3113a10,10,0,0,0-10-10h-39v-8a5,5,0,0,1,5-5h43a5,5,0,0,1,5,5Z" style="fill:#979797;clip-rule:evenodd"/></clipPath></defs><title>ico</title><path d="M-1063,46.06v-9a27,27,0,0,0-20-26V8.23a7.13,7.13,0,0,0-5.46-7.06A7,7,0,0,0-1097,8v3.06a27,27,0,0,0-20,26v9a9,9,0,0,0-8.9,10.31,9.16,9.16,0,0,0,9.16,7.64H-1099a9,9,0,0,0,9,9,9,9,0,0,0,9-9h17.74a9.16,9.16,0,0,0,9.16-7.64A9,9,0,0,0-1063,46.06ZM-1092,8a2,2,0,0,1,2.66-1.89,2.05,2.05,0,0,1,1.34,2v2c-.66,0-1.33-.08-2-.08s-1.34,0-2,.08Zm-20,29a22,22,0,0,1,25.28-21.71c10.86,1.57,18.72,11.22,18.72,22.19V46h-44Zm21.91,31a4,4,0,0,1-4-4h8A4,4,0,0,1-1090.09,68Zm30.91-12.15a4.1,4.1,0,0,1-4.06,3.16h-53.7a4.1,4.1,0,0,1-4.06-3.16,4,4,0,0,1,3.91-4.84h54A4,4,0,0,1-1059.18,55.86Z" style="fill:#979797;fill-rule:evenodd"/><g style="clip-path:url(#clip-path)"><rect x="-6473" y="-106.98" width="6497" height="6624" style="fill:#979797"/></g><path d="M1304.06-3141h-43a10,10,0,0,0-10,10v8.06a10,10,0,0,0-9,10v34a10,10,0,0,0,10,10h43a10,10,0,0,0,10-10V-3087a10,10,0,0,0,9-10v-34A10,10,0,0,0,1304.06-3141ZM1252-3118h43a5,5,0,0,1,5,5v1l-27,19.8-26-19.76v-1A5,5,0,0,1,1252-3118Zm43,44h-43a5,5,0,0,1-5-5v-26.5l26,19.72,27.09-19.84v26.62A5,5,0,0,1,1295.05-3073.93Zm14-23a5,5,0,0,1-4,4.9V-3113a10,10,0,0,0-10-10h-39v-8a5,5,0,0,1,5-5h43a5,5,0,0,1,5,5Z" style="fill:#979797;fill-rule:evenodd"/><g style="clip-path:url(#clip-path-2)"><rect x="-4250.83" y="-3248.61" width="6456.88" height="6582.43" style="fill:#979797"/></g><path d="M49.27,1.86A8.77,8.77,0,0,0,39.89,3L19,20.06H11.95A11.26,11.26,0,0,0,.71,31.3V42.7A11.26,11.26,0,0,0,11.95,53.94H19L39.89,71h0a8.76,8.76,0,0,0,9.37,1.16,9.27,9.27,0,0,0,5.27-8.49V10.34A9.27,9.27,0,0,0,49.27,1.86Z" style="fill:#fff"/><path d="M64.24,59.35l-3.54-3.54a26.64,26.64,0,0,0,0-37.64l3.54-3.54A31.65,31.65,0,0,1,64.24,59.35Z" style="fill:#fff"/></svg>