<svg id="Layer_1" data-name="Layer 1" xmlns="http://www.w3.org/2000/svg" xmlns:xlink="http://www.w3.org/1999/xlink" viewBox="0 0 74 74"><defs><style>.cls-1,.cls-2,.cls-4{fill:#979797;}.cls-1{clip-rule:evenodd;}.cls-2{fill-rule:evenodd;}.cls-3{clip-path:url(#clip-path);}.cls-5{fill:#333;}</style><clipPath id="clip-path"><path class="cls-1" d="M-464.52,1a10,10,0,0,0-9,10V63a10,10,0,0,0,10,10h51a10,10,0,0,0,10-10V11a10,10,0,0,0-10-10h-47Zm1,5h51a5,5,0,0,1,5,5v5l-30,23.8-31-23.76V11A5,5,0,0,1-463.52,6Zm51,62h-51a5,5,0,0,1-5-5V22.53l31,23.72,30-23.84V63A5,5,0,0,1-412.48,68Z"/></clipPath></defs><title>ico</title><path class="cls-2" d="M-464.52,1a10,10,0,0,0-9,10V63a10,10,0,0,0,10,10h51a10,10,0,0,0,10-10V11a10,10,0,0,0-10-10h-47Zm1,5h51a5,5,0,0,1,5,5v5l-30,23.8-31-23.76V11A5,5,0,0,1-463.52,6Zm51,62h-51a5,5,0,0,1-5-5V22.53l31,23.72,30-23.84V63A5,5,0,0,1-412.48,68Z"/><g class="cls-3"><rect class="cls-4" x="-5966.37" y="-106.65" width="6456.88" height="6582.43"/></g><polygon class="cls-5" points="72.9 60.52 66.19 60.52 66.19 54.75 61.19 54.75 61.19 60.52 54.73 60.52 54.73 65.52 61.19 65.52 61.19 72.92 66.19 72.92 66.19 65.52 72.9 65.52 72.9 60.52"/><path class="cls-5" d="M23.24,57.13v-5H40.51A8.48,8.48,0,0,0,49,43.6v-24h8.66a3.48,3.48,0,0,1,3.48,3.47v26.5h5V23.08a8.48,8.48,0,0,0-8.48-8.47H49v-5a8.48,8.48,0,0,0-8.48-8.48H9.58A8.49,8.49,0,0,0,1.1,9.56v34a8.49,8.49,0,0,0,8.48,8.48h8.66v5a8.5,8.5,0,0,0,8.48,8.48h23v-5h-23A3.48,3.48,0,0,1,23.24,57.13Zm-13.66-10A3.48,3.48,0,0,1,6.1,43.6v-34A3.48,3.48,0,0,1,9.58,6.08H40.51A3.48,3.48,0,0,1,44,9.56v34a3.48,3.48,0,0,1-3.48,3.48H9.58Z"/></svg>