<svg xmlns="http://www.w3.org/2000/svg" xmlns:xlink="http://www.w3.org/1999/xlink" id="Layer_1" data-name="Layer 1" viewBox="0 0 74 74"><defs><style>.cls-1,.cls-2,.cls-4{fill:#fff;}.cls-1{clip-rule:evenodd;}.cls-2{fill-rule:evenodd;}.cls-3{clip-path:url(#clip-path);}.cls-5{clip-path:url(#clip-path-2);}.cls-6{clip-path:url(#clip-path-3);}</style><clipPath id="clip-path"><path class="cls-1" d="M-500,46.06v-9a27,27,0,0,0-20-26V8.23a7.13,7.13,0,0,0-5.46-7.06A7,7,0,0,0-534,8v3.06a27,27,0,0,0-20,26v9a9,9,0,0,0-8.9,10.31A9.16,9.16,0,0,0-553.74,64H-536a9,9,0,0,0,9,9,9,9,0,0,0,9-9h17.74a9.16,9.16,0,0,0,9.16-7.64A9,9,0,0,0-500,46.06ZM-529,8a2,2,0,0,1,2.66-1.89,2.05,2.05,0,0,1,1.34,2v2c-.66,0-1.33-.08-2-.08s-1.34,0-2,.08Zm-20,29a22,22,0,0,1,25.28-21.71C-512.86,16.91-505,26.55-505,37.52V46h-44Zm21.91,31a4,4,0,0,1-4-4h8A4,4,0,0,1-527.09,68Zm30.91-12.15A4.1,4.1,0,0,1-500.24,59h-53.7A4.1,4.1,0,0,1-558,55.86,4,4,0,0,1-554.09,51h54A4,4,0,0,1-496.18,55.86Z"/></clipPath><clipPath id="clip-path-2"><path class="cls-1" d="M1867.06-3141h-43a10,10,0,0,0-10,10v8.06a10,10,0,0,0-9,10v34a10,10,0,0,0,10,10h43a10,10,0,0,0,10-10V-3087a10,10,0,0,0,9-10v-34A10,10,0,0,0,1867.06-3141ZM1815-3118h43a5,5,0,0,1,5,5v1l-27,19.8-26-19.76v-1A5,5,0,0,1,1815-3118Zm43,44h-43a5,5,0,0,1-5-5v-26.5l26,19.72,27.09-19.84v26.62A5,5,0,0,1,1858.05-3073.93Zm14-23a5,5,0,0,1-4,4.9V-3113a10,10,0,0,0-10-10h-39v-8a5,5,0,0,1,5-5h43a5,5,0,0,1,5,5Z"/></clipPath><clipPath id="clip-path-3"><path class="cls-1" d="M-407,1h-43a10,10,0,0,0-10,10V19a10,10,0,0,0-9,10V63a10,10,0,0,0,10,10h43a10,10,0,0,0,10-10V55a10,10,0,0,0,9-10V11A10,10,0,0,0-407,1ZM-459,24h43a5,5,0,0,1,5,5v1l-27,19.8L-464,30V29A5,5,0,0,1-459,24Zm43,44h-43a5,5,0,0,1-5-5V36.53l26,19.72L-411,36.41V63A5,5,0,0,1-416,68Zm14-23a5,5,0,0,1-4,4.9V29a10,10,0,0,0-10-10h-39V11a5,5,0,0,1,5-5h43a5,5,0,0,1,5,5Z"/></clipPath></defs><title>ico</title><path class="cls-2" d="M-500,46.06v-9a27,27,0,0,0-20-26V8.23a7.13,7.13,0,0,0-5.46-7.06A7,7,0,0,0-534,8v3.06a27,27,0,0,0-20,26v9a9,9,0,0,0-8.9,10.31A9.16,9.16,0,0,0-553.74,64H-536a9,9,0,0,0,9,9,9,9,0,0,0,9-9h17.74a9.16,9.16,0,0,0,9.16-7.64A9,9,0,0,0-500,46.06ZM-529,8a2,2,0,0,1,2.66-1.89,2.05,2.05,0,0,1,1.34,2v2c-.66,0-1.33-.08-2-.08s-1.34,0-2,.08Zm-20,29a22,22,0,0,1,25.28-21.71C-512.86,16.91-505,26.55-505,37.52V46h-44Zm21.91,31a4,4,0,0,1-4-4h8A4,4,0,0,1-527.09,68Zm30.91-12.15A4.1,4.1,0,0,1-500.24,59h-53.7A4.1,4.1,0,0,1-558,55.86,4,4,0,0,1-554.09,51h54A4,4,0,0,1-496.18,55.86Z"/><g class="cls-3"><rect class="cls-4" x="-5910" y="-106.98" width="6497" height="6624"/></g><path class="cls-2" d="M1867.06-3141h-43a10,10,0,0,0-10,10v8.06a10,10,0,0,0-9,10v34a10,10,0,0,0,10,10h43a10,10,0,0,0,10-10V-3087a10,10,0,0,0,9-10v-34A10,10,0,0,0,1867.06-3141ZM1815-3118h43a5,5,0,0,1,5,5v1l-27,19.8-26-19.76v-1A5,5,0,0,1,1815-3118Zm43,44h-43a5,5,0,0,1-5-5v-26.5l26,19.72,27.09-19.84v26.62A5,5,0,0,1,1858.05-3073.93Zm14-23a5,5,0,0,1-4,4.9V-3113a10,10,0,0,0-10-10h-39v-8a5,5,0,0,1,5-5h43a5,5,0,0,1,5,5Z"/><g class="cls-5"><rect class="cls-4" x="-3687.83" y="-3248.61" width="6456.88" height="6582.43"/></g><path class="cls-2" d="M-407,1h-43a10,10,0,0,0-10,10V19a10,10,0,0,0-9,10V63a10,10,0,0,0,10,10h43a10,10,0,0,0,10-10V55a10,10,0,0,0,9-10V11A10,10,0,0,0-407,1ZM-459,24h43a5,5,0,0,1,5,5v1l-27,19.8L-464,30V29A5,5,0,0,1-459,24Zm43,44h-43a5,5,0,0,1-5-5V36.53l26,19.72L-411,36.41V63A5,5,0,0,1-416,68Zm14-23a5,5,0,0,1-4,4.9V29a10,10,0,0,0-10-10h-39V11a5,5,0,0,1,5-5h43a5,5,0,0,1,5,5Z"/><g class="cls-6"><rect class="cls-4" x="-5961.87" y="-106.65" width="6456.88" height="6582.43"/></g><path class="cls-4" d="M61.48,73h-49A11.53,11.53,0,0,1,1,61.48v-49A11.53,11.53,0,0,1,12.52,1h49A11.53,11.53,0,0,1,73,12.52v49A11.53,11.53,0,0,1,61.48,73Zm-49-67A6.52,6.52,0,0,0,6,12.52v49A6.52,6.52,0,0,0,12.52,68h49A6.52,6.52,0,0,0,68,61.48v-49A6.52,6.52,0,0,0,61.48,6Z"/><polygon class="cls-4" points="17.62 47.63 17.62 55.63 26.62 55.63 49.62 33.63 40.62 24.63 17.62 47.63"/><line class="cls-4" x1="45.12" y1="20.13" x2="54.62" y2="29.63"/><rect class="cls-4" x="47.37" y="18.17" width="5" height="13.44" transform="translate(-2.99 42.55) rotate(-45)"/></svg>
