<svg id="Layer_1" data-name="Layer 1" xmlns="http://www.w3.org/2000/svg" xmlns:xlink="http://www.w3.org/1999/xlink" viewBox="0 0 74 74"><defs><style>.cls-1,.cls-2,.cls-3{fill:#979797;}.cls-1{clip-rule:evenodd;}.cls-3{fill-rule:evenodd;}.cls-4{clip-path:url(#clip-path);}.cls-5{clip-path:url(#clip-path-2);}.cls-6{clip-path:url(#clip-path-3);}.cls-7{clip-path:url(#clip-path-4);}.cls-8{clip-path:url(#clip-path-5);}</style><clipPath id="clip-path"><path class="cls-1" d="M64,46.06v-9a27,27,0,0,0-20-26V8.23a7.13,7.13,0,0,0-5.46-7.06A7,7,0,0,0,30,8v3.06a27,27,0,0,0-20,26v9A9,9,0,0,0,1.1,56.37,9.16,9.16,0,0,0,10.26,64H28a9,9,0,0,0,18,0H63.74a9.16,9.16,0,0,0,9.16-7.64A9,9,0,0,0,64,46.06ZM35,8A2,2,0,0,1,37.66,6.1a2.05,2.05,0,0,1,1.34,2v2c-.66,0-1.33-.08-2-.08s-1.34,0-2,.08ZM15,37A22,22,0,0,1,40.28,15.33C51.14,16.91,59,26.55,59,37.52V46H15ZM36.91,68a4,4,0,0,1-4-4h8A4,4,0,0,1,36.91,68ZM67.82,55.86A4.1,4.1,0,0,1,63.76,59H10.06A4.1,4.1,0,0,1,6,55.86,4,4,0,0,1,9.91,51h54A4,4,0,0,1,67.82,55.86Z"/></clipPath><clipPath id="clip-path-2"><rect class="cls-2" x="-5346" y="-106.98" width="6497" height="6624"/></clipPath><clipPath id="clip-path-3"><path class="cls-1" d="M2431.06-3141h-43a10,10,0,0,0-10,10v8.06a10,10,0,0,0-9,10v34a10,10,0,0,0,10,10h43a10,10,0,0,0,10-10V-3087a10,10,0,0,0,9-10v-34A10,10,0,0,0,2431.06-3141ZM2379-3118h43a5,5,0,0,1,5,5v1l-27,19.8-26-19.76v-1A5,5,0,0,1,2379-3118Zm43,44h-43a5,5,0,0,1-5-5v-26.5l26,19.72,27.09-19.84v26.62A5,5,0,0,1,2422.05-3073.93Zm14-23a5,5,0,0,1-4,4.9V-3113a10,10,0,0,0-10-10h-39v-8a5,5,0,0,1,5-5h43a5,5,0,0,1,5,5Z"/></clipPath><clipPath id="clip-path-4"><path class="cls-1" d="M157,1H114a10,10,0,0,0-10,10V19a10,10,0,0,0-9,10V63a10,10,0,0,0,10,10h43a10,10,0,0,0,10-10V55a10,10,0,0,0,9-10V11A10,10,0,0,0,157,1ZM105,24h43a5,5,0,0,1,5,5v1l-27,19.8L100,30V29A5,5,0,0,1,105,24Zm43,44H105a5,5,0,0,1-5-5V36.53l26,19.72L153,36.41V63A5,5,0,0,1,148,68Zm14-23a5,5,0,0,1-4,4.9V29a10,10,0,0,0-10-10H109V11a5,5,0,0,1,5-5h43a5,5,0,0,1,5,5Z"/></clipPath><clipPath id="clip-path-5"><rect class="cls-2" x="-5397.87" y="-106.65" width="6456.88" height="6582.43"/></clipPath></defs><title>ico</title><path class="cls-3" d="M64,46.06v-9a27,27,0,0,0-20-26V8.23a7.13,7.13,0,0,0-5.46-7.06A7,7,0,0,0,30,8v3.06a27,27,0,0,0-20,26v9A9,9,0,0,0,1.1,56.37,9.16,9.16,0,0,0,10.26,64H28a9,9,0,0,0,18,0H63.74a9.16,9.16,0,0,0,9.16-7.64A9,9,0,0,0,64,46.06ZM35,8A2,2,0,0,1,37.66,6.1a2.05,2.05,0,0,1,1.34,2v2c-.66,0-1.33-.08-2-.08s-1.34,0-2,.08ZM15,37A22,22,0,0,1,40.28,15.33C51.14,16.91,59,26.55,59,37.52V46H15ZM36.91,68a4,4,0,0,1-4-4h8A4,4,0,0,1,36.91,68ZM67.82,55.86A4.1,4.1,0,0,1,63.76,59H10.06A4.1,4.1,0,0,1,6,55.86,4,4,0,0,1,9.91,51h54A4,4,0,0,1,67.82,55.86Z"/><g class="cls-4"><rect class="cls-2" x="-5346" y="-106.98" width="6497" height="6624"/><g class="cls-5"><rect class="cls-2" x="-22" y="-21.98" width="117" height="117"/></g></g><path class="cls-3" d="M2431.06-3141h-43a10,10,0,0,0-10,10v8.06a10,10,0,0,0-9,10v34a10,10,0,0,0,10,10h43a10,10,0,0,0,10-10V-3087a10,10,0,0,0,9-10v-34A10,10,0,0,0,2431.06-3141ZM2379-3118h43a5,5,0,0,1,5,5v1l-27,19.8-26-19.76v-1A5,5,0,0,1,2379-3118Zm43,44h-43a5,5,0,0,1-5-5v-26.5l26,19.72,27.09-19.84v26.62A5,5,0,0,1,2422.05-3073.93Zm14-23a5,5,0,0,1-4,4.9V-3113a10,10,0,0,0-10-10h-39v-8a5,5,0,0,1,5-5h43a5,5,0,0,1,5,5Z"/><g class="cls-6"><rect class="cls-2" x="-3123.83" y="-3248.61" width="6456.88" height="6582.43"/></g><path class="cls-3" d="M157,1H114a10,10,0,0,0-10,10V19a10,10,0,0,0-9,10V63a10,10,0,0,0,10,10h43a10,10,0,0,0,10-10V55a10,10,0,0,0,9-10V11A10,10,0,0,0,157,1ZM105,24h43a5,5,0,0,1,5,5v1l-27,19.8L100,30V29A5,5,0,0,1,105,24Zm43,44H105a5,5,0,0,1-5-5V36.53l26,19.72L153,36.41V63A5,5,0,0,1,148,68Zm14-23a5,5,0,0,1-4,4.9V29a10,10,0,0,0-10-10H109V11a5,5,0,0,1,5-5h43a5,5,0,0,1,5,5Z"/><g class="cls-7"><rect class="cls-2" x="-5397.87" y="-106.65" width="6456.88" height="6582.43"/><g class="cls-8"><rect class="cls-2" x="72.54" y="-21.46" width="116.91" height="116.91"/></g></g></svg>