<svg id="Layer_1" data-name="Layer 1" xmlns="http://www.w3.org/2000/svg" xmlns:xlink="http://www.w3.org/1999/xlink" viewBox="0 0 74 74"><defs><style>.cls-1,.cls-2,.cls-4{fill:#979797;}.cls-1{clip-rule:evenodd;}.cls-2{fill-rule:evenodd;}.cls-3{clip-path:url(#clip-path);}.cls-5{fill:#ff7b84;}</style><clipPath id="clip-path"><path class="cls-1" d="M-481.94-3141h-43a10,10,0,0,0-10,10v8.06a10,10,0,0,0-9,10v34a10,10,0,0,0,10,10h43a10,10,0,0,0,10-10V-3087a10,10,0,0,0,9-10v-34A10,10,0,0,0-481.94-3141ZM-534-3118h43a5,5,0,0,1,5,5v1l-27,19.8-26-19.76v-1A5,5,0,0,1-534-3118Zm43,44h-43a5,5,0,0,1-5-5v-26.5l26,19.72,27.09-19.84v26.62A5,5,0,0,1-490.95-3073.93Zm14-23a5,5,0,0,1-4,4.9V-3113a10,10,0,0,0-10-10h-39v-8a5,5,0,0,1,5-5h43a5,5,0,0,1,5,5Z"/></clipPath></defs><title>ico</title><path class="cls-2" d="M-481.94-3141h-43a10,10,0,0,0-10,10v8.06a10,10,0,0,0-9,10v34a10,10,0,0,0,10,10h43a10,10,0,0,0,10-10V-3087a10,10,0,0,0,9-10v-34A10,10,0,0,0-481.94-3141ZM-534-3118h43a5,5,0,0,1,5,5v1l-27,19.8-26-19.76v-1A5,5,0,0,1-534-3118Zm43,44h-43a5,5,0,0,1-5-5v-26.5l26,19.72,27.09-19.84v26.62A5,5,0,0,1-490.95-3073.93Zm14-23a5,5,0,0,1-4,4.9V-3113a10,10,0,0,0-10-10h-39v-8a5,5,0,0,1,5-5h43a5,5,0,0,1,5,5Z"/><g class="cls-3"><rect class="cls-4" x="-6036.83" y="-3248.61" width="6456.88" height="6582.43"/></g><polygon class="cls-5" points="57.8 39.5 57.8 34.5 40.5 34.5 40.5 17.2 35.5 17.2 35.5 34.5 18.2 34.5 18.2 39.5 35.5 39.5 35.5 56.8 40.5 56.8 40.5 39.5 57.8 39.5"/><path class="cls-5" d="M37,73A36,36,0,1,1,73,37,36,36,0,0,1,37,73ZM37,5A32,32,0,1,0,69,37,32,32,0,0,0,37,5Z"/></svg>