<svg xmlns="http://www.w3.org/2000/svg" xmlns:xlink="http://www.w3.org/1999/xlink" width="24" height="24" viewBox="0 0 24 24">
  <defs>
    <path id="image-a" d="M8,2.5 C7.173,2.5 6.5,3.173 6.5,4 C6.5,4.827 7.173,5.5 8,5.5 C8.827,5.5 9.5,4.827 9.5,4 C9.5,3.173 8.827,2.5 8,2.5 M4,7.293 L0,11.293 L0,1 C0,0.448 0.447,0 1,0 L15,0 C15.553,0 16,0.448 16,1 L16,11.293 L12,7.293 L8,11.293 L4,7.293 Z M12,8.707 L16,12.707 L16,15 C16,15.552 15.553,16 15,16 L1,16 C0.447,16 0,15.552 0,15 L0,12.707 L4,8.707 L8,12.707 L12,8.707 Z"/>
  </defs>
  <g fill="none" fill-rule="evenodd" transform="translate(4 4)">
    <mask id="image-b" fill="#fff">
      <use xlink:href="#image-a"/>
    </mask>
    <use fill="#333" xlink:href="#image-a"/>
    <g fill="#FFF" mask="url(#image-b)">
      <rect width="24" height="24" rx="2" transform="translate(-4 -4)"/>
    </g>
  </g>
</svg>
