<svg id="Layer_1" data-name="Layer 1" xmlns="http://www.w3.org/2000/svg" xmlns:xlink="http://www.w3.org/1999/xlink" viewBox="0 0 74 74"><defs><clipPath id="clip-path"><path d="M1210.06-3141h-43a10,10,0,0,0-10,10v8.06a10,10,0,0,0-9,10v34a10,10,0,0,0,10,10h43a10,10,0,0,0,10-10V-3087a10,10,0,0,0,9-10v-34A10,10,0,0,0,1210.06-3141ZM1158-3118h43a5,5,0,0,1,5,5v1l-27,19.8-26-19.76v-1A5,5,0,0,1,1158-3118Zm43,44h-43a5,5,0,0,1-5-5v-26.5l26,19.72,27.09-19.84v26.62A5,5,0,0,1,1201.05-3073.93Zm14-23a5,5,0,0,1-4,4.9V-3113a10,10,0,0,0-10-10h-39v-8a5,5,0,0,1,5-5h43a5,5,0,0,1,5,5Z" style="fill:#979797;clip-rule:evenodd"/></clipPath></defs><title>ico</title><path d="M1210.06-3141h-43a10,10,0,0,0-10,10v8.06a10,10,0,0,0-9,10v34a10,10,0,0,0,10,10h43a10,10,0,0,0,10-10V-3087a10,10,0,0,0,9-10v-34A10,10,0,0,0,1210.06-3141ZM1158-3118h43a5,5,0,0,1,5,5v1l-27,19.8-26-19.76v-1A5,5,0,0,1,1158-3118Zm43,44h-43a5,5,0,0,1-5-5v-26.5l26,19.72,27.09-19.84v26.62A5,5,0,0,1,1201.05-3073.93Zm14-23a5,5,0,0,1-4,4.9V-3113a10,10,0,0,0-10-10h-39v-8a5,5,0,0,1,5-5h43a5,5,0,0,1,5,5Z" style="fill:#979797;fill-rule:evenodd"/><g style="clip-path:url(#clip-path)"><rect x="-4344.83" y="-3248.61" width="6456.88" height="6582.43" style="fill:#979797"/></g><path d="M25.77,36.06l-2.29-7.5H12L9.7,36.06H2.5L13.63,4.4H21.8L33,36.06ZM21.88,22.95q-3.17-10.2-3.57-11.54T17.74,9.3Q17,12.06,13.67,22.95Z" style="fill:#fff"/><rect x="38" y="1.5" width="35" height="7.5" style="fill:#fff"/><rect x="38" y="17.5" width="35" height="7.5" style="fill:#fff"/><rect x="38" y="33.5" width="35" height="7.5" style="fill:#fff"/><rect x="2" y="49.5" width="71" height="7.5" style="fill:#fff"/><rect x="2" y="65.5" width="71" height="7.5" style="fill:#fff"/></svg>