<svg xmlns="http://www.w3.org/2000/svg" xmlns:xlink="http://www.w3.org/1999/xlink" width="24" height="24" viewBox="0 0 24 24">
  <defs>
    <path id="comment-copy-2-a" d="M4,6.999 L4,17.001 C4,17.182 4.048,17.352 4.132,17.499 C4.305,17.798 4.628,18 4.999,18 L8,18 L8,22 L12,18 L19.001,18 C19.183,18 19.353,17.952 19.5,17.867 C19.799,17.694 20,17.371 20,17.001 L20,6.999 C20,6.628 19.798,6.305 19.499,6.132 C19.352,6.048 19.182,6 19.001,6 L4.999,6 C4.629,6 4.306,6.201 4.133,6.5 C4.048,6.647 4,6.817 4,6.999"/>
  </defs>
  <g fill="none" fill-rule="evenodd">
    <use fill="#929292" xlink:href="#comment-copy-2-a"/>
  </g>
</svg>
