<svg id="Layer_1" data-name="Layer 1" xmlns="http://www.w3.org/2000/svg" xmlns:xlink="http://www.w3.org/1999/xlink" viewBox="0 0 74 74"><defs><style>.cls-1,.cls-2,.cls-4{fill:#979797;}.cls-1{clip-rule:evenodd;}.cls-2{fill-rule:evenodd;}.cls-3{clip-path:url(#clip-path);}.cls-5{fill:#ff7b84;}.cls-6{fill:#fff;}</style><clipPath id="clip-path"><path class="cls-1" d="M-580.94-3141h-43a10,10,0,0,0-10,10v8.06a10,10,0,0,0-9,10v34a10,10,0,0,0,10,10h43a10,10,0,0,0,10-10V-3087a10,10,0,0,0,9-10v-34A10,10,0,0,0-580.94-3141ZM-633-3118h43a5,5,0,0,1,5,5v1l-27,19.8-26-19.76v-1A5,5,0,0,1-633-3118Zm43,44h-43a5,5,0,0,1-5-5v-26.5l26,19.72,27.09-19.84v26.62A5,5,0,0,1-589.95-3073.93Zm14-23a5,5,0,0,1-4,4.9V-3113a10,10,0,0,0-10-10h-39v-8a5,5,0,0,1,5-5h43a5,5,0,0,1,5,5Z"/></clipPath></defs><title>ico</title><path class="cls-2" d="M-580.94-3141h-43a10,10,0,0,0-10,10v8.06a10,10,0,0,0-9,10v34a10,10,0,0,0,10,10h43a10,10,0,0,0,10-10V-3087a10,10,0,0,0,9-10v-34A10,10,0,0,0-580.94-3141ZM-633-3118h43a5,5,0,0,1,5,5v1l-27,19.8-26-19.76v-1A5,5,0,0,1-633-3118Zm43,44h-43a5,5,0,0,1-5-5v-26.5l26,19.72,27.09-19.84v26.62A5,5,0,0,1-589.95-3073.93Zm14-23a5,5,0,0,1-4,4.9V-3113a10,10,0,0,0-10-10h-39v-8a5,5,0,0,1,5-5h43a5,5,0,0,1,5,5Z"/><g class="cls-3"><rect class="cls-4" x="-6135.83" y="-3248.61" width="6456.88" height="6582.43"/></g><circle class="cls-5" cx="37" cy="37" r="34"/><polygon class="cls-6" points="50.23 52.77 53.77 49.23 41.53 37 53.77 24.77 50.23 21.23 38 33.47 25.77 21.23 22.23 24.77 34.47 37 22.23 49.23 25.77 52.77 38 40.53 50.23 52.77"/></svg>