<?xml version="1.0" encoding="UTF-8"?>
<svg width="17px" height="24px" viewBox="0 0 17 24" version="1.1" xmlns="http://www.w3.org/2000/svg" xmlns:xlink="http://www.w3.org/1999/xlink">
    <!-- Generator: Sketch 46.2 (44496) - http://www.bohemiancoding.com/sketch -->
    <title>ico_phone</title>
    <desc>Created with Sketch.</desc>
    <defs>
        <rect id="path-1" x="135" y="620" width="1170" height="291" rx="3"></rect>
        <filter x="-0.3%" y="-0.9%" width="100.6%" height="102.4%" filterUnits="objectBoundingBox" id="filter-2">
            <feOffset dx="0" dy="1" in="SourceAlpha" result="shadowOffsetOuter1"></feOffset>
            <feGaussianBlur stdDeviation="1" in="shadowOffsetOuter1" result="shadowBlurOuter1"></feGaussianBlur>
            <feColorMatrix values="0 0 0 0 0.4   0 0 0 0 0.176470588   0 0 0 0 0.568627451  0 0 0 0.0673120471 0" type="matrix" in="shadowBlurOuter1"></feColorMatrix>
        </filter>
        <polygon id="path-3" points="16.9933333 23.9999667 16.9933333 0 6.66666667e-05 0 6.66666667e-05 23.9999667"></polygon>
    </defs>
    <g id="About" stroke="none" stroke-width="1" fill="none" fill-rule="evenodd">
        <g id="About_Contact" transform="translate(-170.000000, -811.000000)">
            <g id="Combined-Shape-Copy-2">
                <use fill="black" fill-opacity="1" filter="url(#filter-2)" xlink:href="#path-1"></use>
                <use fill="#FFFFFF" fill-rule="evenodd" xlink:href="#path-1"></use>
            </g>
            <g id="ico_phone" transform="translate(170.000000, 811.000000)">
                <g id="Group-3">
                    <mask id="mask-4" fill="white">
                        <use xlink:href="#path-3"></use>
                    </mask>
                    <g id="Clip-2"></g>
                    <path d="M13.1567333,22.3333 L3.84006667,22.3333 C2.64006667,22.3333 1.66673333,21.3599667 1.66673333,20.1633 L1.66673333,18.8333 L15.3267333,18.8333 L15.3267333,20.1633 C15.3267333,21.3599667 14.3534,22.3333 13.1567333,22.3333 L13.1567333,22.3333 Z M1.66673333,17.3299667 L15.3264,17.3299667 L15.3264,6.0073 L1.66673333,6.0073 L1.66673333,17.3299667 Z M1.6934,3.5033 C1.85673333,2.46663333 2.7534,1.66663333 3.84006667,1.66663333 L13.1567333,1.66663333 C14.2400667,1.66663333 15.1367333,2.46663333 15.3000667,3.5033 C15.3164,3.6133 15.3267333,3.72663333 15.3267333,3.83996667 L15.3267333,4.5043 L1.66673333,4.5043 L1.66673333,3.83996667 C1.66673333,3.72663333 1.67673333,3.6133 1.6934,3.5033 L1.6934,3.5033 Z M16.9800667,3.5133 C16.8134,1.54996667 15.1637333,-3.33333333e-05 13.1567333,-3.33333333e-05 L3.84006667,-3.33333333e-05 C1.8334,-3.33333333e-05 0.176733333,1.54996667 0.0130666667,3.51663333 C0.0034,3.6233 6.66666667e-05,3.72996667 6.66666667e-05,3.83996667 L6.66666667e-05,4.84063333 L6.66666667e-05,5.0333 L6.66666667e-05,6.0343 L6.66666667e-05,17.3033 L6.66666667e-05,18.8199667 L6.66666667e-05,20.1633 C6.66666667e-05,22.2799667 1.7234,23.9999667 3.84006667,23.9999667 L13.1567333,23.9999667 C15.2734,23.9999667 16.9934,22.2799667 16.9934,20.1633 L16.9934,18.8199667 L16.9934,17.3033 L16.9934,6.0343 L16.9934,4.84063333 L16.9934,3.83996667 C16.9934,3.72996667 16.9900667,3.61996667 16.9800667,3.5133 L16.9800667,3.5133 Z" id="Fill-1" fill="#333333" mask="url(#mask-4)"></path>
                </g>
                <path d="M8.49723333,19.2913 C7.8989,19.2913 7.4139,19.7763 7.4139,20.3746333 C7.4139,20.9729667 7.8989,21.4579667 8.49723333,21.4579667 C9.09556667,21.4579667 9.58056667,20.9729667 9.58056667,20.3746333 C9.58056667,19.7763 9.09556667,19.2913 8.49723333,19.2913" id="Fill-4" fill="#333333"></path>
            </g>
        </g>
    </g>
</svg>