<svg id="Layer_1" data-name="Layer 1" xmlns="http://www.w3.org/2000/svg" xmlns:xlink="http://www.w3.org/1999/xlink" viewBox="0 0 74 74"><defs><style>.cls-1,.cls-2,.cls-4{fill:#979797;}.cls-1{clip-rule:evenodd;}.cls-2{fill-rule:evenodd;}.cls-3{clip-path:url(#clip-path);}.cls-5{fill:#ff7b84;}</style><clipPath id="clip-path"><path class="cls-1" d="M-749.52,1a10,10,0,0,0-9,10V63a10,10,0,0,0,10,10h51a10,10,0,0,0,10-10V11a10,10,0,0,0-10-10h-47Zm1,5h51a5,5,0,0,1,5,5v5l-30,23.8-31-23.76V11A5,5,0,0,1-748.52,6Zm51,62h-51a5,5,0,0,1-5-5V22.53l31,23.72,30-23.84V63A5,5,0,0,1-697.48,68Z"/></clipPath></defs><title>ico</title><path class="cls-2" d="M-749.52,1a10,10,0,0,0-9,10V63a10,10,0,0,0,10,10h51a10,10,0,0,0,10-10V11a10,10,0,0,0-10-10h-47Zm1,5h51a5,5,0,0,1,5,5v5l-30,23.8-31-23.76V11A5,5,0,0,1-748.52,6Zm51,62h-51a5,5,0,0,1-5-5V22.53l31,23.72,30-23.84V63A5,5,0,0,1-697.48,68Z"/><g class="cls-3"><rect class="cls-4" x="-6251.37" y="-106.65" width="6456.88" height="6582.43"/></g><rect class="cls-5" x="1" y="1.17" width="24.16" height="71.92"/><rect class="cls-5" x="48.76" y="1.17" width="24.16" height="71.92"/></svg>