<svg id="Layer_1" data-name="Layer 1" xmlns="http://www.w3.org/2000/svg" xmlns:xlink="http://www.w3.org/1999/xlink" viewBox="0 0 74 74"><defs><style>.cls-1,.cls-2,.cls-4{fill:#979797;}.cls-1{clip-rule:evenodd;}.cls-2{fill-rule:evenodd;}.cls-3{clip-path:url(#clip-path);}</style><clipPath id="clip-path"><path class="cls-1" d="M-387.94-3141h-43a10,10,0,0,0-10,10v8.06a10,10,0,0,0-9,10v34a10,10,0,0,0,10,10h43a10,10,0,0,0,10-10V-3087a10,10,0,0,0,9-10v-34A10,10,0,0,0-387.94-3141ZM-440-3118h43a5,5,0,0,1,5,5v1l-27,19.8-26-19.76v-1A5,5,0,0,1-440-3118Zm43,44h-43a5,5,0,0,1-5-5v-26.5l26,19.72,27.09-19.84v26.62A5,5,0,0,1-396.95-3073.93Zm14-23a5,5,0,0,1-4,4.9V-3113a10,10,0,0,0-10-10h-39v-8a5,5,0,0,1,5-5h43a5,5,0,0,1,5,5Z"/></clipPath></defs><title>ico</title><path class="cls-2" d="M-387.94-3141h-43a10,10,0,0,0-10,10v8.06a10,10,0,0,0-9,10v34a10,10,0,0,0,10,10h43a10,10,0,0,0,10-10V-3087a10,10,0,0,0,9-10v-34A10,10,0,0,0-387.94-3141ZM-440-3118h43a5,5,0,0,1,5,5v1l-27,19.8-26-19.76v-1A5,5,0,0,1-440-3118Zm43,44h-43a5,5,0,0,1-5-5v-26.5l26,19.72,27.09-19.84v26.62A5,5,0,0,1-396.95-3073.93Zm14-23a5,5,0,0,1-4,4.9V-3113a10,10,0,0,0-10-10h-39v-8a5,5,0,0,1,5-5h43a5,5,0,0,1,5,5Z"/><g class="cls-3"><rect class="cls-4" x="-5942.83" y="-3248.61" width="6456.88" height="6582.43"/></g><rect class="cls-4" x="16.01" y="54.5" width="41.98" height="4.43"/><rect class="cls-4" x="16.01" y="41.89" width="3.49" height="4.43"/><polygon class="cls-4" points="39.69 46.32 57.99 46.32 57.99 41.89 44.27 41.89 39.69 46.32"/><polygon class="cls-4" points="52.71 33.71 57.99 33.71 57.99 29.27 57.29 29.27 52.71 33.71"/><polygon class="cls-4" points="25.61 30.82 27.16 29.27 15.72 29.27 15.72 33.71 22.72 33.71 25.61 30.82"/><polygon class="cls-4" points="37.67 19.23 39.22 17.69 15.72 17.69 15.72 22.12 34.78 22.12 37.67 19.23"/><path class="cls-4" d="M66.8,19V64.43A2.84,2.84,0,0,1,64,67.27H10A2.84,2.84,0,0,1,7.2,64.43V9.57A2.84,2.84,0,0,1,10,6.73H50.35L55.08,2H10A7.57,7.57,0,0,0,2.47,9.57V64.43A7.57,7.57,0,0,0,10,72H64a7.57,7.57,0,0,0,7.57-7.57V14.29"/><polygon class="cls-4" points="69.64 10.51 61.12 2 56.87 6.26 65.28 14.67 69.64 10.51"/><polygon class="cls-4" points="24.23 38.89 24.23 46.46 32.74 46.46 62.54 17.61 54.03 9.1 24.23 38.89"/></svg>