<svg xmlns="http://www.w3.org/2000/svg" xmlns:xlink="http://www.w3.org/1999/xlink" width="24" height="24" viewBox="0 0 24 24">
  <defs>
    <path id="share-copy-2-a" d="M19.03125,16.0625 C18.083625,16.0625 17.25,16.51375 16.706125,17.204875 L8.825875,13.26475 C8.8911875,13.0189375 8.9375,12.766 8.9375,12.5 C8.9375,12.234 8.8911875,11.9810625 8.825875,11.73525 L16.706125,7.795125 C17.25,8.48625 18.083625,8.9375 19.03125,8.9375 C20.6711875,8.9375 22,7.6086875 22,5.96875 C22,4.3288125 20.6711875,3 19.03125,3 C17.3913125,3 16.0625,4.3288125 16.0625,5.96875 C16.0625,6.23475 16.1088125,6.4876875 16.174125,6.7335 L8.293875,10.673625 C7.75,9.9825 6.916375,9.53125 5.96875,9.53125 C4.3288125,9.53125 3,10.8600625 3,12.5 C3,14.1399375 4.3288125,15.46875 5.96875,15.46875 C6.916375,15.46875 7.75,15.0175 8.293875,14.326375 L16.174125,18.2665 C16.1088125,18.5123125 16.0625,18.76525 16.0625,19.03125 C16.0625,20.6711875 17.3913125,22 19.03125,22 C20.6711875,22 22,20.6711875 22,19.03125 C22,17.3913125 20.6711875,16.0625 19.03125,16.0625"/>
  </defs>
  <g fill="none" fill-rule="evenodd">
    <use fill="#929292" xlink:href="#share-copy-2-a"/>
  </g>
</svg>
