<svg xmlns="http://www.w3.org/2000/svg" xmlns:xlink="http://www.w3.org/1999/xlink" width="24" height="24" viewBox="0 0 24 24">
  <defs>
    <path id="blog-a" d="M5.841,4.5 L12,4.5 L12,3.5 L5.841,3.5 L5.841,4.5 Z M4,6.5 L12,6.5 L12,5.5 L4,5.5 L4,6.5 Z M4,8.5 L12,8.5 L12,7.5 L4,7.5 L4,8.5 Z M4,10.5 L12,10.5 L12,9.5 L4,9.5 L4,10.5 Z M4,12.5 L9.703,12.5 L9.703,11.5 L4,11.5 L4,12.5 Z M15,0 L1,0 C0.447,0 0,0.448 0,1 L0,15 C0,15.552 0.447,16 1,16 L15,16 C15.553,16 16,15.552 16,15 L16,1 C16,0.448 15.553,0 15,0 L15,0 Z"/>
  </defs>
  <g fill="none" fill-rule="evenodd" transform="translate(4 4)">
    <mask id="blog-b" fill="#fff">
      <use xlink:href="#blog-a"/>
    </mask>
    <use fill="#333" xlink:href="#blog-a"/>
    <g fill="#FFF" mask="url(#blog-b)">
      <rect width="24" height="24" rx="2" transform="translate(-4 -4)"/>
    </g>
  </g>
</svg>
