<svg xmlns="http://www.w3.org/2000/svg" xmlns:xlink="http://www.w3.org/1999/xlink" width="24" height="24" viewBox="0 0 24 24">
  <defs>
    <path id="addtochannel-copy-2-a" d="M10.5,4 C11.052,4 11.5,4.448 11.5,5 L11.5,10.5 C11.5,11.052 11.052,11.5 10.5,11.5 L5,11.5 C4.448,11.5 4,11.052 4,10.5 L4,5 C4,4.448 4.448,4 5,4 L10.5,4 Z M10.5,12.5 C11.052,12.5 11.5,12.948 11.5,13.5 L11.5,19 C11.5,19.552 11.052,20 10.5,20 L5,20 C4.448,20 4,19.552 4,19 L4,13.5 C4,12.948 4.448,12.5 5,12.5 L10.5,12.5 Z M19,12.5 C19.553,12.5 20,12.948 20,13.5 L20,19 C20,19.552 19.553,20 19,20 L13.5,20 C12.948,20 12.5,19.552 12.5,19 L12.5,13.5 C12.5,12.948 12.948,12.5 13.5,12.5 L19,12.5 Z M14,5.75 C14,8.093 15.906,10 18.25,10 C18.875,10 19.465,9.856 20,9.613 L20,10.5 C20,11.052 19.553,11.5 19,11.5 L13.5,11.5 C12.948,11.5 12.5,11.052 12.5,10.5 L12.5,5 C12.5,4.448 12.948,4 13.5,4 L14.388,4 C14.144,4.535 14,5.125 14,5.75 Z M18.25,2.5 C20.045,2.5 21.5,3.955 21.5,5.75 C21.5,7.545 20.045,9 18.25,9 C16.455,9 15,7.545 15,5.75 C15,3.955 16.455,2.5 18.25,2.5 Z M20,6.25 L20,5.25 L18.75,5.25 L18.75,4 L17.75,4 L17.75,5.25 L16.5,5.25 L16.5,6.25 L17.75,6.25 L17.75,7.5 L18.75,7.5 L18.75,6.25 L20,6.25 Z"/>
  </defs>
  <g fill="none" fill-rule="evenodd">
    <use fill="#929292" xlink:href="#addtochannel-copy-2-a"/>
  </g>
</svg>
