<?xml version="1.0" encoding="UTF-8"?>
<svg width="20px" height="24px" viewBox="0 0 20 24" version="1.1" xmlns="http://www.w3.org/2000/svg" xmlns:xlink="http://www.w3.org/1999/xlink">
    <!-- Generator: Sketch 46.2 (44496) - http://www.bohemiancoding.com/sketch -->
    <title>ico_location</title>
    <desc>Created with Sketch.</desc>
    <defs>
        <rect id="path-1" x="135" y="620" width="1170" height="334" rx="3"></rect>
        <filter x="-0.3%" y="-0.7%" width="100.6%" height="102.1%" filterUnits="objectBoundingBox" id="filter-2">
            <feOffset dx="0" dy="1" in="SourceAlpha" result="shadowOffsetOuter1"></feOffset>
            <feGaussianBlur stdDeviation="1" in="shadowOffsetOuter1" result="shadowBlurOuter1"></feGaussianBlur>
            <feColorMatrix values="0 0 0 0 0.4   0 0 0 0 0.176470588   0 0 0 0 0.568627451  0 0 0 0.0673120471 0" type="matrix" in="shadowBlurOuter1"></feColorMatrix>
        </filter>
    </defs>
    <g id="About" stroke="none" stroke-width="1" fill="none" fill-rule="evenodd">
        <g id="5.About_education-NEW-Copy" transform="translate(-168.000000, -715.000000)">
            <g id="Combined-Shape-Copy-2">
                <use fill="black" fill-opacity="1" filter="url(#filter-2)" xlink:href="#path-1"></use>
                <use fill="#FFFFFF" fill-rule="evenodd" xlink:href="#path-1"></use>
            </g>
            <g id="ico_location" transform="translate(168.000000, 715.000000)" fill-rule="nonzero" fill="#333333">
                <path d="M9.66666667,23.85 L2.20666667,16.0866667 C1.12726586,14.6647099 0.448205683,12.9797199 0.24,11.2066667 C0.191751762,10.8062452 0.167264434,10.4033173 0.166666667,10 C0.166666667,4.56666667 4.43,0.15 9.66666667,0.15 C14.9033333,0.15 19.1666667,4.56666667 19.1666667,10 C19.1662007,10.4044295 19.1417131,10.8084743 19.0933333,11.21 C18.8861062,12.982727 18.2082085,14.6676884 17.13,16.09 L17.0666667,16.1633333 L9.66666667,23.85 Z M3.50333333,15.04 L9.66666667,21.4466667 L15.83,15.04 C16.7136081,13.8592273 17.2680338,12.4651111 17.4366667,11 C17.4772706,10.6681879 17.4984179,10.3342835 17.5,10 C17.5,5.48333333 14,1.81666667 9.66666667,1.81666667 C5.33333333,1.81666667 1.83333333,5.48333333 1.83333333,10 C1.83491543,10.3342835 1.85606271,10.6681879 1.89666667,11 C2.06529951,12.4651111 2.61972526,13.8592273 3.50333333,15.04 Z M9.66666667,14.5066667 C7.155612,14.5066667 5.12,12.4710547 5.12,9.96 C5.12,7.44894534 7.155612,5.41333333 9.66666667,5.41333333 C12.1777213,5.41333333 14.2133333,7.44894534 14.2133333,9.96 C14.2096617,12.4695323 12.1761989,14.5029951 9.66666667,14.5066667 Z M9.66666667,7.07666667 C8.07608659,7.07666667 6.78666667,8.36608659 6.78666667,9.95666667 C6.78666667,11.5472467 8.07608659,12.8366667 9.66666667,12.8366667 C11.2572467,12.8366667 12.5466667,11.5472467 12.5466667,9.95666667 C12.5448298,8.36684807 11.2564853,7.07850355 9.66666667,7.07666667 Z" id="Shape"></path>
            </g>
        </g>
    </g>
</svg>