<svg xmlns="http://www.w3.org/2000/svg" xmlns:xlink="http://www.w3.org/1999/xlink" width="24" height="24" viewBox="0 0 24 24">
  <defs>
    <path id="addtochannel-copy-2-a" d="M9.94285714,5.37142857 C10.4475429,5.37142857 10.8571429,5.78102857 10.8571429,6.28571429 L10.8571429,11.3142857 C10.8571429,11.8189714 10.4475429,12.2285714 9.94285714,12.2285714 L4.91428571,12.2285714 C4.4096,12.2285714 4,11.8189714 4,11.3142857 L4,6.28571429 C4,5.78102857 4.4096,5.37142857 4.91428571,5.37142857 L9.94285714,5.37142857 Z M9.94285714,13.1428571 C10.4475429,13.1428571 10.8571429,13.5524571 10.8571429,14.0571429 L10.8571429,19.0857143 C10.8571429,19.5904 10.4475429,20 9.94285714,20 L4.91428571,20 C4.4096,20 4,19.5904 4,19.0857143 L4,14.0571429 C4,13.5524571 4.4096,13.1428571 4.91428571,13.1428571 L9.94285714,13.1428571 Z M17.7142857,13.1428571 C18.2198857,13.1428571 18.6285714,13.5524571 18.6285714,14.0571429 L18.6285714,19.0857143 C18.6285714,19.5904 18.2198857,20 17.7142857,20 L12.6857143,20 C12.1810286,20 11.7714286,19.5904 11.7714286,19.0857143 L11.7714286,14.0571429 C11.7714286,13.5524571 12.1810286,13.1428571 12.6857143,13.1428571 L17.7142857,13.1428571 Z M13.1428571,6.97142857 C13.1428571,9.1136 14.8854857,10.8571429 17.0285714,10.8571429 C17.6,10.8571429 18.1394286,10.7254857 18.6285714,10.5033143 L18.6285714,11.3142857 C18.6285714,11.8189714 18.2198857,12.2285714 17.7142857,12.2285714 L12.6857143,12.2285714 C12.1810286,12.2285714 11.7714286,11.8189714 11.7714286,11.3142857 L11.7714286,6.28571429 C11.7714286,5.78102857 12.1810286,5.37142857 12.6857143,5.37142857 L13.4976,5.37142857 C13.2745143,5.86057143 13.1428571,6.4 13.1428571,6.97142857 Z M17.0285714,4 C18.6697143,4 20,5.33028571 20,6.97142857 C20,8.61257143 18.6697143,9.94285714 17.0285714,9.94285714 C15.3874286,9.94285714 14.0571429,8.61257143 14.0571429,6.97142857 C14.0571429,5.33028571 15.3874286,4 17.0285714,4 Z M18.6285714,7.42857143 L18.6285714,6.51428571 L17.4857143,6.51428571 L17.4857143,5.37142857 L16.5714286,5.37142857 L16.5714286,6.51428571 L15.4285714,6.51428571 L15.4285714,7.42857143 L16.5714286,7.42857143 L16.5714286,8.57142857 L17.4857143,8.57142857 L17.4857143,7.42857143 L18.6285714,7.42857143 Z"/>
  </defs>
  <g fill="none" fill-rule="evenodd">
    <use fill="#929292" xlink:href="#addtochannel-copy-2-a"/>
  </g>
</svg>
