<svg id="Layer_1" data-name="Layer 1" xmlns="http://www.w3.org/2000/svg" xmlns:xlink="http://www.w3.org/1999/xlink" viewBox="0 0 74 74"><defs><style>.cls-1,.cls-2,.cls-4{fill:#979797;}.cls-1{clip-rule:evenodd;}.cls-2{fill-rule:evenodd;}.cls-3{clip-path:url(#clip-path);}.cls-5{fill:#c1c1c1;}</style><clipPath id="clip-path"><path class="cls-1" d="M646.06-3141H603a10,10,0,0,0-10,10v8.06a10,10,0,0,0-9,10v34a10,10,0,0,0,10,10h43a10,10,0,0,0,10-10V-3087a10,10,0,0,0,9-10v-34A10,10,0,0,0,646.06-3141ZM594-3118h43a5,5,0,0,1,5,5v1l-27,19.8-26-19.76v-1A5,5,0,0,1,594-3118Zm43,44H594a5,5,0,0,1-5-5v-26.5l26,19.72,27.09-19.84v26.62A5,5,0,0,1,637.05-3073.93Zm14-23a5,5,0,0,1-4,4.9V-3113a10,10,0,0,0-10-10H598v-8a5,5,0,0,1,5-5h43a5,5,0,0,1,5,5Z"/></clipPath></defs><title>ico</title><path class="cls-2" d="M646.06-3141H603a10,10,0,0,0-10,10v8.06a10,10,0,0,0-9,10v34a10,10,0,0,0,10,10h43a10,10,0,0,0,10-10V-3087a10,10,0,0,0,9-10v-34A10,10,0,0,0,646.06-3141ZM594-3118h43a5,5,0,0,1,5,5v1l-27,19.8-26-19.76v-1A5,5,0,0,1,594-3118Zm43,44H594a5,5,0,0,1-5-5v-26.5l26,19.72,27.09-19.84v26.62A5,5,0,0,1,637.05-3073.93Zm14-23a5,5,0,0,1-4,4.9V-3113a10,10,0,0,0-10-10H598v-8a5,5,0,0,1,5-5h43a5,5,0,0,1,5,5Z"/><g class="cls-3"><rect class="cls-4" x="-4908.83" y="-3248.61" width="6456.88" height="6582.43"/></g><path class="cls-5" d="M65.5.5H8.5a8,8,0,0,0-8,8v57a8,8,0,0,0,8,8h57a8,8,0,0,0,8-8V8.5A8,8,0,0,0,65.5.5Zm-57,5h57a3,3,0,0,1,3,3v44L49.57,37.36,33.8,48.84,19.58,37.35,5.5,47.61V8.5A3,3,0,0,1,8.5,5.5Zm-3,60V53.79L19.42,43.65,50.17,68.5H8.5A3,3,0,0,1,5.5,65.5Zm60,3H57.21l.36-.44-19.75-16,11.6-8.45,19,15.2.06-.08V65.5A3,3,0,0,1,65.5,68.5Z"/><path class="cls-5" d="M33,34.5A9.5,9.5,0,1,0,23.5,25,9.51,9.51,0,0,0,33,34.5Zm0-14A4.5,4.5,0,1,1,28.5,25,4.5,4.5,0,0,1,33,20.5Z"/></svg>