<svg id="Layer_1" data-name="Layer 1" xmlns="http://www.w3.org/2000/svg" xmlns:xlink="http://www.w3.org/1999/xlink" viewBox="0 0 74 74"><defs><style>.cls-1,.cls-2,.cls-4{fill:#979797;}.cls-1{clip-rule:evenodd;}.cls-2{fill-rule:evenodd;}.cls-3{clip-path:url(#clip-path);}.cls-5{fill:#c1c1c1;}</style><clipPath id="clip-path"><path class="cls-1" d="M552.06-3141H509a10,10,0,0,0-10,10v8.06a10,10,0,0,0-9,10v34a10,10,0,0,0,10,10h43a10,10,0,0,0,10-10V-3087a10,10,0,0,0,9-10v-34A10,10,0,0,0,552.06-3141ZM500-3118h43a5,5,0,0,1,5,5v1l-27,19.8-26-19.76v-1A5,5,0,0,1,500-3118Zm43,44H500a5,5,0,0,1-5-5v-26.5l26,19.72,27.09-19.84v26.62A5,5,0,0,1,543.05-3073.93Zm14-23a5,5,0,0,1-4,4.9V-3113a10,10,0,0,0-10-10H504v-8a5,5,0,0,1,5-5h43a5,5,0,0,1,5,5Z"/></clipPath></defs><title>ico</title><path class="cls-2" d="M552.06-3141H509a10,10,0,0,0-10,10v8.06a10,10,0,0,0-9,10v34a10,10,0,0,0,10,10h43a10,10,0,0,0,10-10V-3087a10,10,0,0,0,9-10v-34A10,10,0,0,0,552.06-3141ZM500-3118h43a5,5,0,0,1,5,5v1l-27,19.8-26-19.76v-1A5,5,0,0,1,500-3118Zm43,44H500a5,5,0,0,1-5-5v-26.5l26,19.72,27.09-19.84v26.62A5,5,0,0,1,543.05-3073.93Zm14-23a5,5,0,0,1-4,4.9V-3113a10,10,0,0,0-10-10H504v-8a5,5,0,0,1,5-5h43a5,5,0,0,1,5,5Z"/><g class="cls-3"><rect class="cls-4" x="-5002.83" y="-3248.61" width="6456.88" height="6582.43"/></g><path class="cls-5" d="M65.5.5H8.5a8,8,0,0,0-8,8v57a8,8,0,0,0,8,8h57a8,8,0,0,0,8-8V8.5A8,8,0,0,0,65.5.5Zm3,65a3,3,0,0,1-3,3H8.5a3,3,0,0,1-3-3V8.5a3,3,0,0,1,3-3h57a3,3,0,0,1,3,3Z"/><path class="cls-5" d="M29.67,34.35l-1.43-4.69H21.05l-1.43,4.69h-4.5l7-19.78h5.11l7,19.78Zm-2.43-8.19q-2-6.37-2.23-7.21t-.36-1.32q-.44,1.73-2.55,8.53Z"/><rect class="cls-5" x="37.31" y="14.75" width="21.88" height="4.69"/><rect class="cls-5" x="37.31" y="28.08" width="21.88" height="4.69"/><rect class="cls-5" x="14.81" y="54.75" width="44.38" height="4.69"/><rect class="cls-5" x="14.81" y="41.42" width="44.38" height="4.69"/></svg>