<svg id="Layer_1" data-name="Layer 1" xmlns="http://www.w3.org/2000/svg" xmlns:xlink="http://www.w3.org/1999/xlink" viewBox="0 0 74 74"><defs><style>.cls-1,.cls-2,.cls-4{fill:#979797;}.cls-1{clip-rule:evenodd;}.cls-2{fill-rule:evenodd;}.cls-3{clip-path:url(#clip-path);}.cls-5{fill:#c1c1c1;}</style><clipPath id="clip-path"><path class="cls-1" d="M364.06-3141H321a10,10,0,0,0-10,10v8.06a10,10,0,0,0-9,10v34a10,10,0,0,0,10,10h43a10,10,0,0,0,10-10V-3087a10,10,0,0,0,9-10v-34A10,10,0,0,0,364.06-3141ZM312-3118h43a5,5,0,0,1,5,5v1l-27,19.8-26-19.76v-1A5,5,0,0,1,312-3118Zm43,44H312a5,5,0,0,1-5-5v-26.5l26,19.72,27.09-19.84v26.62A5,5,0,0,1,355.05-3073.93Zm14-23a5,5,0,0,1-4,4.9V-3113a10,10,0,0,0-10-10H316v-8a5,5,0,0,1,5-5h43a5,5,0,0,1,5,5Z"/></clipPath></defs><title>ico</title><path class="cls-2" d="M364.06-3141H321a10,10,0,0,0-10,10v8.06a10,10,0,0,0-9,10v34a10,10,0,0,0,10,10h43a10,10,0,0,0,10-10V-3087a10,10,0,0,0,9-10v-34A10,10,0,0,0,364.06-3141ZM312-3118h43a5,5,0,0,1,5,5v1l-27,19.8-26-19.76v-1A5,5,0,0,1,312-3118Zm43,44H312a5,5,0,0,1-5-5v-26.5l26,19.72,27.09-19.84v26.62A5,5,0,0,1,355.05-3073.93Zm14-23a5,5,0,0,1-4,4.9V-3113a10,10,0,0,0-10-10H316v-8a5,5,0,0,1,5-5h43a5,5,0,0,1,5,5Z"/><g class="cls-3"><rect class="cls-4" x="-5190.83" y="-3248.61" width="6456.88" height="6582.43"/></g><path class="cls-5" d="M65.5,1H8.5a8,8,0,0,0-8,8V66a8,8,0,0,0,8,8h57a8,8,0,0,0,8-8V9A8,8,0,0,0,65.5,1Zm3,65a3,3,0,0,1-3,3H8.5a3,3,0,0,1-3-3V9a3,3,0,0,1,3-3h57a3,3,0,0,1,3,3Z"/><path class="cls-5" d="M34.09,19.83H20.71V15H53.29v4.83H39.84V59H34.09Z"/></svg>