<svg id="Layer_1" data-name="Layer 1" xmlns="http://www.w3.org/2000/svg" xmlns:xlink="http://www.w3.org/1999/xlink" viewBox="0 0 74 74"><defs><style>.cls-1,.cls-2,.cls-4{fill:#979797;}.cls-1{clip-rule:evenodd;}.cls-2{fill-rule:evenodd;}.cls-3{clip-path:url(#clip-path);}.cls-5{fill:#fff;}</style><clipPath id="clip-path"><path class="cls-1" d="M82.06-3237H39a10,10,0,0,0-10,10v8.06a10,10,0,0,0-9,10v34a10,10,0,0,0,10,10h43a10,10,0,0,0,10-10V-3183a10,10,0,0,0,9-10v-34A10,10,0,0,0,82.06-3237ZM30-3214h43a5,5,0,0,1,5,5v1l-27,19.8-26-19.76v-1A5,5,0,0,1,30-3214Zm43,44H30a5,5,0,0,1-5-5v-26.5l26,19.72,27.09-19.84v26.62A5,5,0,0,1,73.05-3169.93Zm14-23a5,5,0,0,1-4,4.9V-3209a10,10,0,0,0-10-10H34v-8a5,5,0,0,1,5-5h43a5,5,0,0,1,5,5Z"/></clipPath></defs><title>ico</title><path class="cls-2" d="M82.06-3237H39a10,10,0,0,0-10,10v8.06a10,10,0,0,0-9,10v34a10,10,0,0,0,10,10h43a10,10,0,0,0,10-10V-3183a10,10,0,0,0,9-10v-34A10,10,0,0,0,82.06-3237ZM30-3214h43a5,5,0,0,1,5,5v1l-27,19.8-26-19.76v-1A5,5,0,0,1,30-3214Zm43,44H30a5,5,0,0,1-5-5v-26.5l26,19.72,27.09-19.84v26.62A5,5,0,0,1,73.05-3169.93Zm14-23a5,5,0,0,1-4,4.9V-3209a10,10,0,0,0-10-10H34v-8a5,5,0,0,1,5-5h43a5,5,0,0,1,5,5Z"/><g class="cls-3"><rect class="cls-4" x="-5472.83" y="-3344.61" width="6456.88" height="6582.43"/></g><circle class="cls-4" cx="37.5" cy="37.5" r="35.5" transform="translate(-15.53 37.5) rotate(-45)"/><polygon class="cls-5" points="57.3 40 57.3 35 40 35 40 17.7 35 17.7 35 35 17.7 35 17.7 40 35 40 35 57.3 40 57.3 40 40 57.3 40"/></svg>