<svg xmlns="http://www.w3.org/2000/svg" viewBox="0 0 72.78 72"><defs><style>.cls-1{fill:#333;}</style></defs><title>ico-audio-black</title><g id="Layer_2" data-name="Layer 2"><g id="Layer_1-2" data-name="Layer 1"><path class="cls-1" d="M48.56.86A8.77,8.77,0,0,0,39.18,2l-20.85,17H11.24A11.26,11.26,0,0,0,0,30.3V41.7A11.26,11.26,0,0,0,11.24,52.94h7.09L39.18,70h0a8.76,8.76,0,0,0,9.37,1.16,9.27,9.27,0,0,0,5.27-8.49V9.34A9.27,9.27,0,0,0,48.56.86Z"/><path class="cls-1" d="M63.53,58.35,60,54.82a26.64,26.64,0,0,0,0-37.64l3.54-3.54A31.65,31.65,0,0,1,63.53,58.35Z"/></g></g></svg>