<svg xmlns="http://www.w3.org/2000/svg" xmlns:xlink="http://www.w3.org/1999/xlink" width="16" height="16" viewBox="0 0 16 16">
  <defs>
    <path id="spot-copy-2-a" d="M20,12 C20,16.418 16.418,20 12,20 C7.582,20 4,16.418 4,12 C4,7.582 7.582,4 12,4 C16.418,4 20,7.582 20,12 Z M11,8.01855469 C11,8.70215186 11.3782514,9.04394531 12.1347656,9.04394531 C12.5130227,9.04394531 12.7967113,8.9539397 12.9858398,8.77392578 C13.1749684,8.59391186 13.2695312,8.34212401 13.2695312,8.01855469 C13.2695312,7.33951483 12.8912798,7 12.1347656,7 C11.3782514,7 11,7.33951483 11,8.01855469 Z M13.1738281,17.6367188 L13.1738281,9.99414062 L11.0888672,9.99414062 L11.0888672,17.6367188 L13.1738281,17.6367188 Z"/>
  </defs>
  <g fill="none" fill-rule="evenodd" transform="translate(-4 -4)">
    <mask id="spot-copy-2-b" fill="#fff">
      <use xlink:href="#spot-copy-2-a"/>
    </mask>
    <use fill="#999" xlink:href="#spot-copy-2-a"/>
    <g fill="#C1C1C1" mask="url(#spot-copy-2-b)">
      <rect width="80" height="80" rx="2" transform="translate(-27 -28)"/>
    </g>
  </g>
</svg>
