<svg id="Layer_1" data-name="Layer 1" xmlns="http://www.w3.org/2000/svg" xmlns:xlink="http://www.w3.org/1999/xlink" viewBox="0 0 74 74"><defs><style>.cls-1,.cls-2,.cls-4{fill:#979797;}.cls-1{clip-rule:evenodd;}.cls-2{fill-rule:evenodd;}.cls-3{clip-path:url(#clip-path);}.cls-5{fill:#c1c1c1;}</style><clipPath id="clip-path"><path class="cls-1" d="M740.06-3141H697a10,10,0,0,0-10,10v8.06a10,10,0,0,0-9,10v34a10,10,0,0,0,10,10h43a10,10,0,0,0,10-10V-3087a10,10,0,0,0,9-10v-34A10,10,0,0,0,740.06-3141ZM688-3118h43a5,5,0,0,1,5,5v1l-27,19.8-26-19.76v-1A5,5,0,0,1,688-3118Zm43,44H688a5,5,0,0,1-5-5v-26.5l26,19.72,27.09-19.84v26.62A5,5,0,0,1,731.05-3073.93Zm14-23a5,5,0,0,1-4,4.9V-3113a10,10,0,0,0-10-10H692v-8a5,5,0,0,1,5-5h43a5,5,0,0,1,5,5Z"/></clipPath></defs><title>ico</title><path class="cls-2" d="M740.06-3141H697a10,10,0,0,0-10,10v8.06a10,10,0,0,0-9,10v34a10,10,0,0,0,10,10h43a10,10,0,0,0,10-10V-3087a10,10,0,0,0,9-10v-34A10,10,0,0,0,740.06-3141ZM688-3118h43a5,5,0,0,1,5,5v1l-27,19.8-26-19.76v-1A5,5,0,0,1,688-3118Zm43,44H688a5,5,0,0,1-5-5v-26.5l26,19.72,27.09-19.84v26.62A5,5,0,0,1,731.05-3073.93Zm14-23a5,5,0,0,1-4,4.9V-3113a10,10,0,0,0-10-10H692v-8a5,5,0,0,1,5-5h43a5,5,0,0,1,5,5Z"/><g class="cls-3"><rect class="cls-4" x="-4814.83" y="-3248.61" width="6456.88" height="6582.43"/></g><path class="cls-5" d="M49.87,16.11a5.21,5.21,0,0,0-5.57.69L31.9,26.93H27.68A6.69,6.69,0,0,0,21,33.61v6.78a6.69,6.69,0,0,0,6.68,6.68H31.9L44.29,57.2h0a5.21,5.21,0,0,0,5.57.69,5.51,5.51,0,0,0,3.13-5V21.15A5.51,5.51,0,0,0,49.87,16.11ZM26,40.39V33.61a1.69,1.69,0,0,1,1.68-1.68H30V42.07H27.68A1.69,1.69,0,0,1,26,40.39ZM48,52.85a.53.53,0,0,1-.28.53.21.21,0,0,1-.27,0L35.11,43.24V30.76L47.46,20.67a.22.22,0,0,1,.27,0,.53.53,0,0,1,.28.53Z"/><path class="cls-5" d="M65.5.5H8.5a8,8,0,0,0-8,8v57a8,8,0,0,0,8,8h57a8,8,0,0,0,8-8V8.5A8,8,0,0,0,65.5.5Zm3,65a3,3,0,0,1-3,3H8.5a3,3,0,0,1-3-3V8.5a3,3,0,0,1,3-3h57a3,3,0,0,1,3,3Z"/></svg>