<svg xmlns="http://www.w3.org/2000/svg" xmlns:xlink="http://www.w3.org/1999/xlink" width="12" height="12" viewBox="0 0 12 12">
  <defs>
    <path id="public-copy-2-a" d="M10.5795,12.4738333 C11.293,11.4686667 11.7556667,10.0403333 11.8236667,8.41666667 L13.1485,8.41666667 C13.0091667,10.1508333 12.0108333,11.6453333 10.5795,12.4738333 L10.5795,12.4738333 Z M2.85166667,8.41666667 L4.1765,8.41666667 C4.2445,10.0403333 4.70716667,11.4686667 5.42066667,12.4738333 C3.98933333,11.6453333 2.991,10.1508333 2.85166667,8.41666667 L2.85166667,8.41666667 Z M5.42066667,3.52616667 C4.70716667,4.5315 4.2445,5.95966667 4.1765,7.58333333 L2.85166667,7.58333333 C2.991,5.84916667 3.98933333,4.35466667 5.42066667,3.52616667 L5.42066667,3.52616667 Z M8.33333333,7.58333333 L8.33333333,2.86783333 C9.73016667,3.148 10.8703333,5.15933333 10.989,7.58333333 L8.33333333,7.58333333 Z M8.33333333,13.1323333 L8.33333333,8.41666667 L10.989,8.41666667 C10.8703333,10.8408333 9.73016667,12.8521667 8.33333333,13.1323333 L8.33333333,13.1323333 Z M7.5,8.41666667 L7.5,13.09 C6.18016667,12.6896667 5.125,10.7436667 5.01116667,8.41666667 L7.5,8.41666667 Z M7.5,2.91016667 L7.5,7.58333333 L5.01116667,7.58333333 C5.125,5.2565 6.18016667,3.31033333 7.5,2.91016667 L7.5,2.91016667 Z M13.1485,7.58333333 L11.8236667,7.58333333 C11.7556667,5.95966667 11.293,4.5315 10.5795,3.52616667 C12.0108333,4.35466667 13.0091667,5.84916667 13.1485,7.58333333 L13.1485,7.58333333 Z M8,2 C4.69166667,2 2,4.69166667 2,8 C2,11.3085 4.69166667,14 8,14 C11.3085,14 14,11.3085 14,8 C14,4.69166667 11.3085,2 8,2 L8,2 Z"/>
  </defs>
  <g fill="none" fill-rule="evenodd" transform="translate(-2 -2)">
    <use fill="#747474" xlink:href="#public-copy-2-a"/>
  </g>
</svg>
