<svg id="Layer_1" data-name="Layer 1" xmlns="http://www.w3.org/2000/svg" xmlns:xlink="http://www.w3.org/1999/xlink" viewBox="0 0 74 74"><defs><clipPath id="clip-path"><path d="M-312,46.06v-9a27,27,0,0,0-20-26V8.23a7.13,7.13,0,0,0-5.46-7.06A7,7,0,0,0-346,8v3.06a27,27,0,0,0-20,26v9a9,9,0,0,0-8.9,10.31A9.16,9.16,0,0,0-365.74,64H-348a9,9,0,0,0,9,9,9,9,0,0,0,9-9h17.74a9.16,9.16,0,0,0,9.16-7.64A9,9,0,0,0-312,46.06ZM-341,8a2,2,0,0,1,2.66-1.89,2.05,2.05,0,0,1,1.34,2v2c-.66,0-1.33-.08-2-.08s-1.34,0-2,.08Zm-20,29a22,22,0,0,1,25.28-21.71C-324.86,16.91-317,26.55-317,37.52V46h-44Zm21.91,31a4,4,0,0,1-4-4h8A4,4,0,0,1-339.09,68Zm30.91-12.15A4.1,4.1,0,0,1-312.24,59h-53.7A4.1,4.1,0,0,1-370,55.86,4,4,0,0,1-366.09,51h54A4,4,0,0,1-308.18,55.86Z" style="fill:#979797;clip-rule:evenodd"/></clipPath><clipPath id="clip-path-2"><path d="M2055.06-3141h-43a10,10,0,0,0-10,10v8.06a10,10,0,0,0-9,10v34a10,10,0,0,0,10,10h43a10,10,0,0,0,10-10V-3087a10,10,0,0,0,9-10v-34A10,10,0,0,0,2055.06-3141ZM2003-3118h43a5,5,0,0,1,5,5v1l-27,19.8-26-19.76v-1A5,5,0,0,1,2003-3118Zm43,44h-43a5,5,0,0,1-5-5v-26.5l26,19.72,27.09-19.84v26.62A5,5,0,0,1,2046.05-3073.93Zm14-23a5,5,0,0,1-4,4.9V-3113a10,10,0,0,0-10-10h-39v-8a5,5,0,0,1,5-5h43a5,5,0,0,1,5,5Z" style="fill:#979797;clip-rule:evenodd"/></clipPath><clipPath id="clip-path-3"><path d="M-219,1h-43a10,10,0,0,0-10,10V19a10,10,0,0,0-9,10V63a10,10,0,0,0,10,10h43a10,10,0,0,0,10-10V55a10,10,0,0,0,9-10V11A10,10,0,0,0-219,1ZM-271,24h43a5,5,0,0,1,5,5v1l-27,19.8L-276,30V29A5,5,0,0,1-271,24Zm43,44h-43a5,5,0,0,1-5-5V36.53l26,19.72L-223,36.41V63A5,5,0,0,1-228,68Zm14-23a5,5,0,0,1-4,4.9V29a10,10,0,0,0-10-10h-39V11a5,5,0,0,1,5-5h43a5,5,0,0,1,5,5Z" style="fill:#979797;clip-rule:evenodd"/></clipPath></defs><title>ico</title><path d="M-312,46.06v-9a27,27,0,0,0-20-26V8.23a7.13,7.13,0,0,0-5.46-7.06A7,7,0,0,0-346,8v3.06a27,27,0,0,0-20,26v9a9,9,0,0,0-8.9,10.31A9.16,9.16,0,0,0-365.74,64H-348a9,9,0,0,0,9,9,9,9,0,0,0,9-9h17.74a9.16,9.16,0,0,0,9.16-7.64A9,9,0,0,0-312,46.06ZM-341,8a2,2,0,0,1,2.66-1.89,2.05,2.05,0,0,1,1.34,2v2c-.66,0-1.33-.08-2-.08s-1.34,0-2,.08Zm-20,29a22,22,0,0,1,25.28-21.71C-324.86,16.91-317,26.55-317,37.52V46h-44Zm21.91,31a4,4,0,0,1-4-4h8A4,4,0,0,1-339.09,68Zm30.91-12.15A4.1,4.1,0,0,1-312.24,59h-53.7A4.1,4.1,0,0,1-370,55.86,4,4,0,0,1-366.09,51h54A4,4,0,0,1-308.18,55.86Z" style="fill:#979797;fill-rule:evenodd"/><g style="clip-path:url(#clip-path)"><rect x="-5722" y="-106.98" width="6497" height="6624" style="fill:#979797"/></g><path d="M2055.06-3141h-43a10,10,0,0,0-10,10v8.06a10,10,0,0,0-9,10v34a10,10,0,0,0,10,10h43a10,10,0,0,0,10-10V-3087a10,10,0,0,0,9-10v-34A10,10,0,0,0,2055.06-3141ZM2003-3118h43a5,5,0,0,1,5,5v1l-27,19.8-26-19.76v-1A5,5,0,0,1,2003-3118Zm43,44h-43a5,5,0,0,1-5-5v-26.5l26,19.72,27.09-19.84v26.62A5,5,0,0,1,2046.05-3073.93Zm14-23a5,5,0,0,1-4,4.9V-3113a10,10,0,0,0-10-10h-39v-8a5,5,0,0,1,5-5h43a5,5,0,0,1,5,5Z" style="fill:#979797;fill-rule:evenodd"/><g style="clip-path:url(#clip-path-2)"><rect x="-3499.83" y="-3248.61" width="6456.88" height="6582.43" style="fill:#979797"/></g><path d="M-219,1h-43a10,10,0,0,0-10,10V19a10,10,0,0,0-9,10V63a10,10,0,0,0,10,10h43a10,10,0,0,0,10-10V55a10,10,0,0,0,9-10V11A10,10,0,0,0-219,1ZM-271,24h43a5,5,0,0,1,5,5v1l-27,19.8L-276,30V29A5,5,0,0,1-271,24Zm43,44h-43a5,5,0,0,1-5-5V36.53l26,19.72L-223,36.41V63A5,5,0,0,1-228,68Zm14-23a5,5,0,0,1-4,4.9V29a10,10,0,0,0-10-10h-39V11a5,5,0,0,1,5-5h43a5,5,0,0,1,5,5Z" style="fill:#979797;fill-rule:evenodd"/><g style="clip-path:url(#clip-path-3)"><rect x="-5773.87" y="-106.65" width="6456.88" height="6582.43" style="fill:#979797"/></g><path d="M61.75,49.5A11.51,11.51,0,0,0,51,57L23.32,40.56a11.27,11.27,0,0,0,.2-5.3L51.68,18.54A11.49,11.49,0,1,0,50.25,13c0,.19,0,.37,0,.56l-28.8,17.1A11.5,11.5,0,1,0,21,45L50.36,62.48a11.49,11.49,0,1,0,11.39-13Zm0-43a6.5,6.5,0,1,1-6.5,6.5A6.51,6.51,0,0,1,61.75,6.5ZM12.25,44a6.5,6.5,0,1,1,6.5-6.5A6.51,6.51,0,0,1,12.25,44Zm49.5,23.5a6.5,6.5,0,1,1,6.5-6.5A6.51,6.51,0,0,1,61.75,67.5Z" style="fill:#979797"/></svg>