<svg id="Layer_1" data-name="Layer 1" xmlns="http://www.w3.org/2000/svg" xmlns:xlink="http://www.w3.org/1999/xlink" viewBox="0 0 74 74"><defs><style>.cls-1,.cls-2,.cls-4{fill:#979797;}.cls-1{clip-rule:evenodd;}.cls-2{fill-rule:evenodd;}.cls-3{clip-path:url(#clip-path);}.cls-5{fill:#333;}</style><clipPath id="clip-path"><path class="cls-1" d="M-560.52,1a10,10,0,0,0-9,10V63a10,10,0,0,0,10,10h51a10,10,0,0,0,10-10V11a10,10,0,0,0-10-10h-47Zm1,5h51a5,5,0,0,1,5,5v5l-30,23.8-31-23.76V11A5,5,0,0,1-559.52,6Zm51,62h-51a5,5,0,0,1-5-5V22.53l31,23.72,30-23.84V63A5,5,0,0,1-508.48,68Z"/></clipPath></defs><title>ico</title><path class="cls-2" d="M-560.52,1a10,10,0,0,0-9,10V63a10,10,0,0,0,10,10h51a10,10,0,0,0,10-10V11a10,10,0,0,0-10-10h-47Zm1,5h51a5,5,0,0,1,5,5v5l-30,23.8-31-23.76V11A5,5,0,0,1-559.52,6Zm51,62h-51a5,5,0,0,1-5-5V22.53l31,23.72,30-23.84V63A5,5,0,0,1-508.48,68Z"/><g class="cls-3"><rect class="cls-4" x="-6062.37" y="-106.65" width="6456.88" height="6582.43"/></g><path class="cls-5" d="M67.73,23.42v20a3.87,3.87,0,0,1-3.87,3.87H27.56a3.88,3.88,0,0,1-3.87-3.87v-33a3.88,3.88,0,0,1,3.87-3.88H49.85l5-5H27.56a8.88,8.88,0,0,0-8.87,8.88v11.4H10.14a8.88,8.88,0,0,0-8.87,8.87v33a8.89,8.89,0,0,0,8.87,8.88h36.3a8.89,8.89,0,0,0,8.87-8.88V52.26h8.55a8.88,8.88,0,0,0,8.87-8.87v-25ZM50.31,63.66a3.88,3.88,0,0,1-3.87,3.88H10.14a3.88,3.88,0,0,1-3.87-3.88v-33a3.87,3.87,0,0,1,3.87-3.87h8.55V43.39a8.88,8.88,0,0,0,8.87,8.87H50.31Z"/><polygon class="cls-5" points="72.57 10.46 63.57 1.46 59.07 5.96 67.97 14.86 72.57 10.46"/><polygon class="cls-5" points="34.53 38.5 43.53 38.5 65.66 17.41 56.66 8.4 34.53 30.5 34.53 38.5"/></svg>