<svg id="Layer_1" data-name="Layer 1" xmlns="http://www.w3.org/2000/svg" xmlns:xlink="http://www.w3.org/1999/xlink" viewBox="0 0 74 74"><defs><style>.cls-1,.cls-2,.cls-4{fill:#979797;}.cls-1{clip-rule:evenodd;}.cls-2{fill-rule:evenodd;}.cls-3{clip-path:url(#clip-path);}.cls-5{fill:#fff;}</style><clipPath id="clip-path"><path class="cls-1" d="M-271.52,1a10,10,0,0,0-9,10V63a10,10,0,0,0,10,10h51a10,10,0,0,0,10-10V11a10,10,0,0,0-10-10h-47Zm1,5h51a5,5,0,0,1,5,5v5l-30,23.8-31-23.76V11A5,5,0,0,1-270.52,6Zm51,62h-51a5,5,0,0,1-5-5V22.53l31,23.72,30-23.84V63A5,5,0,0,1-219.48,68Z"/></clipPath></defs><title>ico</title><path class="cls-2" d="M-271.52,1a10,10,0,0,0-9,10V63a10,10,0,0,0,10,10h51a10,10,0,0,0,10-10V11a10,10,0,0,0-10-10h-47Zm1,5h51a5,5,0,0,1,5,5v5l-30,23.8-31-23.76V11A5,5,0,0,1-270.52,6Zm51,62h-51a5,5,0,0,1-5-5V22.53l31,23.72,30-23.84V63A5,5,0,0,1-219.48,68Z"/><g class="cls-3"><rect class="cls-4" x="-5773.37" y="-106.65" width="6456.88" height="6582.43"/></g><path class="cls-5" d="M61.48,73h-49A11.53,11.53,0,0,1,1,61.48v-49A11.53,11.53,0,0,1,12.52,1h49A11.53,11.53,0,0,1,73,12.52v49A11.53,11.53,0,0,1,61.48,73Zm-49-67A6.52,6.52,0,0,0,6,12.52v49A6.52,6.52,0,0,0,12.52,68h49A6.52,6.52,0,0,0,68,61.48v-49A6.52,6.52,0,0,0,61.48,6Z"/><polygon class="cls-5" points="17.62 47.63 17.62 55.63 26.62 55.63 49.62 33.63 40.62 24.63 17.62 47.63"/><line class="cls-5" x1="45.12" y1="20.13" x2="54.62" y2="29.63"/><rect class="cls-5" x="47.37" y="18.17" width="5" height="13.44" transform="translate(-2.99 42.55) rotate(-45)"/></svg>