<svg xmlns="http://www.w3.org/2000/svg" xmlns:xlink="http://www.w3.org/1999/xlink" width="12" height="12" viewBox="0 0 12 12">
  <defs>
    <path id="info-a" d="M13.3333333,8 C13.3333333,10.9453333 10.9453333,13.3333333 8,13.3333333 C5.05466667,13.3333333 2.66666667,10.9453333 2.66666667,8 C2.66666667,5.05466667 5.05466667,2.66666667 8,2.66666667 C10.9453333,2.66666667 13.3333333,5.05466667 13.3333333,8 Z M7.33333333,5.34570312 C7.33333333,5.80143457 7.58550095,6.02929688 8.08984375,6.02929688 C8.34201515,6.02929688 8.53114086,5.96929313 8.65722656,5.84928385 C8.78331226,5.72927457 8.84635417,5.56141601 8.84635417,5.34570312 C8.84635417,4.89300989 8.59418655,4.66666667 8.08984375,4.66666667 C7.58550095,4.66666667 7.33333333,4.89300989 7.33333333,5.34570312 Z M8.78255208,11.7578125 L8.78255208,6.66276042 L7.39257812,6.66276042 L7.39257812,11.7578125 L8.78255208,11.7578125 Z"/>
  </defs>
  <g fill="none" fill-rule="evenodd" transform="translate(-2 -2)">
    <mask id="info-b" fill="#fff">
      <use xlink:href="#info-a"/>
    </mask>
    <use fill="#999" xlink:href="#info-a"/>
    <g fill="#C1C1C1" mask="url(#info-b)">
      <rect width="53" height="53" rx="2" transform="translate(-18 -18.667)"/>
    </g>
  </g>
</svg>
