<svg xmlns="http://www.w3.org/2000/svg" xmlns:xlink="http://www.w3.org/1999/xlink" width="24" height="24" viewBox="0 0 24 24">
  <defs>
    <path id="lock-a" d="M9.4543,16.0625 C8.4883,16.0625 7.7043,15.2795 7.7043,14.3125 C7.7043,13.3465 8.4883,12.5625 9.4543,12.5625 C10.4213,12.5625 11.2043,13.3465 11.2043,14.3125 C11.2043,15.2795 10.4213,16.0625 9.4543,16.0625 L9.4543,16.0625 Z M5.2463,3.8345 C5.2463,3.3745 5.6203,2.9995 6.0803,2.9995 L12.6003,2.9995 C13.0593,2.9995 13.4333,3.3745 13.4333,3.8345 L13.4333,7.0625 L5.2463,7.0625 L5.2463,3.8345 Z M16.7563,7.0625 L15.4333,7.0625 L15.4333,3.8345 C15.4333,2.2715 14.1623,0.9995 12.6003,0.9995 L6.0803,0.9995 C4.5173,0.9995 3.2463,2.2715 3.2463,3.8345 L3.2463,7.0625 L2.0493,7.0625 C0.9173,7.0625 0.0003,7.9795 0.0003,9.1105 L0.0003,18.5135 C0.0003,19.6455 0.9173,20.5625 2.0493,20.5625 L16.7563,20.5625 C17.8883,20.5625 18.8053,19.6455 18.8053,18.5135 L18.8053,9.1105 C18.8053,7.9795 17.8883,7.0625 16.7563,7.0625 L16.7563,7.0625 Z"/>
  </defs>
  <g fill="none" fill-rule="evenodd" transform="translate(3 1)">
    <mask id="lock-b" fill="#fff">
      <use xlink:href="#lock-a"/>
    </mask>
    <use fill="#333" xlink:href="#lock-a"/>
    <g fill="#333" mask="url(#lock-b)">
      <rect width="24" height="24" rx="2" transform="translate(-3 -1)"/>
    </g>
  </g>
</svg>
