<svg xmlns="http://www.w3.org/2000/svg" viewBox="0 0 352.85 368.49"><defs><style>.cls-1{fill:#c1c1c1;}</style></defs><title>Asset 1</title><g id="Layer_2" data-name="Layer 2"><g id="Layer_1-2" data-name="Layer 1"><path class="cls-1" d="M116.05,238a26.55,26.55,0,1,0-35.6-11.91A26.58,26.58,0,0,0,116.05,238ZM93,219.9a12.58,12.58,0,1,1,16.87,5.64A12.59,12.59,0,0,1,93,219.9Z"/><path class="cls-1" d="M341.91,137.45l-66.16-20.2L263.68,15.45A17.51,17.51,0,0,0,244.23.12L120.32,14.81A17.51,17.51,0,0,0,105,34.26l11.54,97.38L12.39,183.57a22.36,22.36,0,0,0-10,30L73.43,356.1a22.36,22.36,0,0,0,30,10L246,295.05a22.36,22.36,0,0,0,10-30l-3.78-7.57,48.52,14.81A15.45,15.45,0,0,0,320,262l32.14-105.3A15.45,15.45,0,0,0,341.91,137.45ZM115.86,33a6.57,6.57,0,0,1,5.75-7.29L245.52,11a6.57,6.57,0,0,1,7.29,5.75l11.5,97-27.7-8.46a15.38,15.38,0,0,0-7.52-.38l-6.72-56.69a12.06,12.06,0,0,0-8.11-10.16A11.41,11.41,0,0,0,202.33,41L178,66.23l-9.16,1.09A14.65,14.65,0,0,0,156,83.57l1.75,14.73a14.64,14.64,0,0,0,9.37,12,22.24,22.24,0,0,0-12.2,2.24l-28,14ZM203.7,160.19l-1.89-3.79c.3-.33.6-.67.91-1a4.69,4.69,0,0,1,.62-.53l-2.17.26-16.26-32.6a22.28,22.28,0,0,0-13.3-11.34,14.6,14.6,0,0,0,2.4-.07l9.16-1.09,29.55,18.82h0c.15.09.31.16.46.25ZM168.64,97l-1.75-14.73a3.69,3.69,0,0,1,3.23-4.09l5.07-.6,2.61,22.05-5.07.6A3.69,3.69,0,0,1,168.64,97Zm48.68,18.57-.82,2.69-27.33-17.4L186,73.74,210.2,48.62a.47.47,0,0,1,.57-.17,1.17,1.17,0,0,1,.73,1.08l7.41,62.53A15.43,15.43,0,0,0,217.32,115.58ZM14.86,207.32a8.39,8.39,0,0,1,3.76-11.24L161.17,125a8.39,8.39,0,0,1,11.24,3.76l54.85,110-66.21-14.24-25.11,48.39-49.9-11-22.42,43.2ZM97.18,353.63a8.39,8.39,0,0,1-11.24-3.76l-14.6-29.29L93.5,277.86l107.88,23.81Zm142.55-71.08L219,292.88l.34-1.56L150.06,276l18.48-35.61L235,254.73l.06-.27,8.4,16.84A8.39,8.39,0,0,1,239.73,282.55ZM342.94,153.92,310.8,259.22a5.8,5.8,0,0,1-7.23,3.85l-57.28-17.48L210,172.75l16.59-54.35a5.8,5.8,0,0,1,7.23-3.85l105.3,32.14A5.8,5.8,0,0,1,342.94,153.92Z"/><path class="cls-1" d="M269.8,159.74a11.4,11.4,0,0,0-18.95,4.75l-10.46,34.27a11.38,11.38,0,0,0,13.32,14.47l36.86-8A11.4,11.4,0,0,0,296.2,186Zm20,34.85a1.68,1.68,0,0,1-1.31,1.21l-36.86,8a1.74,1.74,0,0,1-2-2.21l10.46-34.27a1.69,1.69,0,0,1,1.24-1.18,1.76,1.76,0,0,1,.94,0,1.72,1.72,0,0,1,.72.44l26.4,26.28A1.68,1.68,0,0,1,289.83,194.59Z"/></g></g></svg>