<svg xmlns="http://www.w3.org/2000/svg" viewBox="0 0 24 24"><defs><style>.cls-1{fill:#fff;}</style></defs><title>Organization</title><g id="Layer_2" data-name="Layer 2"><g id="Layer_1-2" data-name="Layer 1"><path class="cls-1" d="M24,14V10H19V9h1V5H16V4h1V0H7V4H8V5H4V9H5v1H0v4H1.17L.63,22H0v2H24V22h-.63l-.54-8Zm-2.5-2V11H23v2H18V11h1.5v1ZM7,13h.5v1H7Zm1.5,0h3v1h-3Zm4,0h3v1h-3Zm4,0H17v1h-.5ZM8,1H9V2h2V1h2V2h2V1h1V3H8ZM9,4h6V5H9ZM5,7H7V6H8V7h2V6h1V7h2V6h1V7h2V6h1V7h2V8H5ZM6,9H18v1H17v2H16v-.5a1.5,1.5,0,0,0-3,0V12H11v-.5a1.5,1.5,0,0,0-3,0V12H7V10H6ZM1,13V11H2.5v1h2V11H6v2H1Zm1.18,1H2.5v1h2V14h.32l.54,8H4.5V20a1,1,0,0,0-2,0v2H1.64ZM15,22V18.5a1.5,1.5,0,0,0-1.5-1.5H10.46A1.5,1.5,0,0,0,9,18.5V22H6.37l-.47-7H18.11l-.47,7Zm7.32,0H21.5V20a1,1,0,0,0-2,0v2h-.86l.54-8h.32v1h2V14h.32Z"/></g></g></svg>