<svg xmlns="http://www.w3.org/2000/svg" xmlns:xlink="http://www.w3.org/1999/xlink" width="24" height="24" viewBox="0 0 24 24">
  <defs>
    <path id="plus-a" d="M13.0036377,11.7895273 L13.0036377,4.65861415 C13.0036377,4.2948716 12.7113619,4 12.3508214,4 C11.9902809,4 11.6980051,4.2948716 11.6980051,4.65861415 L11.6980051,11.7895273 L4.65281631,11.7895273 C4.29227582,11.7895273 4,12.0843989 4,12.4481415 C4,12.811884 4.29227582,13.1067556 4.65281631,13.1067556 L11.6980051,13.1067556 L11.6980051,20.3413859 C11.6980051,20.7051284 11.9902809,21 12.3508214,21 C12.7113619,21 13.0036377,20.7051284 13.0036377,20.3413859 L13.0036377,13.1067556 L20.3471837,13.1067556 C20.7077242,13.1067556 21,12.811884 21,12.4481415 C21,12.0843989 20.7077242,11.7895273 20.3471837,11.7895273 L13.0036377,11.7895273 Z"/>
  </defs>
  <g fill="none" fill-rule="evenodd">
    <mask id="plus-b" fill="#fff">
      <use xlink:href="#plus-a"/>
    </mask>
    <use fill="#FFF" xlink:href="#plus-a"/>
    <g fill="#FF7B84" mask="url(#plus-b)">
      <rect width="24" height="24"/>
    </g>
  </g>
</svg>
