<svg xmlns="http://www.w3.org/2000/svg" xmlns:xlink="http://www.w3.org/1999/xlink" width="20" height="20" viewBox="0 0 20 20">
  <defs>
    <path id="group-2-copy-3-a" d="M8.66909181,7.85968487 L8.66909181,3.10574277 C8.66909181,2.86324773 8.47424126,2.66666667 8.23388094,2.66666667 C7.99352061,2.66666667 7.79867006,2.86324773 7.79867006,3.10574277 L7.79867006,7.85968487 L3.10187754,7.85968487 C2.86151721,7.85968487 2.66666667,8.05626594 2.66666667,8.29876097 C2.66666667,8.54125601 2.86151721,8.73783707 3.10187754,8.73783707 L7.79867006,8.73783707 L7.79867006,13.5609239 C7.79867006,13.8034189 7.99352061,14 8.23388094,14 C8.47424126,14 8.66909181,13.8034189 8.66909181,13.5609239 L8.66909181,8.73783707 L13.5647891,8.73783707 C13.8051495,8.73783707 14,8.54125601 14,8.29876097 C14,8.05626594 13.8051495,7.85968487 13.5647891,7.85968487 L8.66909181,7.85968487 Z"/>
  </defs>
  <g fill="none" fill-rule="evenodd" transform="translate(1 1)">
    <g transform="translate(1 1)">
      <mask id="group-2-copy-3-b" fill="#fff">
        <use xlink:href="#group-2-copy-3-a"/>
      </mask>
      <use fill="#FFF" xlink:href="#group-2-copy-3-a"/>
      <g fill="#929292" mask="url(#group-2-copy-3-b)">
        <rect width="53" height="53" rx="2" transform="translate(-36 -14.667)"/>
      </g>
    </g>
    <circle cx="9" cy="9" r="9" stroke="#929292"/>
  </g>
</svg>
