<svg xmlns="http://www.w3.org/2000/svg" xmlns:xlink="http://www.w3.org/1999/xlink" width="30" height="30" viewBox="0 0 30 30">
  <defs>
    <path id="profile-a" d="M4,19 C4,16.047 5.613,13.468 8,12.083 L8,12.972 C8,13.771 8.891,14.247 9.555,13.804 L10.654,13.071 C10.98,13.452 11.459,13.698 12,13.698 C12.541,13.698 13.02,13.452 13.346,13.071 L14.445,13.804 C15.109,14.247 16,13.771 16,12.972 L16,12.083 C18.387,13.468 20,16.047 20,19 L20,22 L4,22 L4,19 Z M7,6 C7,3.243 9.243,1 12,1 C14.757,1 17,3.243 17,6 C17,7.587 16.242,8.987 15.086,9.904 C14.955,9.893 14.819,9.901 14.684,9.946 L13.904,10.206 C13.29,10.074 12.653,10 12,10 C11.347,10 10.71,10.074 10.096,10.206 L9.316,9.946 C9.181,9.901 9.045,9.893 8.914,9.904 C7.758,8.987 7,7.587 7,6 L7,6 Z M21,22 L21,19 C21,15.468 18.961,12.42 16,10.947 L16,10.895 C16,10.764 15.969,10.644 15.925,10.531 C17.194,9.431 18,7.812 18,6 C18,2.687 15.313,0 12,0 C8.687,0 6,2.687 6,6 C6,7.812 6.807,9.431 8.075,10.531 C8.031,10.644 8,10.764 8,10.895 L8,10.947 C5.039,12.42 3,15.468 3,19 L3,22 L0,22 L0,24 L24,24 L24,22 L21,22 Z"/>
  </defs>
  <g fill="none" fill-rule="evenodd" transform="translate(3 1)">
    <mask id="profile-b" fill="#fff">
      <use xlink:href="#profile-a"/>
    </mask>
    <use fill="#662F8E" xlink:href="#profile-a"/>
    <g fill="#FFF" mask="url(#profile-b)">
      <rect width="80" height="80" rx="2" transform="translate(-25 -28)"/>
    </g>
  </g>
</svg>
