<svg xmlns="http://www.w3.org/2000/svg" width="11" height="11" viewBox="0 0 11 11">
  <path fill="#FFF" fill-rule="evenodd" d="M938.5,345 C935.462434,345 933,342.537566 933,339.5 C933,336.462434 935.462434,334 938.5,334 C941.537566,334 944,336.462434 944,339.5 C944,342.537566 941.537566,345 938.5,345 Z M938.054688,340.898438 L939.089844,340.898438 L939.089844,340.664062 C939.089844,340.507812 939.123047,340.381511 939.189453,340.285156 C939.25586,340.188802 939.414061,340.048178 939.664062,339.863281 C940.028648,339.602863 940.276041,339.368491 940.40625,339.160156 C940.536459,338.951822 940.601562,338.704429 940.601562,338.417969 C940.601562,337.988279 940.443361,337.644533 940.126953,337.386719 C939.810545,337.128905 939.384117,337 938.847656,337 C938.196611,337 937.580732,337.162759 937,337.488281 L937.425781,338.34375 C937.925784,338.08854 938.371092,337.960938 938.761719,337.960938 C938.985678,337.960938 939.160156,338.005208 939.285156,338.09375 C939.410157,338.182292 939.472656,338.311197 939.472656,338.480469 C939.472656,338.631511 939.429037,338.768229 939.341797,338.890625 C939.254557,339.013021 939.07422,339.171874 938.800781,339.367188 C938.516926,339.575522 938.321615,339.772134 938.214844,339.957031 C938.108072,340.141928 938.054688,340.359374 938.054688,340.609375 L938.054688,340.898438 Z M937.929688,342.234375 C937.929688,342.445314 937.989583,342.608723 938.109375,342.724609 C938.229167,342.840495 938.398436,342.898438 938.617188,342.898438 C938.83073,342.898438 938.997395,342.839193 939.117188,342.720703 C939.23698,342.602213 939.296875,342.440105 939.296875,342.234375 C939.296875,342.020832 939.237631,341.856771 939.119141,341.742188 C939.00065,341.627604 938.833334,341.570312 938.617188,341.570312 C938.393228,341.570312 938.222657,341.626302 938.105469,341.738281 C937.988281,341.850261 937.929688,342.015624 937.929688,342.234375 Z" transform="translate(-933 -334)"/>
</svg>
