<svg xmlns="http://www.w3.org/2000/svg" xmlns:xlink="http://www.w3.org/1999/xlink" width="24" height="24" viewBox="0 0 24 24">
  <defs>
    <path id="share-copy-2-a" d="M13.5,11 C12.702,11 12,11.38 11.542,11.962 L4.906,8.644 C4.961,8.437 5,8.224 5,8 C5,7.776 4.961,7.563 4.906,7.356 L11.542,4.038 C12,4.62 12.702,5 13.5,5 C14.881,5 16,3.881 16,2.5 C16,1.119 14.881,0 13.5,0 C12.119,0 11,1.119 11,2.5 C11,2.724 11.039,2.937 11.094,3.144 L4.458,6.462 C4,5.88 3.298,5.5 2.5,5.5 C1.119,5.5 0,6.619 0,8 C0,9.381 1.119,10.5 2.5,10.5 C3.298,10.5 4,10.12 4.458,9.538 L11.094,12.856 C11.039,13.063 11,13.276 11,13.5 C11,14.881 12.119,16 13.5,16 C14.881,16 16,14.881 16,13.5 C16,12.119 14.881,11 13.5,11"/>
  </defs>
  <g fill="none" fill-rule="evenodd" transform="translate(4 4)">
    <use fill="#FF7B84" xlink:href="#share-copy-2-a"/>
  </g>
</svg>