<svg xmlns="http://www.w3.org/2000/svg" xmlns:xlink="http://www.w3.org/1999/xlink" width="24" height="24" viewBox="0 0 24 24">
  <defs>
    <path id="nsfw-copy-a" d="M12.1184161,18.8823529 C10.7001916,18.8823529 9.38295418,18.4375061 8.29411765,17.6878102 L17.6878102,8.29411765 C18.4400229,9.38295418 18.8823529,10.6976747 18.8823529,12.1184161 C18.8823529,15.8480194 15.8492778,18.8823529 12.1184161,18.8823529 M11.9051797,5.11764706 C13.3135139,5.11764706 14.6208242,5.54925933 15.7058824,6.28429472 L6.28415558,15.7058824 C5.54920786,14.6206948 5.11764706,13.3119655 5.11764706,11.9059894 C5.11764706,8.16292899 8.16351289,5.11764706 11.9051797,5.11764706 M12,3 C7.03047458,3 3,7.03047458 3,12 C3,16.9695254 7.03047458,21 12,21 C16.9719661,21 21,16.9695254 21,12 C21,7.03047458 16.9719661,3 12,3"/>
  </defs>
  <g fill="none" fill-rule="evenodd">
    <use fill="#FF7B84" xlink:href="#nsfw-copy-a"/>
  </g>
</svg>
