<svg xmlns="http://www.w3.org/2000/svg" xmlns:xlink="http://www.w3.org/1999/xlink" width="22" height="18" viewBox="0 0 22 18">
  <defs>
    <path id="envelope-copy-2-a" d="M23,5.11635507 C22.1912389,5.47585409 21.3208493,5.71834846 20.4075878,5.82686803 C21.3400524,5.26863975 22.0550312,4.38440615 22.392201,3.32957798 C21.5204718,3.84716725 20.5545135,4.22274324 19.5260337,4.42549175 C18.702982,3.54840347 17.5298094,3 16.2315937,3 C13.739216,3 11.7184297,5.02078639 11.7184297,7.51361062 C11.7184297,7.86685748 11.7581755,8.21117269 11.8354343,8.54209041 C8.08414023,8.35363254 4.75799281,6.55703063 2.53177841,3.82617786 C2.14325153,4.49247914 1.92085338,5.26774658 1.92085338,6.09571078 C1.92085338,7.66142947 2.71755679,9.04315612 3.92868887,9.85236384 C3.18914804,9.82869496 2.49292573,9.62549987 1.8842336,9.28743682 C1.88378702,9.30619329 1.88378702,9.32539634 1.88378702,9.3445994 C1.88378702,11.5310679 3.4396809,13.3549114 5.50467897,13.7702332 C5.1259769,13.8729472 4.72717861,13.9283235 4.31542943,13.9283235 C4.02425756,13.9283235 3.74157075,13.9001888 3.46602927,13.8470454 C4.04078111,15.6400747 5.70742748,16.9454357 7.68221586,16.9816089 C6.13748655,18.1922944 4.19172604,18.9139719 2.07671072,18.9139719 C1.71274587,18.9139719 1.35324686,18.892536 1,18.8505572 C2.99801068,20.1322494 5.3702576,20.8784889 7.91890465,20.8784889 C16.2213223,20.8784889 20.7608347,14.0011165 20.7608347,8.03655888 C20.7608347,7.84095569 20.757262,7.64579908 20.7483304,7.45198222 C21.6298845,6.81694172 22.3953271,6.02157806 23,5.11635507"/>
  </defs>
  <g fill="none" fill-rule="evenodd" transform="translate(-1 -3)">
    <use fill="#00A4F2" xlink:href="#envelope-copy-2-a"/>
  </g>
</svg>
