<svg xmlns="http://www.w3.org/2000/svg" xmlns:xlink="http://www.w3.org/1999/xlink" width="24" height="24" viewBox="0 0 24 24">
  <defs>
    <path id="upload-copy-a" d="M13.3286667,20.8671636 C13.3286667,21.6134698 13.915,22.1103304 14.6346667,21.9512538 C14.6346667,21.9512538 14.243,22.0619305 14.6826667,21.9380538 C18.903,20.7473484 22,16.8178175 22,12.1538266 C22,6.54586815 17.5226667,2 12,2 C6.477,2 2,6.54586815 2,12.1538266 C2,16.8262791 5.108,20.7615638 9.33933333,21.9444846 C9.77233333,22.0653151 9.365,21.9512538 9.365,21.9512538 C10.0866667,22.0991612 10.6713333,21.6124544 10.6713333,20.8671636 L10.6713333,12.37958 C10.6713333,12.1924111 10.5663333,12.1480727 10.4353333,12.2814263 C10.4353333,12.2814263 9.35766667,13.379055 8.971,13.7781003 C7.706,15.0669594 5.827,13.1522862 7.07966667,11.8762886 L11.1496667,7.76195811 C11.606,7.3016513 12.3483333,7.29928208 12.8076667,7.75721965 L16.92,11.8762886 C18.1726667,13.1522862 16.294,15.0669594 15.0413333,13.7906234 C14.643,13.3800703 13.565,12.2817648 13.565,12.2817648 C13.4343333,12.1487496 13.3286667,12.1927496 13.3286667,12.37958 L13.3286667,20.8671636 Z"/>
  </defs>
  <g fill="none" fill-rule="evenodd">
    <use fill="#fff" xlink:href="#upload-copy-a"/>
  </g>
</svg>
