<svg xmlns="http://www.w3.org/2000/svg" xmlns:xlink="http://www.w3.org/1999/xlink" width="24" height="24" viewBox="0 0 24 24">
  <defs>
    <path id="upload-a" d="M11.3286667,18.8671636 C11.3286667,19.6134698 11.915,20.1103304 12.6346667,19.9512538 C12.6346667,19.9512538 12.243,20.0619305 12.6826667,19.9380538 C16.903,18.7473484 20,14.8178175 20,10.1538266 C20,4.54586815 15.5226667,0 10,0 C4.477,0 0,4.54586815 0,10.1538266 C0,14.8262791 3.108,18.7615638 7.33933333,19.9444846 C7.77233333,20.0653151 7.365,19.9512538 7.365,19.9512538 C8.08666667,20.0991612 8.67133333,19.6124544 8.67133333,18.8671636 L8.67133333,10.37958 C8.67133333,10.1924111 8.56633333,10.1480727 8.43533333,10.2814263 C8.43533333,10.2814263 7.35766667,11.379055 6.971,11.7781003 C5.706,13.0669594 3.827,11.1522862 5.07966667,9.87628863 L9.14966667,5.76195811 C9.606,5.3016513 10.3483333,5.29928208 10.8076667,5.75721965 L14.92,9.87628863 C16.1726667,11.1522862 14.294,13.0669594 13.0413333,11.7906234 C12.643,11.3800703 11.565,10.2817648 11.565,10.2817648 C11.4343333,10.1487496 11.3286667,10.1927496 11.3286667,10.37958 L11.3286667,18.8671636 Z"/>
  </defs>
  <g fill="none" fill-rule="evenodd" transform="translate(2 2)">
    <mask id="upload-b" fill="#fff">
      <use xlink:href="#upload-a"/>
    </mask>
    <use fill="#C1C1C1" xlink:href="#upload-a"/>
    <g fill="#979797" mask="url(#upload-b)">
      <rect width="80" height="80" rx="2" transform="translate(-20 -23)"/>
    </g>
  </g>
</svg>
