<svg xmlns="http://www.w3.org/2000/svg" xmlns:xlink="http://www.w3.org/1999/xlink" width="24" height="24" viewBox="0 0 24 24">
  <defs>
    <path id="all-list-a" d="M2,20 L22,20 L22,16 L2,16 L2,20 Z M4,17 L6,17 L6,19 L4,19 L4,17 Z M2,4 L2,8 L22,8 L22,4 L2,4 Z M6,7 L4,7 L4,5 L6,5 L6,7 Z M2,14 L22,14 L22,10 L2,10 L2,14 Z M4,11 L6,11 L6,13 L4,13 L4,11 Z"/>
  </defs>
  <g fill="none" fill-rule="evenodd">
    <mask id="all-list-b" fill="#fff">
      <use xlink:href="#all-list-a"/>
    </mask>
    <g fill="#FFF" mask="url(#all-list-b)">
      <rect width="80" height="80" rx="2" transform="translate(-10 -24)"/>
    </g>
  </g>
</svg>
