<svg xmlns="http://www.w3.org/2000/svg" xmlns:xlink="http://www.w3.org/1999/xlink" width="24" height="24" viewBox="0 0 24 24">
  <defs>
    <path id="card-view-a" d="M5.97066667,7 L1.02933333,7 C0.460666667,7 0,6.53933333 0,5.97066667 L0,1.02933333 C0,0.460666667 0.460666667,0 1.02933333,0 L5.97066667,0 C6.53933333,0 7,0.460666667 7,1.02933333 L7,5.97066667 C7,6.53933333 6.53933333,7 5.97066667,7"/>
  </defs>
  <g fill="none" fill-rule="evenodd" transform="translate(4 4)">
    <use fill="#333" xlink:href="#card-view-a"/>
    <path fill="#333" d="M15.3040667 7L10.3627333 7C9.79406667 7 9.3334 6.53933333 9.3334 5.97066667L9.3334 1.02933333C9.3334.460666667 9.79406667 0 10.3627333 0L15.3040667 0C15.8727333 0 16.3334.460666667 16.3334 1.02933333L16.3334 5.97066667C16.3334 6.53933333 15.8727333 7 15.3040667 7M15.2796 16.3333333L10.3869333 16.3333333C9.80493333 16.3333333 9.3336 15.8613333 9.3336 15.2793333L9.3336 10.054C9.3336 9.472 9.80493333 9 10.3869333 9L15.2796 9C15.8616 9 16.3336 9.472 16.3336 10.054L16.3336 15.2793333C16.3336 15.8613333 15.8616 16.3333333 15.2796 16.3333333M5.946 16L1.05333333 16C.471333333 16 0 15.5494545 0 14.9939091L0 10.0060909C0 9.45054545.471333333 9 1.05333333 9L5.946 9C6.528 9 7 9.45054545 7 10.0060909L7 14.9939091C7 15.5494545 6.528 16 5.946 16"/>
  </g>
</svg>
