<svg xmlns="http://www.w3.org/2000/svg" xmlns:xlink="http://www.w3.org/1999/xlink" width="24" height="24" viewBox="0 0 24 24">
  <defs>
    <path id="industry-copy-a" d="M18.193137,20.4357585 L15.8540085,20.4357585 L15.8540085,13.8523458 C15.8540085,13.0028732 16.4385818,12.3657687 17.0239903,12.3657687 C17.691239,12.3657687 18.193137,13.0028732 18.193137,13.8523458 L18.193137,20.4357585 Z M13.1825084,20.4357585 L10.844215,20.4357585 L10.844215,13.8523458 C10.844215,13.0028732 11.4279532,12.3657687 12.0133617,12.3657687 C12.6806104,12.3657687 13.1825084,13.0028732 13.1825084,13.8523458 L13.1825084,20.4357585 Z M8.17187974,20.4357585 L5.8335864,20.4357585 L5.8335864,13.8523458 C5.8335864,13.0028732 6.41732463,12.3657687 7.00273307,12.3657687 C7.66998178,12.3657687 8.17187974,13.0028732 8.17187974,13.8523458 L8.17187974,20.4357585 Z M12.0133617,5.69119704 C12.9311418,5.69119704 13.6835712,6.43254371 13.6835712,7.33863408 C13.6835712,8.24472445 12.9311418,8.98607112 12.0133617,8.98607112 C11.0947464,8.98607112 10.3431521,8.24472445 10.3431521,7.33863408 C10.3431521,6.43254371 11.0947464,5.69119704 12.0133617,5.69119704 L12.0133617,5.69119704 Z M19.946857,13.2694074 L19.9318251,11.0453674 L20.8646371,11.0453674 L23,11.0453674 L12.4309141,2.23157926 C12.1803826,1.98446371 11.7628302,1.90209185 11.5122988,2.14920741 L1,11.0453674 L2.99423019,11.0453674 L3.91201032,11.0453674 L3.91201032,20.4357585 L2.49316732,20.4357585 L2.49316732,22 L21.3665351,22 L21.3665351,20.4357585 L19.946857,20.4357585 L19.946857,13.2694074 Z"/>
  </defs>
  <g fill="none" fill-rule="evenodd">
    <use fill="#000" xlink:href="#industry-copy-a"/>
  </g>
</svg>
