<svg xmlns="http://www.w3.org/2000/svg" xmlns:xlink="http://www.w3.org/1999/xlink" width="24" height="24" viewBox="0 0 24 24">
  <defs>
    <polygon id="list-view-a" points="0 4 0 0 2.333 0 4.667 0 4.667 4"/>
    <polygon id="list-view-c" points="4.667 0 9.333 0 9.333 4 0 4 0 0 4.667 0"/>
    <polygon id="list-view-e" points="0 4 0 0 4.667 0 4.667 4"/>
    <polygon id="list-view-g" points="9.333 0 9.333 4 0 4 0 0"/>
    <polygon id="list-view-i" points="0 0 0 4 2.333 4 4.667 4 4.667 0 0 0"/>
    <polygon id="list-view-k" points="9.333 0 9.333 4 4.667 4 0 4 0 0"/>
  </defs>
  <g fill="none" fill-rule="evenodd" transform="translate(4 4)">
    <mask id="list-view-b" fill="#fff">
      <use xlink:href="#list-view-a"/>
    </mask>
    <path fill="#333" d="M4.03126667,4 L0.635266667,4 C0.2846,4 -6.66666667e-05,3.71533333 -6.66666667e-05,3.36466667 L-6.66666667e-05,0.635333333 C-6.66666667e-05,0.284666667 0.2846,0 0.635266667,0 L4.03126667,0 C4.38193333,0 4.6666,0.284666667 4.6666,0.635333333 L4.6666,3.36466667 C4.6666,3.71533333 4.38193333,4 4.03126667,4" mask="url(#list-view-b)"/>
    <g transform="translate(6.667)">
      <mask id="list-view-d" fill="#fff">
        <use xlink:href="#list-view-c"/>
      </mask>
      <path fill="#333" d="M8.43486667,4 L0.8982,4 C0.4022,4 0.0002,3.59733333 0.0002,3.10133333 L0.0002,0.898666667 C0.0002,0.402666667 0.4022,0 0.8982,0 L8.43486667,0 C8.93086667,0 9.33353333,0.402666667 9.33353333,0.898666667 L9.33353333,3.10133333 C9.33353333,3.59733333 8.93086667,4 8.43486667,4" mask="url(#list-view-d)"/>
    </g>
    <g transform="translate(0 6)">
      <mask id="list-view-f" fill="#fff">
        <use xlink:href="#list-view-e"/>
      </mask>
      <path fill="#333" d="M4.03126667,4 L0.635266667,4 C0.2846,4 -6.66666667e-05,3.71533333 -6.66666667e-05,3.36466667 L-6.66666667e-05,0.635333333 C-6.66666667e-05,0.284666667 0.2846,0 0.635266667,0 L4.03126667,0 C4.38193333,0 4.6666,0.284666667 4.6666,0.635333333 L4.6666,3.36466667 C4.6666,3.71533333 4.38193333,4 4.03126667,4" mask="url(#list-view-f)"/>
    </g>
    <g transform="translate(6.667 6)">
      <mask id="list-view-h" fill="#fff">
        <use xlink:href="#list-view-g"/>
      </mask>
      <path fill="#333" d="M8.43486667,4 L0.8982,4 C0.4022,4 0.0002,3.59733333 0.0002,3.10133333 L0.0002,0.898666667 C0.0002,0.402666667 0.4022,0 0.8982,0 L8.43486667,0 C8.93086667,0 9.33353333,0.402666667 9.33353333,0.898666667 L9.33353333,3.10133333 C9.33353333,3.59733333 8.93086667,4 8.43486667,4" mask="url(#list-view-h)"/>
    </g>
    <g transform="translate(0 12)">
      <mask id="list-view-j" fill="#fff">
        <use xlink:href="#list-view-i"/>
      </mask>
      <path fill="#333" d="M4.03126667,4 L0.635266667,4 C0.2846,4 -6.66666667e-05,3.71533333 -6.66666667e-05,3.36466667 L-6.66666667e-05,0.635333333 C-6.66666667e-05,0.284666667 0.2846,0 0.635266667,0 L4.03126667,0 C4.38193333,0 4.6666,0.284666667 4.6666,0.635333333 L4.6666,3.36466667 C4.6666,3.71533333 4.38193333,4 4.03126667,4" mask="url(#list-view-j)"/>
    </g>
    <g transform="translate(6.667 12)">
      <mask id="list-view-l" fill="#fff">
        <use xlink:href="#list-view-k"/>
      </mask>
      <path fill="#333" d="M8.43486667,4 L0.8982,4 C0.4022,4 0.0002,3.59733333 0.0002,3.10133333 L0.0002,0.898666667 C0.0002,0.402666667 0.4022,0 0.8982,0 L8.43486667,0 C8.93086667,0 9.33353333,0.402666667 9.33353333,0.898666667 L9.33353333,3.10133333 C9.33353333,3.59733333 8.93086667,4 8.43486667,4" mask="url(#list-view-l)"/>
    </g>
  </g>
</svg>
