<svg xmlns="http://www.w3.org/2000/svg" xmlns:xlink="http://www.w3.org/1999/xlink" width="49" height="65" viewBox="0 0 49 65">
  <defs>
    <path id="group-4-a" d="M18.2721156,19.5248819 L20.9546474,19.5248819 L21.4517817,24.2453687 C19.777224,23.8118416 18.4714677,21.9010171 18.2721156,19.5248819 Z M35.7266384,19.5248819 C35.5272863,21.9022884 34.2202841,23.8156556 32.5432345,24.2453687 L33.0142038,19.5248819 L35.7266384,19.5248819 Z M32.3264391,25.5434072 C34.9404436,25.21413 37,22.3739557 37,18.8892118 L37,18.2535416 L33.1400449,18.2535416 L33.2658859,17 L20.6892599,17 L20.8213307,18.2535416 L17,18.2535416 L17,18.8892118 C17,22.3739557 19.0570645,25.21413 21.672315,25.5434072 C22.2143035,27.5419542 23.7866932,29.061206 25.7478196,29.5265165 L25.7478196,31.6598256 L24.5056068,31.6598256 L24.5056068,32.2115874 C24.5056068,33.3252815 23.6209818,34.2279332 22.5282831,34.2279332 L20.7839522,34.2279332 L20.7839522,36.0039956 L18.6284575,36.0039956 C17.7699975,36.0039956 17.074757,36.7146749 17.074757,37.5893571 L17.074757,38 L36.9514079,38 L36.9514079,37.5893571 C36.9514079,36.7146749 36.2549215,36.0039956 35.3964615,36.0039956 L33.2409669,36.0039956 L33.2409669,34.2279332 L31.4966359,34.2279332 C30.4039372,34.2279332 29.5193122,33.3252815 29.5193122,32.2115874 L29.5193122,31.6598256 L28.2770994,31.6598256 L28.2770994,29.5176171 C30.2245203,29.0446785 31.7869424,27.5317835 32.3264391,25.5434072 Z"/>
  </defs>
  <g fill="none" fill-rule="evenodd">
    <path fill="#000" d="M4.71248357,55.4345193 L4.71248357,55.4352415 L3.32385023,55.4352415 C2.10461561,55.4352415 0.96608167,55.7804615 0.000581626533,56.3791797 L0.000581626533,2.65848228 C0.000581626533,1.19165872 1.20091338,0 2.67460961,0 L4.71248357,0 L4.71248357,55.4345193 Z M45.2978014,58.3953218 C44.4871594,59.5097033 44.3301202,60.6146959 44.3199418,61.2545805 C44.302493,62.568294 44.8106892,63.8755075 45.6991237,65 L3.32399563,65 C1.49041799,65 0,63.5180099 0,61.6958554 C0,59.8751453 1.49041799,58.3953218 3.32399563,58.3953218 L45.2978014,58.3953218 Z M46.3237906,7.22214074e-05 C47.801849,7.22214074e-05 49.0007267,1.19028651 48.9999997,2.6585545 L48.9999997,51.8206156 C48.9999997,53.8161023 47.3707183,55.4345915 45.3619257,55.4345915 L7.69142927,55.4345915 L7.69142927,7.22214074e-05 L46.3237906,7.22214074e-05 Z"/>
    <use fill="#F3F5F7" xlink:href="#group-4-a"/>
  </g>
</svg>