<svg xmlns="http://www.w3.org/2000/svg" width="49" height="65" viewBox="0 0 49 65">
  <g fill="none" fill-rule="evenodd">
    <path fill="#FF7B84" d="M4.71248357,55.4345193 L4.71248357,55.4352415 L3.32385023,55.4352415 C2.10461561,55.4352415 0.96608167,55.7804615 0.000581626533,56.3791797 L0.000581626533,2.65848228 C0.000581626533,1.19165872 1.20091338,0 2.67460961,0 L4.71248357,0 L4.71248357,55.4345193 Z M45.2978014,58.3953218 C44.4871594,59.5097033 44.3301202,60.6146959 44.3199418,61.2545805 C44.302493,62.568294 44.8106892,63.8755075 45.6991237,65 L3.32399563,65 C1.49041799,65 0,63.5180099 0,61.6958554 C0,59.8751453 1.49041799,58.3953218 3.32399563,58.3953218 L45.2978014,58.3953218 Z M46.3237906,7.22214074e-05 C47.801849,7.22214074e-05 49.0007267,1.19028651 48.9999997,2.6585545 L48.9999997,51.8206156 C48.9999997,53.8161023 47.3707183,55.4345915 45.3619257,55.4345915 L7.69142927,55.4345915 L7.69142927,7.22214074e-05 L46.3237906,7.22214074e-05 Z"/>
    <circle cx="29" cy="24" r="7" fill="#F3F5F7"/>
    <g fill="#F3F5F7" transform="translate(21 24)">
      <path d="M6.33333333,1 L8,1 L8,12 L5.5,9.93302409 L3,12 L3,1 L6.33333333,1 Z" transform="rotate(30 5.5 6.5)"/>
      <path d="M12.3333333,1 L14,1 L14,12 L11.5,9.93302409 L9,12 L9,1 L12.3333333,1 Z" transform="scale(-1 1) rotate(30 0 -36.419)"/>
    </g>
  </g>
</svg>
