<svg xmlns="http://www.w3.org/2000/svg" width="1349" height="766" viewBox="0 0 1349 766">
  <defs>
    <linearGradient id="hero-a" x1="73.472%" x2="31.044%" y1="72.087%" y2="17.28%">
      <stop offset="0%" stop-color="#662D91"/>
      <stop offset="100%" stop-color="#FF7B84" stop-opacity="0"/>
    </linearGradient>
    <linearGradient id="hero-b" x1="73.472%" x2="17.668%" y1="72.087%" y2="0%">
      <stop offset="0%" stop-color="#FF7B84" stop-opacity=".475"/>
      <stop offset="100%" stop-color="#FFF"/>
    </linearGradient>
    <linearGradient id="hero-c" x1="71.133%" x2="-2.726%" y1="79.741%" y2="9.739%">
      <stop offset="0%" stop-color="#662D91"/>
      <stop offset="73.819%" stop-color="#FE8089"/>
      <stop offset="81.277%" stop-color="#FE8C94"/>
      <stop offset="100%" stop-color="#FFEBED"/>
    </linearGradient>
  </defs>
  <g fill="none" fill-rule="evenodd" transform="translate(-106 -96)">
    <path fill="url(#hero-a)" d="M15.7865893,633.828125 C95.3715096,778.346354 234.053907,852.403646 431.83378,856 C728.503591,861.394531 818.996457,737.089844 1090.74297,777.445313 C1271.90731,804.348958 1402.43823,806.859375 1482.33571,784.976562 L1466.14247,103 L7,103 L15.7865893,633.828125 Z" opacity=".775" transform="rotate(-1 744.668 479.586)"/>
    <path fill="url(#hero-b)" d="M90,712.902116 C194.522331,790.300705 326.328855,829 485.419571,829 C724.055644,829 904.126129,705.742468 1176.58537,744.166535 C1358.22486,769.782579 1489.09813,772.172848 1569.20517,751.337341 L1552.96945,102 L90,102 L90,712.902116 Z" opacity=".553" transform="matrix(-1 0 0 1 1659.205 0)"/>
    <path fill="url(#hero-c)" d="M48.4225149,693.169937 C150.200012,776.204855 278.545198,817.722314 433.458073,817.722314 C665.827386,817.722314 841.169085,685.488908 1106.47334,726.711096 C1283.34284,754.192555 1410.77928,756.756888 1488.78265,734.404096 L1472.9733,37.7806383 L48.4225149,37.7806383 L48.4225149,693.169937 Z" transform="rotate(3 768.603 427.751)"/>
  </g>
</svg>
