<?xml version="1.0" encoding="UTF-8"?>
<svg width="1349px" height="766px" viewBox="0 0 1349 766" version="1.1" xmlns="http://www.w3.org/2000/svg" xmlns:xlink="http://www.w3.org/1999/xlink">
    <!-- Generator: Sketch 46.2 (44496) - http://www.bohemiancoding.com/sketch -->
    <title>Group</title>
    <desc>Created with Sketch.</desc>
    <defs>
        <linearGradient x1="73.4721827%" y1="72.0872944%" x2="30.02954%" y2="15.9687954%" id="linearGradient-1">
            <stop stop-color="#FF7B84" offset="0%"></stop>
            <stop stop-color="#FFFFFF" stop-opacity="0" offset="100%"></stop>
        </linearGradient>
        <linearGradient x1="73.4721827%" y1="72.0872944%" x2="17.667722%" y2="0%" id="linearGradient-2">
            <stop stop-color="#FF7B84" stop-opacity="0.474779212" offset="0%"></stop>
            <stop stop-color="#FFFFFF" offset="100%"></stop>
        </linearGradient>
        <linearGradient x1="73.4721827%" y1="72.0872944%" x2="13.6031964%" y2="28.7500701%" id="linearGradient-3">
            <stop stop-color="#FF7B84" offset="0%"></stop>
            <stop stop-color="#FFFFFF" offset="100%"></stop>
        </linearGradient>
    </defs>
    <g id="Landing-page" stroke="none" stroke-width="1" fill="none" fill-rule="evenodd">
        <g id="Desktop-HD-Copy-17">
            <g id="Group" transform="translate(-106.000000, -96.000000)">
                <path d="M15.7865893,633.828125 C95.3715096,778.346354 234.053907,852.403646 431.83378,856 C728.503591,861.394531 818.996457,737.089844 1090.74297,777.445313 C1271.90731,804.348958 1402.43823,806.859375 1482.33571,784.976562 L1466.14247,103 L7,103 L15.7865893,633.828125 Z" id="Path-3-Copy-4" fill="url(#linearGradient-1)" opacity="0.775305707" transform="translate(744.667857, 479.585513) rotate(-1.000000) translate(-744.667857, -479.585513) "></path>
                <path d="M90,712.902116 C194.522331,790.300705 326.328855,829 485.419571,829 C724.055644,829 904.126129,705.742468 1176.58537,744.166535 C1358.22486,769.782579 1489.09813,772.172848 1569.20517,751.337341 L1552.96945,102 L90,102 L90,712.902116 Z" id="Path-3-Copy-3" fill="url(#linearGradient-2)" opacity="0.553158967" transform="translate(829.602583, 465.500000) scale(-1, 1) translate(-829.602583, -465.500000) "></path>
                <path d="M48.4225149,693.169937 C150.200012,776.204855 278.545198,817.722314 433.458073,817.722314 C665.827386,817.722314 841.169085,685.488908 1106.47334,726.711096 C1283.34284,754.192555 1410.77928,756.756888 1488.78265,734.404096 L1472.9733,37.7806383 L48.4225149,37.7806383 L48.4225149,693.169937 Z" id="Path-3-Copy-2" fill="url(#linearGradient-3)" transform="translate(768.602583, 427.751476) rotate(3.000000) translate(-768.602583, -427.751476) "></path>
            </g>
        </g>
    </g>
</svg>