<svg xmlns="http://www.w3.org/2000/svg" width="491" height="154" viewBox="0 0 491 154">
  <defs>
    <linearGradient id="logo-white-a" x1="0%" x2="87.999%" y1="50%" y2="50%">
      <stop offset="0%" stop-color="#662F90"/>
      <stop offset="55.571%" stop-color="#CC6587"/>
      <stop offset="86.193%" stop-color="#EC7785"/>
      <stop offset="100%" stop-color="#F37A84"/>
    </linearGradient>
  </defs>
  <g fill="none" fill-rule="evenodd" transform="translate(0 -8)">
    <g fill-rule="nonzero" transform="translate(0 8)">
      <path fill="#FFF" d="M223.789688,66.836682 C219.648481,70.9455607 214.551918,73 208.5,73 C202.448082,73 197.351519,70.9455607 193.210312,66.836682 C189.069105,62.7278033 186.999001,57.61583 187,51.500762 C187.001,45.3856941 189.071104,40.2737208 193.210312,36.1648421 C197.34952,32.0559634 202.446083,30.0010162 208.5,30.0000004 C214.553917,29.9989846 219.65048,32.0539318 223.789688,36.1648421 C227.928896,40.2737208 229.999,45.3856941 230,51.500762 C230.000999,57.61583 227.930895,62.7278033 223.789688,66.836682 Z M220.683783,51.5297121 C220.683783,47.8180081 219.512073,44.6517844 217.168654,42.031041 C214.825234,39.4102976 211.944177,38.0999259 208.525483,38.0999259 C205.106789,38.0999259 202.225732,39.4102976 199.882312,42.031041 C197.538893,44.6517844 196.367682,47.8180081 196.368682,51.5297121 C196.368682,55.2434477 197.540392,58.4000214 199.883811,60.9994332 C202.227231,63.5988449 205.108287,64.8995666 208.526982,64.9015982 C211.944677,64.9015982 214.825734,63.6008765 217.170153,60.9994332 C219.514571,58.3979898 220.685781,55.2414161 220.683783,51.5297121 Z"/>
      <polygon fill="#FFF" points="265.566 30 275 30 275 71 265.566 71 245.434 45.309 245.434 71 236 71 236 30 244.826 30 265.563 56.395"/>
      <polygon fill="#FFF" points="313.339 30 313.339 38.152 292.395 38.152 292.395 46.598 311.237 46.598 311.237 54.4 292.391 54.4 292.391 62.905 314 62.905 314 71 283 71 283 30"/>
      <path fill="#FFF" d="M365.630116 33.6686185C368.544386 36.1133638 370.001013 39.8670082 369.999999 44.9295517 369.998985 49.9920952 368.502304 53.6972248 365.509955 56.0449405 362.517607 58.3906557 357.94999 59.5635133 351.807107 59.5635133L346.278208 59.5635133 346.278208 71 337 71 337 30 351.693031 30C358.071165 30 362.71686 31.2228728 365.630116 33.6686185zM358.822041 49.7985361C359.931369 48.5671607 360.489076 46.7666118 360.49516 44.3968893 360.501244 42.0271668 359.777747 40.3461543 358.324668 39.3538518 356.877673 38.3535468 354.628595 37.8533943 351.577433 37.8533943L346.278208 37.8533943 346.278208 51.6365965 352.51438 51.6365965C355.610158 51.6405977 357.712712 51.0269106 358.822041 49.7955352L358.822041 49.7985361zM404.119831 71L400.243729 62.146653 382.773051 62.146653 378.896949 71 369 71 387 30 396 30 414 71 404.119831 71zM391.539661 42.2011126L386.292203 54.108114 396.726102 54.108114 391.539661 42.2011126zM444.594505 51.3516507L454 51.3516507 454 66.1013762C449.844987 70.7014729 444.092756 73.001014 436.743309 72.9999997 430.59254 72.9999997 425.431985 70.9778844 421.261644 66.9336539 417.091302 62.8894234 415.004088 57.7846855 415 51.6194402 415 45.4541949 417.127068 40.3093901 421.381205 36.1850256 425.635342 32.0606611 430.768306 29.998986 436.780097 30.0000004 442.791888 30.0000004 448.014778 31.9627759 452.448768 35.8883269L447.595802 42.8462901C445.717565 41.2233233 443.990056 40.1034761 442.413277 39.4867487 440.779472 38.8617674 439.041387 38.5489278 437.290532 38.5647007 433.735369 38.5647007 430.739693 39.7641746 428.303502 42.1631225 425.867311 44.5620704 424.648705 47.7243198 424.647683 51.6498709 424.647683 55.5744076 425.816217 58.7189058 428.153284 61.0833656 430.490351 63.4478254 433.27654 64.6275195 436.51185 64.6224477 439.74716 64.6224477 442.443423 64.007749 444.600637 62.7783516L444.594505 51.3516507z"/>
      <polygon fill="#FFF" points="490.336 30 490.336 38.152 469.392 38.152 469.392 46.598 488.234 46.598 488.234 54.4 469.389 54.4 469.389 62.905 491 62.905 491 71 460 71 460 30"/>
      <path fill="#FFF" d="M196.926404 95.1726525C196.088163 95.8218525 195.669042 96.6803468 195.669042 97.7481354 195.669042 98.815924 196.181358 99.6656977 197.205989 100.297456 198.229591 100.928246 200.593967 101.672888 204.299118 102.531383 208.004269 103.389877 210.880961 104.677618 212.929194 106.394607 214.976398 108.111596 216 110.616829 216 113.910308 216 117.203787 214.687545 119.875196 212.062634 121.924536 209.437723 123.974845 205.983839 125 201.700982 125 195.522298 125 189.955304 122.845044 185 118.535131L190.196273 112.548441C194.402927 116.016332 198.293953 117.750762 201.869351 117.751731 203.46963 117.751731 204.726477 117.427615 205.639892 116.779384 206.531151 116.171326 207.043844 115.186905 207.008471 114.151578 207.036458 113.099085 206.488167 112.106789 205.55648 111.523771 204.588486 110.876509 202.671035 110.219558 199.804126 109.552916 195.260734 108.536482 191.937117 107.213859 189.833275 105.585045 187.729433 103.956231 186.678027 101.396252 186.679057 97.9051061 186.679057 94.4168675 188.010564 91.7280168 190.673576 89.8385542 193.336589 87.9490916 196.659691 87.0029069 200.642882 87 203.304573 87.0095528 205.946012 87.4359053 208.458917 88.2615797 210.94776 89.0412617 213.258956 90.2535816 215.27246 91.8355709L210.859335 97.8266208C207.470327 95.4090776 203.969073 94.200306 200.355573 94.200306 198.907702 94.199337 197.764645 94.5234525 196.926404 95.1726525zM250.894265 90.3976895C253.631422 92.6628158 255 96.1416891 255 100.834309 255 105.526929 253.594349 108.961202 250.783048 111.137126 247.971747 113.312048 243.680137 114.399509 237.908217 114.399509L232.713488 114.399509 232.713488 125 224 125 224 87 237.795456 87C243.792898 87 248.159168 88.1325632 250.894265 90.3976895zM244.502417 105.34151C245.544555 104.199926 246.065624 102.532653 246.065624 100.33969 246.065624 98.1467268 245.385968 96.5881996 244.026658 95.6641082 242.666318 94.7400169 240.555268 94.2779712 237.693507 94.2779712L232.722756 94.2779712 232.722756 107.056892 238.592506 107.056892C241.489279 107.058896 243.459249 106.487102 244.502417 105.34151zM291.215742 119.552091C287.365598 123.18403 282.627269 125 277.000754 125 271.374239 125 266.632895 123.18403 262.776723 119.552091 258.925574 115.921123 257 111.403759 257 106 257 100.596242 258.925574 96.0788778 262.776723 92.447909 266.626867 88.8169403 271.36821 87.0009707 277.000754 87.0000004 282.633297 86.9990301 287.374138 88.8149996 291.223277 92.447909 295.074426 96.0788778 297 100.596242 297 106 297 111.403759 295.071914 115.921123 291.215742 119.552091zM288.328134 106.026199C288.328134 102.745519 287.237997 99.9470918 285.057722 97.630918 282.877447 95.3147442 280.198322 94.1571424 277.020346 94.1581128 273.84036 94.1581128 271.160732 95.3157145 268.981463 97.630918 266.802193 99.9461215 265.712056 102.744549 265.711051 106.026199 265.711051 109.306879 266.801188 112.096573 268.981463 114.395281 271.161737 116.693989 273.841365 117.842858 277.020346 117.841888 280.199327 117.841888 282.878452 116.693019 285.057722 114.395281 287.236992 112.097544 288.327129 109.30785 288.328134 106.026199L288.328134 106.026199z"/>
      <polygon fill="#FFF" points="319.238 94.34 319.238 125 310.76 125 310.76 94.34 300 94.34 300 87 330 87 330 94.34"/>
      <polygon fill="#FFF" points="335 125 335 87 343.247 87 343.247 117.442 359 117.442 359 124.998"/>
      <polygon fill="#FFF" points="365 87 372 87 372 125 365 125"/>
      <path fill="#FFF" d="M408.318097,105.867728 L417,105.867728 L417,118.902609 C413.165506,122.972376 407.856754,125.004836 401.073747,124.999991 C395.396941,124.999991 390.632116,123.21317 386.779269,119.639528 C382.926423,116.065885 381,111.554743 381,106.1061 C381,100.658427 382.963127,96.1119168 386.88938,92.4665689 C390.815633,88.8212209 395.552931,86.9990314 401.101274,87.0000004 C406.649618,87.0000004 411.470008,88.7344961 415.562447,92.2034875 L411.083093,98.3531954 C409.349873,96.9161802 407.75531,95.9263549 406.299405,95.3837193 C404.791198,94.8316261 403.18692,94.5549838 401.570773,94.5683125 C398.28989,94.5683125 395.524894,95.6283898 393.275786,97.7485443 C391.026678,99.8686989 389.902124,102.663272 389.902124,106.132263 C389.902124,109.600286 390.980799,112.376932 393.138148,114.462203 C395.295497,116.547474 397.86678,117.590109 400.851997,117.590109 C403.838233,117.590109 406.326933,117.046989 408.318097,115.960749 L408.318097,105.867728 Z"/>
      <polygon fill="#FFF" points="448.274 87 457 87 457 125 448.274 125 448.274 110.05 432.726 110.05 432.726 125 424 125 424 87 432.726 87 432.726 102.874 448.274 102.874"/>
      <polygon fill="#FFF" points="480.24 94.34 480.24 125 471.762 125 471.762 94.34 461 94.34 461 87 491 87 491 94.34"/>
      <path fill="#F7D022" d="M65.3781568,153.999999 L130.393943,153.999999 C136.655142,154.001575 142.66035,151.515022 147.087686,147.087686 C151.515022,142.66035 154.001575,136.655142 153.999999,130.393943 L153.999999,23.6001162 C153.999999,17.3399471 151.51275,11.3362649 147.085585,6.91021391 C142.65842,2.48416291 136.654112,-0.00157502854 130.393943,7.48738994e-07 L79.2195184,7.48738994e-07 L0,59.9158688 L0,111.152669 L65.3781568,153.999999 Z"/>
      <path fill="#FFF" d="M76.5,4 L76.5,4 C36.4597337,4 4,36.4597337 4,76.5 L4,76.5 C4,116.540266 36.4597337,149 76.5,149 L76.5,149 C116.540266,149 149,116.540266 149,76.5 L149,76.5 C149,36.4597337 116.541754,4 76.5,4 Z M115.622451,76.5 C115.622451,98.1080881 98.1051131,115.622451 76.5,115.622451 L76.5,115.622451 C54.8919119,115.622451 37.3775493,98.1051131 37.3775493,76.5 L37.3775493,76.5 C37.3775493,54.8919119 54.8948869,37.3775493 76.5,37.3775493 L76.5,37.3775493 C98.1080881,37.3775493 115.622451,54.8948869 115.622451,76.5 Z"/>
      <path fill="url(#logo-white-a)" d="M131.998501,0 L38.324902,77 L132,154 L23.695383,154 C10.6093698,154 0.000827966671,143.491855 0,130.528864 L0,130.528864 L0,23.4726214 C-1.60264612e-15,10.5090505 10.6087843,2.38136933e-15 23.695383,0 L131.998501,0 Z"/>
    </g>
    <text fill="#FFF" font-family="OpenSans-Light, Open Sans" font-size="24" font-weight="300">
      <tspan x="435.367" y="26">BETA</tspan>
    </text>
  </g>
</svg>
