<?xml version="1.0" encoding="utf-8"?>
<!-- Generator: Adobe Illustrator 21.1.0, SVG Export Plug-In . SVG Version: 6.00 Build 0)  -->
<svg version="1.1" id="Layer_1" xmlns="http://www.w3.org/2000/svg" xmlns:xlink="http://www.w3.org/1999/xlink" x="0px" y="0px"
	 viewBox="0 0 491 154" style="enable-background:new 0 0 491 154;" xml:space="preserve">
<style type="text/css">
	.st0{fill:#662D91;}
	.st1{fill:#F7D022;}
	.st2{fill:#FFFFFF;}
	.st3{fill:url(#Shape_20_);}
	.st4{fill:url(#Shape_21_);}
</style>
<title>Group</title>
<desc>Created with Sketch.</desc>
<g id="Symbols">
	<g id="Logo_x2F_Violet">
		<g id="Group">
			<g id="Logo_1">
				<path id="Shape" class="st0" d="M223.8,66.8c-4.1,4.1-9.2,6.2-15.3,6.2s-11.1-2.1-15.3-6.2s-6.2-9.2-6.2-15.3
					c0-6.1,2.1-11.2,6.2-15.3s9.2-6.2,15.3-6.2c6.1,0,11.2,2.1,15.3,6.2c4.1,4.1,6.2,9.2,6.2,15.3C230,57.6,227.9,62.7,223.8,66.8z
					 M220.7,51.5c0-3.7-1.2-6.9-3.5-9.5s-5.2-3.9-8.6-3.9c-3.4,0-6.3,1.3-8.6,3.9c-2.3,2.6-3.5,5.8-3.5,9.5c0,3.7,1.2,6.9,3.5,9.5
					c2.3,2.6,5.2,3.9,8.6,3.9c3.4,0,6.3-1.3,8.6-3.9C219.5,58.4,220.7,55.2,220.7,51.5z"/>
				<polygon id="Shape_1_" class="st0" points="265.6,30 275,30 275,71 265.6,71 245.4,45.3 245.4,71 236,71 236,30 244.8,30 
					265.6,56.4 				"/>
				<polygon id="Shape_2_" class="st0" points="313.3,30 313.3,38.2 292.4,38.2 292.4,46.6 311.2,46.6 311.2,54.4 292.4,54.4 
					292.4,62.9 314,62.9 314,71 283,71 283,30 				"/>
				<path id="Shape_3_" class="st0" d="M365.6,33.7c2.9,2.4,4.4,6.2,4.4,11.3s-1.5,8.8-4.5,11.1c-3,2.3-7.6,3.5-13.7,3.5h-5.5V71
					H337V30h14.7C358.1,30,362.7,31.2,365.6,33.7z M358.8,49.8c1.1-1.2,1.7-3,1.7-5.4c0-2.4-0.7-4.1-2.2-5c-1.4-1-3.7-1.5-6.7-1.5
					h-5.3v13.8h6.2C355.6,51.6,357.7,51,358.8,49.8L358.8,49.8z"/>
				<path id="Shape_4_" class="st0" d="M404.1,71l-3.9-8.9h-17.5l-3.9,8.9H369l18-41h9l18,41H404.1z M391.5,42.2l-5.2,11.9h10.4
					L391.5,42.2z"/>
				<path id="Shape_5_" class="st0" d="M444.6,51.4h9.4v14.7c-4.2,4.6-9.9,6.9-17.3,6.9c-6.2,0-11.3-2-15.5-6.1
					c-4.2-4-6.3-9.1-6.3-15.3c0-6.2,2.1-11.3,6.4-15.4c4.3-4.1,9.4-6.2,15.4-6.2c6,0,11.2,2,15.7,5.9l-4.9,7
					c-1.9-1.6-3.6-2.7-5.2-3.4c-1.6-0.6-3.4-0.9-5.1-0.9c-3.6,0-6.6,1.2-9,3.6c-2.4,2.4-3.7,5.6-3.7,9.5c0,3.9,1.2,7.1,3.5,9.4
					s5.1,3.5,8.4,3.5c3.2,0,5.9-0.6,8.1-1.8L444.6,51.4z"/>
				<polygon id="Shape_6_" class="st0" points="490.3,30 490.3,38.2 469.4,38.2 469.4,46.6 488.2,46.6 488.2,54.4 469.4,54.4 
					469.4,62.9 491,62.9 491,71 460,71 460,30 				"/>
				<path id="Shape_7_" class="st0" d="M196.9,95.2c-0.8,0.6-1.3,1.5-1.3,2.6c0,1.1,0.5,1.9,1.5,2.5c1,0.6,3.4,1.4,7.1,2.2
					c3.7,0.9,6.6,2.1,8.6,3.9c2,1.7,3.1,4.2,3.1,7.5s-1.3,6-3.9,8c-2.6,2.1-6.1,3.1-10.4,3.1c-6.2,0-11.7-2.2-16.7-6.5l5.2-6
					c4.2,3.5,8.1,5.2,11.7,5.2c1.6,0,2.9-0.3,3.8-1c0.9-0.6,1.4-1.6,1.4-2.6c0-1.1-0.5-2-1.5-2.6c-1-0.6-2.9-1.3-5.8-2
					c-4.5-1-7.9-2.3-10-4c-2.1-1.6-3.2-4.2-3.2-7.7c0-3.5,1.3-6.2,4-8.1c2.7-1.9,6-2.8,10-2.8c2.7,0,5.3,0.4,7.8,1.3
					c2.5,0.8,4.8,2,6.8,3.6l-4.4,6c-3.4-2.4-6.9-3.6-10.5-3.6C198.9,94.2,197.8,94.5,196.9,95.2z"/>
				<path id="Shape_8_" class="st0" d="M250.9,90.4c2.7,2.3,4.1,5.7,4.1,10.4c0,4.7-1.4,8.1-4.2,10.3c-2.8,2.2-7.1,3.3-12.9,3.3
					h-5.2V125H224V87h13.8C243.8,87,248.2,88.1,250.9,90.4z M244.5,105.3c1-1.1,1.6-2.8,1.6-5s-0.7-3.8-2-4.7
					c-1.4-0.9-3.5-1.4-6.3-1.4h-5v12.8h5.9C241.5,107.1,243.5,106.5,244.5,105.3z"/>
				<path id="Shape_9_" class="st0" d="M291.2,119.6c-3.9,3.6-8.6,5.4-14.2,5.4c-5.6,0-10.4-1.8-14.2-5.4c-3.9-3.6-5.8-8.1-5.8-13.6
					s1.9-9.9,5.8-13.6c3.9-3.6,8.6-5.4,14.2-5.4s10.4,1.8,14.2,5.4c3.9,3.6,5.8,8.1,5.8,13.6S295.1,115.9,291.2,119.6z M288.3,106
					c0-3.3-1.1-6.1-3.3-8.4c-2.2-2.3-4.9-3.5-8-3.5c-3.2,0-5.9,1.2-8,3.5c-2.2,2.3-3.3,5.1-3.3,8.4c0,3.3,1.1,6.1,3.3,8.4
					c2.2,2.3,4.9,3.4,8,3.4c3.2,0,5.9-1.1,8-3.4C287.2,112.1,288.3,109.3,288.3,106L288.3,106z"/>
				<polygon id="Shape_10_" class="st0" points="319.2,94.3 319.2,125 310.8,125 310.8,94.3 300,94.3 300,87 330,87 330,94.3 				
					"/>
				<polygon id="Shape_11_" class="st0" points="335,125 335,87 343.2,87 343.2,117.4 359,117.4 359,125 				"/>
				<polygon id="Shape_12_" class="st0" points="365,87 372,87 372,125 365,125 				"/>
				<path id="Shape_13_" class="st0" d="M408.3,105.9h8.7v13c-3.8,4.1-9.1,6.1-15.9,6.1c-5.7,0-10.4-1.8-14.3-5.4
					c-3.9-3.6-5.8-8.1-5.8-13.5c0-5.4,2-10,5.9-13.6c3.9-3.6,8.7-5.5,14.2-5.5c5.5,0,10.4,1.7,14.5,5.2l-4.5,6.1
					c-1.7-1.4-3.3-2.4-4.8-3c-1.5-0.6-3.1-0.8-4.7-0.8c-3.3,0-6,1.1-8.3,3.2s-3.4,4.9-3.4,8.4c0,3.5,1.1,6.2,3.2,8.3
					s4.7,3.1,7.7,3.1c3,0,5.5-0.5,7.5-1.6V105.9z"/>
				<polygon id="Shape_14_" class="st0" points="448.3,87 457,87 457,125 448.3,125 448.3,110.1 432.7,110.1 432.7,125 424,125 
					424,87 432.7,87 432.7,102.9 448.3,102.9 				"/>
				<polygon id="Shape_15_" class="st0" points="480.2,94.3 480.2,125 471.8,125 471.8,94.3 461,94.3 461,87 491,87 491,94.3 				
					"/>
				<path id="Shape_16_" class="st1" d="M65.4,154h65c6.3,0,12.3-2.5,16.7-6.9c4.4-4.4,6.9-10.4,6.9-16.7V23.6
					c0-6.3-2.5-12.3-6.9-16.7S136.7,0,130.4,0H79.2L0,59.9v51.2L65.4,154z"/>
				<path id="Shape_17_" class="st2" d="M76.5,4L76.5,4C36.5,4,4,36.5,4,76.5l0,0c0,40,32.5,72.5,72.5,72.5l0,0
					c40,0,72.5-32.5,72.5-72.5l0,0C149,36.5,116.5,4,76.5,4z M115.6,76.5c0,21.6-17.5,39.1-39.1,39.1l0,0
					c-21.6,0-39.1-17.5-39.1-39.1l0,0c0-21.6,17.5-39.1,39.1-39.1l0,0C98.1,37.4,115.6,54.9,115.6,76.5z"/>
				
					<linearGradient id="Shape_20_" gradientUnits="userSpaceOnUse" x1="-708.5909" y1="614.5" x2="-707.5909" y2="614.5" gradientTransform="matrix(132 0 0 -154 93534 94710)">
					<stop  offset="0" style="stop-color:#662F90"/>
					<stop  offset="9.999999e-02" style="stop-color:#95498C"/>
					<stop  offset="0.16" style="stop-color:#A6528B"/>
					<stop  offset="0.3" style="stop-color:#CC6587"/>
					<stop  offset="0.38" style="stop-color:#DB6D86"/>
					<stop  offset="0.75" style="stop-color:#EC7785"/>
					<stop  offset="0.88" style="stop-color:#F37A84"/>
				</linearGradient>
				<path id="Shape_18_" class="st3" d="M132,0L38.3,77l93.7,77H23.7C10.6,154,0,143.5,0,130.5l0,0V23.5C0,10.5,10.6,0,23.7,0H132z"
					/>
			</g>
			
				<linearGradient id="Shape_21_" gradientUnits="userSpaceOnUse" x1="-708.5909" y1="614.5" x2="-707.7109" y2="614.5" gradientTransform="matrix(132 0 0 -154 93534 94710)">
				<stop  offset="0" style="stop-color:#662F90"/>
				<stop  offset="0.5557" style="stop-color:#CC6587"/>
				<stop  offset="0.8619" style="stop-color:#EC7785"/>
				<stop  offset="1" style="stop-color:#F37A84"/>
			</linearGradient>
			<path id="Shape_19_" class="st4" d="M132,0L38.3,77l93.7,77H23.7C10.6,154,0,143.5,0,130.5l0,0V23.5C0,10.5,10.6,0,23.7,0H132z"
				/>
		</g>
	</g>
</g>
<g>
	<path class="st0" d="M410.4-0.3h7.4c3.4,0,5.8,0.5,7.4,1.4c1.5,1,2.3,2.5,2.3,4.6c0,1.4-0.3,2.6-1,3.5s-1.6,1.5-2.7,1.6v0.2
		c1.5,0.3,2.6,1,3.3,1.9c0.7,0.9,1,2.2,1,3.7c0,2.2-0.8,3.9-2.4,5.1c-1.6,1.2-3.7,1.8-6.4,1.8h-8.9V-0.3z M415.4,9.1h2.9
		c1.4,0,2.4-0.2,3-0.6c0.6-0.4,0.9-1.1,0.9-2.1c0-0.9-0.3-1.6-1-2s-1.7-0.6-3.2-0.6h-2.7V9.1z M415.4,13.2v6.2h3.3
		c1.4,0,2.4-0.3,3.1-0.8c0.7-0.5,1-1.3,1-2.4c0-2-1.4-3-4.2-3H415.4z"/>
	<path class="st0" d="M446.6,23.6h-13.7V-0.3h13.7v4.1h-8.7v5.2h8.1v4.1h-8.1v6.2h8.7V23.6z"/>
	<path class="st0" d="M460.7,23.6h-5.1V3.9h-6.5v-4.2h18v4.2h-6.5V23.6z"/>
	<path class="st0" d="M485.5,23.6l-1.7-5.7h-8.7l-1.7,5.7h-5.4l8.4-24h6.2l8.5,24H485.5z M482.5,13.6c-1.6-5.1-2.5-8.1-2.7-8.7
		s-0.3-1.2-0.4-1.6c-0.4,1.4-1.4,4.8-3.1,10.3H482.5z"/>
</g>
</svg>
