<?xml version="1.0" encoding="UTF-8"?>
<svg width="305px" height="95px" viewBox="0 0 305 95" version="1.1" xmlns="http://www.w3.org/2000/svg" xmlns:xlink="http://www.w3.org/1999/xlink">
    <!-- Generator: Sketch 46.2 (44496) - http://www.bohemiancoding.com/sketch -->
    <title>Logo/white</title>
    <desc>Created with Sketch.</desc>
    <defs>
        <linearGradient x1="0%" y1="50%" x2="99.9988642%" y2="50%" id="linearGradient-1">
            <stop stop-color="#662F90" offset="0%"></stop>
            <stop stop-color="#95498C" offset="10%"></stop>
            <stop stop-color="#A6528B" offset="16%"></stop>
            <stop stop-color="#CC6587" offset="30%"></stop>
            <stop stop-color="#DB6D86" offset="38%"></stop>
            <stop stop-color="#EC7785" offset="75%"></stop>
            <stop stop-color="#F37A84" offset="88%"></stop>
        </linearGradient>
        <linearGradient x1="0%" y1="50%" x2="87.9990005%" y2="50%" id="linearGradient-2">
            <stop stop-color="#662F90" offset="0%"></stop>
            <stop stop-color="#CC6587" offset="55.5712073%"></stop>
            <stop stop-color="#EC7785" offset="86.1933806%"></stop>
            <stop stop-color="#F37A84" offset="100%"></stop>
        </linearGradient>
    </defs>
    <g id="Landing-page" stroke="none" stroke-width="1" fill="none" fill-rule="evenodd">
        <g id="Desktop-HD-Copy-17" transform="translate(-90.000000, -90.000000)">
            <g id="Logo/Violet" transform="translate(90.000000, 90.000000)">
                <g id="Logo_1" stroke-width="1" fill-rule="evenodd">
                    <path d="M139.013961,41.2304207 C136.441521,43.7651186 133.275632,45.0324675 129.516293,45.0324675 C125.756955,45.0324675 122.591066,43.7651186 120.018626,41.2304207 C117.446185,38.6957228 116.160276,35.5422328 116.160896,31.7699506 C116.161517,27.9976684 117.447427,24.8441784 120.018626,22.3094805 C122.589824,19.7747826 125.755713,18.5071204 129.516293,18.5064937 C133.276873,18.5058671 136.442762,19.7735294 139.013961,22.3094805 C141.58516,24.8441784 142.871069,27.9976684 142.87169,31.7699506 C142.872311,35.5422328 141.586401,38.6957228 139.013961,41.2304207 Z M137.084631,31.7878094 C137.084631,29.4981219 136.356787,27.5449319 134.901098,25.9282396 C133.44541,24.3115472 131.655752,23.503201 129.532123,23.503201 C127.408494,23.503201 125.618835,24.3115472 124.163147,25.9282396 C122.707459,27.5449319 121.979925,29.4981219 121.980546,31.7878094 C121.980546,34.0787502 122.70839,36.0259872 124.164078,37.6295205 C125.619766,39.2330537 127.409425,40.0354469 129.533054,40.0367002 C131.656062,40.0367002 133.445721,39.2343069 134.90203,37.6295205 C136.358339,36.024734 137.085872,34.077497 137.084631,31.7878094 Z" id="Shape" fill="#662D91" fill-rule="nonzero"></path>
                    <polygon id="Shape" fill="#662D91" fill-rule="nonzero" points="164.964554 18.5064935 170.824847 18.5064935 170.824847 43.7987013 164.964554 43.7987013 152.459072 27.950226 152.459072 43.7987013 146.598778 43.7987013 146.598778 18.5064935 152.081515 18.5064935 164.962632 34.7891102"></polygon>
                    <polygon id="Shape" fill="#662D91" fill-rule="nonzero" points="194.64053 18.5064935 194.64053 23.5353156 181.630593 23.5353156 181.630593 28.7455567 193.334753 28.7455567 193.334753 33.5587125 181.627723 33.5587125 181.627723 38.8050522 195.050916 38.8050522 195.050916 43.7987013 175.794297 43.7987013 175.794297 18.5064935"></polygon>
                    <path d="M227.122577,20.7696023 C228.932867,22.2777244 229.837697,24.5932843 229.837067,27.7162819 C229.836437,30.8392795 228.906727,33.1249114 227.047936,34.5731776 C225.189145,36.0202097 222.351827,36.7437257 218.535983,36.7437257 L215.101534,36.7437257 L215.101534,43.7987013 L209.338086,43.7987013 L209.338086,18.5064935 L218.465121,18.5064935 C222.427098,18.5064935 225.312917,19.2608631 227.122577,20.7696023 Z M222.893528,30.7198762 C223.582623,29.9602615 223.929059,28.8495332 223.932839,27.3876914 C223.936618,25.9258497 223.487195,24.8888614 222.58457,24.2767267 C221.685724,23.6596555 220.288638,23.3511199 218.393314,23.3511199 L215.101534,23.3511199 L215.101534,31.8537446 L218.975328,31.8537446 C220.898367,31.8562129 222.204434,31.4776397 222.893528,30.718025 L222.893528,30.7198762 Z" id="Shape" fill="#662D91" fill-rule="nonzero"></path>
                    <path d="M251.031667,43.7987013 L248.623905,38.337221 L237.771447,38.337221 L235.363685,43.7987013 L229.215886,43.7987013 L240.397149,18.5064935 L245.98778,18.5064935 L257.169043,43.7987013 L251.031667,43.7987013 Z M243.217101,26.0331539 L239.957479,33.378382 L246.438821,33.378382 L243.217101,26.0331539 Z" id="Shape" fill="#662D91" fill-rule="nonzero"></path>
                    <path d="M276.173776,31.6779663 L282.016293,31.6779663 L282.016293,40.776823 C279.435277,43.614545 275.862099,45.0330931 271.29676,45.0324673 C267.476018,45.0324673 264.270378,43.7850586 261.67984,41.2902411 C259.089302,38.7954235 257.792763,35.6463969 257.790224,31.8431612 C257.790224,28.0399255 259.111519,24.8661822 261.754109,22.3219314 C264.396699,19.7776805 267.5852,18.505868 271.319612,18.5064937 C275.054024,18.5064937 278.298386,19.7172968 281.052697,22.138903 L278.038126,26.431153 C276.8714,25.4299721 275.798304,24.7391574 274.818838,24.3587086 C273.803949,23.9731682 272.724283,23.7801828 271.636685,23.7899128 C269.428284,23.7899128 267.567426,24.529848 266.05411,26.0097184 C264.540794,27.4895889 263.783819,29.4403272 263.783184,31.8619333 C263.783184,34.2829138 264.509055,36.2227016 265.960797,37.681297 C267.41254,39.1398923 269.143268,39.8676256 271.152982,39.864497 C273.162696,39.864497 274.837564,39.4852997 276.177585,38.7269052 L276.173776,31.6779663 Z" id="Shape" fill="#662D91" fill-rule="nonzero"></path>
                    <polygon id="Shape" fill="#662D91" fill-rule="nonzero" points="304.5877 18.5064935 304.5877 23.5353156 291.577763 23.5353156 291.577763 28.7455567 303.281923 28.7455567 303.281923 33.5587125 291.57585 33.5587125 291.57585 38.8050522 305 38.8050522 305 43.7987013 285.743381 43.7987013 285.743381 18.5064935"></polygon>
                    <path d="M122.326992,58.7104025 C121.806292,59.110883 121.545942,59.6404737 121.545942,60.2991744 C121.545942,60.9578752 121.864183,61.4820863 122.500665,61.8718076 C123.136508,62.2609312 124.605214,62.7202883 126.906784,63.2498789 C129.208354,63.7794696 130.995301,64.5738555 132.267626,65.6330368 C133.53931,66.6922181 134.175153,68.2376544 134.175153,70.2693458 C134.175153,72.3010372 133.35988,73.9489846 131.729335,75.2131879 C130.098789,76.4779891 127.953301,77.1103896 125.29287,77.1103896 C121.454788,77.1103896 117.996676,75.7810334 114.918534,73.1223211 L118.146361,69.4292333 C120.759455,71.5685165 123.176488,72.6384569 125.397458,72.6390547 C126.391522,72.6390547 127.172251,72.4391133 127.739648,72.0392305 C128.293281,71.6641296 128.611756,71.0568571 128.589783,70.4181811 C128.607169,69.768916 128.26658,69.1567856 127.687834,68.7971316 C127.086534,68.3978466 125.895449,67.9925842 124.114579,67.5813445 C121.292309,66.9543236 119.227741,66.1384193 117.920874,65.1336316 C116.614007,64.128844 115.960893,62.5496358 115.961533,60.396007 C115.961533,58.2441715 116.788639,56.5854649 118.442853,55.4198873 C120.097066,54.2543098 122.161315,53.6706244 124.635599,53.6688312 C126.288992,53.6747241 127.929804,53.9377338 129.490773,54.4470784 C131.036796,54.928051 132.472467,55.6759107 133.723219,56.6518132 L130.981868,60.3475907 C128.87668,58.8562492 126.701767,58.1105784 124.457128,58.1105784 C123.557737,58.1099806 122.847692,58.309922 122.326992,58.7104025 Z" id="Shape" fill="#662D91" fill-rule="nonzero"></path>
                    <path d="M155.850816,55.7648085 C157.551087,57.1621267 158.401222,59.3081848 158.401222,62.202983 C158.401222,65.0977811 157.528058,67.2163257 155.781731,68.5586168 C154.035403,69.9002895 151.369535,70.5711259 147.784126,70.5711259 L144.557259,70.5711259 L144.557259,77.1103896 L139.144603,77.1103896 L139.144603,53.6688312 L147.714081,53.6688312 C151.43958,53.6688312 154.151825,54.3674903 155.850816,55.7648085 Z M151.88032,64.9833989 C152.527676,64.2791752 152.851355,63.2506625 152.851355,61.8978606 C152.851355,60.5450587 152.429166,59.5836296 151.584788,59.0135733 C150.73977,58.4435169 149.428425,58.1584887 147.650753,58.1584887 L144.563016,58.1584887 L144.563016,66.0415892 L148.209194,66.0415892 C150.008615,66.0428257 151.232324,65.6900956 151.88032,64.9833989 Z" id="Shape" fill="#662D91" fill-rule="nonzero"></path>
                    <path d="M180.897762,73.7496668 C178.506125,75.9901487 175.562764,77.1103896 172.067678,77.1103896 C168.572592,77.1103896 165.627358,75.9901487 163.231976,73.7496668 C160.839715,71.5097834 159.643585,68.723098 159.643585,65.3896105 C159.643585,62.056123 160.839715,59.2694376 163.231976,57.0295543 C165.623614,54.7896709 168.568847,53.66943 172.067678,53.6688314 C175.566508,53.6682328 178.51143,54.7884738 180.902443,57.0295543 C183.294704,59.2694376 184.490835,62.056123 184.490835,65.3896105 C184.490835,68.723098 183.293144,71.5097834 180.897762,73.7496668 Z M179.104034,65.4057721 C179.104034,63.3819759 178.426861,61.6556735 177.072516,60.226865 C175.71817,58.7980565 174.053948,58.0839515 172.079848,58.0845501 C170.104501,58.0845501 168.439966,58.7986551 167.086245,60.226865 C165.732523,61.6550749 165.05535,63.3813773 165.054726,65.4057721 C165.054726,67.4295684 165.731899,69.1504836 167.086245,70.5685177 C168.44059,71.9865518 170.105125,72.6952695 172.079848,72.6946709 C174.054572,72.6946709 175.718794,71.9859532 177.072516,70.5685177 C178.426237,69.1510821 179.10341,67.430167 179.104034,65.4057721 L179.104034,65.4057721 Z" id="Shape" fill="#662D91" fill-rule="nonzero"></path>
                    <polygon id="Shape" fill="#662D91" fill-rule="nonzero" points="198.30496 58.1965131 198.30496 77.1103896 193.038302 77.1103896 193.038302 58.1965131 186.354379 58.1965131 186.354379 53.6688312 204.989817 53.6688312 204.989817 58.1965131"></polygon>
                    <polygon id="Shape" fill="#662D91" fill-rule="nonzero" points="208.095723 77.1103896 208.095723 53.6688312 213.218652 53.6688312 213.218652 72.4482313 223.004073 72.4482313 223.004073 77.1094622"></polygon>
                    <polygon id="Shape" fill="#662D91" fill-rule="nonzero" points="226.731161 53.6688312 231.07943 53.6688312 231.07943 77.1103896 226.731161 77.1103896"></polygon>
                    <path d="M253.639551,65.3080143 L259.032587,65.3080143 L259.032587,73.3490121 C256.65067,75.8595823 253.352974,77.1133731 249.139496,77.1103843 C245.613171,77.1103843 242.653351,76.0081244 240.260035,73.8036046 C237.866719,71.5990849 236.670061,68.8162373 236.670061,65.455062 C236.670061,62.0944844 237.889519,59.2898188 240.328433,57.0410652 C242.767348,54.7923116 245.710069,53.6682337 249.156596,53.6688314 C252.603123,53.6688314 255.597459,54.7388125 258.139606,56.8787748 L255.357115,60.6724257 C254.280471,59.7859553 253.289958,59.1753488 252.385578,58.8406061 C251.448708,58.5000291 250.45216,58.3293731 249.44824,58.3375954 C247.410217,58.3375954 245.692653,58.9915392 244.295549,60.2994267 C242.898446,61.6073142 242.199894,63.3312391 242.199894,65.4712014 C242.199894,67.6105659 242.869946,69.3234323 244.210051,70.6098007 C245.550156,71.896169 247.147389,72.5393532 249.001749,72.5393532 C250.856743,72.5393532 252.402677,72.2043116 253.639551,71.5342285 L253.639551,65.3080143 Z" id="Shape" fill="#662D91" fill-rule="nonzero"></path>
                    <polygon id="Shape" fill="#662D91" fill-rule="nonzero" points="278.459627 53.6688312 283.879837 53.6688312 283.879837 77.1103896 278.459627 77.1103896 278.459627 67.8880895 268.801065 67.8880895 268.801065 77.1103896 263.380855 77.1103896 263.380855 53.6688312 268.801065 53.6688312 268.801065 63.4614968 278.459627 63.4614968"></polygon>
                    <polygon id="Shape" fill="#662D91" fill-rule="nonzero" points="298.316077 58.1965131 298.316077 77.1103896 293.049419 77.1103896 293.049419 58.1965131 286.364562 58.1965131 286.364562 53.6688312 305 53.6688312 305 58.1965131"></polygon>
                    <path d="M40.611686,94.9999995 L80.9982743,94.9999995 C84.8876134,95.0009719 88.6179365,93.4670591 91.3681146,90.7359103 C94.1182928,88.0047615 95.6628931,84.3002497 95.661914,80.4378221 L95.661914,14.5585133 C95.6619141,10.6967206 94.1168816,6.99315043 91.3668096,4.26279429 C88.6167376,1.53243816 84.8869739,-0.000971608515 80.9982743,4.61884445e-07 L49.2096805,4.61884445e-07 L0,36.9610879 L0,68.5682046 L40.611686,94.9999995 Z" id="Shape" fill="#F7D022" fill-rule="nonzero"></path>
                    <path d="M47.5203666,2.46753247 L47.5203666,2.46753247 C22.6481034,2.46753247 2.48472505,22.4913942 2.48472505,47.1915584 L2.48472505,47.1915584 C2.48472505,71.8917227 22.6481034,91.9155844 47.5203666,91.9155844 L47.5203666,91.9155844 C72.3926298,91.9155844 92.5560081,71.8917227 92.5560081,47.1915584 L92.5560081,47.1915584 C92.5560081,22.4913942 72.3935538,2.46753247 47.5203666,2.46753247 Z M71.8224999,47.1915584 C71.8224999,60.5212232 60.941058,71.3255377 47.5203666,71.3255377 L47.5203666,71.3255377 C34.0978271,71.3255377 23.2182333,60.5193879 23.2182333,47.1915584 L23.2182333,47.1915584 C23.2182333,33.8618937 34.0996752,23.0575791 47.5203666,23.0575791 L47.5203666,23.0575791 C60.9429061,23.0575791 71.8224999,33.863729 71.8224999,47.1915584 Z" id="Shape" fill="#FFFFFF" fill-rule="nonzero"></path>
                    <path d="M81.9949954,0 L23.806711,47.5 L81.9959267,95 L14.719128,95 C6.59034174,95 0.000514317382,88.5177025 0,80.5210523 L0,80.5210523 L0,14.4798638 C-9.95533741e-16,6.48285586 6.58997806,1.46902653e-15 14.719128,0 L81.9949954,0 Z" id="Shape" fill="url(#linearGradient-1)" fill-rule="nonzero"></path>
                </g>
                <path d="M81.9949954,0 L23.806711,47.5 L81.9959267,95 L14.719128,95 C6.59034174,95 0.000514317382,88.5177025 0,80.5210523 L0,80.5210523 L0,14.4798638 C-9.95533741e-16,6.48285586 6.58997806,1.46902653e-15 14.719128,0 L81.9949954,0 Z" id="Shape" fill="url(#linearGradient-2)" fill-rule="nonzero"></path>
            </g>
        </g>
    </g>
</svg>