<svg xmlns="http://www.w3.org/2000/svg" viewBox="0 0 398.47 193.2"><defs><style>.cls-1{fill:#c1c1c1;}.cls-2{opacity:0.2;}.cls-3{fill:#4b703f;}.cls-14,.cls-4{fill:none;stroke:#333;stroke-miterlimit:10;}.cls-5{fill:#619352;}.cls-6{fill:#8c8c8c;}.cls-7{fill:#e6626b;}.cls-8{fill:#ff7b84;}.cls-9{fill:#f7d022;}.cls-10{fill:#ddb922;}.cls-11{fill:#595959;}.cls-12{fill:#5e5e5e;}.cls-13{fill:#fff;}.cls-14{stroke-linecap:round;}.cls-15{fill:#ddd;}.cls-16,.cls-17{fill:#e2e2e2;}.cls-16{opacity:0.7;}</style></defs><title>Asset 1</title><g id="Layer_2" data-name="Layer 2"><g id="Layer_1-2" data-name="Layer 1"><path class="cls-1" d="M280.93,180.66v-.22c0-1,3.62-1.74,8.08-1.74H150.23c4.46,0,8.08.78,8.08,1.74v.22c0,1-3.62,1.74-8.08,1.74H289C284.55,182.39,280.93,181.62,280.93,180.66Z"/><rect class="cls-1" x="39.11" y="182.29" width="304" height="3.69" rx="1.51" ry="1.51"/><path class="cls-1" d="M255.67,187.89v-.22c0-1,3.62-1.74,8.08-1.74H99c4.46,0,8.08.78,8.08,1.74v.22c0,1-3.62,1.74-8.08,1.74H263.75C259.29,189.62,255.67,188.85,255.67,187.89Z"/><rect class="cls-1" x="62.86" y="189.52" width="328.57" height="3.69" rx="1.51" ry="1.51"/><rect class="cls-1" x="102.1" y="175.06" width="217.26" height="3.69" rx="1.51" ry="1.51"/><g class="cls-2"><path class="cls-3" d="M154.45,7.67V69.82h-7.3V7.67a1.33,1.33,0,0,1,1.46-1.15H153A1.33,1.33,0,0,1,154.45,7.67Z"/><path class="cls-4" d="M154.45,7.67V69.82h-7.3V7.67a1.33,1.33,0,0,1,1.46-1.15H153A1.33,1.33,0,0,1,154.45,7.67Z"/><path class="cls-3" d="M335.88,7.67V69.82h-7.3V7.67A1.33,1.33,0,0,1,330,6.52h4.38A1.33,1.33,0,0,1,335.88,7.67Z"/><path class="cls-3" d="M178.53,7.67V69.82h-3.65V7.67a1.33,1.33,0,0,1,1.46-1.15h.73A1.33,1.33,0,0,1,178.53,7.67Z"/><path class="cls-3" d="M199,7.67V69.82h-3.65V7.67a1.33,1.33,0,0,1,1.46-1.15h.73A1.33,1.33,0,0,1,199,7.67Z"/><path class="cls-3" d="M219.4,7.67V69.82h-3.65V7.67a1.33,1.33,0,0,1,1.46-1.15h.73A1.33,1.33,0,0,1,219.4,7.67Z"/><path class="cls-3" d="M239.83,7.67V69.82h-3.65V7.67a1.33,1.33,0,0,1,1.46-1.15h.73A1.33,1.33,0,0,1,239.83,7.67Z"/><path class="cls-3" d="M260.27,7.67V69.82h-3.65V7.67a1.33,1.33,0,0,1,1.46-1.15h.73A1.33,1.33,0,0,1,260.27,7.67Z"/><path class="cls-3" d="M280.7,7.67V69.82H277V7.67a1.33,1.33,0,0,1,1.46-1.15h.73A1.33,1.33,0,0,1,280.7,7.67Z"/><path class="cls-3" d="M301.13,7.67V69.82h-3.65V7.67a1.33,1.33,0,0,1,1.46-1.15h.73A1.33,1.33,0,0,1,301.13,7.67Z"/><path class="cls-3" d="M37.87,7.67V69.82H34.22V7.67a1.33,1.33,0,0,1,1.46-1.15h.73A1.33,1.33,0,0,1,37.87,7.67Z"/><path class="cls-3" d="M58.3,7.67V69.82H54.66V7.67a1.33,1.33,0,0,1,1.46-1.15h.73A1.33,1.33,0,0,1,58.3,7.67Z"/><path class="cls-3" d="M78.74,7.67V69.82H75.09V7.67a1.33,1.33,0,0,1,1.46-1.15h.73A1.33,1.33,0,0,1,78.74,7.67Z"/><path class="cls-3" d="M99.17,7.67V69.82H95.52V7.67A1.33,1.33,0,0,1,97,6.52h.73A1.33,1.33,0,0,1,99.17,7.67Z"/><path class="cls-3" d="M119.6,7.67V69.82H116V7.67a1.33,1.33,0,0,1,1.46-1.15h.73A1.33,1.33,0,0,1,119.6,7.67Z"/><path class="cls-3" d="M360,7.67V69.82h-3.65V7.67a1.33,1.33,0,0,1,1.46-1.15h.73A1.33,1.33,0,0,1,360,7.67Z"/><path class="cls-4" d="M335.88,7.67V69.82h-7.3V7.67A1.33,1.33,0,0,1,330,6.52h4.38A1.33,1.33,0,0,1,335.88,7.67Z"/><path class="cls-4" d="M178.53,7.67V69.82h-3.65V7.67a1.33,1.33,0,0,1,1.46-1.15h.73A1.33,1.33,0,0,1,178.53,7.67Z"/><path class="cls-4" d="M199,7.67V69.82h-3.65V7.67a1.33,1.33,0,0,1,1.46-1.15h.73A1.33,1.33,0,0,1,199,7.67Z"/><path class="cls-4" d="M219.4,7.67V69.82h-3.65V7.67a1.33,1.33,0,0,1,1.46-1.15h.73A1.33,1.33,0,0,1,219.4,7.67Z"/><path class="cls-4" d="M239.83,7.67V69.82h-3.65V7.67a1.33,1.33,0,0,1,1.46-1.15h.73A1.33,1.33,0,0,1,239.83,7.67Z"/><path class="cls-4" d="M260.27,7.67V69.82h-3.65V7.67a1.33,1.33,0,0,1,1.46-1.15h.73A1.33,1.33,0,0,1,260.27,7.67Z"/><path class="cls-4" d="M280.7,7.67V69.82H277V7.67a1.33,1.33,0,0,1,1.46-1.15h.73A1.33,1.33,0,0,1,280.7,7.67Z"/><path class="cls-4" d="M301.13,7.67V69.82h-3.65V7.67a1.33,1.33,0,0,1,1.46-1.15h.73A1.33,1.33,0,0,1,301.13,7.67Z"/><path class="cls-4" d="M37.87,7.67V69.82H34.22V7.67a1.33,1.33,0,0,1,1.46-1.15h.73A1.33,1.33,0,0,1,37.87,7.67Z"/><path class="cls-4" d="M58.3,7.67V69.82H54.66V7.67a1.33,1.33,0,0,1,1.46-1.15h.73A1.33,1.33,0,0,1,58.3,7.67Z"/><path class="cls-4" d="M78.74,7.67V69.82H75.09V7.67a1.33,1.33,0,0,1,1.46-1.15h.73A1.33,1.33,0,0,1,78.74,7.67Z"/><path class="cls-4" d="M99.17,7.67V69.82H95.52V7.67A1.33,1.33,0,0,1,97,6.52h.73A1.33,1.33,0,0,1,99.17,7.67Z"/><path class="cls-4" d="M119.6,7.67V69.82H116V7.67a1.33,1.33,0,0,1,1.46-1.15h.73A1.33,1.33,0,0,1,119.6,7.67Z"/><path class="cls-4" d="M360,7.67V69.82h-3.65V7.67a1.33,1.33,0,0,1,1.46-1.15h.73A1.33,1.33,0,0,1,360,7.67Z"/><path class="cls-5" d="M15.34,22.38H26.92v5.74H15.34A1.33,1.33,0,0,1,13.88,27V23.53A1.33,1.33,0,0,1,15.34,22.38Z"/><rect class="cls-5" x="34.22" y="22.38" width="13.14" height="5.74"/><rect class="cls-5" x="54.66" y="22.38" width="13.14" height="5.74"/><rect class="cls-5" x="75.09" y="22.38" width="13.14" height="5.74"/><rect class="cls-5" x="95.52" y="22.38" width="13.14" height="5.74"/><rect class="cls-5" x="115.96" y="22.38" width="13.14" height="5.74"/><rect class="cls-5" x="147.15" y="22.38" width="20.43" height="5.74"/><rect class="cls-5" x="174.88" y="22.38" width="13.14" height="5.74"/><rect class="cls-5" x="195.32" y="22.38" width="13.14" height="5.74"/><rect class="cls-5" x="215.75" y="22.38" width="13.14" height="5.74"/><rect class="cls-5" x="236.18" y="22.38" width="13.14" height="5.74"/><rect class="cls-5" x="256.62" y="22.38" width="13.14" height="5.74"/><rect class="cls-5" x="277.05" y="22.38" width="13.14" height="5.74"/><rect class="cls-5" x="297.48" y="22.38" width="13.03" height="5.74"/><rect class="cls-5" x="328.58" y="22.38" width="20.43" height="5.74"/><path class="cls-5" d="M378,23.53V27a1.33,1.33,0,0,1-1.46,1.15H356.31V22.38h20.25A1.33,1.33,0,0,1,378,23.53Z"/><path class="cls-5" d="M15.34,48.22H26.92V54H15.34a1.33,1.33,0,0,1-1.46-1.15V49.37A1.33,1.33,0,0,1,15.34,48.22Z"/><rect class="cls-5" x="34.22" y="48.22" width="13.14" height="5.74"/><rect class="cls-5" x="54.66" y="48.22" width="13.14" height="5.74"/><rect class="cls-5" x="75.09" y="48.22" width="13.14" height="5.74"/><rect class="cls-5" x="95.52" y="48.22" width="13.14" height="5.74"/><rect class="cls-5" x="115.96" y="48.22" width="13.14" height="5.74"/><rect class="cls-5" x="147.15" y="48.22" width="20.43" height="5.74"/><rect class="cls-5" x="174.88" y="48.22" width="13.14" height="5.74"/><rect class="cls-5" x="195.32" y="48.22" width="13.14" height="5.74"/><rect class="cls-5" x="215.75" y="48.22" width="13.14" height="5.74"/><rect class="cls-5" x="236.18" y="48.22" width="13.14" height="5.74"/><rect class="cls-5" x="256.62" y="48.22" width="13.14" height="5.74"/><rect class="cls-5" x="277.05" y="48.22" width="13.14" height="5.74"/><rect class="cls-5" x="297.48" y="48.22" width="13.03" height="5.74"/><rect class="cls-5" x="328.58" y="48.22" width="20.43" height="5.74"/><path class="cls-5" d="M378,49.37v3.45A1.33,1.33,0,0,1,376.56,54H356.31V48.22h20.25A1.33,1.33,0,0,1,378,49.37Z"/><path class="cls-5" d="M328.58,7.67V69.82H310.52V7.67A1.33,1.33,0,0,1,312,6.52h15.14A1.33,1.33,0,0,1,328.58,7.67Z"/><path class="cls-5" d="M174.88,7.67V69.82h-7.3V7.67A1.33,1.33,0,0,1,169,6.52h4.38A1.33,1.33,0,0,1,174.88,7.67Z"/><path class="cls-5" d="M195.32,7.67V69.82H188V7.67a1.33,1.33,0,0,1,1.46-1.15h4.38A1.33,1.33,0,0,1,195.32,7.67Z"/><path class="cls-5" d="M215.75,7.67V69.82h-7.3V7.67a1.33,1.33,0,0,1,1.46-1.15h4.38A1.33,1.33,0,0,1,215.75,7.67Z"/><path class="cls-5" d="M236.18,7.67V69.82h-7.3V7.67a1.33,1.33,0,0,1,1.46-1.15h4.38A1.33,1.33,0,0,1,236.18,7.67Z"/><path class="cls-5" d="M256.62,7.67V69.82h-7.3V7.67a1.33,1.33,0,0,1,1.46-1.15h4.38A1.33,1.33,0,0,1,256.62,7.67Z"/><path class="cls-5" d="M277,7.67V69.82h-7.3V7.67a1.33,1.33,0,0,1,1.46-1.15h4.38A1.33,1.33,0,0,1,277,7.67Z"/><path class="cls-5" d="M297.48,7.67V69.82h-7.3V7.67a1.33,1.33,0,0,1,1.46-1.15H296A1.33,1.33,0,0,1,297.48,7.67Z"/><path class="cls-5" d="M34.22,7.67V69.82h-7.3V7.67a1.33,1.33,0,0,1,1.46-1.15h4.38A1.33,1.33,0,0,1,34.22,7.67Z"/><path class="cls-5" d="M54.66,7.67V69.82h-7.3V7.67a1.33,1.33,0,0,1,1.46-1.15H53.2A1.33,1.33,0,0,1,54.66,7.67Z"/><path class="cls-5" d="M75.09,7.67V69.82h-7.3V7.67a1.33,1.33,0,0,1,1.46-1.15h4.38A1.33,1.33,0,0,1,75.09,7.67Z"/><path class="cls-5" d="M95.52,7.67V69.82h-7.3V7.67a1.33,1.33,0,0,1,1.46-1.15h4.38A1.33,1.33,0,0,1,95.52,7.67Z"/><path class="cls-5" d="M116,7.67V69.82h-7.3V7.67a1.33,1.33,0,0,1,1.46-1.15h4.38A1.33,1.33,0,0,1,116,7.67Z"/><path class="cls-5" d="M147.15,7.67V69.82H129.09V7.67a1.33,1.33,0,0,1,1.46-1.15h15.14A1.33,1.33,0,0,1,147.15,7.67Z"/><path class="cls-5" d="M356.31,7.67V69.82H349V7.67a1.33,1.33,0,0,1,1.46-1.15h4.38A1.33,1.33,0,0,1,356.31,7.67Z"/><path class="cls-4" d="M15.34,22.38H26.92v5.74H15.34A1.33,1.33,0,0,1,13.88,27V23.53A1.33,1.33,0,0,1,15.34,22.38Z"/><rect class="cls-4" x="34.22" y="22.38" width="13.14" height="5.74"/><rect class="cls-4" x="54.66" y="22.38" width="13.14" height="5.74"/><rect class="cls-4" x="75.09" y="22.38" width="13.14" height="5.74"/><rect class="cls-4" x="95.52" y="22.38" width="13.14" height="5.74"/><rect class="cls-4" x="115.96" y="22.38" width="13.14" height="5.74"/><rect class="cls-4" x="147.15" y="22.38" width="20.43" height="5.74"/><rect class="cls-4" x="174.88" y="22.38" width="13.14" height="5.74"/><rect class="cls-4" x="195.32" y="22.38" width="13.14" height="5.74"/><rect class="cls-4" x="215.75" y="22.38" width="13.14" height="5.74"/><rect class="cls-4" x="236.18" y="22.38" width="13.14" height="5.74"/><rect class="cls-4" x="256.62" y="22.38" width="13.14" height="5.74"/><rect class="cls-4" x="277.05" y="22.38" width="13.14" height="5.74"/><rect class="cls-4" x="297.48" y="22.38" width="13.03" height="5.74"/><rect class="cls-4" x="328.58" y="22.38" width="20.43" height="5.74"/><path class="cls-4" d="M378,23.53V27a1.33,1.33,0,0,1-1.46,1.15H356.31V22.38h20.25A1.33,1.33,0,0,1,378,23.53Z"/><path class="cls-4" d="M15.34,48.22H26.92V54H15.34a1.33,1.33,0,0,1-1.46-1.15V49.37A1.33,1.33,0,0,1,15.34,48.22Z"/><rect class="cls-4" x="34.22" y="48.22" width="13.14" height="5.74"/><rect class="cls-4" x="54.66" y="48.22" width="13.14" height="5.74"/><rect class="cls-4" x="75.09" y="48.22" width="13.14" height="5.74"/><rect class="cls-4" x="95.52" y="48.22" width="13.14" height="5.74"/><rect class="cls-4" x="115.96" y="48.22" width="13.14" height="5.74"/><rect class="cls-4" x="147.15" y="48.22" width="20.43" height="5.74"/><rect class="cls-4" x="174.88" y="48.22" width="13.14" height="5.74"/><rect class="cls-4" x="195.32" y="48.22" width="13.14" height="5.74"/><rect class="cls-4" x="215.75" y="48.22" width="13.14" height="5.74"/><rect class="cls-4" x="236.18" y="48.22" width="13.14" height="5.74"/><rect class="cls-4" x="256.62" y="48.22" width="13.14" height="5.74"/><rect class="cls-4" x="277.05" y="48.22" width="13.14" height="5.74"/><rect class="cls-4" x="297.48" y="48.22" width="13.03" height="5.74"/><rect class="cls-4" x="328.58" y="48.22" width="20.43" height="5.74"/><path class="cls-4" d="M378,49.37v3.45A1.33,1.33,0,0,1,376.56,54H356.31V48.22h20.25A1.33,1.33,0,0,1,378,49.37Z"/><rect class="cls-1" x="13.06" y="69.82" width="365.04" height="12.92" rx="2.66" ry="2.66"/><path class="cls-6" d="M376.65,82.74H51.33a1.46,1.46,0,0,1-1.46-1.46l297.74-10a1.46,1.46,0,0,1,1.46-1.46h27.57a1.46,1.46,0,0,1,1.46,1.46v10A1.46,1.46,0,0,1,376.65,82.74Z"/><path class="cls-1" d="M42.62,82.79H348.56a0,0,0,0,1,0,0v52.42a3.32,3.32,0,0,1-3.32,3.32h-300a2.66,2.66,0,0,1-2.66-2.66V82.79A0,0,0,0,1,42.62,82.79Z"/><path class="cls-6" d="M339.5,88.82c0,.65,0,1.3,0,2,0,6.88-3.69,13.3-10.37,18.07-6.42,4.59-14.92,7.17-24,7.34v22.35h-1.82V116.18q-2.28,0-4.5-.28l-34,22.64H44.11A1.46,1.46,0,0,1,42.65,137l.28-13.45a1.46,1.46,0,0,1,.8-1.27l78-39.46,147.69,0h79.11Z"/><rect class="cls-4" x="13.06" y="69.82" width="365.04" height="12.92" rx="2.66" ry="2.66"/><path class="cls-4" d="M348.56,82.79v53.92a1.82,1.82,0,0,1-1.82,1.82H44.08a1.46,1.46,0,0,1-1.46-1.46V82.79Z"/><path class="cls-4" d="M328.58,7.67V69.82H310.52V7.67A1.33,1.33,0,0,1,312,6.52h15.14A1.33,1.33,0,0,1,328.58,7.67Z"/><path class="cls-4" d="M174.88,7.67V69.82h-7.3V7.67A1.33,1.33,0,0,1,169,6.52h4.38A1.33,1.33,0,0,1,174.88,7.67Z"/><path class="cls-4" d="M195.32,7.67V69.82H188V7.67a1.33,1.33,0,0,1,1.46-1.15h4.38A1.33,1.33,0,0,1,195.32,7.67Z"/><path class="cls-4" d="M215.75,7.67V69.82h-7.3V7.67a1.33,1.33,0,0,1,1.46-1.15h4.38A1.33,1.33,0,0,1,215.75,7.67Z"/><path class="cls-4" d="M236.18,7.67V69.82h-7.3V7.67a1.33,1.33,0,0,1,1.46-1.15h4.38A1.33,1.33,0,0,1,236.18,7.67Z"/><path class="cls-4" d="M256.62,7.67V69.82h-7.3V7.67a1.33,1.33,0,0,1,1.46-1.15h4.38A1.33,1.33,0,0,1,256.62,7.67Z"/><path class="cls-4" d="M277,7.67V69.82h-7.3V7.67a1.33,1.33,0,0,1,1.46-1.15h4.38A1.33,1.33,0,0,1,277,7.67Z"/><path class="cls-4" d="M297.48,7.67V69.82h-7.3V7.67a1.33,1.33,0,0,1,1.46-1.15H296A1.33,1.33,0,0,1,297.48,7.67Z"/><path class="cls-4" d="M34.22,7.67V69.82h-7.3V7.67a1.33,1.33,0,0,1,1.46-1.15h4.38A1.33,1.33,0,0,1,34.22,7.67Z"/><path class="cls-4" d="M54.66,7.67V69.82h-7.3V7.67a1.33,1.33,0,0,1,1.46-1.15H53.2A1.33,1.33,0,0,1,54.66,7.67Z"/><path class="cls-4" d="M75.09,7.67V69.82h-7.3V7.67a1.33,1.33,0,0,1,1.46-1.15h4.38A1.33,1.33,0,0,1,75.09,7.67Z"/><path class="cls-4" d="M95.52,7.67V69.82h-7.3V7.67a1.33,1.33,0,0,1,1.46-1.15h4.38A1.33,1.33,0,0,1,95.52,7.67Z"/><path class="cls-4" d="M116,7.67V69.82h-7.3V7.67a1.33,1.33,0,0,1,1.46-1.15h4.38A1.33,1.33,0,0,1,116,7.67Z"/><path class="cls-4" d="M147.15,7.67V69.82H129.09V7.67a1.33,1.33,0,0,1,1.46-1.15h15.14A1.33,1.33,0,0,1,147.15,7.67Z"/><path class="cls-4" d="M356.31,7.67V69.82H349V7.67a1.33,1.33,0,0,1,1.46-1.15h4.38A1.33,1.33,0,0,1,356.31,7.67Z"/><line class="cls-4" x1="13.75" y1="138.54" x2="393.96" y2="138.54"/><path class="cls-7" d="M390.13,131.64a14.37,14.37,0,0,1-1.75,6.89h-96.6a17,17,0,0,1-1.27-6.48c0-7.87,5.26-14.42,12.22-15.81a16.1,16.1,0,0,1-.1-1.8c0-8.88,6.71-16.08,15-16.08a14.06,14.06,0,0,1,6,1.33,22.44,22.44,0,0,1,17.21-8.22,22.89,22.89,0,0,1,19.86,12.06,24.49,24.49,0,0,1,11.53,14.07,14.47,14.47,0,0,1,18,14Z"/><path class="cls-8" d="M377.93,133.48a9.5,9.5,0,0,1-1.47,5.06H295.21a11.08,11.08,0,0,1-1.07-4.76,12,12,0,0,1,10.28-11.59,10.31,10.31,0,0,1-.08-1.32c0-6.51,5.64-11.79,12.59-11.79a13.3,13.3,0,0,1,5,1,20,20,0,0,1,14.47-6,19.78,19.78,0,0,1,16.71,8.85,18.75,18.75,0,0,1,9.7,10.32,13.76,13.76,0,0,1,2.94-.31C372.48,122.87,377.93,127.62,377.93,133.48Z"/><path class="cls-4" d="M390.13,131.64a14.37,14.37,0,0,1-1.75,6.89h-96.6a17,17,0,0,1-1.27-6.48c0-7.87,5.26-14.42,12.22-15.81a16.1,16.1,0,0,1-.1-1.8c0-8.88,6.71-16.08,15-16.08a14.06,14.06,0,0,1,6,1.33,22.44,22.44,0,0,1,17.21-8.22,22.89,22.89,0,0,1,19.86,12.06,24.49,24.49,0,0,1,11.53,14.07,14.47,14.47,0,0,1,18,14Z"/><path class="cls-7" d="M120.12,131.64a14.37,14.37,0,0,1-1.75,6.89H21.77a17,17,0,0,1-1.27-6.48c0-7.87,5.26-14.42,12.22-15.81a16.1,16.1,0,0,1-.1-1.8c0-8.88,6.71-16.08,15-16.08a14.06,14.06,0,0,1,6,1.33,22.44,22.44,0,0,1,17.21-8.22,22.89,22.89,0,0,1,19.86,12.06,24.49,24.49,0,0,1,11.53,14.07,14.47,14.47,0,0,1,18,14Z"/><path class="cls-8" d="M107.91,133.48a9.5,9.5,0,0,1-1.47,5.06H25.2a11.08,11.08,0,0,1-1.07-4.76,12,12,0,0,1,10.28-11.59,10.31,10.31,0,0,1-.08-1.32c0-6.51,5.64-11.79,12.59-11.79a13.3,13.3,0,0,1,5,1,20,20,0,0,1,14.47-6,19.78,19.78,0,0,1,16.71,8.85,18.75,18.75,0,0,1,9.7,10.32,13.76,13.76,0,0,1,2.94-.31C102.47,122.87,107.91,127.62,107.91,133.48Z"/><path class="cls-4" d="M120.12,131.64a14.37,14.37,0,0,1-1.75,6.89H21.77a17,17,0,0,1-1.27-6.48c0-7.87,5.26-14.42,12.22-15.81a16.1,16.1,0,0,1-.1-1.8c0-8.88,6.71-16.08,15-16.08a14.06,14.06,0,0,1,6,1.33,22.44,22.44,0,0,1,17.21-8.22,22.89,22.89,0,0,1,19.86,12.06,24.49,24.49,0,0,1,11.53,14.07,14.47,14.47,0,0,1,18,14Z"/></g><path class="cls-8" d="M260.33,97.2c0,17.59,15.4,31.39,34.4,31.39s34.4-13.79,34.4-31.39C329.13,64,313.73,38,294.73,38S260.33,65.75,260.33,97.2Z"/><path class="cls-7" d="M295.9,38.06c8.83,10.6,14.6,28.21,14.6,48.54,0,17.59-15.4,31.39-34.4,31.39a38.21,38.21,0,0,1-8-.85,35.68,35.68,0,0,0,26.66,11.44c19,0,34.4-13.79,34.4-31.39C329.13,64.67,314.36,39.1,295.9,38.06Z"/><path class="cls-4" d="M260.33,97.2c0,17.59,15.4,31.39,34.4,31.39s34.4-13.79,34.4-31.39C329.13,64,313.73,38,294.73,38S260.33,65.75,260.33,97.2Z"/><polyline class="cls-4" points="294.73 175.39 294.73 138.75 294.73 122.04 294.73 106.18 294.73 72.53"/><line class="cls-4" x1="294.73" y1="113.06" x2="309.24" y2="98.55"/><line class="cls-4" x1="283.88" y1="86.27" x2="294.73" y2="97.12"/><path class="cls-8" d="M59.3,94.37c0,20.81,15.4,37.13,34.4,37.13s34.4-16.32,34.4-37.13c0-39.29-15.4-70-34.4-70S59.3,57.18,59.3,94.37Z"/><path class="cls-7" d="M101.35,26.09c9.5,12.32,15.79,33.93,15.79,59,0,20.81-15.4,37.13-34.4,37.13a32.51,32.51,0,0,1-15.37-3.85A33.35,33.35,0,0,0,93.7,131.5c19,0,34.4-16.32,34.4-37.13C128.1,60.53,116.67,33.05,101.35,26.09Z"/><path class="cls-4" d="M59.3,94.37c0,20.81,15.4,37.13,34.4,37.13s34.4-16.32,34.4-37.13c0-39.29-15.4-70-34.4-70S59.3,57.18,59.3,94.37Z"/><polyline class="cls-4" points="93.69 60.68 93.69 89.91 93.69 110.16 93.69 131.5 93.69 160.07 93.69 160.07 93.69 163.9 93.69 175.39"/><line class="cls-4" x1="93.7" y1="110.16" x2="73.72" y2="90.18"/><line class="cls-4" x1="93.7" y1="89.91" x2="108.2" y2="75.4"/><path class="cls-9" d="M86,76.13c0,20.81-15.4,37.13-34.4,37.13s-34.4-16.32-34.4-37.13c0-39.29,15.4-70,34.4-70S86,38.93,86,76.13Z"/><path class="cls-10" d="M56.63,6.93c10.12,12.51,16.92,35.26,16.92,60,0,20.81-15.4,37.13-34.4,37.13a32.47,32.47,0,0,1-13-2.69,33.23,33.23,0,0,0,25.37,11.93c19,0,34.4-16.32,34.4-37.13C86,42.31,73.22,12.13,56.63,6.93Z"/><path class="cls-4" d="M86,76.13c0,20.81-15.4,37.13-34.4,37.13s-34.4-16.32-34.4-37.13c0-39.29,15.4-70,34.4-70S86,38.93,86,76.13Z"/><line class="cls-4" x1="51.56" y1="42.44" x2="51.56" y2="175.39"/><line class="cls-4" x1="51.56" y1="91.91" x2="71.53" y2="71.94"/><line class="cls-4" x1="51.56" y1="71.66" x2="37.05" y2="57.16"/><path class="cls-11" d="M116.45,93.08v21.16a.73.73,0,0,1-.73.73H100.86V92.35h14.87A.73.73,0,0,1,116.45,93.08Z"/><path class="cls-1" d="M100.86,92.35V115H96.72a.73.73,0,0,1-.73-.73V93.08a.73.73,0,0,1,.73-.73Z"/><path class="cls-4" d="M116.45,93.08v21.16a.73.73,0,0,1-.73.73H100.86V92.35h14.87A.73.73,0,0,1,116.45,93.08Z"/><path class="cls-4" d="M100.86,92.35V115H96.72a.73.73,0,0,1-.73-.73V93.08a.73.73,0,0,1,.73-.73Z"/><path class="cls-1" d="M116.27,108.34v23.79H103.76V108.34c0-1,.48-1.76,1.07-1.76h0c.59,0,2.17-.79,2.17-1.76V4.15c0-2,1-3.65,2.23-3.65h1.57C112,.5,113,2.13,113,4.15V104.83c0,1,1.57,1.76,2.17,1.76h0C115.79,106.59,116.27,107.37,116.27,108.34Z"/><path class="cls-6" d="M115.2,106.59h0c-.59,0-2.17-.79-2.17-1.76V4.15c0-2-1-3.65-2.23-3.65h-1.57a1.46,1.46,0,0,0-.68.17,3.91,3.91,0,0,1,1.55,3.48V104.83c3.31,5.71,4.17,14.49.7,19a17.81,17.81,0,0,1-7,5.78v2.56h12.51V108.34C116.27,107.37,115.79,106.59,115.2,106.59Z"/><path class="cls-4" d="M116.27,108.34v23.79H103.76V108.34c0-1,.48-1.76,1.07-1.76h0c1.4,0,2.17-.79,2.17-1.76V4.15c0-2,1-3.65,2.23-3.65h1.57C112,.5,113,2.13,113,4.15V104.83a2,2,0,0,0,2.17,1.76h0C115.79,106.59,116.27,107.37,116.27,108.34Z"/><circle class="cls-9" cx="110.02" cy="21.63" r="14.47"/><path class="cls-10" d="M118.16,9.66A14.47,14.47,0,0,1,98,29.76,14.47,14.47,0,1,0,118.16,9.66Z"/><circle class="cls-4" cx="110.02" cy="21.63" r="14.47"/><path class="cls-6" d="M125.07,134V160H95V134a1.82,1.82,0,0,1,1.82-1.82h26.45A1.82,1.82,0,0,1,125.07,134Z"/><path class="cls-12" d="M123.24,132.13h-6.57v.73a20.43,20.43,0,0,1-20.43,20.43H95V160h30.1V134A1.82,1.82,0,0,0,123.24,132.13Z"/><path class="cls-4" d="M125.07,134V160H95V134a1.82,1.82,0,0,1,1.82-1.82h26.45A1.82,1.82,0,0,1,125.07,134Z"/><rect class="cls-6" x="102.86" y="101.2" width="12.04" height="3.65"/><rect class="cls-11" x="102.86" y="101.2" width="4.23" height="3.65"/><rect class="cls-11" x="112.76" y="101.2" width="2.11" height="3.65"/><rect class="cls-4" x="102.86" y="101.2" width="12.04" height="3.65"/><rect class="cls-13" x="102.83" y="11.52" width="4.88" height="4.88" rx="2" ry="2" transform="translate(16.36 -44.1) rotate(25.59)"/><path class="cls-13" d="M102.93,18h0a2.43,2.43,0,0,1-1.34-1.75.81.81,0,0,0-.35.3A11.63,11.63,0,0,0,100,27.1a9,9,0,0,1,4.64-8.35A.81.81,0,0,0,105,18,2.44,2.44,0,0,1,102.93,18Z"/><line class="cls-14" x1="354.55" y1="175.39" x2="0.5" y2="175.39"/><line class="cls-14" x1="382.28" y1="175.39" x2="358.42" y2="175.39"/><line class="cls-14" x1="140.86" y1="59.69" x2="126.49" y2="59.69"/><line class="cls-14" x1="158.31" y1="64.49" x2="132.77" y2="64.49"/><line class="cls-4" x1="321.15" y1="128.65" x2="320.05" y2="128.65"/><line class="cls-14" x1="343.91" y1="128.65" x2="328.73" y2="128.65"/><line class="cls-14" x1="351.11" y1="133.45" x2="327.26" y2="133.45"/><line class="cls-14" x1="231.56" y1="14.81" x2="225.19" y2="14.81"/><line class="cls-14" x1="249.04" y1="14.81" x2="241.65" y2="14.81"/><line class="cls-14" x1="256.24" y1="19.61" x2="232.39" y2="19.61"/><line class="cls-14" x1="267.22" y1="19.61" x2="261.33" y2="19.61"/><line class="cls-14" x1="26.97" y1="144.34" x2="14.28" y2="144.34"/><line class="cls-14" x1="38.14" y1="144.34" x2="35.81" y2="144.34"/><line class="cls-14" x1="32.97" y1="149.14" x2="21.49" y2="149.14"/><line class="cls-14" x1="397.97" y1="175.39" x2="391.63" y2="175.39"/><rect class="cls-1" x="124.75" y="126.24" width="16.54" height="33.81"/><polygon class="cls-6" points="152.23 117.21 152.23 160.05 141.28 160.05 141.28 126.24 144.93 117.24 152.23 117.21"/><polygon class="cls-15" points="144.93 117.24 141.28 126.24 124.75 126.24 128.39 117.24 144.93 117.24"/><rect class="cls-4" x="124.75" y="126.24" width="16.54" height="33.81" rx="0.73" ry="0.73"/><path class="cls-4" d="M152.23,117.94v41.38a.73.73,0,0,1-.73.73H142a.73.73,0,0,1-.73-.73V126.38a.73.73,0,0,1,.05-.27l3.19-7.87a.73.73,0,0,0-.68-1l7.65,0A.73.73,0,0,1,152.23,117.94Z"/><path class="cls-4" d="M144.53,118.24l-3.06,7.54a.73.73,0,0,1-.68.46h-15a.73.73,0,0,1-.68-1l3.06-7.54a.73.73,0,0,1,.68-.46h15A.73.73,0,0,1,144.53,118.24Z"/><path class="cls-6" d="M144.93,117.94v41.38a.73.73,0,0,1-.73.73h-9.49a.73.73,0,0,1-.73-.73l-.18-42.09,10.4,0A.73.73,0,0,1,144.93,117.94Z"/><path class="cls-4" d="M144.93,117.94v41.38a.73.73,0,0,1-.73.73h-9.49a.73.73,0,0,1-.73-.73l-.18-42.09,10.4,0A.73.73,0,0,1,144.93,117.94Z"/><path class="cls-6" d="M250,75.25v5.51h-7.3V75.25a1.46,1.46,0,0,1,1.46-1.46h4.38A1.46,1.46,0,0,1,250,75.25Z"/><polygon class="cls-6" points="268.04 89.88 268.04 120.71 260.74 120.71 260.74 89.88 251.62 80.76 258.91 80.76 268.04 89.88"/><path class="cls-4" d="M250,75.25v5.51h-7.3v-7h5.84A1.46,1.46,0,0,1,250,75.25Z"/><path class="cls-4" d="M268,90.18v30.53h-7.3V89.88l-9.12-9.12h7a.73.73,0,0,1,.52.21l8.69,8.69A.73.73,0,0,1,268,90.18Z"/><path class="cls-1" d="M260.74,90.18V120a.73.73,0,0,1-.73.73H131.21a.73.73,0,0,1-.73-.73V90.18a.73.73,0,0,1,.21-.52L139.39,81a.73.73,0,0,1,.52-.21h7.9a.73.73,0,0,0,.73-.73V75.25A1.46,1.46,0,0,1,150,73.79h91.22a1.46,1.46,0,0,1,1.46,1.46V80a.73.73,0,0,0,.73.73h7.9a.73.73,0,0,1,.52.21l8.69,8.69A.73.73,0,0,1,260.74,90.18Z"/><path class="cls-6" d="M175.58,120a.73.73,0,0,0,.73.73H260a.73.73,0,0,0,.73-.73V90.18a.73.73,0,0,0-.21-.52L251.83,81c-.14-.14-9-.21-9.15-.21,0,0,.46,16.16-8.3,27.83C227.42,117.87,175.58,120,175.58,120Z"/><path class="cls-16" d="M251.56,92.18V112.9a.58.58,0,0,1-.63.51H140.29a.58.58,0,0,1-.63-.51V92.18a.46.46,0,0,1,.18-.36l7.47-6a.71.71,0,0,1,.44-.15h6.79a.58.58,0,0,0,.63-.51V81.29a.58.58,0,0,1,.63-.51h79.61a.58.58,0,0,1,.63.51v3.83a.58.58,0,0,0,.63.51h6.79a.71.71,0,0,1,.44.15l7.47,6A.46.46,0,0,1,251.56,92.18Z"/><path class="cls-4" d="M260.74,90.18V120a.73.73,0,0,1-.73.73H131.21a.73.73,0,0,1-.73-.73V90.18a.73.73,0,0,1,.21-.52L139.39,81a.73.73,0,0,1,.52-.21h7.9a.73.73,0,0,0,.73-.73V75.25A1.46,1.46,0,0,1,150,73.79h91.22a1.46,1.46,0,0,1,1.46,1.46V80a.73.73,0,0,0,.73.73h7.9a.73.73,0,0,1,.52.21l8.69,8.69A.73.73,0,0,1,260.74,90.18Z"/><path class="cls-6" d="M237.81,86.88a.58.58,0,0,0,.63.51h6.79a.71.71,0,0,1,.44.15l5.89,4.77v-.13a.46.46,0,0,0-.18-.36l-7.47-6a.71.71,0,0,0-.44-.15h-5.65Z"/><path class="cls-6" d="M141.43,93.95a.46.46,0,0,1,.18-.36l7.47-6a.71.71,0,0,1,.44-.15h6.79a.58.58,0,0,0,.63-.51V83.05a.58.58,0,0,1,.63-.51H236V81.29a.58.58,0,0,0-.63-.51H155.8a.58.58,0,0,0-.63.51v3.83a.58.58,0,0,1-.63.51h-6.79a.71.71,0,0,0-.44.15l-7.47,6a.46.46,0,0,0-.18.36V112.9a.58.58,0,0,0,.63.51h1.14Z"/><path class="cls-4" d="M251.56,92.18V112.9a.58.58,0,0,1-.63.51H140.29a.58.58,0,0,1-.63-.51V92.18a.46.46,0,0,1,.18-.36l7.47-6a.71.71,0,0,1,.44-.15h6.79a.58.58,0,0,0,.63-.51V81.29a.58.58,0,0,1,.63-.51h79.61a.58.58,0,0,1,.63.51v3.83a.58.58,0,0,0,.63.51h6.79a.71.71,0,0,1,.44.15l7.47,6A.46.46,0,0,1,251.56,92.18Z"/><rect class="cls-1" x="113.86" y="126.24" width="16.54" height="33.81"/><path class="cls-6" d="M125.31,155.45c-3,2.46-11.45,4.61-11.45,4.61H130.4V140.12S128.32,153,125.31,155.45Z"/><polygon class="cls-1" points="141.35 117.21 141.35 160.05 130.4 160.05 130.4 126.24 134.05 117.24 141.35 117.21"/><path class="cls-6" d="M141.35,119.57v40.48h-10.7V147.74l4.36-21.5,3.44-6.26a.73.73,0,0,1,.63-.38Z"/><polygon class="cls-17" points="134.05 117.24 130.4 126.24 113.86 126.24 117.51 117.24 134.05 117.24"/><rect class="cls-4" x="113.86" y="126.24" width="16.54" height="33.81" rx="0.73" ry="0.73"/><path class="cls-4" d="M141.35,117.94v41.38a.73.73,0,0,1-.73.73h-9.49a.73.73,0,0,1-.73-.73V126.38a.73.73,0,0,1,.05-.27l3.19-7.87a.73.73,0,0,0-.68-1l7.65,0A.73.73,0,0,1,141.35,117.94Z"/><path class="cls-4" d="M133.64,118.24l-3.06,7.54a.73.73,0,0,1-.68.46h-15a.73.73,0,0,1-.68-1l3.06-7.54a.73.73,0,0,1,.68-.46h15A.73.73,0,0,1,133.64,118.24Z"/><rect class="cls-1" x="244.24" y="126.24" width="16.54" height="33.81" rx="0.73" ry="0.73"/><path class="cls-6" d="M255.7,155.45c-3,2.46-11.45,4.61-11.45,4.61h16.54V140.12S258.71,153,255.7,155.45Z"/><path class="cls-1" d="M275.38,117.94v41.38a.73.73,0,0,1-.73.73H261.51a.73.73,0,0,1-.73-.73V126.38a.73.73,0,0,1,.05-.27l3.19-7.87a.73.73,0,0,0-.68-1l11.3,0A.73.73,0,0,1,275.38,117.94Z"/><path class="cls-6" d="M275.38,121v38.34a.73.73,0,0,1-.73.73H261.51c-1.19-.11-.73-12-.73-12.42l5.47-21.25a.73.73,0,0,1,.05-.27l3.21-4.93c.43-.49.75-.89,1.34-.9l3.79,0A.73.73,0,0,1,275.38,121Z"/><path class="cls-17" d="M264,118.24,261,125.78a.73.73,0,0,1-.68.46h-15a.73.73,0,0,1-.68-1l3.06-7.54a.73.73,0,0,1,.68-.46h15A.73.73,0,0,1,264,118.24Z"/><rect class="cls-4" x="244.24" y="126.24" width="16.54" height="33.81" rx="0.73" ry="0.73"/><path class="cls-4" d="M275.38,117.94v41.38a.73.73,0,0,1-.73.73H261.51a.73.73,0,0,1-.73-.73V126.38a.73.73,0,0,1,.05-.27l3.19-7.87a.73.73,0,0,0-.68-1l11.3,0A.73.73,0,0,1,275.38,117.94Z"/><path class="cls-4" d="M264,118.24,261,125.78a.73.73,0,0,1-.68.46h-15a.73.73,0,0,1-.68-1l3.06-7.54a.73.73,0,0,1,.68-.46h15A.73.73,0,0,1,264,118.24Z"/><path class="cls-1" d="M134.59,138.68h-.73v-.73A.73.73,0,0,0,134.59,138.68Z"/><path class="cls-1" d="M244.24,134.73v4H134.59a.73.73,0,0,1-.73-.73v-3.22Z"/><path class="cls-6" d="M133.86,137.64a.73.73,0,0,0,.73.73h6l103.62-1.52v-2.13H133.86Z"/><path class="cls-1" d="M244.24,127.94v6.78H133.86v-6.05a.73.73,0,0,1,.73-.73Z"/><path class="cls-6" d="M241.19,127.94s-7.05,4.35-60.81,4.35H133.86v2.43H244.24v-6.78Z"/><path class="cls-4" d="M244.24,134.73v4H134.59a.73.73,0,0,1-.73-.73v-3.22Z"/><path class="cls-1" d="M134.59,127.94a.73.73,0,0,0-.73.73v-.73Z"/><path class="cls-4" d="M244.24,127.94v6.78H133.86v-6.05a.73.73,0,0,1,.73-.73Z"/><rect class="cls-7" x="45.52" y="160.07" width="35.03" height="15.32" rx="0.66" ry="0.66"/><rect class="cls-4" x="45.52" y="160.07" width="35.03" height="15.32" rx="0.66" ry="0.66"/><rect class="cls-10" x="233.01" y="160.07" width="35.03" height="15.32" rx="0.66" ry="0.66"/><rect class="cls-4" x="233.01" y="160.07" width="35.03" height="15.32" rx="0.66" ry="0.66"/><rect class="cls-10" x="311.07" y="160.07" width="35.03" height="15.32" rx="0.66" ry="0.66"/><rect class="cls-4" x="311.07" y="160.07" width="35.03" height="15.32" rx="0.66" ry="0.66"/><rect class="cls-9" x="79.41" y="163.9" width="35.03" height="11.49" rx="0.66" ry="0.66"/><rect class="cls-8" x="114.44" y="163.9" width="35.03" height="11.49" rx="0.66" ry="0.66"/><path class="cls-10" d="M114,163.9h-4c0,4.13-22,7.48-26.18,7.48H79.3V175a.36.36,0,0,0,.36.36H114a.36.36,0,0,0,.36-.36V164.26A.36.36,0,0,0,114,163.9Z"/><rect class="cls-9" x="149.47" y="163.9" width="35.03" height="11.49" rx="0.66" ry="0.66"/><rect class="cls-8" x="184.5" y="163.9" width="35.03" height="11.49" rx="0.66" ry="0.66"/><rect class="cls-9" x="219.53" y="163.9" width="35.03" height="11.49" rx="0.66" ry="0.66"/><rect class="cls-8" x="261.52" y="163.9" width="35.03" height="11.49" rx="0.66" ry="0.66"/><rect class="cls-4" x="79.41" y="163.9" width="35.03" height="11.49" rx="0.66" ry="0.66"/><path class="cls-7" d="M149,163.9h-4c0,4.13-22,7.48-26.18,7.48h-4.51V175a.36.36,0,0,0,.36.36H149a.36.36,0,0,0,.36-.36V164.26A.36.36,0,0,0,149,163.9Z"/><path class="cls-10" d="M183.65,163.9h-4c0,4.13-22,7.48-26.18,7.48H149V175a.36.36,0,0,0,.36.36h34.3A.36.36,0,0,0,184,175V164.26A.36.36,0,0,0,183.65,163.9Z"/><path class="cls-10" d="M253.34,163.9h-4c0,4.13-22,7.48-26.18,7.48h-4.51V175a.36.36,0,0,0,.36.36h34.3a.36.36,0,0,0,.36-.36V164.26A.36.36,0,0,0,253.34,163.9Z"/><path class="cls-7" d="M219.41,163.9h-4c0,4.13-22,7.48-26.18,7.48h-4.51V175a.36.36,0,0,0,.36.36h34.3a.36.36,0,0,0,.36-.36V164.26A.36.36,0,0,0,219.41,163.9Z"/><path class="cls-7" d="M296.28,163.9h-4c0,4.13-22,7.48-26.18,7.48h-4.51V175a.36.36,0,0,0,.36.36h34.3a.36.36,0,0,0,.36-.36V164.26A.36.36,0,0,0,296.28,163.9Z"/><rect class="cls-4" x="114.44" y="163.9" width="35.03" height="11.49" rx="0.66" ry="0.66"/><rect class="cls-4" x="149.47" y="163.9" width="35.03" height="11.49" rx="0.66" ry="0.66"/><rect class="cls-4" x="184.5" y="163.9" width="35.03" height="11.49" rx="0.66" ry="0.66"/><rect class="cls-4" x="219.53" y="163.9" width="35.03" height="11.49" rx="0.66" ry="0.66"/><rect class="cls-4" x="261.52" y="163.9" width="35.03" height="11.49" rx="0.66" ry="0.66"/><path class="cls-9" d="M114.35,163.9H80.89a.36.36,0,0,1-.17-.69l5.91-3.1a.36.36,0,0,1,.17,0h33.46a.36.36,0,0,1,.17.69l-5.91,3.1A.36.36,0,0,1,114.35,163.9Z"/><path class="cls-9" d="M184.41,163.9H151a.36.36,0,0,1-.17-.69l5.91-3.1a.36.36,0,0,1,.17,0h33.46a.36.36,0,0,1,.17.69l-5.91,3.1A.36.36,0,0,1,184.41,163.9Z"/><path class="cls-9" d="M254.46,163.9H221a.36.36,0,0,1-.17-.69l5.91-3.1a.36.36,0,0,1,.17,0h33.46a.36.36,0,0,1,.17.69l-5.91,3.1A.36.36,0,0,1,254.46,163.9Z"/><path class="cls-4" d="M114.35,163.9H80.89a.36.36,0,0,1-.17-.69l5.91-3.1a.36.36,0,0,1,.17,0h33.46a.36.36,0,0,1,.17.69l-5.91,3.1A.36.36,0,0,1,114.35,163.9Z"/><path class="cls-8" d="M149.38,163.9H115.92a.36.36,0,0,1-.17-.69l5.91-3.1a.36.36,0,0,1,.17,0h33.46a.36.36,0,0,1,.17.69l-5.91,3.1A.36.36,0,0,1,149.38,163.9Z"/><path class="cls-8" d="M219.44,163.9H186a.36.36,0,0,1-.17-.69l5.91-3.1a.36.36,0,0,1,.17,0h33.46a.36.36,0,0,1,.17.69l-5.91,3.1A.36.36,0,0,1,219.44,163.9Z"/><path class="cls-8" d="M296.46,163.9H263a.36.36,0,0,1-.17-.69l5.91-3.1a.36.36,0,0,1,.17,0h33.46a.36.36,0,0,1,.17.69l-5.91,3.1A.36.36,0,0,1,296.46,163.9Z"/><path class="cls-4" d="M149.38,163.9H115.92a.36.36,0,0,1-.17-.69l5.91-3.1a.36.36,0,0,1,.17,0h33.46a.36.36,0,0,1,.17.69l-5.91,3.1A.36.36,0,0,1,149.38,163.9Z"/><rect class="cls-9" x="296.47" y="163.9" width="35.03" height="11.49" rx="0.66" ry="0.66"/><rect class="cls-8" x="32.04" y="163.9" width="35.03" height="11.49" rx="0.66" ry="0.66"/><path class="cls-10" d="M331.3,163.9h-4c0,4.13-22,7.48-26.18,7.48h-4.51V175a.36.36,0,0,0,.36.36h34.3a.36.36,0,0,0,.36-.36V164.26A.36.36,0,0,0,331.3,163.9Z"/><path class="cls-7" d="M66.71,163.9h-4c0,4.13-22,7.48-26.18,7.48H32V175a.36.36,0,0,0,.36.36h34.3a.36.36,0,0,0,.36-.36V164.26A.36.36,0,0,0,66.71,163.9Z"/><rect class="cls-4" x="296.47" y="163.9" width="35.03" height="11.49" rx="0.66" ry="0.66"/><rect class="cls-4" x="32.04" y="163.9" width="35.03" height="11.49" rx="0.66" ry="0.66"/><path class="cls-9" d="M331.41,163.9H298a.36.36,0,0,1-.17-.69l5.91-3.1a.36.36,0,0,1,.17,0h33.46a.36.36,0,0,1,.17.69l-5.91,3.1A.36.36,0,0,1,331.41,163.9Z"/><path class="cls-4" d="M331.41,163.9H298a.36.36,0,0,1-.17-.69l5.91-3.1a.36.36,0,0,1,.17,0h33.46a.36.36,0,0,1,.17.69l-5.91,3.1A.36.36,0,0,1,331.41,163.9Z"/><path class="cls-8" d="M67,163.9H33.52a.36.36,0,0,1-.17-.69l5.91-3.1a.36.36,0,0,1,.17,0H72.89a.36.36,0,0,1,.17.69l-5.91,3.1A.36.36,0,0,1,67,163.9Z"/><path class="cls-4" d="M67,163.9H33.52a.36.36,0,0,1-.17-.69l5.91-3.1a.36.36,0,0,1,.17,0H72.89a.36.36,0,0,1,.17.69l-5.91,3.1A.36.36,0,0,1,67,163.9Z"/><path class="cls-4" d="M184.41,163.9H151a.36.36,0,0,1-.17-.69l5.91-3.1a.36.36,0,0,1,.17,0h33.46a.36.36,0,0,1,.17.69l-5.91,3.1A.36.36,0,0,1,184.41,163.9Z"/><path class="cls-4" d="M219.44,163.9H186a.36.36,0,0,1-.17-.69l5.91-3.1a.36.36,0,0,1,.17,0h33.46a.36.36,0,0,1,.17.69l-5.91,3.1A.36.36,0,0,1,219.44,163.9Z"/><path class="cls-4" d="M254.46,163.9H221a.36.36,0,0,1-.17-.69l5.91-3.1a.36.36,0,0,1,.17,0h33.46a.36.36,0,0,1,.17.69l-5.91,3.1A.36.36,0,0,1,254.46,163.9Z"/><path class="cls-4" d="M296.46,163.9H263a.36.36,0,0,1-.17-.69l5.91-3.1a.36.36,0,0,1,.17,0h33.46a.36.36,0,0,1,.17.69l-5.91,3.1A.36.36,0,0,1,296.46,163.9Z"/><path class="cls-14" d="M231.56,14.81a5.2,5.2,0,0,1,10.09,0"/><path class="cls-14" d="M27,144.34a5.11,5.11,0,0,1,8.84,0"/><path class="cls-14" d="M321.15,128.65a4,4,0,0,1,7.58,0"/></g></g></svg>