<svg xmlns="http://www.w3.org/2000/svg" xmlns:xlink="http://www.w3.org/1999/xlink" viewBox="0 0 552.96 270.61"><defs><style>.cls-1,.cls-3{fill:#f5f5f5;}.cls-2{fill:none;stroke:#333;stroke-linecap:round;stroke-miterlimit:10;}.cls-3{opacity:0.51;}.cls-4{fill:#a5a5a5;}.cls-5{fill:#c1c1c1;}.cls-6{fill:#f9f9f9;}.cls-7{fill:#333;}.cls-8{fill:#8e8e8e;}.cls-9{fill:url(#linear-gradient);}.cls-10{fill:url(#linear-gradient-2);}</style><linearGradient id="linear-gradient" x1="95.71" y1="122.37" x2="459.16" y2="352.39" gradientUnits="userSpaceOnUse"><stop offset="0" stop-color="#ff7b84" stop-opacity="0.7"/><stop offset="1" stop-color="#fff" stop-opacity="0.1"/></linearGradient><linearGradient id="linear-gradient-2" x1="466.82" y1="123.19" x2="816.15" y2="344.28" gradientTransform="matrix(-1, 0, 0, 1, 921.08, 0)" gradientUnits="userSpaceOnUse"><stop offset="0" stop-color="#f7d022" stop-opacity="0.7"/><stop offset="1" stop-color="#fff" stop-opacity="0.1"/></linearGradient></defs><title>Asset 1</title><g id="Layer_2" data-name="Layer 2"><g id="Layer_1-2" data-name="Layer 1"><path class="cls-1" d="M522.91,173.58V174a19,19,0,0,1-19,19h-23c-12.09,0-21.88,8.54-21.88,19.05v.42c0,10.51,9.8,19,21.92,19.05h53.05a19,19,0,0,1,19,19v.45a19,19,0,0,1-19,19H79.63a19,19,0,0,1-19-19v-.45a19,19,0,0,1,19-19h30.48a22.41,22.41,0,0,0,2.63-.15c10.86-1.12,19.29-9.16,19.29-18.9v-.42A17.54,17.54,0,0,0,127,200a23.18,23.18,0,0,0-15.74-6.9h0c-.37,0-52.48,0-52.86,0H19a19.2,19.2,0,0,1-2.58-.18A19,19,0,0,1,0,174v-.45a19,19,0,0,1,19-19H70.08c16.12,0,22.68-8.54,22.68-19.05v-.42C92.76,124.57,86.18,116,70,116H52.74a19,19,0,0,1-19-19v-.45a19,19,0,0,1,19-19h66.86c13.06,0,23.66-8.53,23.66-19.05v-.42c0-10.5-10.57-19-23.61-19h-8.23a19,19,0,0,1-19-19v-.45a19,19,0,0,1,19-19H421.51a19,19,0,0,1,19,19V20a19,19,0,0,1-19,19h-3c-13,0-23.61,8.54-23.61,19v.42c0,10.52,10.59,19.05,23.66,19.05h72.22a19,19,0,0,1,19,19V97a19,19,0,0,1-19,19H437.54c-16.18,0-22.76,8.53-22.76,19.05v.42c0,10.51,6.57,19,22.69,19.05h66.4A19,19,0,0,1,522.91,173.58Z"/><line class="cls-2" x1="458.4" y1="173.06" x2="440.13" y2="173.06"/><line class="cls-2" x1="480.6" y1="179.16" x2="448.13" y2="179.16"/><line class="cls-2" x1="404.35" y1="251.45" x2="369.87" y2="251.45"/><line class="cls-2" x1="446.24" y1="257.55" x2="384.96" y2="257.55"/><line class="cls-2" x1="114.8" y1="116.75" x2="95.5" y2="116.75"/><line class="cls-2" x1="123.96" y1="122.85" x2="93.63" y2="122.85"/><line class="cls-2" x1="296.82" y1="51.21" x2="288.72" y2="51.21"/><line class="cls-2" x1="319.05" y1="51.21" x2="309.65" y2="51.21"/><line class="cls-2" x1="328.21" y1="57.31" x2="297.88" y2="57.31"/><line class="cls-2" x1="342.17" y1="57.31" x2="334.69" y2="57.31"/><line class="cls-2" x1="46.38" y1="221.83" x2="30.25" y2="221.83"/><line class="cls-2" x1="60.59" y1="221.83" x2="57.62" y2="221.83"/><line class="cls-2" x1="54.01" y1="227.93" x2="39.41" y2="227.93"/><path class="cls-2" d="M296.82,51.21a6.61,6.61,0,0,1,12.83,0"/><path class="cls-2" d="M46.38,221.83a6.49,6.49,0,0,1,11.24,0"/><path class="cls-2" d="M85.86,116.75a5.05,5.05,0,0,1,9.64,0"/><path class="cls-3" d="M56.84,193.06H32.53a19.2,19.2,0,0,1-2.58-.18c-4.11-7.63,7.1-12.63,13.62-8.87,3.37,2,8.39,5.61,14.38,9.07Z"/><rect class="cls-4" x="173.03" y="89.74" width="19.63" height="10.88" rx="2" ry="2" transform="translate(87.66 278.02) rotate(-90)"/><rect class="cls-2" x="173.03" y="89.74" width="19.63" height="10.88" rx="2" ry="2" transform="translate(87.66 278.02) rotate(-90)"/><path class="cls-5" d="M147.34,61.86h9.14a17.35,17.35,0,0,1,17.35,17.35v35.52a0,0,0,0,1,0,0H130a0,0,0,0,1,0,0V79.21A17.35,17.35,0,0,1,147.34,61.86Z" transform="translate(-18.9 129.48) rotate(-43.73)"/><path class="cls-2" d="M147.34,61.86h9.14a17.35,17.35,0,0,1,17.35,17.35v35.52a0,0,0,0,1,0,0H130a0,0,0,0,1,0,0V79.21A17.35,17.35,0,0,1,147.34,61.86Z" transform="translate(-18.9 129.48) rotate(-43.73)"/><circle class="cls-5" cx="170.18" cy="107.39" r="21.92" transform="translate(-27.04 147.41) rotate(-43.73)"/><circle class="cls-2" cx="170.18" cy="107.39" r="21.92" transform="translate(-27.04 147.41) rotate(-43.73)"/><path class="cls-6" d="M180.66,118.36a15.17,15.17,0,1,1,.47-21.45A15.17,15.17,0,0,1,180.66,118.36Z"/><path class="cls-7" d="M172.7,102.94l-.57,12-2-7.54-3.31,1.35-8.94-10.3a15.25,15.25,0,0,1,1.76-2A15.06,15.06,0,0,1,170,92.23l-.58,12.39Z"/><circle class="cls-2" cx="170.18" cy="107.39" r="15.17" transform="translate(-27.04 147.41) rotate(-43.73)"/><rect class="cls-5" x="152.24" y="0.5" width="10.85" height="67.3"/><rect class="cls-2" x="152.24" y="0.5" width="10.85" height="67.3"/><path class="cls-5" d="M135.32,71.16a6.2,6.2,0,0,0-6.2,6.2V97.25h6.71V79.43a1.55,1.55,0,0,1,1.55-1.55h40.55a1.55,1.55,0,0,1,1.55,1.55v5.94h6.71v-8a6.2,6.2,0,0,0-6.2-6.2Z"/><path class="cls-2" d="M135.32,71.16a6.2,6.2,0,0,0-6.2,6.2V97.25h6.71V79.43a1.55,1.55,0,0,1,1.55-1.55h40.55a1.55,1.55,0,0,1,1.55,1.55v5.94h6.71v-8a6.2,6.2,0,0,0-6.2-6.2Z"/><rect class="cls-4" x="122.67" y="89.74" width="19.63" height="10.88" rx="2" ry="2" transform="translate(37.3 227.66) rotate(-90)"/><rect class="cls-2" x="122.67" y="89.74" width="19.63" height="10.88" rx="2" ry="2" transform="translate(37.3 227.66) rotate(-90)"/><rect class="cls-8" x="137.67" y="92.46" width="5.94" height="5.44" transform="translate(45.46 235.82) rotate(-90)"/><path class="cls-2" d="M137.67,92.46h5.94a0,0,0,0,1,0,0V95.9a2,2,0,0,1-2,2h-1.94a2,2,0,0,1-2-2V92.46A0,0,0,0,1,137.67,92.46Z" transform="translate(45.46 235.82) rotate(-90)"/><rect class="cls-4" x="141.91" y="67.8" width="31.51" height="13.36" rx="2" ry="2"/><rect class="cls-2" x="141.91" y="67.8" width="31.51" height="13.36" rx="2" ry="2"/><line class="cls-2" x1="29.07" y1="270.11" x2="518.56" y2="270.11"/><path class="cls-9" d="M185.75,105l-.59.13A15.15,15.15,0,0,0,170,92.23l-.58,12.39,3.32-1.68-.57,12-2-7.54-3.31,1.35-8.94-10.3a15.18,15.18,0,0,0-2.35,13.05h0l47.06,158.6,219.79.15Z"/><rect class="cls-4" x="358.62" y="89.74" width="19.63" height="10.88" rx="2" ry="2" transform="translate(273.25 463.61) rotate(-90)"/><rect class="cls-2" x="358.62" y="89.74" width="19.63" height="10.88" rx="2" ry="2" transform="translate(273.25 463.61) rotate(-90)"/><path class="cls-5" d="M377.44,61.86h43.84a0,0,0,0,1,0,0V97.37a17.35,17.35,0,0,1-17.35,17.35h-9.14a17.35,17.35,0,0,1-17.35-17.35V61.86A0,0,0,0,1,377.44,61.86Z" transform="translate(626.94 428.14) rotate(-136.27)"/><path class="cls-2" d="M377.44,61.86h43.84a0,0,0,0,1,0,0V97.37a17.35,17.35,0,0,1-17.35,17.35h-9.14a17.35,17.35,0,0,1-17.35-17.35V61.86A0,0,0,0,1,377.44,61.86Z" transform="translate(626.94 428.14) rotate(-136.27)"/><circle class="cls-5" cx="381.09" cy="107.39" r="21.92" transform="translate(40.07 308.56) rotate(-46.27)"/><circle class="cls-2" cx="381.09" cy="107.39" r="21.92" transform="translate(40.07 308.56) rotate(-46.27)"/><path class="cls-6" d="M370.61,118.36a15.17,15.17,0,1,0-.47-21.45A15.17,15.17,0,0,0,370.61,118.36Z"/><path class="cls-7" d="M378.56,102.94l.57,12,2-7.54,3.31,1.35,8.94-10.3a15.25,15.25,0,0,0-1.76-2,15.06,15.06,0,0,0-10.28-4.2l.58,12.39Z"/><circle class="cls-2" cx="381.09" cy="107.39" r="15.17" transform="translate(40.07 308.56) rotate(-46.27)"/><rect class="cls-5" x="388.19" y="0.5" width="10.85" height="67.3" transform="translate(787.22 68.3) rotate(-180)"/><rect class="cls-2" x="388.19" y="0.5" width="10.85" height="67.3" transform="translate(787.22 68.3) rotate(-180)"/><path class="cls-5" d="M415.95,71.16a6.2,6.2,0,0,1,6.2,6.2V97.25h-6.71V79.43a1.55,1.55,0,0,0-1.55-1.55H373.34a1.55,1.55,0,0,0-1.55,1.55v5.94h-6.71v-8a6.2,6.2,0,0,1,6.2-6.2Z"/><path class="cls-2" d="M415.95,71.16a6.2,6.2,0,0,1,6.2,6.2V97.25h-6.71V79.43a1.55,1.55,0,0,0-1.55-1.55H373.34a1.55,1.55,0,0,0-1.55,1.55v5.94h-6.71v-8a6.2,6.2,0,0,1,6.2-6.2Z"/><rect class="cls-4" x="408.97" y="89.74" width="19.63" height="10.88" rx="2" ry="2" transform="translate(323.61 513.97) rotate(-90)"/><rect class="cls-2" x="408.97" y="89.74" width="19.63" height="10.88" rx="2" ry="2" transform="translate(323.61 513.97) rotate(-90)"/><rect class="cls-8" x="407.66" y="92.46" width="5.94" height="5.44" transform="translate(315.45 505.81) rotate(-90)"/><path class="cls-2" d="M409.66,92.46h1.94a2,2,0,0,1,2,2V97.9a0,0,0,0,1,0,0h-5.94a0,0,0,0,1,0,0V94.46A2,2,0,0,1,409.66,92.46Z" transform="translate(315.45 505.81) rotate(-90)"/><rect class="cls-4" x="377.86" y="67.8" width="31.51" height="13.36" rx="2" ry="2" transform="translate(787.22 148.97) rotate(180)"/><rect class="cls-2" x="377.86" y="67.8" width="31.51" height="13.36" rx="2" ry="2" transform="translate(787.22 148.97) rotate(180)"/><path class="cls-10" d="M365.52,105l.59.13A15.15,15.15,0,0,1,381.3,92.23l.58,12.39-3.32-1.68.57,12,2-7.54,3.31,1.35,8.94-10.3a15.18,15.18,0,0,1,2.35,13.05h0l-47.06,158.6-205.28.15Z"/></g></g></svg>