<svg xmlns="http://www.w3.org/2000/svg" viewBox="0 0 510.57 237.86"><defs><style>.cls-1{fill:#f5f5f5;}.cls-2{fill:#595959;}.cls-3{fill:#c1c1c1;}.cls-26,.cls-28,.cls-31,.cls-33,.cls-35,.cls-36,.cls-4{fill:none;}.cls-36,.cls-4{stroke:#333;}.cls-17,.cls-26,.cls-28,.cls-31,.cls-33,.cls-35,.cls-36,.cls-4{stroke-miterlimit:10;}.cls-5{fill:#8c8c8c;}.cls-6{fill:#f7d022;}.cls-7{fill:#ddb922;}.cls-8{fill:#5e5e5e;}.cls-17,.cls-9{fill:#fff;}.cls-10{fill:#e5df67;}.cls-11{fill:#ff7b84;}.cls-12{fill:#b7b058;}.cls-13{fill:#e6626b;}.cls-14,.cls-29{fill:#231f20;}.cls-15{fill:#cfb135;}.cls-16{fill:#ffd630;}.cls-17,.cls-26,.cls-33,.cls-35{stroke:#231f20;}.cls-17{stroke-width:2.16px;}.cls-18{fill:#ffde59;}.cls-19{fill:#121112;}.cls-20{fill:#c6c5c5;}.cls-21{fill:#a2a2a3;}.cls-22{fill:#b32024;}.cls-23{fill:#83161d;}.cls-24{fill:#ffe266;}.cls-25{fill:#0f0f10;}.cls-26{stroke-width:2.19px;}.cls-27{fill:#1d1d1d;}.cls-28{stroke:#0f0f10;}.cls-28,.cls-31{stroke-width:1.9px;}.cls-29{opacity:0.98;}.cls-30{fill:#dfbe2e;}.cls-31{stroke:#000;}.cls-32{fill:#ffde56;}.cls-33{stroke-width:2.03px;}.cls-34{fill:#888;}.cls-35{stroke-width:2.03px;}.cls-36{stroke-linecap:round;}</style></defs><title>Asset 1</title><g id="Layer_2" data-name="Layer 2"><g id="Layer_1-2" data-name="Layer 1"><rect class="cls-1" y="206.69" width="486.31" height="30.49" rx="15.06" ry="15.06"/><rect class="cls-1" x="80.53" y="145.72" width="430.05" height="30.49" rx="15.06" ry="15.06"/><rect class="cls-1" x="39.79" y="84.75" width="379.93" height="30.49" rx="15.06" ry="15.06"/><path class="cls-1" d="M394.31,206.69H114.79c9.59,0,17.36-6.75,17.36-15.08v-.33c0-8.33-7.78-15.08-17.36-15.08H394.31c-9.59,0-17.36,6.75-17.36,15.08v.33C377,199.94,384.72,206.69,394.31,206.69Z"/><rect class="cls-1" x="79.09" y="23.77" width="285.81" height="30.49" rx="15.06" ry="15.06"/><path class="cls-1" d="M347.49,84.75H149c10.34,0,18.73-6.75,18.73-15.08v-.33c0-8.33-8.39-15.08-18.73-15.08H347.49c-10.35,0-18.73,6.75-18.73,15.08v.33C328.75,78,337.14,84.75,347.49,84.75Z"/><path class="cls-1" d="M362.53,145.72H116.85c12.8,0,18-6.75,18-15.08v-.33c0-8.33-5.21-15.08-18-15.08H362.53c-12.81,0-18,6.75-18,15.08v.33C344.52,139,349.73,145.72,362.53,145.72Z"/><path class="cls-2" d="M132.2,137.63V169a1.08,1.08,0,0,1-1.08,1.08h-22V136.55h22A1.08,1.08,0,0,1,132.2,137.63Z"/><path class="cls-3" d="M109.1,136.55v33.51H103a1.08,1.08,0,0,1-1.08-1.08V137.63a1.08,1.08,0,0,1,1.08-1.08Z"/><path class="cls-4" d="M132.2,137.63V169a1.08,1.08,0,0,1-1.08,1.08h-22V136.55h22A1.08,1.08,0,0,1,132.2,137.63Z"/><path class="cls-4" d="M109.1,136.55v33.51H103a1.08,1.08,0,0,1-1.08-1.08V137.63a1.08,1.08,0,0,1,1.08-1.08Z"/><path class="cls-3" d="M131.93,160.23v35.23H113.4V160.23c0-1.44.71-2.6,1.59-2.6h0c.88,0,3.21-1.16,3.21-2.6V5.9c0-3,1.48-5.4,3.3-5.4h2.32c1.82,0,3.3,2.42,3.3,5.4V155c0,1.44,2.33,2.6,3.21,2.6h0C131.22,157.63,131.93,158.8,131.93,160.23Z"/><path class="cls-5" d="M130.34,157.63h0c-.88,0-3.21-1.16-3.21-2.6V5.9c0-3-1.48-5.4-3.3-5.4h-2.32a2.16,2.16,0,0,0-1,.26c1.33.69,2.3,2.74,2.3,5.15V155c4.91,8.45,6.17,21.47,1,28.09s-10.44,8.56-10.44,8.56v3.79h18.53V160.23C131.93,158.8,131.22,157.63,130.34,157.63Z"/><path class="cls-4" d="M131.93,160.23v35.23H113.4V160.23c0-1.44.71-2.6,1.59-2.6h0c2.07,0,3.21-1.16,3.21-2.6V5.9c0-3,1.48-5.4,3.3-5.4h2.32c1.82,0,3.3,2.42,3.3,5.4V155c0,1.44,1.36,2.6,3.21,2.6h0C131.22,157.63,131.93,158.8,131.93,160.23Z"/><circle class="cls-6" cx="122.67" cy="31.79" r="21.44"/><path class="cls-7" d="M134.72,14.06a21.44,21.44,0,0,1-29.78,29.78,21.44,21.44,0,1,0,29.78-29.78Z"/><circle class="cls-4" cx="122.67" cy="31.79" r="21.44"/><path class="cls-5" d="M145,198.17V236.8H100.37V198.17a2.7,2.7,0,0,1,2.7-2.7h39.18A2.7,2.7,0,0,1,145,198.17Z"/><path class="cls-8" d="M142.26,195.46h-9.73v1.08a30.27,30.27,0,0,1-30.27,30.27h-1.89v10H145V198.17A2.7,2.7,0,0,0,142.26,195.46Z"/><path class="cls-4" d="M145,198.17V236.8H100.37V198.17a2.7,2.7,0,0,1,2.7-2.7h39.18A2.7,2.7,0,0,1,145,198.17Z"/><rect class="cls-5" x="112.07" y="149.66" width="17.84" height="5.4"/><rect class="cls-2" x="112.07" y="149.66" width="6.26" height="5.4"/><rect class="cls-2" x="126.73" y="149.66" width="3.13" height="5.4"/><rect class="cls-4" x="112.07" y="149.66" width="17.84" height="5.4"/><rect class="cls-9" x="112.02" y="16.82" width="7.23" height="7.23" rx="2" ry="2" transform="translate(20.17 -47.95) rotate(25.59)"/><path class="cls-9" d="M112.17,26.36h0a3.61,3.61,0,0,1-2-2.59,1.2,1.2,0,0,0-.52.44A17.23,17.23,0,0,0,107.8,39.9a13.37,13.37,0,0,1,6.88-12.36,1.2,1.2,0,0,0,.58-1.15A3.61,3.61,0,0,1,112.17,26.36Z"/><path class="cls-2" d="M403.69,137.63V169a1.08,1.08,0,0,1-1.08,1.08h-22V136.55h22A1.08,1.08,0,0,1,403.69,137.63Z"/><path class="cls-3" d="M380.59,136.55v33.51h-6.12a1.08,1.08,0,0,1-1.08-1.08V137.63a1.08,1.08,0,0,1,1.08-1.08Z"/><path class="cls-4" d="M403.69,137.63V169a1.08,1.08,0,0,1-1.08,1.08h-22V136.55h22A1.08,1.08,0,0,1,403.69,137.63Z"/><path class="cls-4" d="M380.59,136.55v33.51h-6.12a1.08,1.08,0,0,1-1.08-1.08V137.63a1.08,1.08,0,0,1,1.08-1.08Z"/><path class="cls-3" d="M403.42,160.23v35.23H384.89V160.23c0-1.44.71-2.6,1.59-2.6h0c.88,0,3.21-1.16,3.21-2.6V5.9c0-3,1.48-5.4,3.3-5.4h2.32c1.82,0,3.3,2.42,3.3,5.4V155c0,1.44,2.33,2.6,3.21,2.6h0C402.71,157.63,403.42,158.8,403.42,160.23Z"/><path class="cls-5" d="M401.83,157.63h0c-.88,0-3.21-1.16-3.21-2.6V5.9c0-3-1.48-5.4-3.3-5.4H393a2.16,2.16,0,0,0-1,.26c1.33.69,2.3,2.74,2.3,5.15V155c4.91,8.45,6.17,21.47,1,28.09s-10.44,8.56-10.44,8.56v3.79h18.53V160.23C403.42,158.8,402.71,157.63,401.83,157.63Z"/><path class="cls-4" d="M403.42,160.23v35.23H384.89V160.23c0-1.44.71-2.6,1.59-2.6h0c2.07,0,3.21-1.16,3.21-2.6V5.9c0-3,1.48-5.4,3.3-5.4h2.32c1.82,0,3.3,2.42,3.3,5.4V155c0,1.44,1.36,2.6,3.21,2.6h0C402.71,157.63,403.42,158.8,403.42,160.23Z"/><circle class="cls-6" cx="394.16" cy="31.79" r="21.44"/><path class="cls-7" d="M406.21,14.06a21.44,21.44,0,0,1-29.78,29.78,21.44,21.44,0,1,0,29.78-29.78Z"/><circle class="cls-4" cx="394.16" cy="31.79" r="21.44"/><path class="cls-5" d="M416.45,198.17V236.8H371.86V198.17a2.7,2.7,0,0,1,2.7-2.7h39.18A2.7,2.7,0,0,1,416.45,198.17Z"/><path class="cls-8" d="M413.75,195.46H404v1.08a30.27,30.27,0,0,1-30.27,30.27h-1.89v10h44.59V198.17A2.7,2.7,0,0,0,413.75,195.46Z"/><path class="cls-4" d="M416.45,198.17V236.8H371.86V198.17a2.7,2.7,0,0,1,2.7-2.7h39.18A2.7,2.7,0,0,1,416.45,198.17Z"/><rect class="cls-5" x="383.56" y="149.66" width="17.84" height="5.4"/><rect class="cls-2" x="383.56" y="149.66" width="6.26" height="5.4"/><rect class="cls-2" x="398.22" y="149.66" width="3.13" height="5.4"/><rect class="cls-4" x="383.56" y="149.66" width="17.84" height="5.4"/><rect class="cls-9" x="383.51" y="16.82" width="7.23" height="7.23" rx="2" ry="2" transform="translate(46.81 -165.22) rotate(25.59)"/><path class="cls-9" d="M383.66,26.36h0a3.61,3.61,0,0,1-2-2.59,1.2,1.2,0,0,0-.52.44,17.23,17.23,0,0,0-1.87,15.69,13.37,13.37,0,0,1,6.88-12.36,1.2,1.2,0,0,0,.58-1.15A3.61,3.61,0,0,1,383.66,26.36Z"/><rect class="cls-10" x="112.5" y="223.41" width="40.81" height="13.39" rx="0.66" ry="0.66"/><rect class="cls-11" x="153.3" y="223.41" width="40.81" height="13.39" rx="0.66" ry="0.66"/><path class="cls-12" d="M152.74,223.41h-4.62c0,4.81-25.69,8.71-30.5,8.71h-5.26v4.25a.43.43,0,0,0,.43.43h40a.43.43,0,0,0,.43-.43V223.84A.43.43,0,0,0,152.74,223.41Z"/><rect class="cls-10" x="194.11" y="223.41" width="40.81" height="13.39" rx="0.66" ry="0.66"/><rect class="cls-11" x="234.92" y="223.41" width="40.81" height="13.39" rx="0.66" ry="0.66"/><rect class="cls-10" x="275.73" y="223.41" width="40.81" height="13.39" rx="0.66" ry="0.66"/><rect class="cls-11" x="317.14" y="223.41" width="40.81" height="13.39" rx="0.66" ry="0.66"/><rect class="cls-4" x="112.5" y="223.41" width="40.81" height="13.39" rx="0.66" ry="0.66"/><path class="cls-13" d="M193.55,223.41h-4.62c0,4.81-25.69,8.71-30.5,8.71h-5.26v4.25a.43.43,0,0,0,.43.43h40a.43.43,0,0,0,.43-.43V223.84A.43.43,0,0,0,193.55,223.41Z"/><path class="cls-12" d="M233.93,223.41h-4.62c0,4.81-25.69,8.71-30.5,8.71h-5.26v4.25a.43.43,0,0,0,.43.43h40a.43.43,0,0,0,.43-.43V223.84A.43.43,0,0,0,233.93,223.41Z"/><path class="cls-12" d="M315.12,223.41H310.5c0,4.81-25.69,8.71-30.5,8.71h-5.26v4.25a.43.43,0,0,0,.43.43h40a.43.43,0,0,0,.43-.43V223.84A.43.43,0,0,0,315.12,223.41Z"/><path class="cls-13" d="M275.59,223.41H271c0,4.81-25.69,8.71-30.5,8.71h-5.26v4.25a.43.43,0,0,0,.43.43h40a.43.43,0,0,0,.43-.43V223.84A.43.43,0,0,0,275.59,223.41Z"/><path class="cls-13" d="M357.63,223.41H353c0,4.81-25.69,8.71-30.5,8.71h-5.26v4.25a.43.43,0,0,0,.43.43h40a.43.43,0,0,0,.43-.43V223.84A.43.43,0,0,0,357.63,223.41Z"/><rect class="cls-4" x="153.3" y="223.41" width="40.81" height="13.39" rx="0.66" ry="0.66"/><rect class="cls-4" x="194.11" y="223.41" width="40.81" height="13.39" rx="0.66" ry="0.66"/><rect class="cls-4" x="234.92" y="223.41" width="40.81" height="13.39" rx="0.66" ry="0.66"/><rect class="cls-4" x="275.73" y="223.41" width="40.81" height="13.39" rx="0.66" ry="0.66"/><rect class="cls-11" x="405.31" y="223.41" width="40.81" height="13.39" rx="0.66" ry="0.66"/><path class="cls-13" d="M446,223.41h-4.62c0,4.81-25.69,8.71-30.5,8.71H405.6v4.25a.43.43,0,0,0,.43.43h40a.43.43,0,0,0,.43-.43V223.84A.43.43,0,0,0,446,223.41Z"/><rect class="cls-4" x="405.31" y="223.41" width="40.81" height="13.39" rx="0.66" ry="0.66"/><rect class="cls-4" x="317.14" y="223.41" width="40.81" height="13.39" rx="0.66" ry="0.66"/><rect class="cls-10" x="362.24" y="223.41" width="40.81" height="13.39" rx="0.66" ry="0.66"/><rect class="cls-11" x="66.97" y="223.41" width="40.81" height="13.39" rx="0.66" ry="0.66"/><path class="cls-12" d="M402.81,223.41h-4.62c0,4.81-25.69,8.71-30.5,8.71h-5.26v4.25a.43.43,0,0,0,.43.43h40a.43.43,0,0,0,.43-.43V223.84A.43.43,0,0,0,402.81,223.41Z"/><path class="cls-13" d="M107.36,223.41h-4.62c0,4.81-25.69,8.71-30.5,8.71H67v4.25a.43.43,0,0,0,.43.43h40a.43.43,0,0,0,.43-.43V223.84A.43.43,0,0,0,107.36,223.41Z"/><rect class="cls-4" x="362.24" y="223.41" width="40.81" height="13.39" rx="0.66" ry="0.66"/><rect class="cls-4" x="66.97" y="223.41" width="40.81" height="13.39" rx="0.66" ry="0.66"/><path class="cls-14" d="M276.75,102.63l-2.08,0V116.4l1.34,0c17,0,35.33,9.77,45.95,23.27h-2.64c-2.62-.08-3.72,1.05-5.61,4.53h-39V157H381.12C355.42,127.29,316.82,102.63,276.75,102.63Zm58.37,43.31c-6.81-10.27-17.52-19.25-29.77-25.47a.69.69,0,0,1,.55-1.27c15,5.72,28.47,15.38,36.51,26.74Z"/><path class="cls-15" d="M276.75,102.63c-.69,0-1.39,0-2.08,0v0l-1,0-1.59.06-2.17.12-1.57.11-2.28.2-1.34.14q-1.38.15-2.76.34l-.63.09c-31.54,4.42-64.11,23.21-84.89,45.55-3,3.19-6.25,4.94-8.67,8.31L274.67,157h98.62C352.48,126.13,316.83,102.63,276.75,102.63Zm-36.51,41.55h-17a2.07,2.07,0,0,1-1.7-3.28,45.84,45.84,0,0,1,18.68-14.77Zm0-22.85c-9.67,4.9-22.08,12.9-27.9,22.35-.56.9,0,2.25.84,2.25h-6.86a1.39,1.39,0,0,1-1.09-2.25c8.22-10.23,21.2-18.75,35-23.5Zm79.08,18.32c-2.62-.08-3.72,1.05-5.61,4.53H257.86a1.39,1.39,0,0,1-1.39-1.39V121.63a2.08,2.08,0,0,1,1.38-2A55.75,55.75,0,0,1,276,116.38c17,0,35.33,9.77,45.95,23.27Zm15.81,6.28c-6.81-10.27-17.52-19.25-29.77-25.47a.69.69,0,0,1,.55-1.27c15,5.72,28.47,15.38,36.51,26.74Z"/><path class="cls-16" d="M276.5,103.31c-38.17,0-74.87,22.82-97.06,53.72H373.29C347.1,122.89,313.2,103.31,276.5,103.31Zm-36.26,40.87h-17a2.07,2.07,0,0,1-1.7-3.28,45.84,45.84,0,0,1,18.68-14.77Zm0-22.85c-9.67,4.9-22.08,12.9-27.9,22.35-.56.9,0,2.25.84,2.25h-6.86a1.39,1.39,0,0,1-1.09-2.25c8.22-10.23,21.2-18.75,35-23.5Zm79.08,18.32c-2.62-.08-3.72,1.05-5.61,4.53H257.86a1.39,1.39,0,0,1-1.39-1.39V121.63a2.08,2.08,0,0,1,1.38-2A55.75,55.75,0,0,1,276,116.38c17,0,35.33,9.77,45.95,23.27Zm15.81,6.28c-6.81-10.27-17.52-19.25-29.77-25.47a.69.69,0,0,1,.55-1.27c15,5.72,28.47,15.38,36.51,26.74Z"/><path class="cls-4" d="M276.75,102.63c-.69,0-1.39,0-2.08,0v0l-1,0-1.59.06-2.17.12-1.57.11-2.28.2-1.34.14q-1.38.15-2.76.34l-.63.09c-31.42,4.4-63,20.65-83.55,44.14-2.94,3.37-7.53,6.26-10,9.72L274.67,157h98.62C352.48,126.13,316.83,102.63,276.75,102.63Z"/><path class="cls-16" d="M245,150.31v60.11H172.24l3.27-51.78a8.33,8.33,0,0,1,8.33-8.33Z"/><polygon class="cls-16" points="373.45 157.03 368.7 210.42 344.16 210.42 344.16 150.31 368.43 150.31 373.45 157.03"/><path class="cls-16" d="M424.38,201l-19,9.43H368.7L373.45,157l-4.77-6.73h5A50.68,50.68,0,0,1,424.38,201Z"/><path class="cls-15" d="M373.45,157l-3.33-3.94h5c18.49-.56,35.88,9.33,29.46,10.64C400.36,164.61,373.45,157,373.45,157Z"/><path class="cls-4" d="M424.38,201l-19,9.43H368.7L373.45,157l-4.77-6.73h5A50.68,50.68,0,0,1,424.38,201Z"/><path class="cls-17" d="M341.61,186.17c-.39.85-.76,1.69-1.1,2.55"/><rect class="cls-16" x="245.03" y="146.95" width="99.13" height="63.47"/><path class="cls-15" d="M340.9,212c-.15,1.85-10.51,1.76-10.51,1.76-.14-1.14-.22-2.3-.26-3.47,0-.51,0-1,0-1.54A41,41,0,0,1,332,194.81a98.09,98.09,0,0,1,5.71-12.45c4.88-8.8,15.79-18.91,28.8-21.86C369.54,159.82,340.9,212,340.9,212Z"/><rect class="cls-4" x="242.43" y="146.95" width="101.74" height="63.47"/><path class="cls-18" d="M428.61,197.17l-2.12,10.36a11,11,0,0,1-2.41,3.78c-4,4.94-10.34,4.8-10.34,4,0-22.6-64.11-28.07-65.9-6.77-.15,1.85.14,7.57.09,10.24H214.36c.24-.55.12-8.15.12-9.33,0-22.6-68.39-15.44-70.18,5.86a17.77,17.77,0,0,1-6.75-1.35c-1.5-.6-2.06-1.94-2.51-3.83L131.73,194c-.36-2.29.28-4.2,2.07-5l6.37-2.78a2.06,2.06,0,0,0,1.94-1.42c1.42-4.21.72-8.14,3.33-11.64A42.4,42.4,0,0,1,188.84,157c13,3,25.41,15.2,31.84,29.14.39.85.76,1.69,1.1,2.55a44.85,44.85,0,0,1,3.47,16.56c0,.51,0,3.82,0,5H337.33c-.14-1.14-.22-2.3-.26-3.47,0-.51,0-1,0-1.54a41,41,0,0,1,1.91-13.93,98.09,98.09,0,0,1,5.71-12.45c4.88-8.8,15.79-18.91,28.8-21.86a42.67,42.67,0,0,1,18.8,0c14.91,3.38,25.62,14.86,30,29.37l4.78,3.07C429.32,191.16,429.48,193.7,428.61,197.17Z"/><polygon class="cls-19" points="144.3 215.3 214.36 218.77 219.42 199.55 195.87 175.77 161.62 175.77 143.57 194.13 144.3 215.3"/><polygon class="cls-19" points="413.75 215.3 347.93 218.77 343.17 204.35 357.48 178.35 397.89 174.5 422.67 200.88 418.61 213.61 413.75 215.3"/><path class="cls-16" d="M382.61,170.1c-21.14,0-40,16-41.77,37.31-.15,1.85-.28,5.17-.33,7.84H221.14a41.6,41.6,0,0,0,.34-5.77,51.43,51.43,0,0,0-1.14-9.23c-4-16.78-23.44-30.16-40.74-30.16-21.14,0-40,16-41.77,37.31-.13,1.56-.27,5.82-.27,5.82.94.46,5.37,1.76,6.65,1.24,0-.52-.07-1.21-.07-2.25,0-1.84.3-3.51.42-5.4,1.08-17,17.22-29.88,34.86-29.88s34.78,12.91,35,29.9c.06,4.06,0,5.38,0,8.46l-.17,2.93L348,218l-.26-2.73a59.67,59.67,0,0,1,.28-8.48c1.49-17.06,17.22-29.88,34.86-29.88s34.86,11.78,34.86,29.88a36.83,36.83,0,0,1-.5,4.86c-.33,2-1.47,2.11-3,3.37a15.11,15.11,0,0,0,4.21-.52,13.62,13.62,0,0,0,5.77-4.37l-.12,1.17h0c.18-1.57.3-3.09.3-3.89C424.38,184.82,403.76,170.1,382.61,170.1Z"/><path class="cls-4" d="M428.61,197.17l-2.12,10.36a11,11,0,0,1-2.41,3.78c-4,4.94-11,4.45-10.34,4,11.63-8.06-2.43-38.26-30.08-38.35-26.39-.09-34.93,20.91-35.82,31.58-.15,1.85.14,7.57.09,10.24H214.36c.24-.55.08-8.15.12-9.33.68-20.89-19.07-33.79-39.1-32.27A34.47,34.47,0,0,0,144.3,215.3a17.77,17.77,0,0,1-6.75-1.35c-1.5-.6-2.06-1.94-2.51-3.83L131.73,194c-.36-2.29.28-4.2,2.07-5l6.37-2.78a2.06,2.06,0,0,0,1.94-1.42c1.42-4.21.72-8.14,3.33-11.64A42.4,42.4,0,0,1,188.84,157c13,3,25.41,15.2,31.84,29.14.39.85.76,1.69,1.1,2.55a44.85,44.85,0,0,1,3.47,16.56c0,.51,0,3.82,0,5H337.33c-.14-1.14-.22-2.3-.26-3.47,0-.51,0-1,0-1.54a41,41,0,0,1,1.91-13.93,98.09,98.09,0,0,1,5.71-12.45c4.88-8.8,15.79-18.91,28.8-21.86a42.67,42.67,0,0,1,18.8,0c14.91,3.38,25.62,14.86,30,29.37l4.78,3.07C429.32,191.16,429.48,193.7,428.61,197.17Z"/><ellipse class="cls-20" cx="415.66" cy="175.77" rx="2.91" ry="12.5" transform="translate(-30.43 244.14) rotate(-31.64)"/><path class="cls-21" d="M415.66,177.49a49.77,49.77,0,0,1,3.69,5.9c.71,1.57-2.06.57-5.08-4.34s-7.66-16.84-4-13.48C412.53,167.67,412.53,172.65,415.66,177.49Z"/><ellipse class="cls-4" cx="415.66" cy="175.77" rx="2.91" ry="12.5" transform="translate(-30.43 244.14) rotate(-31.64)"/><ellipse class="cls-22" cx="146.82" cy="175.77" rx="12.5" ry="2.91" transform="matrix(0.52, -0.85, 0.85, 0.52, -79.84, 208.58)"/><path class="cls-23" d="M146.66,176.43c1.93-5.94,5.54-12,6.76-11.24s-.36,5.67-3.53,11.05-5.46,7-5.56,5.57C144.25,180.57,145.91,178.75,146.66,176.43Z"/><ellipse class="cls-4" cx="146.82" cy="175.77" rx="12.5" ry="2.91" transform="matrix(0.52, -0.85, 0.85, 0.52, -79.84, 208.58)"/><ellipse class="cls-24" cx="171.11" cy="160.43" rx="7.42" ry="1.73" transform="translate(-32.83 44.57) rotate(-13.55)"/><path class="cls-16" d="M171.11,160.62c-4,1-7.23.48-7,2,.07.53,3.45.15,7.44-.81s7.11-2.15,7-2.67C178.06,157.24,175.09,159.66,171.11,160.62Z"/><ellipse class="cls-4" cx="171.11" cy="160.43" rx="7.42" ry="1.73" transform="translate(-32.83 44.57) rotate(-13.55)"/><path class="cls-25" d="M237.52,145.93v-1.75H220.14a2.07,2.07,0,0,1-1.74-3.28,46.77,46.77,0,0,1,19.13-14.77v-4.8c-9.9,4.9-22.6,12.9-28.56,22.35-.57.9-.05,2.25.86,2.25"/><path class="cls-25" d="M201.37,144.61v0Z"/><path class="cls-26" d="M318.49,139.65h2.7c-10.87-13.5-29.62-23.27-47-23.27a58.3,58.3,0,0,0-18.59,3.29,2.08,2.08,0,0,0-1.41,2v21.17a1.41,1.41,0,0,0,1.42,1.39h57.18C314.68,140.71,315.8,139.57,318.49,139.65Z"/><path class="cls-26" d="M209.82,145.93c-.91,0-1.43-1.34-.86-2.25,6-9.46,18.66-17.45,28.56-22.35v-1.14c-14.14,4.75-27.43,13.27-35.85,23.5a1.39,1.39,0,0,0,1.12,2.25Z"/><path class="cls-26" d="M237.52,126.13v18.05H220.14a2.07,2.07,0,0,1-1.74-3.28A46.77,46.77,0,0,1,237.52,126.13Z"/><path class="cls-25" d="M275.75,111.48a92.47,92.47,0,0,0-28,4.69v29.76h98.49C332.17,126.37,302.82,111.48,275.75,111.48Zm42.74,28.17c-2.69-.08-3.8,1.05-5.74,4.53H255.56a1.41,1.41,0,0,1-1.42-1.39V121.63a2.08,2.08,0,0,1,1.41-2,58.3,58.3,0,0,1,18.59-3.29c17.42,0,36.18,9.77,47,23.27Zm-14.3-19.19a.7.7,0,0,1,.56-1.27c15.38,5.72,29.15,15.38,37.38,26.74h-7.46C327.7,135.66,316.73,126.68,304.19,120.47Z"/><path class="cls-26" d="M304.19,120.47c12.54,6.21,23.51,15.19,30.48,25.47h7.46c-8.23-11.36-22-21-37.38-26.74A.7.7,0,0,0,304.19,120.47Z"/><path class="cls-9" d="M255.09,143.24a2.67,2.67,0,0,0,2.34-2.91v-9.28a2.66,2.66,0,0,0-2.34-2.91H250a2.66,2.66,0,0,0-2.34,2.91v9.28a2.67,2.67,0,0,0,2.34,2.91h.14v1.15H250a2.66,2.66,0,0,0-2.34,2.9v2h9.81v-2a2.66,2.66,0,0,0-2.34-2.9H255v-1.15Z"/><path class="cls-27" d="M254.24,143.24a2.67,2.67,0,0,0,2.34-2.91v-9.28a2.66,2.66,0,0,0-2.34-2.91H249.1a2.66,2.66,0,0,0-2.34,2.91v9.28a2.67,2.67,0,0,0,2.34,2.91h.14v1.15h-.14a2.66,2.66,0,0,0-2.34,2.9v2h9.81v-2a2.66,2.66,0,0,0-2.34-2.9h-.14v-1.15Z"/><path class="cls-9" d="M221,143.83a2.4,2.4,0,0,0,2.11-2.63v-8.37a2.4,2.4,0,0,0-2.11-2.63h-4.64a2.4,2.4,0,0,0-2.11,2.63v8.37a2.4,2.4,0,0,0,2.11,2.63h.13v1h-.13a2.4,2.4,0,0,0-2.11,2.62v1.76h8.85v-1.76a2.4,2.4,0,0,0-2.11-2.62h-.13v-1Z"/><path class="cls-27" d="M220.34,143.83a2.4,2.4,0,0,0,2.11-2.63v-8.37a2.4,2.4,0,0,0-2.11-2.63h-4.64a2.4,2.4,0,0,0-2.11,2.63v8.37a2.4,2.4,0,0,0,2.11,2.63h.13v1h-.13a2.4,2.4,0,0,0-2.11,2.62v1.76h8.85v-1.76a2.4,2.4,0,0,0-2.11-2.62h-.13v-1Z"/><path class="cls-9" d="M216.56,143.83a2.4,2.4,0,0,0,2.11-2.63v-8.37a2.4,2.4,0,0,0-2.11-2.63h-4.64a2.4,2.4,0,0,0-2.11,2.63v8.37a2.4,2.4,0,0,0,2.11,2.63H212v1h-.13a2.4,2.4,0,0,0-2.11,2.62v1.76h8.85v-1.76a2.4,2.4,0,0,0-2.11-2.62h-.13v-1Z"/><path class="cls-27" d="M215.92,143.83A2.4,2.4,0,0,0,218,141.2v-8.37a2.4,2.4,0,0,0-2.11-2.63h-4.64a2.4,2.4,0,0,0-2.11,2.63v8.37a2.4,2.4,0,0,0,2.11,2.63h.13v1h-.13a2.4,2.4,0,0,0-2.11,2.62v1.76H218v-1.76a2.4,2.4,0,0,0-2.11-2.62h-.13v-1Z"/><path class="cls-14" d="M193.33,149.29h49.1V113.73c-19.94,6.69-38.64,18.81-50.23,33.32A1.39,1.39,0,0,0,193.33,149.29Zm44.19-3.36H202.79a1.39,1.39,0,0,1-1.12-2.25c8.42-10.23,21.71-18.75,35.85-23.49Z"/><path class="cls-28" d="M193.33,149.29h49.1V113.73c-19.94,6.69-38.64,18.81-50.23,33.32A1.39,1.39,0,0,0,193.33,149.29Z"/><path class="cls-14" d="M309.07,136.28c-2.74-1.24-7.65,8.88-8.2,10a1,1,0,0,0,.12,1.06c.74,1,3.95,1.92,4.75,1.92h.07a.76.76,0,0,0,.65-.43C307,147.71,311.8,137.53,309.07,136.28Zm-1.56,2.92a27.21,27.21,0,0,1-1.8,6.72,5.78,5.78,0,0,1-1.33-.63A27,27,0,0,1,307.51,139.2Z"/><path class="cls-14" d="M339.16,137.71c.27.26.53.53.79.8v-.8Z"/><path class="cls-14" d="M274.58,108.12a102.36,102.36,0,0,0-32.15,5.6v35.57H352.71a1.39,1.39,0,0,0,1.15-2.21C337.19,124.8,304.65,108.12,274.58,108.12Zm-26.85,37.81V116.17a92.56,92.56,0,0,1,28-4.69c23.12,0,47.92,10.86,63.4,26.22h.79v.8a64.27,64.27,0,0,1,6.28,7.43Z"/><path class="cls-28" d="M274.58,108.12a102.36,102.36,0,0,0-32.15,5.6v35.57H352.71a1.39,1.39,0,0,0,1.15-2.21C337.19,124.8,304.65,108.12,274.58,108.12Z"/><path class="cls-25" d="M318.49,139.65c-3-.09-4,1.33-6.47,5.87l13.65,0v-5.9Z"/><path class="cls-29" d="M347.24,145.93H247.73V115.86A93.43,93.43,0,0,1,276,111.13C303.39,111.13,333,126.16,347.24,145.93Z"/><path class="cls-16" d="M341.27,148.83c-3.07.93-10.47-.81-11.35-1.35a2.38,2.38,0,0,1-1-1.72c-.63-4.09.17-6.22,2.23-8.86a3.79,3.79,0,0,1,1.47-1.1c2-.55,8.19,1.27,10.94,4.37a2.56,2.56,0,0,1,.86,2.14s-.56,4.22-1.38,5.35A3.59,3.59,0,0,1,341.27,148.83Z"/><path class="cls-30" d="M341.27,148.83c-3.07.93-10.47-.81-11.35-1.35a2.36,2.36,0,0,1-1-1.72c-1.31-8.84,6.9.33,15.5-3.46a20.54,20.54,0,0,1-1.38,5.35A2.89,2.89,0,0,1,341.27,148.83Z"/><path class="cls-31" d="M341.27,148.83c-3.07.93-10.47-.81-11.35-1.35a2.38,2.38,0,0,1-1-1.72c-.63-4.09.17-6.22,2.23-8.86a3.79,3.79,0,0,1,1.47-1.1c2-.55,8.19,1.27,10.94,4.37a2.56,2.56,0,0,1,.86,2.14s-.56,4.22-1.38,5.35A3.59,3.59,0,0,1,341.27,148.83Z"/><path class="cls-29" d="M237.52,119.75v26.19H202.2a1.41,1.41,0,0,1-1.14-2.29C209.62,133.25,223.14,124.58,237.52,119.75Z"/><circle class="cls-30" cx="259.68" cy="161.71" r="6.42"/><rect class="cls-32" x="254.65" y="159.15" width="12.26" height="5.12"/><rect class="cls-30" x="255.17" y="162.2" width="11.17" height="2.08"/><path class="cls-4" d="M254.65,159.15h10.1a2.16,2.16,0,0,1,2.16,2.16v.79a2.16,2.16,0,0,1-2.16,2.16h-10.1a0,0,0,0,1,0,0v-5.12a0,0,0,0,1,0,0Z"/><rect class="cls-32" x="248.63" y="159.15" width="6.02" height="5.12"/><rect class="cls-30" x="249.1" y="162.2" width="5.03" height="2.08"/><path class="cls-4" d="M250.8,159.15h3.85a0,0,0,0,1,0,0v5.12a0,0,0,0,1,0,0H250.8a2.16,2.16,0,0,1-2.16-2.16v-.79A2.16,2.16,0,0,1,250.8,159.15Z"/><circle class="cls-30" cx="251.93" cy="161.71" r="1.33"/><path class="cls-22" d="M140.09,191.84l-2,4.58h-5.91l-.5-2.45a6.67,6.67,0,0,1,0-2.13Z"/><path class="cls-4" d="M140.09,191.84l-2,4.58h-5.91l-.5-2.45a6.67,6.67,0,0,1,0-2.13Z"/><path class="cls-20" d="M428.9,194.17h-5.85l-1.22-3.47h6.39A5.46,5.46,0,0,1,428.9,194.17Z"/><path class="cls-4" d="M428.9,194.17h-5.85l-1.22-3.47h6.39A5.46,5.46,0,0,1,428.9,194.17Z"/><path class="cls-14" d="M428.41,198.12l-1.72,8.42a5.5,5.5,0,0,1-1.32-3.75C425.37,200.32,426.71,198.29,428.41,198.12Z"/><circle class="cls-14" cx="179.44" cy="210.12" r="26.73"/><path class="cls-20" d="M153.32,204.81c2.07-10.5,10-18.45,20.82-20.82,5.31-1.17-6.31,2.19-12.61,8.44S152.28,210,153.32,204.81Z"/><circle class="cls-33" cx="179.44" cy="210.12" r="26.73"/><circle class="cls-19" cx="179.44" cy="210.12" r="19.61"/><path class="cls-34" d="M199,210.12a19.61,19.61,0,1,1-39.21,0c0-3.38,3-16,8.62-9.24C183.38,218.74,199,206.68,199,210.12Z"/><path class="cls-14" d="M184.93,212.17a5.86,5.86,0,0,1-11-.15l-1.26.34a7.16,7.16,0,0,0,13.54.19Z"/><path class="cls-14" d="M190.4,213.82a11.57,11.57,0,0,1-22-.31l-1.52.41a13.14,13.14,0,0,0,25,.35Z"/><path class="cls-14" d="M192.2,214.37a13.45,13.45,0,0,1-25.64-.36l-1.3.35a14.8,14.8,0,0,0,28.22.4Z"/><polygon class="cls-20" points="181 206.57 178.04 206.59 176.39 191.03 182.5 191 181 206.57"/><polygon class="cls-20" points="176.56 207.54 175.66 210.36 160.34 207.12 162.2 201.3 176.56 207.54"/><polygon class="cls-20" points="176.1 212.07 178.5 213.79 170.69 227.35 165.73 223.79 176.1 212.07"/><polygon class="cls-20" points="180.26 213.9 182.65 212.15 193.13 223.76 188.21 227.38 180.26 213.9"/><polygon class="cls-20" points="183.29 210.5 182.36 207.69 196.65 201.31 198.57 207.11 183.29 210.5"/><polygon class="cls-33" points="181 206.57 178.04 206.59 176.39 191.03 182.5 191 181 206.57"/><polygon class="cls-33" points="176.56 207.54 175.66 210.36 160.34 207.12 162.2 201.3 176.56 207.54"/><polygon class="cls-33" points="176.1 212.07 178.5 213.79 170.69 227.35 165.73 223.79 176.1 212.07"/><polygon class="cls-33" points="180.26 213.9 182.65 212.15 193.13 223.76 188.21 227.38 180.26 213.9"/><polygon class="cls-33" points="183.29 210.5 182.36 207.69 196.65 201.31 198.57 207.11 183.29 210.5"/><path class="cls-20" d="M179.44,190.51A19.61,19.61,0,1,0,199,210.12,19.61,19.61,0,0,0,179.44,190.51Zm0,36.56a17,17,0,1,1,17-17A17,17,0,0,1,179.44,227.07Z"/><circle class="cls-33" cx="179.44" cy="210.12" r="19.61"/><circle class="cls-20" cx="179.44" cy="210.12" r="5.07"/><circle class="cls-33" cx="179.44" cy="210.12" r="5.07"/><circle class="cls-14" cx="177.77" cy="207.81" r="0.88"/><circle class="cls-14" cx="176.76" cy="210.98" r="0.88" transform="translate(-78.52 313.89) rotate(-72)"/><circle class="cls-14" cx="179.46" cy="212.92" r="0.88" transform="translate(-98.28 232.95) rotate(-54)"/><circle class="cls-14" cx="182.14" cy="210.95" r="0.88" transform="translate(-89.21 147.35) rotate(-36)"/><circle class="cls-14" cx="181.09" cy="207.8" r="0.88" transform="translate(-55.35 66.13) rotate(-18)"/><circle class="cls-33" cx="179.44" cy="210.12" r="16.95"/><circle class="cls-14" cx="382.85" cy="210.12" r="26.69"/><path class="cls-20" d="M388.15,184c10.48,2.07,18.42,10,20.79,20.79,1.17,5.3-2.18-6.3-8.43-12.59S382.92,183,388.15,184Z"/><circle class="cls-35" cx="382.85" cy="210.12" r="26.69"/><circle class="cls-19" cx="382.85" cy="210.12" r="19.58"/><path class="cls-34" d="M401.45,204a19.58,19.58,0,0,1-37.19,12.23c-1.06-3.21-2.15-16.08,5.29-11.45C389.28,217.06,400.38,200.74,401.45,204Z"/><path class="cls-14" d="M386.65,214.57a5.85,5.85,0,0,1-9.6-3.69h-1.32a7.15,7.15,0,0,0,11.84,4.61Z"/><path class="cls-14" d="M390.68,218.6a11.54,11.54,0,0,1-19.35-7.72h-1.57a13.11,13.11,0,0,0,22,8.82Z"/><path class="cls-14" d="M382.85,223.55a13.45,13.45,0,0,1-13.41-12.67H368.1a14.76,14.76,0,0,0,24.87,10l-.95-.95A13.38,13.38,0,0,1,382.85,223.55Z"/><polygon class="cls-20" points="386.39 211.67 386.37 208.72 401.91 207.07 401.94 213.17 386.39 211.67"/><polygon class="cls-20" points="385.42 207.23 382.61 206.34 385.84 191.05 391.65 192.9 385.42 207.23"/><polygon class="cls-20" points="380.9 206.78 379.18 209.18 365.64 201.38 369.2 196.43 380.9 206.78"/><polygon class="cls-20" points="379.08 210.94 380.83 213.32 369.23 223.78 365.62 218.87 379.08 210.94"/><polygon class="cls-20" points="382.47 213.96 385.27 213.03 391.64 227.3 385.85 229.21 382.47 213.96"/><polygon class="cls-35" points="386.39 211.67 386.37 208.72 401.91 207.07 401.94 213.17 386.39 211.67"/><polygon class="cls-35" points="385.42 207.23 382.61 206.34 385.84 191.05 391.65 192.9 385.42 207.23"/><polygon class="cls-35" points="380.9 206.78 379.18 209.18 365.64 201.38 369.2 196.43 380.9 206.78"/><polygon class="cls-35" points="379.08 210.94 380.83 213.32 369.23 223.78 365.62 218.87 379.08 210.94"/><polygon class="cls-35" points="382.47 213.96 385.27 213.03 391.64 227.3 385.85 229.21 382.47 213.96"/><path class="cls-20" d="M402.43,210.12a19.58,19.58,0,1,0-19.58,19.58A19.58,19.58,0,0,0,402.43,210.12Zm-36.5,0A16.92,16.92,0,1,1,382.85,227,16.92,16.92,0,0,1,365.93,210.12Z"/><circle class="cls-35" cx="382.85" cy="210.12" r="19.58"/><circle class="cls-20" cx="382.85" cy="210.12" r="5.06"/><circle class="cls-35" cx="382.85" cy="210.12" r="5.06"/><circle class="cls-14" cx="385.15" cy="208.45" r="0.88"/><circle class="cls-14" cx="381.99" cy="207.43" r="0.88" transform="translate(66.67 506.63) rotate(-72)"/><circle class="cls-14" cx="380.05" cy="210.13" r="0.88" transform="translate(-13.33 394.09) rotate(-54)"/><circle class="cls-14" cx="382.02" cy="212.81" r="0.88" transform="matrix(0.81, -0.59, 0.59, 0.81, -52.13, 265.19)"/><circle class="cls-14" cx="385.17" cy="211.76" r="0.88" transform="translate(-46.59 129.39) rotate(-18)"/><circle class="cls-35" cx="382.85" cy="210.12" r="16.92"/><line class="cls-36" x1="364.06" y1="117.77" x2="349.6" y2="117.77"/><line class="cls-36" x1="381.64" y1="122.61" x2="355.93" y2="122.61"/><line class="cls-36" x1="166.08" y1="110.11" x2="150.79" y2="110.11"/><line class="cls-36" x1="173.33" y1="114.95" x2="149.31" y2="114.95"/><line class="cls-36" x1="267.85" y1="62.91" x2="261.44" y2="62.91"/><line class="cls-36" x1="285.45" y1="62.91" x2="278.01" y2="62.91"/><line class="cls-36" x1="292.7" y1="67.74" x2="268.69" y2="67.74"/><line class="cls-36" x1="303.75" y1="67.74" x2="297.82" y2="67.74"/><line class="cls-36" x1="61.91" y1="193.29" x2="49.15" y2="193.29"/><line class="cls-36" x1="73.16" y1="193.29" x2="70.81" y2="193.29"/><line class="cls-36" x1="67.95" y1="198.12" x2="56.4" y2="198.12"/><path class="cls-36" d="M267.85,62.91a5.23,5.23,0,0,1,10.16,0"/><path class="cls-36" d="M61.91,193.29a5.14,5.14,0,0,1,8.9,0"/><path class="cls-36" d="M143.16,110.11a4,4,0,0,1,7.63,0"/><line class="cls-36" x1="48.49" y1="237.18" x2="456.17" y2="237.18"/><line class="cls-36" x1="19.09" y1="237.18" x2="40.38" y2="237.18"/><line class="cls-36" x1="7.77" y1="237.18" x2="13.43" y2="237.18"/></g></g></svg>