<svg xmlns="http://www.w3.org/2000/svg" viewBox="0 0 522.5 234.85"><defs><style>.cls-1,.cls-8{fill:#f5f5f5;}.cls-2{fill:none;stroke:#333;stroke-linecap:round;stroke-miterlimit:10;}.cls-3{fill:#fff;}.cls-4,.cls-9{fill:#c1c1c1;}.cls-5{fill:#ff7b84;}.cls-6{fill:#f7d022;}.cls-7{fill:#e5df67;}.cls-8{opacity:0.51;}.cls-9{opacity:0.3;}</style></defs><title>Asset 1</title><g id="Layer_2" data-name="Layer 2"><g id="Layer_1-2" data-name="Layer 1"><path class="cls-1" d="M522.5,157.95v.36a15.07,15.07,0,0,1-15.07,15.06H406.2c-9.57,0-17.32,6.76-17.32,15.08v.33c0,8.32,7.76,15.07,17.35,15.08h76.94a15.06,15.06,0,0,1,15.06,15.06v.36a15.06,15.06,0,0,1-15.06,15.06H27a15.07,15.07,0,0,1-15.07-15.06v-.36A15.07,15.07,0,0,1,27,203.86h99.73a17.74,17.74,0,0,0,2.08-.12c8.6-.89,15.27-7.25,15.27-15v-.33a13.88,13.88,0,0,0-4-9.6,18.35,18.35,0,0,0-12.46-5.46h0l-.88,0H107.51a15.2,15.2,0,0,1-2-.14,15,15,0,0,1-13-14.92v-.36a15.06,15.06,0,0,1,15.06-15.06h21.32c12.76,0,18-6.76,18-15.08v-.33c0-8.33-5.21-15.08-18-15.08h-62A15.06,15.06,0,0,1,51.72,97.34V97A15.07,15.07,0,0,1,66.78,81.91h94.1c10.34,0,18.73-6.75,18.73-15.08V66.5c0-8.31-8.37-15.06-18.69-15.07H106.08A15.07,15.07,0,0,1,91,36.36V36a15.06,15.06,0,0,1,15.06-15.06H361.77A15.06,15.06,0,0,1,376.83,36v.36a15.07,15.07,0,0,1-15.06,15.07h-2.4c-10.33,0-18.69,6.76-18.69,15.07v.33c0,8.33,8.38,15.08,18.73,15.08h57.17A15.07,15.07,0,0,1,431.64,97v.36a15.06,15.06,0,0,1-15.06,15.06H374.46c-12.81,0-18,6.75-18,15.08v.33c0,8.32,5.2,15,18,15.08h133A15.07,15.07,0,0,1,522.5,157.95Z"/><line class="cls-2" x1="399.99" y1="156" x2="385.52" y2="156"/><line class="cls-2" x1="417.56" y1="160.84" x2="391.85" y2="160.84"/><line class="cls-2" x1="357.2" y1="218.06" x2="329.91" y2="218.06"/><line class="cls-2" x1="390.35" y1="222.89" x2="341.85" y2="222.89"/><line class="cls-2" x1="128" y1="111.43" x2="112.72" y2="111.43"/><line class="cls-2" x1="135.25" y1="116.26" x2="111.23" y2="116.26"/><line class="cls-2" x1="354.74" y1="84.78" x2="348.33" y2="84.78"/><line class="cls-2" x1="372.34" y1="84.78" x2="364.9" y2="84.78"/><line class="cls-2" x1="379.59" y1="89.61" x2="355.58" y2="89.61"/><line class="cls-2" x1="390.64" y1="89.61" x2="384.71" y2="89.61"/><line class="cls-2" x1="73.84" y1="194.61" x2="61.07" y2="194.61"/><line class="cls-2" x1="85.08" y1="194.61" x2="82.73" y2="194.61"/><line class="cls-2" x1="79.88" y1="199.44" x2="68.32" y2="199.44"/><path class="cls-2" d="M354.74,84.78a5.23,5.23,0,0,1,10.16,0"/><path class="cls-2" d="M73.84,194.61a5.14,5.14,0,0,1,8.9,0"/><path class="cls-2" d="M105.08,111.43a4,4,0,0,1,7.63,0"/><line class="cls-2" x1="60.42" y1="234.34" x2="458.5" y2="234.34"/><line class="cls-2" x1="0.5" y1="234.34" x2="52.3" y2="234.34"/><line class="cls-2" x1="471.59" y1="234.34" x2="495.5" y2="234.34"/><path class="cls-3" d="M310.29,59.72a20.82,20.82,0,0,1-1.44,7.65h-.22A38.85,38.85,0,0,0,285.38,75H274.8a21,21,0,0,1-6.62-15.32V59.6c1,.08,2,.12,3,.12a39,39,0,0,0,27.28-11.1,39.18,39.18,0,0,0,4.31-5A21,21,0,0,1,310.29,59.72Z"/><path class="cls-4" d="M303.36,44.13s-15,29.7-24.86,30.92h6.88s8.62-8.38,23.25-7.67C308.62,67.37,315.72,58.11,303.36,44.13Z"/><path class="cls-2" d="M310.29,59.72a20.82,20.82,0,0,1-1.44,7.65h-.22A38.85,38.85,0,0,0,285.38,75H274.8a21,21,0,0,1-6.62-15.32V59.6c1,.08,2,.12,3,.12a39,39,0,0,0,27.28-11.1,39.18,39.18,0,0,0,4.31-5A21,21,0,0,1,310.29,59.72Z"/><line class="cls-2" x1="299.76" y1="48.62" x2="298.5" y2="48.62"/><line class="cls-2" x1="299.76" y1="57.43" x2="284.44" y2="57.43"/><line class="cls-2" x1="299.76" y1="66.23" x2="269.21" y2="66.23"/><line class="cls-2" x1="285.38" y1="75.04" x2="274.8" y2="75.04"/><path class="cls-2" d="M310.29,59.72a20.82,20.82,0,0,1-1.44,7.65h-.22A38.85,38.85,0,0,0,285.38,75H274.8a21,21,0,0,1-6.62-15.32V59.6c1,.08,2,.12,3,.12a39,39,0,0,0,27.28-11.1,39.18,39.18,0,0,0,4.31-5A21,21,0,0,1,310.29,59.72Z"/><path class="cls-4" d="M307.69,218.14v10.78a5.44,5.44,0,0,1-5.43,5.43H164.76a5.44,5.44,0,0,1-5.43-5.43V26.2a5.44,5.44,0,0,1,5.43-5.43h13.91c3.11,1.6,7.55,3.83,12,6.3,7.41,4.08,14.95,8.79,16.74,12.33a50.82,50.82,0,0,0,8.65,12.25,51.14,51.14,0,0,0,5.3,4.8,50.48,50.48,0,0,0,12.42,7.18c.59.25,1.18.47,1.78.69a50.24,50.24,0,0,0,13.2,2.83v.15a27.14,27.14,0,0,0,1.34,8.45s0,.1,0,.15a28.11,28.11,0,0,0,1.19,3,27.33,27.33,0,0,0,6,8.29h13.74a49.49,49.49,0,0,0-5.94,5.16,51,51,0,0,0-5.27,6.27A50.76,50.76,0,0,0,251,121.51a50.92,50.92,0,0,0-.41,6.46,51.42,51.42,0,0,0,1.77,13.28,50.75,50.75,0,0,0,37.45,36.14c3.71.86,1.73,11,5.69,11C297.65,188.39,305.6,218.4,307.69,218.14Z"/><path class="cls-3" d="M291.61,206.84v10.79a5.42,5.42,0,0,1-5.42,5.42l-126.86,5.87V26.2a5.44,5.44,0,0,1,5.43-5.43h13.91c3.11,1.6,7.55,3.83,12,6.3a6.86,6.86,0,0,1,.66,1A50.85,50.85,0,0,0,216.1,51.65c1.12.5,2.26,1,3.42,1.37a50,50,0,0,0,13.21,2.83V56a27.06,27.06,0,0,0,1.09,7.63c.08.28.16.56.25.83a27.1,27.1,0,0,0,7.26,11.44h13.74c-1.28.94-2.51,2-3.69,3-.77.69-1.52,1.41-2.25,2.15a50.54,50.54,0,0,0-14.2,29.15,49.41,49.41,0,0,0-.41,6.47c0,1.68.08,3.33.24,5a49.4,49.4,0,0,0,1.52,8.3A50.78,50.78,0,0,0,264.7,163a49.78,49.78,0,0,0,9,3c1.94.45,2.32,3.42,2.81,6.16.46,2.52,1,4.84,2.88,4.84C281.58,177.09,289.52,207.11,291.61,206.84Z"/><path class="cls-2" d="M307.69,218.14v10.78a5.42,5.42,0,0,1-5.42,5.42H164.76a5.43,5.43,0,0,1-5.42-5.42V26.2a5.43,5.43,0,0,1,5.42-5.42h13.91C185,24,204.57,33.72,207.45,39.4a50.86,50.86,0,0,0,14,17,50.53,50.53,0,0,0,14.19,7.86,50.05,50.05,0,0,0,13.21,2.83v.15a27.3,27.3,0,0,0,8.6,19.9h13.74a49.71,49.71,0,0,0-5.94,5.16A50.57,50.57,0,0,0,250.59,128c0,1.68.08,3.34.24,5a49.33,49.33,0,0,0,1.52,8.31,50.82,50.82,0,0,0,37.46,36.14c3.71.86,1.73,11,5.69,11C297.65,188.39,305.6,218.4,307.69,218.14Z"/><path class="cls-5" d="M221.4,56.45V79.78A5.43,5.43,0,0,1,216,85.21H181a5.43,5.43,0,0,1-5.42-5.42v-35A5.43,5.43,0,0,1,181,39.4h26.42A50.86,50.86,0,0,0,221.4,56.45Z"/><path class="cls-2" d="M221.4,56.45V79.78A5.43,5.43,0,0,1,216,85.21H181a5.43,5.43,0,0,1-5.42-5.42v-35A5.43,5.43,0,0,1,181,39.4h26.42A50.86,50.86,0,0,0,221.4,56.45Z"/><line class="cls-2" x1="259.93" y1="98.63" x2="175.6" y2="98.63"/><line class="cls-2" x1="253.85" y1="110.07" x2="175.6" y2="110.07"/><line class="cls-2" x1="235.6" y1="64.32" x2="229.39" y2="64.32"/><line class="cls-2" x1="250.14" y1="75.75" x2="229.39" y2="75.75"/><polyline class="cls-2" points="271.14 87.19 257.4 87.19 229.39 87.19"/><path class="cls-6" d="M289.81,177.39v4.23a5.42,5.42,0,0,1-5.42,5.42H249.44a5.42,5.42,0,0,1-5.42-5.42V146.67a5.42,5.42,0,0,1,5.42-5.42h2.91A50.82,50.82,0,0,0,289.81,177.39Z"/><path class="cls-2" d="M289.81,177.39v4.23a5.42,5.42,0,0,1-5.42,5.42H249.44a5.42,5.42,0,0,1-5.42-5.42V146.67a5.42,5.42,0,0,1,5.42-5.42h2.91A50.82,50.82,0,0,0,289.81,177.39Z"/><line class="cls-2" x1="236.03" y1="190.14" x2="175.6" y2="190.14"/><line class="cls-2" x1="236.03" y1="178.7" x2="175.6" y2="178.7"/><line class="cls-2" x1="236.03" y1="167.26" x2="175.6" y2="167.26"/><line class="cls-2" x1="236.03" y1="155.82" x2="175.6" y2="155.82"/><line class="cls-2" x1="236.03" y1="144.38" x2="175.6" y2="144.38"/><line class="cls-2" x1="251" y1="121.51" x2="175.6" y2="121.51"/><line class="cls-2" x1="250.84" y1="132.94" x2="175.6" y2="132.94"/><line class="cls-2" x1="175.6" y1="201.57" x2="289.82" y2="201.57"/><line class="cls-2" x1="175.6" y1="213.01" x2="289.82" y2="213.01"/><path class="cls-2" d="M257.4,87.19h13.74a49.71,49.71,0,0,0-5.94,5.16"/><path class="cls-4" d="M350.86,145.45a52,52,0,0,1-3.81,5.1c-.77.9-1.57,1.77-2.39,2.61a49.83,49.83,0,0,1-6.07,5.32l-23.4-19.91a5.42,5.42,0,0,0-7.65.62L303,144.5l-.06.07-16.16,19a48.32,48.32,0,0,1-7.32-4.22c-1.35-.94-2.66-1.94-4-3a52.19,52.19,0,0,1-4.65-4.5,50.71,50.71,0,0,1-3.26-64.32c.67-.92,1.39-1.82,2.14-2.71l.18-.22a48.6,48.6,0,0,1,4.24-4.36Z"/><path class="cls-3" d="M342.57,155.19a20.38,20.38,0,0,1-4,3.29l-23.4-19.91a5.42,5.42,0,0,0-7.65.62L303,144.5l-.06.07-16.16,19a48.32,48.32,0,0,1-7.32-4.22c-1.35-.94-2.66-1.94-4-3a52.19,52.19,0,0,1-4.65-4.5,50.71,50.71,0,0,1-3.26-64.32c.64-.66,3.88-4.75,4.56-5.36C272.18,82.16,343.14,154.43,342.57,155.19Z"/><path class="cls-2" d="M350.86,145.44a49.94,49.94,0,0,1-3.81,5.1,51.37,51.37,0,0,1-8.46,7.93l-23.4-19.91a5.42,5.42,0,0,0-7.65.62l-20.75,24.4a49.46,49.46,0,0,1-7.32-4.22c-1.35-.94-2.66-1.94-3.94-3a52.13,52.13,0,0,1-4.66-4.5,50.4,50.4,0,0,1-13-29.71,49.59,49.59,0,0,1-.09-7.87,50.41,50.41,0,0,1,12-29.45l.18-.22a49.15,49.15,0,0,1,4.24-4.37Z"/><line class="cls-2" x1="278.59" y1="107.45" x2="259.23" y2="130.21"/><line class="cls-2" x1="287.31" y1="114.86" x2="264.01" y2="142.26"/><line class="cls-2" x1="269.88" y1="100.04" x2="257.78" y2="114.26"/><line class="cls-2" x1="296.02" y1="122.27" x2="270.87" y2="151.84"/><line class="cls-2" x1="304.73" y1="129.68" x2="279.48" y2="159.37"/><path class="cls-2" d="M269.94,84.59l-.19.22a50.46,50.46,0,0,0-12,29.45,49.71,49.71,0,0,0,.08,7.87"/><path class="cls-2" d="M350.86,145.44a49.94,49.94,0,0,1-3.81,5.1,51.37,51.37,0,0,1-8.46,7.93l-23.4-19.91a5.42,5.42,0,0,0-7.65.62l-20.75,24.4a49.46,49.46,0,0,1-7.32-4.22c-1.35-.94-2.66-1.94-3.94-3a52.13,52.13,0,0,1-4.66-4.5,50.4,50.4,0,0,1-13-29.71,49.59,49.59,0,0,1-.09-7.87,50.41,50.41,0,0,1,12-29.45l.18-.22a49.15,49.15,0,0,1,4.24-4.37Z"/><path class="cls-7" d="M284.23,198.24a50.83,50.83,0,0,1,37.68,35.91l-32,.2a5.4,5.4,0,0,1-5.45-5.38Z"/><path class="cls-2" d="M284.23,198.24a50.83,50.83,0,0,1,37.68,35.91l-32,.2a5.4,5.4,0,0,1-5.45-5.38Z"/><path class="cls-6" d="M284.23,198.24a50.83,50.83,0,0,1,37.68,35.91l-32,.2a5.4,5.4,0,0,1-5.45-5.38Z"/><path class="cls-2" d="M284.23,198.24a50.83,50.83,0,0,1,37.68,35.91l-32,.2a5.4,5.4,0,0,1-5.45-5.38Z"/><path class="cls-2" d="M284.23,198.24a50.83,50.83,0,0,1,37.68,35.91l-32,.2a5.4,5.4,0,0,1-5.45-5.38Z"/><path class="cls-4" d="M334.37,10.27l-8.89,39.08A38.78,38.78,0,0,0,320.94,48a21.28,21.28,0,0,0-.63-24.77A39.27,39.27,0,0,0,332,5.47,4.23,4.23,0,0,1,334.37,10.27Z"/><path class="cls-2" d="M334.37,10.27l-8.89,39.08A38.78,38.78,0,0,0,320.94,48a21.28,21.28,0,0,0-.63-24.77A39.27,39.27,0,0,0,332,5.47,4.23,4.23,0,0,1,334.37,10.27Z"/><path class="cls-7" d="M230.19,41.66,228.11,53.1a50.84,50.84,0,0,1-10.67-19.27l8.39,1.52A5.43,5.43,0,0,1,230.19,41.66Z"/><path class="cls-2" d="M230.19,41.66,228.11,53.1a50.84,50.84,0,0,1-10.67-19.27l8.39,1.52A5.43,5.43,0,0,1,230.19,41.66Z"/><path class="cls-5" d="M230.19,41.66,228.11,53.1a50.84,50.84,0,0,1-10.67-19.27l8.39,1.52A5.43,5.43,0,0,1,230.19,41.66Z"/><path class="cls-2" d="M230.19,41.66,228.11,53.1a50.84,50.84,0,0,1-10.67-19.27l8.39,1.52A5.43,5.43,0,0,1,230.19,41.66Z"/><path class="cls-2" d="M230.19,41.66,228.11,53.1a50.84,50.84,0,0,1-10.67-19.27l8.39,1.52A5.43,5.43,0,0,1,230.19,41.66Z"/><path class="cls-3" d="M297.17,31.28A37.38,37.38,0,0,1,283,45.71a37.74,37.74,0,0,1-5.74,2.69,37.54,37.54,0,0,1-28.35-.93q-1.35-.6-2.64-1.3a37.12,37.12,0,0,1-8.09-5.91,37.48,37.48,0,0,1-7.24-9.61l3.51-7.87a4,4,0,0,0-2-5.31l-5.77-2.57A37.29,37.29,0,0,1,228.72.68L296.49,30.9A4.19,4.19,0,0,1,297.17,31.28Z"/><path class="cls-2" d="M297.17,31.28A37.38,37.38,0,0,1,283,45.71a37.74,37.74,0,0,1-5.74,2.69,37.54,37.54,0,0,1-28.35-.93q-1.35-.6-2.64-1.3a37.12,37.12,0,0,1-8.09-5.91,37.48,37.48,0,0,1-7.24-9.61l3.51-7.87a4,4,0,0,0-2-5.31l-5.77-2.57A37.29,37.29,0,0,1,228.72.68L296.49,30.9A4.19,4.19,0,0,1,297.17,31.28Z"/><line class="cls-2" x1="240.89" y1="22.89" x2="281.82" y2="41.14"/><polyline class="cls-2" points="277.26 48.4 253.37 37.74 237.43 30.64"/><polyline class="cls-2" points="238.18 40.26 247.25 44.3 261.44 50.63"/><path class="cls-2" d="M246.28,46.16q1.29.69,2.64,1.3a37.54,37.54,0,0,0,28.35.93A37.74,37.74,0,0,0,283,45.71"/><path class="cls-2" d="M297.17,31.28A37.38,37.38,0,0,1,283,45.71a37.74,37.74,0,0,1-5.74,2.69,37.54,37.54,0,0,1-28.35-.93q-1.35-.6-2.64-1.3a37.12,37.12,0,0,1-8.09-5.91,37.48,37.48,0,0,1-7.24-9.61l3.51-7.87a4,4,0,0,0-2-5.31l-5.77-2.57A37.29,37.29,0,0,1,228.72.68L296.49,30.9A4.19,4.19,0,0,1,297.17,31.28Z"/><path class="cls-2" d="M330.22,176.41A27,27,0,0,0,364.32,153"/><path class="cls-2" d="M368.43,153.63a27,27,0,0,1-37.71,30.05"/><path class="cls-2" d="M356,46.44a37.58,37.58,0,0,0,2.64-6.64c4-13.64-.14-27-9.23-30.9"/><path class="cls-2" d="M344.21,3.58a16,16,0,0,1,5.08.62c12.51,3.66,18.15,22,12.61,40.94a51.36,51.36,0,0,1-6.18,13.6"/><path class="cls-2" d="M169.46,10.78a24.47,24.47,0,0,0-4.65,0c-9.2.94-16.25,6.7-16.38,13.15"/><path class="cls-2" d="M312.43,4.14a24.47,24.47,0,0,0-4.65,0c-9.2.94-16.25,6.7-16.38,13.15"/><path class="cls-2" d="M146.49,28.39a10.39,10.39,0,0,1-.87-3.21c-.86-8.44,8.81-16.34,21.6-17.65a33.44,33.44,0,0,1,9.72.39"/><path class="cls-2" d="M298.24,10.69a12.24,12.24,0,0,1,12.05-3.35"/><path class="cls-2" d="M323.55,62.3s1.81,16.78-13.26,17.43"/><path class="cls-2" d="M315.23,82.49s6.64-1.73,8.38-6.74"/><path class="cls-8" d="M126.75,173.37H107.51a15.2,15.2,0,0,1-2-.14c-3.25-6,5.62-10,10.78-7,2.67,1.55,6.64,4.44,11.38,7.18Z"/><path class="cls-9" d="M237.74,224.95h0c0,3-3.4,4.88-7.83,5.37l-.18.12a35.5,35.5,0,0,1-16.14,3.89c-.34,0-.67,0-1,0-1,0-1.93,0-2.89-.13-9.46-.8-20.38-1.76-31.64-5.76-14.88,2.58-16.5-.47-32.74-8.24-13.49-6.46-8.25-11,1-13.51-.85-1-1.69-1.94-2.52-3,8.6-.89,15.27-7.25,15.27-15v-.33a13.88,13.88,0,0,0-4-9.6,26.15,26.15,0,0,0,13.72.36c15.07-4,8.45-26,8.45-26,11.9,1,16.37,18,16.37,18s13.19-8,25.16-5c7.68,1.92,11.45,8,11.45,12,0,2.29-1.18,4-3.51,4,0,0-3.79,10.48,8.91,22C241.54,209.56,241.91,218.86,237.74,224.95Z"/><path class="cls-4" d="M140.75,228.45c9.28,4,19.72,5,28.79,5.76a47.58,47.58,0,0,0,21.88-3.75l10.75-5.5c7.19-6.09,11.42-15.39,8.16-20.75-7-11.51,2-22,2-22L115.42,180c0,11.08,1.62,19.82,4.35,26.73Z"/><path class="cls-2" d="M140.75,228.45c9.28,4,19.72,5,28.79,5.76a47.58,47.58,0,0,0,21.88-3.75l10.75-5.5c7.19-6.09,11.42-15.39,8.16-20.75-7-11.51,2-22,2-22L115.42,180c0,11.08,1.62,19.82,4.35,26.73Z"/><path class="cls-3" d="M177.24,153.21s-4.29,22-21.34,26-26.2-9-31.13-13S102,170.72,115.42,180s25.89,23.24,12.16,25.24-28.22,7-15.48,15,12.48,11,30.11,8,31.43-14,35-4,26.31,7,25.46-2,10.85-3,0-18,3.12-22,9.63-22,10.49-13,0-16-27.65,5-27.65,5S188.64,154.21,177.24,153.21Z"/><path class="cls-4" d="M134.84,188.53s1.8,13.52,11.14,14.19,22.5-5,19.17,4.43-14.89,19.15-14.89,19.15l9-3s-.57-3.31,5.47-6.56c8.89-4.78,14.89-14,8.27-16.23s-12.39-.74-17.91-1A28.34,28.34,0,0,1,134.84,188.53Z"/><path class="cls-4" d="M175.28,169.5s-6,3-6,7.46-.67,17.92,3.16,20.42,11.84,1.87,13.67,4.19-.67,6-4.5,8,11.85,7.85,8.94,10.5-2.94,3.83-2.94,3.83,7.69-2.42,5-5.67-10.16-7.29-8.82-8.71c0,0,8.88-.12,7-4.66s1.46-9.7-2.37-8.65c-3.25.89-8.56-1.56-11.54-4.38C171.1,186.39,170.59,177.11,175.28,169.5Z"/><path class="cls-2" d="M177.24,153.21s-4.29,22-21.34,26-26.2-9-31.13-13S102,170.72,115.42,180s25.89,23.24,12.16,25.24-28.22,7-15.48,15,12.48,11,30.11,8,31.43-14,35-4,26.31,7,25.46-2,10.85-3,0-18,3.12-22,9.63-22,10.49-13,0-16-27.65,5-27.65,5S188.64,154.21,177.24,153.21Z"/><path class="cls-2" d="M177.24,166.71s-8.24,9-3.07,20.5,11.31,8,13.49,9,2.18-7,2.18,1,4.62,11.5-4.44,12,19.58,11.5,2.26,13.5"/><path class="cls-2" d="M118.53,182.22c2.34-3.2,5.67-3.77,9.51-5,6.2-2,1.8,9,18.8,9.5s20.24,5.12,20.24,5.12"/><path class="cls-2" d="M134.26,187.71a27,27,0,0,0,21.63,11.5c14.95.5,23.11-.5,18.28,9-3.47,6.82-15.54,10-14.94,15.09"/><path class="cls-6" d="M157.68,213.71s2-13.5-4.83-8.33-1.17,18-10.5,12.67-.18-3.75-1.09-9-4.07-5.71-11.07-1.54-2.83,9.67-8.33,6.5-8.33,3.83,0,8.67,12.17,6.83,14.17,2.5,2.17-4.17,6.5-2.5,12.83-1.33,10.67-5.17S157.68,213.71,157.68,213.71Z"/><path class="cls-2" d="M157.68,213.71s2-13.5-4.83-8.33-1.17,18-10.5,12.67-.18-3.75-1.09-9-4.07-5.71-11.07-1.54-2.83,9.67-8.33,6.5-8.33,3.83,0,8.67,12.17,6.83,14.17,2.5,2.17-4.17,6.5-2.5,12.83-1.33,10.67-5.17S157.68,213.71,157.68,213.71Z"/><path class="cls-5" d="M178.82,185.47s1.35,10.12,5.55,4.83-3-13.14,5.44-11.51,1,2.64,2.78,6.15,4.39,3.13,8.94-1.49.12-7.57,5.08-6.6,5.65-4.69-1.86-6.2-10.93-2-11.55,1.53-.79,3.49-4.51,3.31-9.69,4-7.18,6.19S178.82,185.47,178.82,185.47Z"/><path class="cls-2" d="M178.82,185.47s1.35,10.12,5.55,4.83-3-13.14,5.44-11.51,1,2.64,2.78,6.15,4.39,3.13,8.94-1.49.12-7.57,5.08-6.6,5.65-4.69-1.86-6.2-10.93-2-11.55,1.53-.79,3.49-4.51,3.31-9.69,4-7.18,6.19S178.82,185.47,178.82,185.47Z"/></g></g></svg>