<svg xmlns="http://www.w3.org/2000/svg" width="49" height="65" viewBox="0 0 49 65">
  <path fill="#FF7B84" fill-rule="evenodd" d="M1109.68125,383.434263 L1109.68125,383.434986 L1108.30182,383.434986 C1107.09067,383.434986 1105.95968,383.780204 1105.00058,384.378919 L1105.00058,330.65847 C1105.00058,329.191653 1106.19295,328 1107.65688,328 L1109.68125,328 L1109.68125,383.434263 Z M1149.99755,386.395052 C1149.19228,387.509429 1149.03628,388.614416 1149.02617,389.254298 C1149.00884,390.568005 1149.51366,391.875213 1150.39621,392.9997 L1108.30196,392.9997 C1106.48054,392.9997 1105,391.517717 1105,389.695571 C1105,387.874869 1106.48054,386.395052 1108.30196,386.395052 L1149.99755,386.395052 Z M1151.01674,328.000072 C1152.485,328.000072 1153.67593,329.190281 1153.67521,330.658542 L1153.67521,379.820376 C1153.67521,381.815854 1152.05672,383.434336 1150.06125,383.434336 L1112.64045,383.434336 L1112.64045,328.000072 L1151.01674,328.000072 Z" transform="translate(-1105 -328)"/>
</svg>
